<svg width="32" height="32" viewBox="0 0 32 32" fill="none" xmlns="http://www.w3.org/2000/svg">
<path d="M26.2867 9.22667L26.9 7.73333C26.9 7.73333 26.1334 6.9 25.1867 5.96C24.24 5.02 22.2467 5.56 22.2467 5.56L20 3H12L9.73338 5.58C9.73338 5.58 7.73338 5.03333 6.79338 5.97333C5.85338 6.91333 5.08004 7.75333 5.08004 7.75333L5.69338 9.24667L4.92004 11.4533C4.92004 11.4533 7.20671 20.12 7.46671 21.1533C8.00004 23.2267 8.35338 24.0333 9.84671 25.1C11.34 26.1667 14.0467 27.9733 14.5134 28.2533C14.9416 28.6183 15.4516 28.8745 16 29C16.4934 29 17.0467 28.5267 17.5 28.2533C17.9534 27.98 20.6534 26.14 22.1667 25.1C23.68 24.06 24 23.2467 24.5334 21.1533L27.08 11.4533L26.2867 9.22667Z" fill="#FF6520" stroke="#FF6520" stroke-width="2" stroke-linecap="round" stroke-linejoin="round"/>
<path d="M12.4733 21.0133C11.7427 20.2529 11.107 19.4067 10.58 18.4933C10.4451 18.1438 10.394 17.7674 10.4311 17.3946C10.4682 17.0217 10.5922 16.6628 10.7933 16.3466C10.8685 16.1363 10.8706 15.9067 10.7992 15.695C10.7279 15.4833 10.5872 15.3019 10.4 15.18C10.2067 14.9666 8.58667 13.2533 8.21334 12.8533C7.84001 12.4533 7.46667 12.2866 7.46667 11.52C7.46667 10.7533 10.38 7.22665 10.38 7.22665C10.38 7.22665 12.8467 7.69998 13.18 7.69998C13.7658 7.59152 14.3396 7.42629 14.8933 7.20665C15.2495 7.07842 15.6222 7.00208 16 6.97998L14.8933 7.19998C15.2498 7.07402 15.6225 6.99993 16 6.97998C16.3775 6.99993 16.7502 7.07402 17.1067 7.19998C17.6604 7.41963 18.2342 7.58485 18.82 7.69331C19.1533 7.69331 21.62 7.21998 21.62 7.21998C21.62 7.21998 24.5333 10.7466 24.5333 11.5133C24.5333 12.28 24.16 12.46 23.7867 12.8466C23.4133 13.2333 21.7867 14.96 21.6 15.1733C21.4128 15.2952 21.2722 15.4767 21.2008 15.6884C21.1294 15.9 21.1315 16.1296 21.2067 16.34C21.4078 16.6561 21.5319 17.0151 21.5689 17.3879C21.606 17.7608 21.555 18.1371 21.42 18.4866C20.8931 19.4001 20.2573 20.2463 19.5267 21.0066" fill="white"/>
<path d="M21.46 9.87996C20.6375 9.74822 19.8011 9.72803 18.9733 9.81996C18.3639 9.94895 17.7696 10.1411 17.2 10.3933C17.1266 10.5266 17.0466 10.5266 17.1266 11.02C17.2066 11.5133 17.6733 13.82 17.7133 14.2333C17.7533 14.6466 17.8533 14.9 17.4 15.0266C16.926 15.1471 16.4451 15.2384 15.96 15.3C15.4749 15.2378 14.9941 15.1465 14.52 15.0266C14.0866 14.9266 14.1666 14.6466 14.2066 14.2333C14.2466 13.82 14.7 11.5133 14.8 11.02C14.9 10.5266 14.8 10.5266 14.72 10.3933C14.1516 10.1379 13.5569 9.94565 12.9466 9.81996C12.1193 9.71801 11.2814 9.73823 10.46 9.87996M16 19.1666V15.3333ZM19.4266 20.72C19.6066 20.84 19.5066 21.0533 19.3333 21.1533C19.16 21.2533 16.9466 22.9866 16.7466 23.1866C16.5466 23.3866 16.22 23.68 16 23.68C15.78 23.68 15.4666 23.36 15.2533 23.1866C15.04 23.0133 12.8266 21.2733 12.6666 21.1533C12.5066 21.0333 12.3933 20.82 12.5733 20.72C12.7533 20.62 13.32 20.3266 14.0866 19.9133C14.6912 19.5865 15.3338 19.3357 16 19.1666C16.6661 19.3357 17.3087 19.5865 17.9133 19.9133L19.4266 20.72Z" fill="white"/>
<path d="M21.46 9.87996C20.6375 9.74822 19.8011 9.72803 18.9733 9.81996C18.3639 9.94895 17.7696 10.1411 17.2 10.3933C17.1266 10.5266 17.0466 10.5266 17.1266 11.02C17.2066 11.5133 17.6733 13.82 17.7133 14.2333C17.7533 14.6466 17.8533 14.9 17.4 15.0266C16.926 15.1471 16.4451 15.2384 15.96 15.3C15.4749 15.2378 14.9941 15.1465 14.52 15.0266C14.0866 14.9266 14.1666 14.6466 14.2066 14.2333C14.2466 13.82 14.7 11.5133 14.8 11.02C14.9 10.5266 14.8 10.5266 14.72 10.3933C14.1516 10.1379 13.5569 9.94565 12.9466 9.81996C12.1193 9.71801 11.2814 9.73823 10.46 9.87996M16 19.1666V15.3333M16 19.1666C15.3338 19.3357 14.6912 19.5865 14.0866 19.9133C13.32 20.3266 12.7533 20.62 12.5733 20.72C12.3933 20.82 12.5066 21.0333 12.6666 21.1533C12.8266 21.2733 15.04 23.0133 15.2533 23.1866C15.4666 23.36 15.78 23.68 16 23.68C16.22 23.68 16.5466 23.3866 16.7466 23.1866C16.9466 22.9866 19.16 21.2533 19.3333 21.1533C19.5066 21.0533 19.6066 20.84 19.4266 20.72L17.9133 19.9133C17.3087 19.5865 16.6661 19.3357 16 19.1666Z" stroke="#FF6520" stroke-width="1.5" stroke-linecap="round" stroke-linejoin="round"/>
<path d="M18.8392 21.7606C18.9869 21.672 19.1164 21.4053 18.963 21.299L17.6584 20.6046C17.1432 20.3149 16.5429 20.0811 15.9752 19.9313C15.4075 20.0811 14.8071 20.336 14.2919 20.6256C13.6386 20.9919 13.1934 21.2524 13.04 21.341C12.8866 21.4297 13.0214 21.6543 13.1578 21.7606C13.2941 21.867 15.1804 23.4091 15.3622 23.5627C15.544 23.7163 15.811 23.9999 15.9985 23.9999C16.186 23.9999 16.4644 23.74 16.6348 23.5627C16.8053 23.3855 18.6915 21.8493 18.8392 21.7606Z" fill="white"/>
<path d="M18.8392 21.7606C18.9869 21.672 19.1164 21.4053 18.963 21.299L17.6584 20.6046C17.1432 20.3149 16.5429 20.0811 15.9752 19.9313C15.4075 20.0811 14.8071 20.336 14.2919 20.6256C13.6386 20.9919 13.1934 21.2524 13.04 21.341C12.8866 21.4297 13.0214 21.6543 13.1578 21.7606C13.2941 21.867 15.1804 23.4091 15.3622 23.5627C15.544 23.7163 15.811 23.9999 15.9985 23.9999C16.186 23.9999 16.4644 23.74 16.6348 23.5627C16.8053 23.3855 18.6915 21.8493 18.8392 21.7606Z" fill="white"/>
</svg>
