<svg width="32" height="32" viewBox="0 0 32 32" fill="none" xmlns="http://www.w3.org/2000/svg">
<path d="M29.2 16.3125C29.2 15.9214 29.1859 15.5364 29.1586 15.1574C29.0889 14.1924 28.2463 13.5 27.2788 13.5H18C16.8954 13.5 16 14.3954 16 15.5V16.825C16 17.9296 16.8954 18.825 18 18.825H23.4C23.075 20.5375 22.1 21.9875 20.6375 22.9625V26.425H25.1C27.7 24.025 29.2 20.5 29.2 16.3125Z" fill="#4285F4"/>
<path d="M16 29.75C19.7125 29.75 22.825 28.525 25.1 26.425L20.6375 22.9625C19.4125 23.7875 17.85 24.2875 16 24.2875C12.425 24.2875 9.38748 21.875 8.29998 18.625H3.72498V22.175C5.98748 26.6625 10.625 29.75 16 29.75Z" fill="#34A853"/>
<path d="M8.3 18.6125C8.025 17.7875 7.8625 16.9125 7.8625 16C7.8625 15.0875 8.025 14.2125 8.3 13.3875V9.83749H3.725C2.7875 11.6875 2.25 13.775 2.25 16C2.25 18.225 2.7875 20.3125 3.725 22.1625L7.2875 19.3875L8.3 18.6125Z" fill="#FBBC05"/>
<path d="M16 7.725C17.6887 7.725 19.221 8.21184 20.5171 9.15653C20.9535 9.47464 21.5658 9.47163 21.9477 9.08974L24.4675 6.56996C24.8678 6.16967 24.8584 5.51402 24.4169 5.15969C22.1485 3.33899 19.319 2.25 16 2.25C10.625 2.25 5.98748 5.3375 3.72498 9.8375L8.29998 13.3875C9.38748 10.1375 12.425 7.725 16 7.725Z" fill="#EA4335"/>
</svg>
