<svg width="32" height="32" viewBox="0 0 32 32" fill="none" xmlns="http://www.w3.org/2000/svg">
<path fill-rule="evenodd" clip-rule="evenodd" d="M14.6658 11.8868C13.4077 10.9674 11.8744 10.7091 10.4671 11.0471C9.96347 11.168 9.47836 11.3651 9.03058 11.6343C8.08393 12.2035 6.85514 11.8974 6.28599 10.9508C5.71685 10.0041 6.02288 8.77534 6.96953 8.2062C7.77186 7.72382 8.63769 7.37272 9.533 7.15769C12.0319 6.55752 14.7791 7.01533 17.0259 8.65727L18.7145 9.89121C19.5423 10.4961 20.4654 10.9006 21.4214 11.1066C22.1925 11.2728 22.9854 11.31 23.7664 11.2181C24.8634 11.089 25.8573 11.8737 25.9864 12.9707C26.1154 14.0677 25.3307 15.0616 24.2337 15.1907C23.017 15.3338 21.7814 15.2761 20.5787 15.0169C19.0852 14.695 17.6433 14.0626 16.3544 13.1208L14.6658 11.8868ZM20.5787 16.9833C21.7814 16.7241 23.017 16.6664 24.2337 16.8095C25.3307 16.9385 26.1154 17.9325 25.9864 19.0295C25.8573 20.1265 24.8634 20.9111 23.7664 20.7821C22.9854 20.6902 22.1925 20.7274 21.4214 20.8936C20.4654 21.0996 19.5423 21.5041 18.7145 22.109L17.0259 23.3429C14.779 24.9849 12.0319 25.4427 9.533 24.8425C8.63768 24.6275 7.77186 24.2764 6.96953 23.794C6.02288 23.2248 5.71685 21.9961 6.28599 21.0494C6.85514 20.1027 8.08393 19.7967 9.03059 20.3659C9.47836 20.6351 9.96348 20.8321 10.4671 20.9531C11.8744 21.2911 13.4077 21.0327 14.6658 20.1134L16.3544 18.8794C17.6433 17.9376 19.0852 17.3052 20.5787 16.9833Z" fill="#E91212" stroke="white" stroke-width="0.5" stroke-linecap="round" stroke-linejoin="round"/>
<path fill-rule="evenodd" clip-rule="evenodd" d="M14.9741 8.65715C19.088 5.65089 24.8687 6.61047 27.7906 10.7846C29.9826 13.916 29.9826 18.0839 27.7906 21.2153C24.8687 25.3895 19.088 26.3491 14.9741 23.3428L13.2856 22.1089C10.7486 20.2549 7.29814 20.2764 4.78441 22.1617L4.2 22.6C3.31634 23.2627 2.06274 23.0836 1.4 22.2C0.737254 21.3163 0.91634 20.0627 1.8 19.4L2.38441 18.9617C6.30566 16.0207 11.6882 15.9873 15.6456 18.8793L17.3342 20.1132C19.6387 21.7973 22.8769 21.2597 24.5136 18.9215C25.7415 17.1673 25.7415 14.8326 24.5136 13.0785C22.8769 10.7402 19.6387 10.2027 17.3342 11.8867L15.6456 13.1207C11.6882 16.0127 6.30566 15.9792 2.38441 13.0383L1.8 12.6C0.91634 11.9372 0.737254 10.6836 1.4 9.79998C2.06274 8.91632 3.31634 8.73723 4.2 9.39998L4.78441 9.83829C7.29814 11.7236 10.7486 11.745 13.2856 9.89109L14.9741 8.65715Z" fill="#1363BB" stroke="white" stroke-width="0.5" stroke-linecap="round" stroke-linejoin="round"/>
<mask id="mask0_34_2715" style="mask-type:alpha" maskUnits="userSpaceOnUse" x="21" y="8" width="10" height="16">
<rect x="21" y="8" width="10" height="16" fill="#D9D9D9"/>
</mask>
<g mask="url(#mask0_34_2715)">
<path fill-rule="evenodd" clip-rule="evenodd" d="M27.8 9.39999C28.6837 8.73725 29.9373 8.91634 30.6 9.8C31.2627 10.6837 31.0837 11.9373 30.2 12.6L29.6156 13.0383C28.0028 14.2479 26.1409 14.9662 24.2337 15.1906C23.017 15.3337 21.7814 15.276 20.5787 15.0168C19.0853 14.6949 17.6434 14.0628 16.3544 13.1208C15.4626 12.4691 15.2679 11.2178 15.9197 10.326C16.5714 9.43418 17.8227 9.23954 18.7145 9.89125C19.5422 10.4961 20.4652 10.9005 21.4214 11.1065C22.1924 11.2727 22.9854 11.3099 23.7663 11.218C24.9889 11.0742 26.1807 10.6145 27.2156 9.83831L27.8 9.39999ZM20.5787 16.9832C21.7814 16.724 23.017 16.6663 24.2337 16.8094C26.1409 17.0338 28.0028 17.7521 29.6156 18.9617L30.2 19.4C31.0837 20.0627 31.2627 21.3163 30.6 22.2C29.9373 23.0836 28.6837 23.2627 27.8 22.6L27.2156 22.1617C26.1807 21.3855 24.9889 20.9258 23.7663 20.782C22.9854 20.6901 22.1924 20.7273 21.4214 20.8935C20.4655 21.0995 19.5424 21.504 18.7145 22.109C17.8227 22.7607 16.5714 22.5661 15.9197 21.6743C15.2679 20.7825 15.4626 19.5312 16.3544 18.8795C17.6431 17.9377 19.085 17.3051 20.5787 16.9832Z" fill="#E91212" stroke="white" stroke-width="0.5" stroke-linecap="round" stroke-linejoin="round"/>
</g>
<mask id="mask1_34_2715" style="mask-type:alpha" maskUnits="userSpaceOnUse" x="2" y="6" width="9" height="20">
<rect x="2" y="6" width="9" height="20" fill="#D9D9D9"/>
</mask>
<g mask="url(#mask1_34_2715)">
<path d="M14.6658 11.8869C13.4076 10.9674 11.8742 10.709 10.4671 11.047C9.96342 11.168 9.4783 11.365 9.03053 11.6342C8.44043 11.989 7.91144 12.4712 7.48635 13.0785C6.25845 14.8326 6.25845 17.1674 7.48635 18.9215C7.91144 19.5288 8.44043 20.011 9.03053 20.3658C9.4783 20.635 9.96342 20.8321 10.4671 20.953C11.8744 21.291 13.4077 21.0327 14.6658 20.1134C15.5576 19.4617 16.8089 19.6563 17.4606 20.5481C18.1123 21.44 17.9177 22.6912 17.0258 23.343C14.7789 24.9849 12.0318 25.4426 9.53294 24.8424C8.63763 24.6274 7.7718 24.2763 6.96947 23.7939C5.90833 23.1559 4.962 22.2905 4.20943 21.2154C2.01743 18.0839 2.01743 13.9161 4.20943 10.7847C4.962 9.70955 5.90833 8.84409 6.96947 8.20612C7.7718 7.72374 8.63763 7.37263 9.53294 7.15761C12.0319 6.55742 14.7791 7.01542 17.0259 8.6573C17.9177 9.30901 18.1123 10.5603 17.4606 11.4521C16.8089 12.3439 15.5576 12.5386 14.6658 11.8869Z" fill="#E91212" stroke="white" stroke-width="0.5" stroke-linecap="round" stroke-linejoin="round"/>
</g>
</svg>
