<svg width="32" height="32" viewBox="0 0 32 32" fill="none" xmlns="http://www.w3.org/2000/svg">
<path d="M6.06255 8.8749L5.76413 9.47173C5.59172 9.81655 5.52323 10.2023 5.56111 10.5859C5.7367 12.3639 6 15.8004 6 19C6 22.3834 8.35536 25.1484 9.74566 26.2991C9.91127 26.4361 10.1026 26.5359 10.3095 26.5943C11.5514 26.9447 14.4843 27.5 18.5 27.5C22.9 27.5 24.6667 25.5 25 24.5L25.857 22.3576C25.9514 22.1214 26 21.8693 26 21.6148V17L26.5 11V7.97214C26.5 7.66165 26.4277 7.35542 26.2889 7.07771L26.0335 6.5671C25.7066 5.91311 25.0381 5.5 24.3069 5.5C23.5176 5.5 22.8078 5.98058 22.5146 6.71347L22.143 7.64238C22.0485 7.87862 22 8.13073 22 8.38516V10.6716C22 11.202 21.7893 11.7107 21.4142 12.0858L21.26 12.24C20.7942 12.7058 20.1053 12.8684 19.4804 12.6601C19.1666 12.5556 18.8296 12.5426 18.5087 12.6228L17.3361 12.916C17.1137 12.9716 16.9025 13.065 16.7118 13.1922L16.3139 13.4574C15.8004 13.7998 15.1575 13.8858 14.572 13.6907L14.3079 13.6026C14.104 13.5347 13.8904 13.5 13.6754 13.5H12.1834C12.0619 13.5 11.9413 13.5196 11.826 13.558C11.1436 13.7855 10.4251 13.3258 10.3456 12.6108L10.0394 9.85452C10.0133 9.62002 9.94599 9.39199 9.84048 9.18096L9.68316 8.86632C9.27981 8.05963 8.38646 7.62271 7.50207 7.79959L7.45917 7.80817C6.85397 7.9292 6.33856 8.32288 6.06255 8.8749Z" fill="#FDC31F"/>
<path d="M11 17.5V15.5C11 14.1193 12.1193 13 13.5 13V13C14.8807 13 16 14.1193 16 15.5V17" stroke="#FFC826" stroke-width="2" stroke-linecap="round" stroke-linejoin="round"/>
<path d="M16 17V14.5C16 13.1193 17.1193 12 18.5 12V12C19.8807 12 21 13.1193 21 14.5V17" stroke="#FFC826" stroke-width="2" stroke-linecap="round" stroke-linejoin="round"/>
<path d="M21.2845 16.9789L21.8249 7.496C21.9034 6.11752 23.0846 5.06372 24.4631 5.14228V5.14228C25.8415 5.22084 26.8953 6.40199 26.8168 7.78046L25.9919 22.2553" stroke="#FFC826" stroke-width="2" stroke-linecap="round" stroke-linejoin="round"/>
<path d="M19 21.5H15.25C14.0074 21.5 13 20.4927 13 19.25C13 18.0074 14.0074 17 15.25 17H20.9375C23.7334 17 26 19.2666 26 22.0625C26 24.8091 23.8098 27.0548 21.064 27.1234L14.1999 27.295C9.72708 27.4068 6.03679 23.8299 6.00028 19.3644C5.99991 19.32 6.00037 19.2757 6.00093 19.2313C6.00307 19.0608 6.00761 18.5791 6.00001 18C5.95692 14.7192 5.37534 10.857 5.25725 10.1039C5.24334 10.0152 5.23096 9.92835 5.2272 9.83864C5.17198 8.52062 6.15615 7.37454 7.48448 7.24431C8.86059 7.10939 10.0855 8.11557 10.2204 9.49167L11.0038 17.5778C11.0887 18.454 11.6714 19.2026 12.4999 19.5V19.5" stroke="#FFC826" stroke-width="2" stroke-linecap="round" stroke-linejoin="round"/>
<path d="M11 17.5V15.5C11 14.1193 12.1193 13 13.5 13C14.8807 13 16 14.1193 16 15.5V17V14.5C16 13.1193 17.1193 12 18.5 12C19.8807 12 21 13.1193 21 14.5V17M21.2846 16.9789L21.8249 7.49597C21.9035 6.11748 23.0847 5.06368 24.4631 5.14224C25.8416 5.22081 26.8954 6.40196 26.8168 7.78042L25.992 22.2553M19.0001 21.5H15.2501C14.0075 21.5 13.0001 20.4926 13.0001 19.25M13.0001 19.25C13.0001 18.0074 14.0075 17 15.2501 17H20.9376C23.7336 17 26.0001 19.2666 26.0001 22.0625C26.0001 24.8091 23.8099 27.0548 21.0641 27.1234L14.2001 27.295C9.72719 27.4068 6.0369 23.8298 6.00038 19.3644C6.00002 19.32 6.00048 19.2757 6.00104 19.2313C6.00317 19.0608 6.00772 18.5791 6.00011 18C5.95702 14.7192 5.37544 10.857 5.25735 10.1039C5.24344 10.0152 5.23107 9.92834 5.22731 9.83863C5.17209 8.52061 6.15626 7.37454 7.48458 7.2443C8.86069 7.10938 10.0856 8.11556 10.2205 9.49167L11.0039 17.5778C11.0706 18.2655 11.4439 18.8747 12.0021 19.2487C12.2987 19.4475 12.6807 19.4097 13.0001 19.25V19.25Z" stroke="#ECA601" stroke-width="2" stroke-linecap="round" stroke-linejoin="round"/>
</svg>
