<svg width="32" height="32" viewBox="0 0 32 32" fill="none" xmlns="http://www.w3.org/2000/svg">
<path d="M26.2314 14.8553L28.5223 8.56113C28.7382 7.96814 28.3572 7.32669 27.7334 7.23135L26.6914 7.07208C22.9066 6.4936 19.2738 5.17137 16.0026 3.18169L15.102 2.63388C14.5629 2.30595 13.859 2.55171 13.6432 3.1447L11.352 9.43969C9.9981 13.1595 11.9751 18.0917 16.0839 19.5872C20.1927 21.0827 24.8775 18.5752 26.2314 14.8553Z" fill="#2FAD33" stroke="#2FAD33" stroke-width="2"/>
<path d="M5.35197 23.8554C6.70588 27.5752 11.3907 30.0827 15.4995 28.5872C18.0299 27.6663 19.7517 25.4419 20.385 22.9999C17.2362 23.7916 10.3387 23.3874 7.93895 15.4374C6.93732 15.7029 5.92026 15.9149 4.89198 16.0721L3.84994 16.2314C3.22614 16.3267 2.84495 16.9674 3.06078 17.5604L5.35197 23.8554Z" fill="#D65348" stroke="#D65348" stroke-width="2" stroke-linejoin="round"/>
<path d="M20.7851 11.0873C21.0842 10.2655 21.9928 9.84183 22.8146 10.1409C23.6363 10.44 24.0601 11.3487 23.761 12.1704" stroke="white" stroke-width="1.5" stroke-linecap="round"/>
<path d="M14.7704 9.10195C15.0695 8.28019 15.9782 7.85648 16.7999 8.15558C17.6217 8.45468 18.0454 9.36332 17.7463 10.1851" stroke="white" stroke-width="1.5" stroke-linecap="round"/>
<path d="M6.78178 22.3006C6.48268 21.4788 6.90639 20.5702 7.72816 20.2711C8.54992 19.972 9.45856 20.3957 9.75766 21.2174" stroke="white" stroke-width="1.5" stroke-linecap="round"/>
<path d="M20.2903 15.2194C20.2903 15.2194 19.2756 15.6925 17.7876 15.151C16.2997 14.6094 15.8265 13.5947 15.8265 13.5947" stroke="white" stroke-width="1.5" stroke-linecap="round" stroke-linejoin="round"/>
<path d="M10.8914 26.278C10.8914 26.278 11.1812 25.1964 12.5525 24.4047C13.9238 23.613 15.0053 23.9028 15.0053 23.9028" stroke="white" stroke-width="1.5" stroke-linecap="round" stroke-linejoin="round"/>
</svg>
