<svg width="32" height="32" viewBox="0 0 32 32" fill="none" xmlns="http://www.w3.org/2000/svg">
<path d="M5 14L14.3448 18.2476C15.3965 18.7257 16.6035 18.7257 17.6552 18.2476L27 14" stroke="#D82B1F" stroke-width="2" stroke-linecap="round" stroke-linejoin="round"/>
<path d="M5 18L14.3448 22.2476C15.3965 22.7257 16.6035 22.7257 17.6552 22.2476L27 18" stroke="#D82B1F" stroke-width="2" stroke-linecap="round" stroke-linejoin="round"/>
<path d="M14.3448 16.2476L5 12L14.3448 7.75236C15.3965 7.27432 16.6035 7.27432 17.6552 7.75236L27 12L17.6552 16.2476C16.6035 16.7257 15.3965 16.7257 14.3448 16.2476Z" fill="#D82B1F" stroke="#D82B1F" stroke-width="2" stroke-linecap="round" stroke-linejoin="round"/>
<path d="M5 12L14.3448 16.2476C15.3965 16.7257 16.6035 16.7257 17.6552 16.2476L27 12" stroke="#A41E11" stroke-width="2" stroke-linecap="round" stroke-linejoin="round"/>
<path d="M5 16L14.3448 20.2476C15.3965 20.7257 16.6035 20.7257 17.6552 20.2476L27 16" stroke="#A41E11" stroke-width="2" stroke-linecap="round" stroke-linejoin="round"/>
<path d="M5 20L14.3448 24.2476C15.3965 24.7257 16.6035 24.7257 17.6552 24.2476L27 20" stroke="#A41E11" stroke-width="2" stroke-linecap="round" stroke-linejoin="round"/>
<path d="M14.8 10.8257C14.8 11.2675 13.7255 11.7473 12.4 11.7473C11.0745 11.7473 10 11.2675 10 10.8257C10 10.3838 11.0745 9.92261 12.4 9.92261C13.7255 9.92261 14.8 10.3838 14.8 10.8257Z" fill="white"/>
<path d="M15.599 8.82033L14.584 9.18122C14.5032 9.20994 14.5181 9.32837 14.6035 9.33626L16.1372 9.478C16.1627 9.48036 16.1856 9.49484 16.1987 9.51692L16.6874 10.3429C16.7211 10.3998 16.8055 10.3936 16.8304 10.3322L17.1185 9.62285C17.1296 9.59533 17.1552 9.57627 17.1847 9.57334L18.4683 9.44639C18.5524 9.43808 18.5679 9.32208 18.4889 9.29202L17.5946 8.95149C17.5524 8.93541 17.5318 8.88756 17.5493 8.84587L17.7894 8.27159C17.8158 8.20836 17.7557 8.14334 17.6906 8.16472L16.6272 8.51401C16.6096 8.51981 16.5904 8.51928 16.5731 8.51253L15.4636 8.07934C15.3942 8.05225 15.3287 8.12638 15.3641 8.19192L15.6426 8.7069C15.6659 8.75007 15.6452 8.80389 15.599 8.82033Z" fill="white"/>
<path d="M20.7334 9.65148L18.0586 10.7187C17.9917 10.7455 17.9914 10.8401 18.0582 10.8672L20.4596 11.8397C20.4787 11.8474 20.4999 11.8475 20.519 11.84L23.2271 10.7728C23.2944 10.7462 23.2947 10.6509 23.2274 10.624L20.7927 9.6515C20.7737 9.64389 20.7524 9.64389 20.7334 9.65148Z" fill="#A41E11"/>
<path d="M17.8552 11.819L13.8576 12.4291C13.7779 12.4412 13.7642 12.5502 13.8383 12.5818L16.7837 13.8355C16.8212 13.8515 16.8646 13.8367 16.8847 13.8012L17.937 11.9374C17.9698 11.8793 17.9212 11.8089 17.8552 11.819Z" fill="white"/>
</svg>
