<svg width="32" height="32" viewBox="0 0 32 32" fill="none" xmlns="http://www.w3.org/2000/svg">
<path d="M4 20.8609V8.89882C4 8.56447 4.1671 8.25224 4.4453 8.06677L8.99075 5.03647C9.65531 4.59343 10.5455 5.06982 10.5455 5.86852V17.0702C10.5455 17.4214 10.7298 17.7469 11.031 17.9277L15.4855 20.6004C15.8022 20.7904 16.1978 20.7904 16.5145 20.6004L20.969 17.9277C21.2702 17.7469 21.4545 17.4214 21.4545 17.0702V5.86852C21.4545 5.06982 22.3447 4.59343 23.0092 5.03647L27.5547 8.06677C27.8329 8.25224 28 8.56447 28 8.89882V20.8609C28 21.2269 27.8001 21.5636 27.4789 21.7388L16.4789 27.7388C16.1804 27.9016 15.8196 27.9016 15.5211 27.7388L4.52115 21.7388C4.19989 21.5636 4 21.2269 4 20.8609Z" fill="#29ABE2"/>
</svg>
