<svg width="32" height="32" viewBox="0 0 32 32" fill="none" xmlns="http://www.w3.org/2000/svg">
<path d="M18 4C18 2.89543 17.1046 2 16 2C14.8954 2 14 2.89543 14 4H18ZM14 10V12H18V10H14ZM14 4V10H18V4H14Z" fill="#FE4A01"/>
<path d="M18 22V20H14V22H18ZM14 28C14 29.1046 14.8954 30 16 30C17.1046 30 18 29.1046 18 28H14ZM14 22V28H18V22H14Z" fill="#FE4A01"/>
<path d="M28 18C29.1046 18 30 17.1046 30 16C30 14.8954 29.1046 14 28 14L28 18ZM22 14L20 14L20 18L22 18L22 14ZM28 14L22 14L22 18L28 18L28 14Z" fill="#FE4A01"/>
<path d="M25.8995 8.92892C26.6806 8.14787 26.6806 6.88154 25.8995 6.1005C25.1185 5.31945 23.8521 5.31945 23.0711 6.1005L25.8995 8.92892ZM18.8284 10.3431L17.4142 11.7574L20.2426 14.5858L21.6569 13.1716L18.8284 10.3431ZM23.0711 6.1005L18.8284 10.3431L21.6569 13.1716L25.8995 8.92892L23.0711 6.1005Z" fill="#FE4A01"/>
<path d="M23.0711 25.8995C23.8521 26.6806 25.1185 26.6806 25.8995 25.8995C26.6806 25.1185 26.6806 23.8521 25.8995 23.0711L23.0711 25.8995ZM21.6569 18.8284L20.2427 17.4142L17.4142 20.2426L18.8284 21.6569L21.6569 18.8284ZM25.8995 23.0711L21.6569 18.8284L18.8284 21.6569L23.0711 25.8995L25.8995 23.0711Z" fill="#FE4A01"/>
<path d="M4 18C2.89543 18 2 17.1046 2 16C2 14.8954 2.89543 14 4 14L4 18ZM10 14L12 14L12 18L10 18L10 14ZM4 14L10 14L10 18L4 18L4 14Z" fill="#FE4A01"/>
<path d="M6.10043 8.92898C5.31939 8.14794 5.31939 6.88161 6.10043 6.10056C6.88148 5.31951 8.14781 5.31951 8.92886 6.10056L6.10043 8.92898ZM13.1715 10.3432L14.5857 11.7574L11.7573 14.5858L10.3431 13.1716L13.1715 10.3432ZM8.92886 6.10056L13.1715 10.3432L10.3431 13.1716L6.10043 8.92898L8.92886 6.10056Z" fill="#FE4A01"/>
<path d="M8.92886 25.8994C8.14781 26.6805 6.88148 26.6805 6.10044 25.8994C5.31939 25.1184 5.31939 23.8521 6.10043 23.071L8.92886 25.8994ZM10.3431 18.8284L11.7573 17.4142L14.5857 20.2426L13.1715 21.6568L10.3431 18.8284ZM6.10043 23.071L10.3431 18.8284L13.1715 21.6568L8.92886 25.8994L6.10043 23.071Z" fill="#FE4A01"/>
</svg>
