<svg width="32" height="32" fill="none" xmlns="http://www.w3.org/2000/svg"><path
    fill-rule="evenodd"
    clip-rule="evenodd"
    d="M14.5 11a1 1 0 0 1 .942.664l1.956 5.478a.91.91 0 0 1 .016.044l.528 1.478a1 1 0 1 1-1.884.672l-.298-.836h-2.52l-.298.836a1 1 0 1 1-1.884-.672l.528-1.478a.91.91 0 0 1 .016-.044l1.956-5.478A1 1 0 0 1 14.5 11Zm.545 5.5-.545-1.527-.545 1.527h1.09Z"
    fill="#000"
  /><path d="M21 12a1 1 0 1 0-2 0v7a1 1 0 1 0 2 0v-7Z" fill="#000" /><path
    fill-rule="evenodd"
    clip-rule="evenodd"
    d="M2 10a4 4 0 0 1 4-4h20a4 4 0 0 1 4 4v12a4 4 0 0 1-4 4H6a4 4 0 0 1-4-4V10Zm4-2a2 2 0 0 0-2 2v12a2 2 0 0 0 2 2h20a2 2 0 0 0 2-2V10a2 2 0 0 0-2-2H6Z"
    fill="#000"
  /></svg>
