<svg width="32" height="32" fill="none" xmlns="http://www.w3.org/2000/svg"><path
    fill-rule="evenodd"
    clip-rule="evenodd"
    d="M16.894 4.33a2 2 0 0 0-1.788 0l-7.67 3.834c-1.507.754-1.463 2.92.074 3.612l7.67 3.451a2 2 0 0 0 1.64 0l7.67-3.45c1.537-.692 1.581-2.86.073-3.613l-7.669-3.835ZM16 6.117l7.669 3.834L16 13.403l-7.669-3.45L16 6.117Zm9.18 6.606A2 2 0 0 1 28 14.547v7.588a2 2 0 0 1-1.226 1.844l-8 3.36A2 2 0 0 1 16 25.495v-7.348a2 2 0 0 1 1.18-1.824l8-3.6Zm.82 1.824-8 3.6v7.348l8-3.36v-7.588ZM4 14.58a2 2 0 0 1 2.856-1.807l6.351 3.008c1.457.69 1.54 2.731.146 3.539l-6.35 3.676C5.668 23.768 4 22.806 4 21.266V14.58Zm8.351 3.009L6 14.58v6.686l6.351-3.677Z"
    fill="#000"
  /></svg>
