<svg width="32" height="32" fill="none" xmlns="http://www.w3.org/2000/svg"><path
    fill-rule="evenodd"
    clip-rule="evenodd"
    d="M11.442 12.664a1 1 0 0 0-1.884 0l-2.5 7a1 1 0 1 0 1.884.672l.298-.836h2.52l.298.836a1 1 0 1 0 1.884-.672l-2.5-7Zm-.942 3.31.545 1.526h-1.09l.545-1.527ZM15 13a1 1 0 0 1 1-1h2.5a3 3 0 1 1 0 6H17v2a1 1 0 1 1-2 0v-7Zm2 3h1.5a1 1 0 1 0 0-2H17v2Z"
    fill="#000"
  /><path
    d="M23.5 12a1 1 0 0 1 1 1v7a1 1 0 1 1-2 0v-7a1 1 0 0 1 1-1Zm2.793 2.707L27.586 16l-1.293 1.293a1 1 0 0 0 1.414 1.414l2-2a1 1 0 0 0 0-1.414l-2-2a1 1 0 0 0-1.414 1.414ZM5.707 17.293a1 1 0 1 1-1.414 1.414l-2-2a1 1 0 0 1 0-1.414l2-2a1 1 0 0 1 1.414 1.414L4.414 16l1.293 1.293Z"
    fill="#000"
  /></svg>
