<svg width="32" height="32" fill="none" xmlns="http://www.w3.org/2000/svg"><path
    fill-rule="evenodd"
    clip-rule="evenodd"
    d="M24.022 3.15a3 3 0 0 1 3.207 2.618l1.577 12.617a3 3 0 0 1-1.79 3.128l-.05.021a1 1 0 0 1-1.312-.516l-7.07-16.116a1 1 0 0 1 .84-1.399l4.598-.354Zm1.222 2.866a1 1 0 0 0-1.069-.873l-3.193.246 5.846 13.327a.996.996 0 0 0-.006-.082L25.244 6.016Zm-9.457-1.132a1 1 0 0 1 .122 1.034l-8.5 18.5a1 1 0 0 1-1.902-.298L3.732 9.476A3 3 0 0 1 6.15 6.168l8.664-1.65a1 1 0 0 1 .974.366Zm-2.506 1.961L6.523 8.133a1 1 0 0 0-.805 1.102l1.35 11.135L13.28 6.845Zm5.129 2.738a1 1 0 0 0-1.824.01l-8 18a1 1 0 0 0 1.32 1.32l13.5-6a1 1 0 0 0 .503-1.33l-5.5-12ZM11.47 26.03l6.044-13.6 4.155 9.067-10.2 4.533Z"
    fill="#000"
  /></svg>
