<svg width="32" height="32" fill="none" xmlns="http://www.w3.org/2000/svg"><path d="M5.548 4.478a1 1 0 0 0-1.07 1.07l.39 5.34a1 1 0 0 0 1.995-.146l-.195-2.66 5.17 5.171a1 1 0 1 0 1.415-1.414l-5.17-5.17 2.66.194a1 1 0 0 0 .146-1.995l-5.341-.39Zm21.995 1.07a1 1 0 0 0-1.07-1.07l-5.34.39a1 1 0 0 0 .145 1.995l2.66-.195-5.17 5.17a1 1 0 1 0 1.414 1.415l5.17-5.17-.194 2.66a1 1 0 0 0 1.994.146l.391-5.341ZM4.478 26.473a1 1 0 0 0 1.07 1.07l5.34-.39a1 1 0 0 0-.146-1.995l-2.66.194 5.171-5.17a1 1 0 1 0-1.414-1.414l-5.17 5.17.194-2.66a1 1 0 0 0-1.995-.146l-.39 5.34Zm22.775.78a1 1 0 0 1-.78.29l-5.34-.39a1 1 0 1 1 .145-1.995l2.66.194-5.17-5.17a1 1 0 0 1 1.414-1.414l5.17 5.17-.194-2.66a1 1 0 1 1 1.994-.146l.391 5.34a1 1 0 0 1-.29.781Z" fill="#000"/></svg>