<svg width="32" height="32" fill="none" xmlns="http://www.w3.org/2000/svg"><path d="m12.707 6.293 4 4a1 1 0 0 1 0 1.414l-4 4a1 1 0 0 1-1.414-1.414l2.197-2.197c-2.793.217-5.204.786-6.92 1.549-.918.408-1.588.85-2.016 1.283C4.131 15.357 4 15.716 4 16c0 .312.16.72.694 1.206.535.486 1.364.97 2.473 1.396C9.378 19.452 12.5 20 16 20s6.622-.547 8.833-1.398c1.11-.426 1.938-.91 2.473-1.396.534-.485.694-.894.694-1.206 0-.36-.22-.857-.97-1.436-.738-.57-1.863-1.11-3.318-1.548a22.891 22.891 0 0 0-3.352-.718 1 1 0 0 1 .28-1.98c1.316.186 2.544.451 3.648.783 1.588.478 2.964 1.108 3.964 1.88C29.242 13.742 30 14.758 30 16c0 1.07-.567 1.975-1.349 2.686-.781.71-1.856 1.305-3.1 1.783C23.058 21.428 19.681 22 16 22c-3.68 0-7.058-.572-9.551-1.531-1.244-.478-2.319-1.072-3.1-1.783C2.567 17.976 2 17.07 2 16c0-.966.465-1.803 1.131-2.477.662-.67 1.573-1.237 2.626-1.706 2.05-.912 4.822-1.53 7.907-1.739l-2.371-2.37a1 1 0 0 1 1.414-1.415Z" fill="#000"/></svg>