<svg width="32" height="32" fill="none" xmlns="http://www.w3.org/2000/svg"><path fill-rule="evenodd" clip-rule="evenodd" d="M5 7.035C5 5.91 5.911 5 7.035 5h5.087a1.017 1.017 0 0 1 .72 1.737L10.507 9.07l8.14 8.139H23.4c.54 0 1.057.214 1.439.596l3.56 3.56c1.283 1.282.375 3.474-1.438 3.474H24.84v2.122c0 1.813-2.192 2.72-3.473 1.439l-3.561-3.561a2.035 2.035 0 0 1-.596-1.439v-4.752l-8.14-8.14-2.332 2.333A1.017 1.017 0 0 1 5 12.121V7.036Zm14.244 13.647V23.4l3.56 3.561v-2.718l-3.56-3.56Zm5 2.122h2.717l-3.56-3.56h-2.719l3.561 3.56ZM9.665 7.034h-2.63v2.632l2.63-2.631Z" fill="#000"/></svg>