<svg width="32" height="32" fill="none" xmlns="http://www.w3.org/2000/svg"><path fill-rule="evenodd" clip-rule="evenodd" d="M22.5 4a4.5 4.5 0 0 0-4.397 3.544l-6.436.858a4 4 0 1 0-1.21 4.754l8.655 5.466c-.053.202-.087.41-.103.621l-5.51 1.575A4.995 4.995 0 0 0 9 18a5 5 0 1 0 4.994 4.756l5.447-1.556a3.5 3.5 0 1 0 .705-4.29l-8.464-5.346c.16-.376.261-.775.3-1.186l6.144-.82A4.5 4.5 0 1 0 22.5 4Zm-1.768 2.732a2.5 2.5 0 1 1 3.536 3.536 2.5 2.5 0 0 1-3.536-3.536ZM8 8a2 2 0 1 0 0 4 2 2 0 0 0 0-4Zm14.5 10a1.5 1.5 0 1 0 0 3 1.5 1.5 0 0 0 0-3ZM9 20a3 3 0 1 0 0 6 3 3 0 0 0 0-6Z" fill="#000"/></svg>