<svg width="32" height="32" fill="none" xmlns="http://www.w3.org/2000/svg"><path
    fill-rule="evenodd"
    clip-rule="evenodd"
    d="M6.053 8.597a1 1 0 0 1 1-1H8.21a3.526 3.526 0 0 1 3.526 3.526v4.842a1 1 0 0 1-1.733.681 3.105 3.105 0 1 1-.277-5.693A1.527 1.527 0 0 0 8.21 9.597H7.053a1 1 0 0 1-1-1Zm3.684 5.263a1.105 1.105 0 1 0-2.21 0 1.105 1.105 0 0 0 2.21 0Z"
    fill="#000"
  /><path
    d="M23.825 8.08c.473.092.966.274 1.347.566a1 1 0 0 1-1.215 1.588c-.063-.048-.237-.137-.516-.191a2.133 2.133 0 0 0-.799-.01c-.246.049-.397.139-.481.228-.07.074-.161.216-.161.535 0 .157.031.214.038.226.007.013.026.042.1.086.2.119.51.192 1.066.308l.045.01c.457.094 1.124.233 1.665.579.304.195.59.465.793.84.203.374.293.795.293 1.245 0 1.523-1.1 2.454-2.232 2.77-1.108.31-2.486.122-3.45-.774a1 1 0 0 1 1.363-1.464c.367.34.989.47 1.548.313.536-.15.771-.47.771-.845 0-.18-.035-.262-.051-.291a.298.298 0 0 0-.113-.11c-.191-.122-.497-.202-1.04-.315l-.088-.019c-.443-.09-1.08-.222-1.596-.53a2.237 2.237 0 0 1-.806-.804A2.419 2.419 0 0 1 20 10.796c0-.762.243-1.415.704-1.905.445-.473 1.018-.715 1.552-.82a4.13 4.13 0 0 1 1.57.009Zm-.488 10.978a1 1 0 0 0-.674 1.884l.888.317-.903.453C20.867 22.498 18.42 23 15.757 23c-2.042 0-3.962-.295-5.555-.79-1.61-.503-2.803-1.184-3.475-1.896a1 1 0 0 0-1.454 1.372c.998 1.059 2.551 1.877 4.335 2.433 1.802.561 3.924.881 6.149.881 2.9 0 5.641-.545 7.723-1.47a.954.954 0 0 0 .043-.02l1.066-.534-.169.823a1 1 0 1 0 1.96.402l.6-2.926a1 1 0 0 0-.643-1.142l-3-1.075ZM15 9a1 1 0 1 0-2 0v7a1 1 0 0 0 1.894.447L16 14.237l1.106 2.21A1 1 0 0 0 19 16V9a1 1 0 1 0-2 0v2.764l-.106-.211a1 1 0 0 0-1.788 0l-.106.21V9Z"
    fill="#000"
  /></svg>
