<svg width="32" height="32" fill="none" xmlns="http://www.w3.org/2000/svg"><path
    fill-rule="evenodd"
    clip-rule="evenodd"
    d="M12.28 5.113a.9.9 0 0 1 .098-.005h7.36c.77 0 1.44.496 1.683 1.213l6.363 18.842a2.081 2.081 0 0 1-.268 1.86 2.05 2.05 0 0 1-1.67.869H18.71c-.563.068-1.167-.103-1.681-.61l-3.246-3.2-.844 2.497a1.867 1.867 0 0 1-.673.915 1.843 1.843 0 0 1-1.083.351H6.025a1.907 1.907 0 0 1-1.563-.815 1.941 1.941 0 0 1-.25-1.74l6.374-18.887a1.856 1.856 0 0 1 1.693-1.29Zm2.052 1.78 4.19 12.404a.863.863 0 0 1 .008.023l1.947 5.77c.12.354.143.698.092 1.018h5.278c.04 0 .08-.01.115-.028a.267.267 0 0 0 .095-.084.29.29 0 0 0 .037-.261L19.738 6.894l-5.406-.002Zm-2.017.018c-.006.005-.024.018-.04.063L5.902 25.86a.164.164 0 0 0 .02.144c.014.02.03.034.049.043.018.01.037.014.056.014h5.158a.062.062 0 0 0 .036-.012.083.083 0 0 0 .029-.04l1.122-3.32-2.484-2.449a.892.892 0 0 1 .627-1.527h3.195l1.366-4.04-2.598-7.7c-.016-.044-.033-.057-.04-.062a.11.11 0 0 0-.06-.016.11.11 0 0 0-.062.016Zm3.702 10.546.424 1.256h-.85l.426-1.256Zm-1.656 3.04h-1.673l5.593 5.515c.077.075.14.092.184.095a.319.319 0 0 0 .19-.054.345.345 0 0 0 .137-.162.324.324 0 0 0-.005-.23l-1.742-5.164H14.36Z"
    fill="#000"
  /></svg>
