<svg width="32" height="32" fill="none" xmlns="http://www.w3.org/2000/svg"><path d="M11 17.5a1.5 1.5 0 1 0 0-3 1.5 1.5 0 0 0 0 3ZM22.5 16a1.5 1.5 0 1 1-3 0 1.5 1.5 0 0 1 3 0Zm-10.207 5.293a1 1 0 0 1 1.404-.01l.008.007a2.7 2.7 0 0 0 .492.315c.378.19.976.395 1.803.395s1.425-.206 1.803-.394a2.7 2.7 0 0 0 .492-.316l.008-.007a1 1 0 0 1 1.404 1.424L19 22l.707.707-.001.002-.002.001-.003.003-.008.008-.02.02a3.347 3.347 0 0 1-.26.215 4.69 4.69 0 0 1-.716.438c-.622.312-1.524.606-2.697.606s-2.075-.294-2.697-.606a4.69 4.69 0 0 1-.716-.438 3.347 3.347 0 0 1-.26-.215l-.02-.02-.008-.008-.003-.003-.002-.002L13 22l-.706.708a1 1 0 0 1-.001-1.415Z" fill="#000"/><path fill-rule="evenodd" clip-rule="evenodd" d="M30 16c0-7.727-6.26-13.993-13.986-14h-.03C8.259 2.009 2 8.273 2 16c0 7.732 6.268 14 14 14s14-6.268 14-14ZM4 16C4 9.395 9.336 4.037 15.932 4c.345.054.87.235 1.299.596.419.353.769.89.769 1.767 0 .861-.33 1.21-.635 1.39-.381.227-.891.276-1.241.233a1 1 0 1 0-.248 1.984c.65.082 1.64.019 2.509-.496C19.33 8.914 20 7.892 20 6.363c0-.688-.134-1.286-.358-1.8C24.49 6.105 28 10.643 28 16c0 6.627-5.373 12-12 12S4 22.627 4 16Z" fill="#000"/></svg>