<svg width="32" height="32" fill="none" xmlns="http://www.w3.org/2000/svg"><path d="m28.095 11.13-.67-1.87.47-1.14c.15-.36.07-.77-.19-1.06 0 0-.78-.85-1.75-1.81-.95-.94-2.42-.9-3.27-.78l-1.87-2.13a.98.98 0 0 0-.75-.34h-8a.98.98 0 0 0-.75.34l-1.89 2.15c-.85-.13-2.33-.17-3.28.78-.96.96-1.74 1.81-1.74 1.81-.26.29-.34.7-.19 1.06l.47 1.14-.63 1.85c-.07.19-.07.39-.02.59 0 0 2.28 8.66 2.54 9.69.56 2.16.99 3.24 2.77 4.51 1.46 1.04 4.02 2.76 4.66 3.15.54.44 1.17.75 1.85.91.07.02.15.03.22.03.68 0 1.26-.39 1.72-.7.1-.07.2-.13.29-.19.54-.32 3.66-2.46 4.72-3.19 1.78-1.22 2.19-2.27 2.77-4.52l2.55-9.7c.05-.19.04-.4-.02-.59l-.01.01Zm-7.75 5.56c.02.07.06.14.1.2.12.18.19.39.21.61.02.19 0 .39-.06.57-.32.54-.69 1.04-1.08 1.53l-1.04-.55a10.1 10.1 0 0 0-1.39-.61v-2.28c.22-.04.44-.1.67-.15.81-.23 1.17-.81 1.05-1.73v-.13c-.04-.3-.16-.7-.35-1.34-.07-.24-.15-.51-.21-.72.32-.12.64-.21.92-.27.74-.08 1.49-.06 2.22.05a1.004 1.004 0 0 0 .32-1.98c-.91-.15-1.84-.17-2.85-.05-.68.14-1.34.36-1.97.64-.17.08-.36.26-.46.42-.27.4-.27.78-.19 1.28.05.3.18.73.32 1.19.07.23.17.58.23.79-.24.05-.48.09-.72.13a9.07 9.07 0 0 1-.72-.13c.06-.24.18-.64.26-.91.12-.41.24-.81.29-1.04.1-.51.11-.94-.2-1.34-.11-.17-.26-.31-.45-.4-.63-.29-1.3-.5-2.06-.65a9.6 9.6 0 0 0-2.78.07c-.54.09-.91.61-.82 1.16.09.55.61.91 1.16.82a7.61 7.61 0 0 1 2.12-.07c.34.07.68.17 1.01.28-.05.18-.11.39-.18.6-.21.7-.34 1.14-.37 1.45v.11c-.14 1.21.51 1.62 1.06 1.75.24.06.48.11.73.16v2.27c-.48.17-.94.37-1.39.61-.42.23-.77.41-1.04.56-.39-.48-.76-.98-1.08-1.52-.06-.18-.08-.38-.06-.57.02-.22.09-.43.21-.61.04-.06.07-.13.1-.2.15-.42.15-.88.01-1.31a2.04 2.04 0 0 0-.68-.95c-.21-.23-.73-.78-1.21-1.29l-.91-.97-.26-.26c-.18-.17-.21-.2-.22-.31.18-.48 1.26-1.97 2.31-3.28 1.03.19 2.1.38 2.4.38.06 0 .12 0 .18-.02.64-.12 1.27-.3 1.85-.53l.85-.17c.24.02.48.07.67.14.61.24 1.25.43 1.9.55.06.01.12.02.18.02.25 0 1.06-.13 2.4-.38 1.05 1.31 2.13 2.8 2.31 3.28 0 .12-.04.15-.23.33-.08.07-.16.15-.24.23-.33.34-1.74 1.84-2.14 2.27-.31.24-.55.57-.68.95-.14.42-.14.89.01 1.31l-.01.01Zm-2.41 4.33c-.75.59-1.68 1.33-1.82 1.46-.01.01-.02.02-.04.03l-.12-.1c-.13-.11-1.04-.83-1.76-1.38.14-.07.28-.15.43-.23.46-.25.94-.45 1.44-.59.5.15.98.34 1.44.59l.41.22h.02Zm-5.41-17.01h7.09l1.95 2.22s.01 0 .02.01h-.08c-1 .19-2.21.41-2.55.45-.48-.1-.96-.24-1.44-.43-.44-.16-.9-.25-1.37-.27h-.14c-.47.03-.93.12-1.37.27-.05.02-.09.04-.13.06-.42.16-.86.29-1.3.38-.37-.05-1.56-.26-2.56-.45h-.08l1.97-2.24h-.01Zm11.11 16.91c-.51 1.98-.75 2.53-1.96 3.37-1.62 1.11-4.2 2.87-4.62 3.12-.12.07-.25.16-.37.24-.16.11-.42.28-.55.34-.33-.1-.63-.27-.89-.49a.71.71 0 0 0-.14-.1c-.41-.24-3.06-2.01-4.6-3.11-1.24-.89-1.5-1.47-1.99-3.38-.23-.92-2.07-7.89-2.47-9.42l.67-1.92c.08-.23.08-.48-.02-.71l-.37-.9c.31-.33.76-.79 1.25-1.29.35-.36 1.39-.29 1.97-.14.05.02.11.02.17.02 0 0-.02.01-.03.02-3.14 3.8-3.14 4.62-3.14 4.93 0 1.05.51 1.53.84 1.84.06.05.12.11.17.17l.92.97c.55.58 1.15 1.22 1.26 1.34.05.06.11.11.18.15-.22.4-.36.84-.4 1.29-.05.53.02 1.06.21 1.56.02.05.04.1.07.14.57.98 1.25 1.9 2.04 2.71.06.06.13.09.19.13.04.04.08.08.13.12.17.12 2.34 1.84 2.55 2.01l.11.1c.3.26.71.62 1.26.62.46 0 .91-.24 1.44-.78.21-.2 2.16-1.73 2.39-1.89.12-.07.22-.15.31-.25.03-.03.07-.04.11-.07.79-.82 1.47-1.73 2.04-2.71.03-.04.05-.09.07-.14.19-.49.26-1.03.21-1.56-.04-.45-.18-.89-.4-1.29.07-.05.13-.1.19-.17.16-.18 1.75-1.87 2.15-2.29.05-.06.11-.11.16-.16.34-.32.86-.81.86-1.87 0-.31 0-1.13-3.14-4.93-.01-.02-.03-.02-.04-.04.05 0 .1 0 .16-.02.59-.15 1.62-.21 1.98.14.5.49.94.95 1.25 1.28l-.37.9c-.09.23-.1.48-.02.72l.69 1.94-2.47 9.41-.01.05Z" fill="#000"/></svg>