<svg width="32" height="32" fill="none" xmlns="http://www.w3.org/2000/svg"><path fill-rule="evenodd" clip-rule="evenodd" d="M7.808 3.554C5.759 4.485 4.015 5.974 4 7.974v.05c.003.465.1.903.273 1.313l3.762 16.93.016.05c.375 1.124 1.447 2.036 2.764 2.651C12.17 29.602 13.943 30 16 30c2.057 0 3.83-.398 5.185-1.032 1.317-.615 2.389-1.527 2.764-2.652l.016-.049.764-3.44c.148.012.292.019.433.021 1.162.02 2.143-.266 2.901-.853.756-.585 1.193-1.396 1.407-2.253.315-1.26.097-2.737-.427-3.95-.433-1.005-1.163-2.02-2.188-2.53l.872-3.925A3.416 3.416 0 0 0 28 7.974c-.015-2-1.759-3.489-3.808-4.42C22.044 2.578 19.147 2 16 2c-3.147 0-6.044.578-8.192 1.554Zm.828 1.82C6.79 6.215 6.06 7.17 6.004 7.908l.169.762c.312.622 1.07 1.323 2.463 1.956C10.469 11.458 13.072 12 16 12s5.531-.542 7.364-1.375c1.393-.633 2.15-1.334 2.463-1.956l.17-.762c-.058-.737-.788-1.694-2.633-2.532C21.531 4.542 18.928 4 16 4s-5.531.542-7.364 1.375Zm17.753 9.984-1.22 5.49h.026c.814.014 1.32-.184 1.643-.434.325-.252.56-.632.692-1.157.185-.739.07-1.762-.323-2.673-.233-.54-.52-.95-.818-1.226Zm-3.192 5.145 1.892-8.514c-.289.165-.59.317-.897.457C22.044 13.422 19.147 14 16 14c-3.147 0-6.044-.578-8.192-1.554-.308-.14-.608-.292-.897-.457l3.052 13.734c.145.376.644.941 1.698 1.434 1.053.491 2.53.843 4.339.843 1.81 0 3.286-.352 4.339-.843 1.054-.493 1.553-1.058 1.698-1.434l.726-3.264c-1.955-.553-4.363-1.715-7.306-3.62a1 1 0 0 1 1.086-1.679c2.842 1.84 5.02 2.863 6.654 3.343Z" fill="#000"/></svg>