<svg width="32" height="32" fill="none" xmlns="http://www.w3.org/2000/svg"><path
    d="M20.707 11.293a1 1 0 0 1 0 1.414L17.414 16l3.293 3.293a1 1 0 0 1-1.414 1.414L16 17.414l-3.293 3.293a1 1 0 0 1-1.414-1.414L14.586 16l-3.293-3.293a1 1 0 0 1 1.414-1.414L16 14.586l3.293-3.293a1 1 0 0 1 1.414 0Z"
    fill="#000"
  /><path
    fill-rule="evenodd"
    clip-rule="evenodd"
    d="M4 8a4 4 0 0 1 4-4h16a4 4 0 0 1 4 4v16a4 4 0 0 1-4 4H8a4 4 0 0 1-4-4V8Zm4-2a2 2 0 0 0-2 2v16a2 2 0 0 0 2 2h16a2 2 0 0 0 2-2V8a2 2 0 0 0-2-2H8Z"
    fill="#000"
  /></svg>
