<svg width="32" height="32" fill="none" xmlns="http://www.w3.org/2000/svg"><path d="M20.875 2a1 1 0 1 0 0 2C23.725 4 26 6.258 26 9s-2.275 5-5.125 5h-1.75C16.275 14 14 11.742 14 9a1 1 0 1 0-2 0c0 3.885 3.21 7 7.125 7h1.75C24.791 16 28 12.885 28 9s-3.21-7-7.125-7Z" fill="#000"/><path d="M4 10c0-3.885 3.21-7 7.125-7h1.75C16.791 3 20 6.115 20 10a1 1 0 1 1-2 0c0-2.742-2.275-5-5.125-5h-1.75C8.275 5 6 7.258 6 10a4.93 4.93 0 0 0 1.666 3.69 1 1 0 0 1-1.332 1.491A6.93 6.93 0 0 1 4 10Zm3.555 11.651C7.22 22.07 7 22.707 7 23.5c0 .793.22 1.431.555 1.849.316.394.778.651 1.445.651.477 0 .81-.181 1-.352V25a1 1 0 1 1 0-2h1a1 1 0 0 1 1 1v2a1 1 0 0 1-.149.524C11.375 27.298 10.351 28 9 28c-1.266 0-2.304-.526-3.005-1.4C5.314 25.753 5 24.64 5 23.5c0-1.14.314-2.252.995-3.1C6.696 19.525 7.735 19 9 19c.673 0 1.2.17 1.572.356a2.84 2.84 0 0 1 .563.37l.043.039.016.015.007.007.003.003.002.002-.692.694.692-.694a1 1 0 0 1-1.39 1.437l-.01-.007a.851.851 0 0 0-.128-.078A1.501 1.501 0 0 0 9 21c-.667 0-1.129.257-1.445.651ZM13.1 20a.9.9 0 0 1 .9-.9h4.5a.9.9 0 1 1 0 1.8h-3.6v1.7h2.6a.9.9 0 1 1 0 1.8h-2.6v1.7h3.6a.9.9 0 1 1 0 1.8H14a.9.9 0 0 1-.9-.9v-7Zm7.9-1a1 1 0 1 0 0 2h1.5v6a1 1 0 1 0 2 0v-6H26a1 1 0 1 0 0-2h-5Z" fill="#000"/></svg>