<svg width="32" height="32" fill="none" xmlns="http://www.w3.org/2000/svg"><path
    d="M20.875 2a1 1 0 1 0 0 2C23.725 4 26 6.258 26 9s-2.275 5-5.125 5h-1.75C16.275 14 14 11.742 14 9a1 1 0 1 0-2 0c0 3.885 3.21 7 7.125 7h1.75C24.791 16 28 12.885 28 9s-3.21-7-7.125-7Z"
    fill="#000"
  /><path
    d="M4 10c0-3.885 3.21-7 7.125-7h1.75C16.791 3 20 6.115 20 10a1 1 0 1 1-2 0c0-2.742-2.275-5-5.125-5h-1.75C8.275 5 6 7.258 6 10a4.93 4.93 0 0 0 1.666 3.69 1 1 0 0 1-1.332 1.491A6.93 6.93 0 0 1 4 10Zm13.874 11.514A1 1 0 0 0 16 22v7a1 1 0 1 0 2 0v-3.14l.626 1.126a1 1 0 0 0 1.748 0L21 25.859V29a1 1 0 1 0 2 0v-7a1 1 0 0 0-1.874-.486L19.5 24.441l-1.626-2.927Z"
    fill="#000"
  /><path
    fill-rule="evenodd"
    clip-rule="evenodd"
    d="M3 21a1 1 0 0 0-1 1v7a1 1 0 1 0 2 0v-2h1.222C6.864 27 8 25.543 8 24s-1.136-3-2.778-3H3Zm2.222 4H4v-2h1.222c.322 0 .778.334.778 1 0 .666-.456 1-.778 1ZM9 22a1 1 0 0 1 1-1h2.222C13.864 21 15 22.457 15 24c0 1.014-.491 1.992-1.294 2.542l1.154 1.948a1 1 0 0 1-1.72 1.02L11.652 27H11v2a1 1 0 1 1-2 0v-7Zm2 3h1.222c.322 0 .778-.334.778-1 0-.666-.456-1-.778-1H11v2Z"
    fill="#000"
  /><path
    d="M25 21a1 1 0 1 0 0 2h1v6a1 1 0 1 0 2 0v-6h1a1 1 0 1 0 0-2h-4Z"
    fill="#000"
  /></svg>
