<svg width="32" height="32" fill="none" xmlns="http://www.w3.org/2000/svg"><path
    d="M20.875 2a1 1 0 1 0 0 2C23.725 4 26 6.258 26 9s-2.275 5-5.125 5h-1.75C16.275 14 14 11.742 14 9a1 1 0 1 0-2 0c0 3.885 3.21 7 7.125 7h1.75C24.791 16 28 12.885 28 9s-3.21-7-7.125-7Z"
    fill="#000"
  /><path
    d="M4 10c0-3.885 3.21-7 7.125-7h1.75C16.791 3 20 6.115 20 10a1 1 0 1 1-2 0c0-2.742-2.275-5-5.125-5h-1.75C8.275 5 6 7.258 6 10a4.93 4.93 0 0 0 1.666 3.69 1 1 0 0 1-1.332 1.491A6.93 6.93 0 0 1 4 10Z"
    fill="#000"
  /><path
    fill-rule="evenodd"
    clip-rule="evenodd"
    d="M10 19a1 1 0 0 0-1 1v7a1 1 0 0 0 1 1h2a4.5 4.5 0 1 0 0-9h-2Zm1 7v-5h1a2.5 2.5 0 0 1 0 5h-1Zm7-7a1 1 0 0 0-1 1v7a1 1 0 0 0 1 1h3a3 3 0 0 0 2.1-5.143A2.5 2.5 0 0 0 21 19h-3Zm1 7v-2h2a1 1 0 1 1 0 2h-2Zm2.5-4.5a.5.5 0 0 1-.5.5h-2v-1h2a.5.5 0 0 1 .5.5Z"
    fill="#000"
  /></svg>
