<svg width="32" height="32" fill="none" xmlns="http://www.w3.org/2000/svg"><path d="m17 25 2 2m-3-7c-1 0-3 .7-3 3.5s2 3.5 3 3.5 3-.7 3-3.5-2-3.5-3-3.5Zm7 0v7h3.5M9.564 20.44C8.677 19.76 6 19.633 6 21.796c0 2.396 4 .77 4 3.294 0 1.898-2.67 2.501-4 1.264" stroke="#000" stroke-width="2" stroke-linecap="round" stroke-linejoin="round"/><path d="M19 10c0-3.314-2.742-6-6.125-6h-1.75C7.742 4 5 6.686 5 10a5.93 5.93 0 0 0 2 4.435" stroke="#000" stroke-width="2" stroke-linecap="round"/><path d="M13 9c0 3.314 2.742 6 6.125 6h1.75C24.258 15 27 12.314 27 9s-2.742-6-6.125-6" stroke="#000" stroke-width="2" stroke-linecap="round"/></svg>