<svg width="32" height="32" fill="none" xmlns="http://www.w3.org/2000/svg"><path
    d="M20.875 2a1 1 0 1 0 0 2C23.725 4 26 6.258 26 9s-2.275 5-5.125 5h-1.75C16.275 14 14 11.742 14 9a1 1 0 1 0-2 0c0 3.885 3.21 7 7.125 7h1.75C24.791 16 28 12.885 28 9s-3.21-7-7.125-7Z"
    fill="#000"
  /><path
    d="M4 10c0-3.885 3.21-7 7.125-7h1.75C16.791 3 20 6.115 20 10a1 1 0 1 1-2 0c0-2.742-2.275-5-5.125-5h-1.75C8.275 5 6 7.258 6 10a4.93 4.93 0 0 0 1.666 3.69 1 1 0 0 1-1.332 1.491A6.93 6.93 0 0 1 4 10Zm6.172 9.646c-.381-.292-.874-.474-1.347-.566a4.128 4.128 0 0 0-1.569-.009c-.534.105-1.107.347-1.552.82-.461.49-.704 1.143-.704 1.905 0 .442.094.858.306 1.225.211.367.505.624.806.804.516.308 1.153.44 1.596.53l.088.019c.543.113.849.193 1.04.316.071.045.098.08.113.108.016.03.051.111.051.292 0 .375-.235.694-.77.845-.56.156-1.182.028-1.549-.313a1 1 0 0 0-1.362 1.464c.963.896 2.341 1.085 3.45.774C9.898 27.544 11 26.613 11 25.09c0-.45-.09-.87-.293-1.244a2.291 2.291 0 0 0-.793-.841c-.54-.346-1.209-.485-1.665-.58l-.045-.01c-.557-.115-.867-.188-1.066-.307-.074-.044-.093-.073-.1-.086-.007-.012-.038-.07-.038-.226 0-.32.092-.461.16-.535.085-.09.236-.18.483-.228.245-.048.53-.043.798.01.279.054.453.143.516.191a1 1 0 0 0 1.215-1.588Z"
    fill="#000"
  /><path
    fill-rule="evenodd"
    clip-rule="evenodd"
    d="M13.482 19.934A4.026 4.026 0 0 1 16 19c.695 0 1.684.234 2.518.934.873.734 1.482 1.9 1.482 3.566 0 1.009-.223 1.835-.594 2.492l.301.3a1 1 0 0 1-1.414 1.415l-.28-.28A4.02 4.02 0 0 1 16 28a4.026 4.026 0 0 1-2.518-.934C12.609 26.332 12 25.166 12 23.5s.609-2.832 1.482-3.566Zm4.4 4.534-.175-.175a1 1 0 0 0-1.414 1.414l.213.213A1.83 1.83 0 0 1 16 26a2.03 2.03 0 0 1-1.232-.466c-.377-.316-.768-.9-.768-2.034s.391-1.718.768-2.034A2.03 2.03 0 0 1 16 21c.305 0 .816.116 1.232.466.377.316.768.9.768 2.034 0 .381-.044.7-.117.968Z"
    fill="#000"
  /><path
    d="M23 19a1 1 0 0 1 1 1v6h2.5a1 1 0 1 1 0 2H23a1 1 0 0 1-1-1v-7a1 1 0 0 1 1-1Z"
    fill="#000"
  /></svg>
