<svg width="32" height="32" fill="none" xmlns="http://www.w3.org/2000/svg"><path
    d="M20.875 2a1 1 0 1 0 0 2C23.725 4 26 6.258 26 9s-2.275 5-5.125 5h-1.75C16.275 14 14 11.742 14 9a1 1 0 1 0-2 0c0 3.885 3.21 7 7.125 7h1.75C24.791 16 28 12.885 28 9s-3.21-7-7.125-7Z"
    fill="#000"
  /><path
    d="M4 10c0-3.885 3.21-7 7.125-7h1.75C16.791 3 20 6.115 20 10a1 1 0 1 1-2 0c0-2.742-2.275-5-5.125-5h-1.75C8.275 5 6 7.258 6 10a4.93 4.93 0 0 0 1.666 3.69 1 1 0 0 1-1.332 1.491A6.93 6.93 0 0 1 4 10Z"
    fill="#000"
  /><path
    fill-rule="evenodd"
    clip-rule="evenodd"
    d="M12 19c-.695 0-1.684.234-2.518.934C8.609 20.668 8 21.834 8 23.5s.609 2.832 1.482 3.566c.834.7 1.823.934 2.518.934a4.02 4.02 0 0 0 2.012-.574l.28.281a1 1 0 0 0 1.415-1.414l-.3-.3c.37-.658.593-1.484.593-2.493 0-1.666-.609-2.832-1.482-3.566A4.026 4.026 0 0 0 12 19Zm1.707 5.293.176.175A3.67 3.67 0 0 0 14 23.5c0-1.134-.391-1.718-.768-2.034A2.032 2.032 0 0 0 12 21a2.03 2.03 0 0 0-1.232.466c-.377.316-.768.9-.768 2.034s.391 1.718.768 2.034c.416.35.927.466 1.232.466.136 0 .314-.023.506-.08l-.213-.213a1 1 0 0 1 1.414-1.414Zm7.735-4.629a1 1 0 0 0-1.884 0l-2.5 7a1 1 0 1 0 1.884.672l.12-.336h2.876l.12.336a1 1 0 1 0 1.884-.672l-2.5-7Zm-.942 3.31L21.224 25h-1.448l.724-2.027Z"
    fill="#000"
  /></svg>
