<svg width="32" height="32" fill="none" xmlns="http://www.w3.org/2000/svg"><path d="M4 8a4 4 0 0 1 4-4h16a4 4 0 0 1 4 4v8a1 1 0 1 1-2 0V8a2 2 0 0 0-2-2H8a2 2 0 0 0-2 2v11.81a2 2 0 0 0 2 2h3a1 1 0 0 1 1 1v2.047l3.358-2.814a1 1 0 1 1 1.284 1.533l-5 4.19A1 1 0 0 1 10 27v-3.19H8a4 4 0 0 1-4-4V8Z" fill="#000"/><path d="M23.5 18a1 1 0 0 1 .757.346l3.5 4.053a1 1 0 1 1-1.514 1.307L24.5 21.688V27a1 1 0 1 1-2 0v-5.312l-1.743 2.018a1 1 0 1 1-1.514-1.307l3.5-4.053A1 1 0 0 1 23.5 18ZM11 11a1 1 0 1 0 0 2h10a1 1 0 1 0 0-2H11Zm0 5a1 1 0 1 0 0 2h5a1 1 0 1 0 0-2h-5Z" fill="#000"/></svg>