<svg width="32" height="32" fill="none" xmlns="http://www.w3.org/2000/svg"><path d="M19.5 11a1.5 1.5 0 1 0 0-3 1.5 1.5 0 0 0 0 3Z" fill="#000"/><path fill-rule="evenodd" clip-rule="evenodd" d="M4 8a4 4 0 0 1 4-4h16a4 4 0 0 1 4 4v11.81a4 4 0 0 1-4 4h-7.636l-4.722 3.956A1 1 0 0 1 10 27v-3.19H8a4 4 0 0 1-4-4V8Zm22 0v4.586L25.414 12a2 2 0 0 0-2.828 0L18 16.586 11.414 10a2 2 0 0 0-2.828 0L6 12.586V8a2 2 0 0 1 2-2h16a2 2 0 0 1 2 2ZM6 19.81v-4.396l4-4L16.586 18a2 2 0 0 0 2.828 0L24 13.414l2 2v4.396a2 2 0 0 1-2 2h-8a1 1 0 0 0-.642.233L12 24.857V22.81a1 1 0 0 0-1-1H8a2 2 0 0 1-2-2Z" fill="#000"/></svg>