<svg width="32" height="32" fill="none" xmlns="http://www.w3.org/2000/svg"><path
    fill-rule="evenodd"
    clip-rule="evenodd"
    d="M19.5 9a1 1 0 1 0 0 2H21a1 1 0 0 1 1 1v.19a2.67 2.67 0 0 0-1-.19c-1.854 0-3 1.787-3 3.5s1.146 3.5 3 3.5c.472 0 .897-.116 1.27-.316A1 1 0 0 0 24 18v-6a3 3 0 0 0-3-3h-1.5Zm1.5 5c.356 0 1 .452 1 1.5s-.644 1.5-1 1.5-1-.452-1-1.5.644-1.5 1-1.5Zm-7.568-5.362a1 1 0 0 0-1.864 0l-3.5 9a1 1 0 1 0 1.864.724l.752-1.933h3.632l.752 1.933a1 1 0 1 0 1.864-.724l-3.5-9Zm.106 5.79h-2.076L12.5 11.76l1.038 2.67Z"
    fill="#000"
  /><path
    fill-rule="evenodd"
    clip-rule="evenodd"
    d="M8 4a4 4 0 0 0-4 4v11.81a4 4 0 0 0 4 4h2V27a1 1 0 0 0 1.642.766l4.722-3.956H24a4 4 0 0 0 4-4V8a4 4 0 0 0-4-4H8ZM6 8a2 2 0 0 1 2-2h16a2 2 0 0 1 2 2v11.81a2 2 0 0 1-2 2h-8a1 1 0 0 0-.642.233L12 24.857V22.81a1 1 0 0 0-1-1H8a2 2 0 0 1-2-2V8Z"
    fill="#000"
  /></svg>
