<svg width="32" height="32" fill="none" xmlns="http://www.w3.org/2000/svg"><path d="M11.293 10.293a1 1 0 0 1 1.414 0l3 3a1 1 0 0 1 0 1.414l-3 3a1 1 0 0 1-1.414-1.414L13.586 14l-2.293-2.293a1 1 0 0 1 0-1.414ZM17 16a1 1 0 1 0 0 2h4a1 1 0 1 0 0-2h-4Z" fill="#000"/><path fill-rule="evenodd" clip-rule="evenodd" d="M4 8a4 4 0 0 1 4-4h16a4 4 0 0 1 4 4v11.81a4 4 0 0 1-4 4h-7.636l-4.722 3.956A1 1 0 0 1 10 27v-3.19H8a4 4 0 0 1-4-4V8Zm4-2a2 2 0 0 0-2 2v11.81a2 2 0 0 0 2 2h3a1 1 0 0 1 1 1v2.047l3.358-2.814A1 1 0 0 1 16 21.81h8a2 2 0 0 0 2-2V8a2 2 0 0 0-2-2H8Z" fill="#000"/></svg>