<svg width="32" height="32" fill="none" xmlns="http://www.w3.org/2000/svg"><path fill-rule="evenodd" clip-rule="evenodd" d="M17 6C11.477 6 7 10.477 7 16s4.477 10 10 10a9.974 9.974 0 0 0 7.537-3.427l-3.96-3.08a5 5 0 1 1 .034-6.952l4.015-3.01A9.977 9.977 0 0 0 17 6ZM5 16C5 9.373 10.373 4 17 4c4.083 0 7.69 2.04 9.856 5.153a1 1 0 0 1-.221 1.37l-5.61 4.209a1 1 0 0 1-1.456-.282 3 3 0 1 0-.012 3.121 1 1 0 0 1 1.465-.265l5.538 4.307a1 1 0 0 1 .199 1.372A11.986 11.986 0 0 1 17 28c-6.627 0-12-5.373-12-12Z" fill="#000"/></svg>