<svg width="32" height="32" fill="none" xmlns="http://www.w3.org/2000/svg"><path
    fill-rule="evenodd"
    clip-rule="evenodd"
    d="M20.352 6c-.282 0-.563.01-.834.042-.06 0-.121 0-.191.01l-.453.063c-.16.03-.311.052-.462.093-.14.021-.281.053-.412.094a2.96 2.96 0 0 0-.432.125 7.706 7.706 0 0 0-.965.365 5.52 5.52 0 0 0-.432.198c-.06.031-.11.063-.171.094h-.01A9.188 9.188 0 0 0 11.638 6C6.312 6 2 10.482 2 16.005 2 21.53 6.312 26 11.638 26c.282 0 .563 0 .834-.042.05 0 .1 0 .151-.01l.261-.031c.08-.01.151-.01.221-.032a9.324 9.324 0 0 0 2.714-.865.94.94 0 0 0 .17-.104c.031 0 .051-.01.071-.031a.214.214 0 0 1-.06.041A9.303 9.303 0 0 0 20.352 26C25.678 26 30 21.518 30 16.005 30 10.492 25.678 6 20.352 6ZM3.869 16.005c0-4.46 3.478-8.066 7.77-8.066.874 0 1.708.145 2.492.427-.11.094-.222.187-.322.292l-.301.312a3 3 0 0 0-.302.323c-.18.209-.352.428-.523.647a10.202 10.202 0 0 0-1.598 3.303c-.04.136-.07.282-.1.417-.04.146-.07.303-.1.459-.111.604-.171 1.24-.171 1.886V24c-3.86-.469-6.845-3.867-6.845-7.994Zm11.96 6.785c-.18.125-.372.24-.563.344a5.47 5.47 0 0 1-.563.281c-.06.032-.12.052-.18.073-.131.052-.262.105-.392.146a1.01 1.01 0 0 1-.252.084c-.15.052-.311.093-.462.135a1.5 1.5 0 0 1-.211.042c-.15.041-.291.062-.442.083l-.191.031v-8.046c0-.25.01-.5.04-.74v-.041c.02-.209.05-.417.09-.626 0-.052 0-.114.03-.177.04-.208.091-.416.151-.625a7.8 7.8 0 0 1 .221-.688c.06-.156.121-.302.191-.448a.39.39 0 0 1 .05-.115c.04-.093.081-.177.131-.26.07-.157.161-.313.252-.47.12-.208.25-.406.392-.593.14-.198.281-.375.432-.553.02-.02.03-.03.04-.052.15-.156.291-.312.442-.458.161-.167.332-.313.513-.459.01-.01.02-.01.02-.02.13-.105.261-.21.402-.293 0-.02.02-.02.03-.02h.01c.08-.063.17-.125.261-.178a7.107 7.107 0 0 1 1.598-.77.484.484 0 0 1 .171-.063.69.69 0 0 1 .161-.052 1.95 1.95 0 0 1 .352-.094c.07-.021.15-.042.23-.052.152-.042.292-.063.443-.084.06 0 .13-.02.191-.031v8.045c0 .189-.01.376-.02.564-.01.083-.01.156-.02.229 0 .156-.03.313-.06.459 0 .125-.03.24-.06.344 0 .041-.01.072-.02.104a3.23 3.23 0 0 1-.111.448 6.93 6.93 0 0 1-.262.823c-.07.167-.13.323-.21.49-.01.031-.03.063-.051.104a6.5 6.5 0 0 1-.281.532c-.04.062-.07.125-.11.177a3.978 3.978 0 0 1-.333.51c-.281.386-.593.74-.924 1.064-.161.177-.342.323-.523.469-.14.114-.281.229-.432.323-.06.041-.11.083-.17.114v-.01Zm4.523 1.271a7.323 7.323 0 0 1-2.483-.427c.332-.292.644-.594.925-.927.14-.167.281-.334.412-.511.14-.177.261-.354.392-.542a9.36 9.36 0 0 0 .734-1.324c.07-.145.13-.291.19-.437.06-.157.121-.303.181-.459.161-.459.292-.938.382-1.417.03-.115.05-.24.06-.355a9.02 9.02 0 0 0 .141-1.657V8.001c3.85.469 6.845 3.877 6.845 8.004 0 4.45-3.488 8.056-7.78 8.056Z"
    fill="#000"
  /></svg>
