<svg width="32" height="32" fill="none" xmlns="http://www.w3.org/2000/svg"><path fill-rule="evenodd" clip-rule="evenodd" d="M13 2a1 1 0 0 0-1 1v1h-2a4 4 0 0 0-4 4v16a4 4 0 0 0 4 4h6a1 1 0 1 0 0-2h-6a2 2 0 0 1-2-2V8a2 2 0 0 1 2-2h2v1a1 1 0 0 0 1 1h6a1 1 0 0 0 1-1V6h2a2 2 0 0 1 2 2v8a1 1 0 1 0 2 0V8a4 4 0 0 0-4-4h-2V3a1 1 0 0 0-1-1h-6Zm5 4V4h-4v2h4Z" fill="#000"/><path d="M11 12a1 1 0 0 1 1-1h8a1 1 0 1 1 0 2h-8a1 1 0 0 1-1-1Zm1 3a1 1 0 1 0 0 2h6a1 1 0 1 0 0-2h-6Zm-1 5a1 1 0 0 1 1-1h4a1 1 0 1 1 0 2h-4a1 1 0 0 1-1-1Z" fill="#000"/><path fill-rule="evenodd" clip-rule="evenodd" d="M24.021 19.122a1 1 0 0 1 .958 0l.873.477c.624.34 1.363.395 2.03.153A1.578 1.578 0 0 1 30 21.234v3.675C30 27.562 27.48 30 24.5 30S19 27.562 19 24.91v-3.676a1.578 1.578 0 0 1 2.118-1.482 2.473 2.473 0 0 0 2.03-.153l.873-.477Zm.084 2.232.395-.215.395.215c.953.52 2.057.673 3.105.442v3.113C28 26.347 26.49 28 24.5 28S21 26.347 21 24.91v-3.114a4.473 4.473 0 0 0 3.105-.442Z" fill="#000"/></svg>