<svg width="32" height="32" fill="none" xmlns="http://www.w3.org/2000/svg"><path d="M12 11a1 1 0 1 0 0 2h8a1 1 0 1 0 0-2h-8Zm0 4a1 1 0 1 0 0 2h8a1 1 0 1 0 0-2h-8Zm-1 5a1 1 0 0 1 1-1h8a1 1 0 1 1 0 2h-8a1 1 0 0 1-1-1Z" fill="#000"/><path fill-rule="evenodd" clip-rule="evenodd" d="M12 3a1 1 0 0 1 1-1h6a1 1 0 0 1 1 1v1h2a4 4 0 0 1 4 4v16a4 4 0 0 1-4 4H10a4 4 0 0 1-4-4V8a4 4 0 0 1 4-4h2V3Zm6 1v2h-4V4h4Zm-6 3V6h-2a2 2 0 0 0-2 2v16a2 2 0 0 0 2 2h12a2 2 0 0 0 2-2V8a2 2 0 0 0-2-2h-2v1a1 1 0 0 1-1 1h-6a1 1 0 0 1-1-1Z" fill="#000"/></svg>