<svg width="32" height="32" fill="none" xmlns="http://www.w3.org/2000/svg"><path d="M11 4c-1.488 0-2.627.573-3.354 1.59-.687.962-.919 2.201-.919 3.41v3c0 1.111-.091 1.881-.345 2.363-.11.21-.245.35-.42.446C5.777 14.911 5.48 15 5 15a1 1 0 1 0 0 2c.481 0 .777.09.962.19.175.097.31.236.42.447.254.482.345 1.252.345 2.363v3c0 1.209.232 2.448.92 3.41C8.372 27.427 9.511 28 11 28a1 1 0 1 0 0-2c-.922 0-1.42-.323-1.726-.753C8.927 24.762 8.727 24 8.727 23v-3c0-1.098-.067-2.328-.575-3.294a3.181 3.181 0 0 0-.5-.706c.201-.213.367-.451.5-.706.508-.966.575-2.196.575-3.294V9c0-1 .2-1.762.547-2.247C9.58 6.323 10.078 6 11 6a1 1 0 1 0 0-2Zm10 0c1.488 0 2.627.573 3.354 1.59.687.962.919 2.201.919 3.41v3c0 1.111.091 1.881.345 2.363.11.21.245.35.42.446.185.102.481.191.962.191a1 1 0 1 1 0 2c-.481 0-.777.09-.962.19a1.02 1.02 0 0 0-.42.447c-.254.482-.345 1.252-.345 2.363v3c0 1.209-.232 2.448-.92 3.41C23.628 27.427 22.489 28 21 28a1 1 0 1 1 0-2c.922 0 1.42-.323 1.726-.753.347-.485.547-1.247.547-2.247v-3c0-1.098.067-2.328.575-3.294.133-.255.299-.493.5-.706a3.182 3.182 0 0 1-.5-.706c-.508-.966-.575-2.196-.575-3.294V9c0-1-.2-1.762-.547-2.247C22.42 6.323 21.922 6 21 6a1 1 0 1 1 0-2Z" fill="#000"/></svg>