<svg width="32" height="32" fill="none" xmlns="http://www.w3.org/2000/svg"><path
    fill-rule="evenodd"
    clip-rule="evenodd"
    d="M11.603 3.715a7.428 7.428 0 0 0-7.422 7.423c0 4.128 3.19 7.45 7.998 7.45.653 0 1.947-.037 3.721-.765l.004-.002c.376-.156.837-.341 1.355-.549 1.98-.795 4.803-1.928 6.972-3.094 1.043-.561 1.859-1.25 2.41-2.109.554-.867.794-1.839.794-2.89a5.468 5.468 0 0 0-5.464-5.464H11.603Zm0 2a5.428 5.428 0 0 0-5.422 5.423c0 2.956 2.225 5.45 5.998 5.45.499 0 1.51-.02 2.96-.615.413-.171.903-.368 1.444-.585 1.981-.796 4.642-1.865 6.7-2.97.829-.447 1.352-.926 1.673-1.427.316-.494.48-1.077.48-1.812 0-1.9-1.544-3.464-3.465-3.464H11.603Zm8.364 11.155c3.964-1.62 8.32 1.273 8.32 5.562a6.015 6.015 0 0 1-6.012 6.01h-3.542c-2.918 0-5.291-2.38-5.291-5.32a5.297 5.297 0 0 1 3.267-4.898l3.258-1.355Zm.76 1.85-3.256 1.354a3.297 3.297 0 0 0-2.03 3.049c0 1.842 1.487 3.32 3.292 3.32h3.542a4.015 4.015 0 0 0 4.011-4.011c0-2.853-2.9-4.797-5.56-3.713Zm-12.599-.05a4.724 4.724 0 0 0-4.715 4.716v.49c0 2.572 2.123 4.686 4.715 4.686a4.724 4.724 0 0 0 4.715-4.716v-.504c-.036-2.549-2.11-4.672-4.715-4.672Zm-2.715 4.716a2.724 2.724 0 0 1 2.715-2.716c1.483 0 2.69 1.215 2.715 2.694v.482a2.724 2.724 0 0 1-2.715 2.716c-1.498 0-2.715-1.228-2.715-2.687v-.49Z"
    fill="#000"
  /></svg>
