<svg width="32" height="32" fill="none" xmlns="http://www.w3.org/2000/svg"><path
    d="M16 17.5a1.5 1.5 0 1 0 0-3 1.5 1.5 0 0 0 0 3Z"
    fill="#000"
  /><path
    fill-rule="evenodd"
    clip-rule="evenodd"
    d="M8.929 8.929a1 1 0 0 1 .982-.254l9.9 2.828a1 1 0 0 1 .686.687l2.828 9.9a1 1 0 0 1-1.236 1.236l-9.9-2.829a1 1 0 0 1-.686-.687l-2.829-9.9a1 1 0 0 1 .255-.981Zm4.344 9.798 7.635 2.181-2.181-7.635-7.635-2.18 2.181 7.634Z"
    fill="#000"
  /><path
    fill-rule="evenodd"
    clip-rule="evenodd"
    d="M2 16C2 8.268 8.268 2 16 2s14 6.268 14 14-6.268 14-14 14S2 23.732 2 16ZM16 4C9.373 4 4 9.373 4 16s5.373 12 12 12 12-5.373 12-12S22.627 4 16 4Z"
    fill="#000"
  /></svg>
