<svg width="32" height="32" fill="none" xmlns="http://www.w3.org/2000/svg"><g clip-path="url(#confluence__a)"><path fill-rule="evenodd" clip-rule="evenodd" d="M21.38 4.05c.21-.05.43-.06.65-.03.22.04.43.11.62.22l4.52 2.65c.37.22.66.58.77 1.02.11.43.04.89-.19 1.27l-.01.02-.134.21c-.08.126-.163.256-.246.39-.05.08-.102.16-.155.24-.052.08-.105.16-.155.24-2.1 3.25-4.6 5.04-7.49 5.56-.07.01-.14.017-.207.024-.075.008-.15.015-.223.026.78.27 1.56.59 2.36.96l1.303.592c1.066.486 2.134.972 3.207 1.448.39.18.72.5.88.91.17.42.16.88-.03 1.3l-2.15 4.64c-.1.21-.24.39-.4.54-.17.15-.36.26-.57.34a1.796 1.796 0 0 1-1.29-.06l-4.52-2.03c-1.65-.75-2.69-1.09-3.48-1.03-.33.03-.65.12-1 .37s-.71.65-1.11 1.28c-.1.162-.198.315-.29.46-.074.114-.144.224-.21.33-.03.058-.062.11-.093.16a1.753 1.753 0 0 1-1.117.86c-.22.05-.44.05-.65.02-.22-.03-.43-.1-.62-.22l-4.53-2.65a1.649 1.649 0 0 1-.57-2.3h.01v-.02l.062-.092c.057-.082.127-.185.198-.298.15-.24.32-.51.44-.69 2.1-3.24 4.6-5.02 7.49-5.55.07-.01.14-.018.21-.025.07-.008.14-.015.21-.025-.77-.27-1.56-.59-2.35-.95a439.351 439.351 0 0 0-3.63-1.648L6 12.11c-.39-.17-.72-.49-.88-.91-.08-.19-.12-.4-.12-.61 0-.23.05-.46.15-.68l2.16-4.65c.09-.2.23-.39.4-.54.16-.15.36-.26.57-.33.2-.08.43-.1.65-.1.22.01.43.06.63.15l4.51 2.04c1.65.75 2.69 1.08 3.48 1.02.65-.05 1.31-.39 2.11-1.65h.01l.66-1.05c.12-.19.27-.36.45-.49.19-.12.39-.21.6-.26ZM6.14 22.57l3.75 2.19h.01l.24.13c.15-.24.33-.52.52-.81.99-1.56 2.13-2.46 3.64-2.57 1.37-.11 2.86.47 4.45 1.2l4.26 1.91 1.87-4.04c-1.41-.63-2.82-1.27-4.23-1.92-2.98-1.37-5.58-1.94-7.85-1.53-.32.06-.63.14-.94.24-1.87.59-3.62 1.95-5.23 4.44v.02h-.01c-.102.15-.192.293-.284.44l-.076.12a1.336 1.336 0 0 0-.08.118l-.04.062ZM25.66 8.74c.03-.042.057-.086.084-.129.038-.06.075-.119.116-.171L21.87 6.1c-.17.28-.34.55-.52.83-.99 1.56-2.13 2.45-3.65 2.57-.11.01-.21.01-.32.01-1.28 0-2.65-.54-4.14-1.21L9 6.38l-1.88 4.04 1.414.641c.868.393 1.873.847 2.816 1.279h.01c2.97 1.37 5.57 1.94 7.84 1.53 2.22-.4 4.3-1.78 6.17-4.67.09-.14.19-.3.29-.46Z" fill="#000"/></g><defs><clipPath id="confluence__a"><path fill="#fff" transform="translate(4 4)" d="M0 0h24v23H0z"/></clipPath></defs></svg>