<svg width="32" height="32" fill="none" xmlns="http://www.w3.org/2000/svg"><path
    fill-rule="evenodd"
    clip-rule="evenodd"
    d="M26 16v-3.234a9.982 9.982 0 0 1-1.837.981c-2.14.892-5.026 1.42-8.163 1.42-3.137 0-6.023-.528-8.163-1.42A9.981 9.981 0 0 1 6 12.767V16c0 .285.134.646.566 1.072.436.429 1.117.861 2.04 1.246 1.842.767 4.456 1.265 7.394 1.265a1 1 0 1 1 0 2c-3.137 0-6.023-.527-8.163-1.419A9.981 9.981 0 0 1 6 19.183v3.234c0 .284.134.646.566 1.071.436.43 1.117.862 2.04 1.247C10.448 25.502 13.062 26 16 26a1 1 0 1 1 0 2c-3.137 0-6.023-.528-8.163-1.42-1.067-.444-1.997-1-2.674-1.667C4.48 24.243 4 23.398 4 22.417V9.583c0-.98.481-1.825 1.163-2.496.677-.668 1.607-1.223 2.674-1.668C9.977 4.528 12.863 4 16 4c3.137 0 6.023.528 8.163 1.42 1.067.444 1.997 1 2.674 1.667.681.67 1.163 1.515 1.163 2.496V16a1 1 0 1 1-2 0ZM6 9.583c0-.284.134-.646.566-1.071.436-.43 1.117-.862 2.04-1.247C10.448 6.498 13.062 6 16 6c2.939 0 5.552.498 7.394 1.266.923.384 1.604.817 2.04 1.246.432.425.566.787.566 1.071 0 .285-.134.646-.566 1.072-.436.43-1.117.862-2.04 1.246-1.842.768-4.455 1.266-7.394 1.266-2.938 0-5.552-.498-7.394-1.266-.923-.384-1.604-.817-2.04-1.246C6.134 10.229 6 9.868 6 9.583Z"
    fill="#000"
  /><path
    d="M28.154 22.243a1 1 0 0 1 0 1.514l-4.053 3.5a1 1 0 1 1-1.307-1.514L24.812 24H19.5a1 1 0 1 1 0-2h5.312l-2.018-1.743a1 1 0 1 1 1.307-1.514l4.053 3.5Z"
    fill="#000"
  /></svg>
