<svg width="32" height="32" fill="none" xmlns="http://www.w3.org/2000/svg"><path
    fill-rule="evenodd"
    clip-rule="evenodd"
    d="M23.737 5a1 1 0 0 0-1.885-.466l-4.737 9A1 1 0 0 0 18 15h2.79v4a1 1 0 0 0 1.865.501l5.21-9A1 1 0 0 0 27 9h-3.263V5Zm-1.947 8h-2.134l2.08-3.953V10a1 1 0 0 0 1 1h2.53l-2.476 4.277V14a1 1 0 0 0-1-1Z"
    fill="#000"
  /><path
    d="M6 9.583c0-.284.134-.646.566-1.071.436-.43 1.117-.862 2.04-1.247C10.448 6.498 13.062 6 16 6c.658 0 1.3.025 1.924.073a1 1 0 0 0 .152-1.995A27.242 27.242 0 0 0 16 4c-3.137 0-6.023.528-8.163 1.42-1.067.444-1.997 1-2.674 1.667C4.48 7.757 4 8.602 4 9.583v12.834c0 .98.481 1.825 1.163 2.496.677.668 1.607 1.223 2.674 1.668C9.977 27.472 12.863 28 16 28c3.137 0 6.023-.528 8.163-1.42 1.067-.444 1.997-1 2.674-1.667.681-.671 1.163-1.515 1.163-2.496V18a1 1 0 1 0-2 0v4.417c0 .284-.134.646-.566 1.071-.436.43-1.117.862-2.04 1.247C21.552 25.502 18.939 26 16 26c-2.938 0-5.552-.498-7.394-1.265-.923-.385-1.604-.818-2.04-1.247-.432-.425-.566-.787-.566-1.071v-3.234c.537.372 1.16.698 1.837.981 2.14.891 5.026 1.42 8.163 1.42.708 0 1.402-.028 2.076-.08a1 1 0 1 0-.152-1.993 25.6 25.6 0 0 1-1.924.072c-2.938 0-5.552-.498-7.394-1.265-.923-.385-1.604-.817-2.04-1.246C6.134 16.646 6 16.284 6 16v-3.235c.356.246.74.468 1.136.664 1.757.87 4.14 1.457 6.788 1.66a1 1 0 0 0 .152-1.995c-2.472-.19-4.589-.733-6.052-1.457C6.478 10.872 6 10.094 6 9.583Z"
    fill="#000"
  /></svg>
