<svg width="32" height="32" fill="none" xmlns="http://www.w3.org/2000/svg"><path
    fill-rule="evenodd"
    clip-rule="evenodd"
    d="M26 16v-3.234a9.982 9.982 0 0 1-1.837.981c-2.14.892-5.026 1.42-8.163 1.42-3.137 0-6.023-.528-8.163-1.42A9.981 9.981 0 0 1 6 12.767V16c0 .285.134.646.566 1.072.436.429 1.117.861 2.04 1.246 1.842.767 4.456 1.265 7.394 1.265a1 1 0 1 1 0 2c-3.137 0-6.023-.527-8.163-1.419A9.981 9.981 0 0 1 6 19.183v3.234c0 .284.134.646.566 1.071.436.43 1.117.862 2.04 1.247C10.448 25.502 13.062 26 16 26a1 1 0 1 1 0 2c-3.137 0-6.023-.528-8.163-1.42-1.067-.444-1.997-1-2.674-1.667C4.48 24.243 4 23.398 4 22.417V9.583c0-.98.481-1.825 1.163-2.496.677-.668 1.607-1.223 2.674-1.668C9.977 4.528 12.863 4 16 4c3.137 0 6.023.528 8.163 1.42 1.067.444 1.997 1 2.674 1.667.681.67 1.163 1.515 1.163 2.496V16a1 1 0 1 1-2 0ZM6 9.583c0-.284.134-.646.566-1.071.436-.43 1.117-.862 2.04-1.247C10.448 6.498 13.062 6 16 6c2.939 0 5.552.498 7.394 1.266.923.384 1.604.817 2.04 1.246.432.425.566.787.566 1.071 0 .285-.134.646-.566 1.072-.436.43-1.117.862-2.04 1.246-1.842.768-4.455 1.266-7.394 1.266-2.938 0-5.552-.498-7.394-1.266-.923-.384-1.604-.817-2.04-1.246C6.134 10.229 6 9.868 6 9.583Z"
    fill="#000"
  /><path
    d="M20.064 21.007a1 1 0 0 0-1.611.28c-1.059 2.243-.64 5.011 1.225 6.877a6.084 6.084 0 0 0 6.207 1.492l.543.543a1 1 0 1 0 1.414-1.414l-1.007-1.007a1 1 0 0 0-1.134-.198 4.073 4.073 0 0 1-4.608-.83 4.1 4.1 0 0 1-1.206-3.092l1.55 1.55c1.041 1.042 2.738 1.07 3.79.019 1.051-1.052 1.023-2.749-.018-3.79l-1.551-1.55a4.1 4.1 0 0 1 3.091 1.206c1.261 1.26 1.534 3.119.831 4.608a1 1 0 0 0 .198 1.134l1.007 1.007a1 1 0 0 0 1.414-1.414l-.543-.543a6.084 6.084 0 0 0-1.492-6.207c-1.866-1.865-4.634-2.284-6.877-1.225a1 1 0 0 0-.28 1.611l2.787 2.787a.68.68 0 0 1 .018.961.68.68 0 0 1-.96-.018l-2.788-2.787Z"
    fill="#000"
  /></svg>
