<svg width="32" height="32" fill="none" xmlns="http://www.w3.org/2000/svg"><path
    fill-rule="evenodd"
    clip-rule="evenodd"
    d="M6.566 8.512C6.134 8.937 6 9.299 6 9.583c0 .285.134.646.566 1.072.436.43 1.117.862 2.04 1.246 1.842.768 4.456 1.266 7.394 1.266 2.939 0 5.552-.498 7.394-1.266.923-.384 1.604-.817 2.04-1.246.432-.426.566-.787.566-1.072 0-.284-.134-.646-.566-1.071-.436-.43-1.117-.862-2.04-1.247C21.552 6.498 18.939 6 16 6c-2.938 0-5.552.498-7.394 1.266-.923.384-1.604.817-2.04 1.246ZM26 12.766a9.982 9.982 0 0 1-1.837.981c-2.14.892-5.026 1.42-8.163 1.42-3.137 0-6.023-.528-8.163-1.42A9.981 9.981 0 0 1 6 12.767V16c0 .285.134.646.566 1.072.436.429 1.117.861 2.04 1.246 1.842.767 4.456 1.265 7.394 1.265 2.939 0 5.552-.498 7.394-1.265.923-.385 1.604-.817 2.04-1.246.432-.426.566-.787.566-1.072v-3.234Zm2-3.183c0-.98-.482-1.825-1.163-2.496-.677-.668-1.607-1.223-2.674-1.668C22.023 4.528 19.137 4 16 4c-3.137 0-6.023.528-8.163 1.42-1.067.444-1.997 1-2.674 1.667C4.48 7.757 4 8.602 4 9.583v12.834c0 .98.481 1.825 1.163 2.496.677.668 1.607 1.223 2.674 1.668C9.977 27.472 12.863 28 16 28c3.137 0 6.023-.528 8.163-1.42 1.067-.444 1.997-1 2.674-1.667.681-.67 1.163-1.515 1.163-2.496V9.583Zm-2 9.6a9.982 9.982 0 0 1-1.837.981c-2.14.891-5.026 1.42-8.163 1.42-3.137 0-6.023-.529-8.163-1.42A9.981 9.981 0 0 1 6 19.183v3.234c0 .284.134.646.566 1.071.436.43 1.117.862 2.04 1.247C10.448 25.502 13.062 26 16 26c2.939 0 5.552-.498 7.394-1.265.923-.385 1.604-.818 2.04-1.247.432-.425.566-.787.566-1.071v-3.234Z"
    fill="#000"
  /></svg>
