<svg width="32" height="32" fill="none" xmlns="http://www.w3.org/2000/svg"><path
    d="M16.723 2.309a1 1 0 0 0-1.446 0l-3 3.136a1 1 0 0 0 1.446 1.382L15 5.492V13a1 1 0 1 0 2 0V5.492l1.277 1.335a1 1 0 0 0 1.446-1.382l-3-3.136Z"
    fill="#000"
  /><path
    d="M6 12a4 4 0 0 0-4 4v6a4 4 0 0 0 4 4h20a4 4 0 0 0 4-4v-6a4 4 0 0 0-4-4h-5a1 1 0 1 0 0 2h5a2 2 0 0 1 2 2v6a2 2 0 0 1-2 2H6a2 2 0 0 1-2-2v-6a2 2 0 0 1 2-2h5a1 1 0 1 0 0-2H6Z"
    fill="#000"
  /><path
    d="M9 18a1 1 0 1 0 0 2h8a1 1 0 1 0 0-2H9Zm15 1a1.5 1.5 0 1 1-3 0 1.5 1.5 0 0 1 3 0Z"
    fill="#000"
  /></svg>
