<svg width="32" height="32" fill="none" xmlns="http://www.w3.org/2000/svg"><path
    d="M6 20a4 4 0 0 1-4-4v-6a4 4 0 0 1 4-4h20a4 4 0 0 1 4 4v6a4 4 0 0 1-4 4h-5a1 1 0 1 1 0-2h5a2 2 0 0 0 2-2v-6a2 2 0 0 0-2-2H6a2 2 0 0 0-2 2v6a2 2 0 0 0 2 2h5a1 1 0 1 1 0 2H6Z"
    fill="#000"
  /><path
    d="M9 12a1 1 0 1 0 0 2h8a1 1 0 1 0 0-2H9Zm15 1a1.5 1.5 0 1 1-3 0 1.5 1.5 0 0 1 3 0Zm-7.277 16.691a1 1 0 0 1-1.446 0l-3-3.136a1 1 0 0 1 1.446-1.382L15 26.508V19a1 1 0 1 1 2 0v7.508l1.277-1.335a1 1 0 1 1 1.446 1.382l-3 3.136Z"
    fill="#000"
  /></svg>
