<svg width="32" height="32" fill="none" xmlns="http://www.w3.org/2000/svg"><path
    d="M26.55 11.89a.98.98 0 0 0 .97-.04c.3-.18.48-.5.48-.85V7.8c0-.26-.1-.51-.28-.7l-1.99-2.02c-.15-.15-.32-.28-.51-.38l-4.89-2.48c-.28-.14-.59-.22-.9-.22h-6.86c-.31 0-.62.08-.9.22L6.79 4.7c-.2.1-.37.23-.52.38L4.29 7.1c-.19.19-.29.44-.29.7V11c0 .35.18.67.48.85.3.18.67.2.97.04l.55-.28v.92l-1.37.54A1 1 0 0 0 4 14v4a1 1 0 0 0 .63.93l1.37.55v.9l-.54-.27c-.32-.16-.68-.14-.98.04-.3.18-.48.5-.48.85v3.2c0 .26.1.51.29.7l1.98 2.02c.15.15.32.28.52.38l4.88 2.48c.28.15.59.22.9.22h6.86c.31 0 .63-.07.91-.22l4.88-2.48c.19-.1.36-.23.52-.38l1.98-2.02c.18-.19.28-.44.28-.7V21c0-.35-.18-.67-.48-.85a.986.986 0 0 0-.97-.04l-.55.28v-.91l1.37-.55A1 1 0 0 0 28 18v-4a1 1 0 0 0-.63-.93L26 12.52v-.91l.55.28ZM26 23.79 24.82 25l-.51.52L19.43 28h-6.85l-4.87-2.48H7.7L7.19 25 6 23.79v-1.16l.52.27c.16.08.33.14.51.17l5 1.02c.13.03.27.04.41.04h7.13c.13 0 .27-.01.4-.04l5-1.02c.18-.03.35-.09.51-.17l.52-.27v1.16ZM8 21.23v-1.11l4.21.84c.13.03.26.04.39.04h6.8c.13 0 .26-.01.4-.04l4.2-.84v1.11l-4.43.9h-7.13L8 21.23Zm18-3.91-1.78.72-.22.04-4.6.92h-6.8L8 18.08l-.21-.04L6 17.32v-2.64l1.79-.72.21-.04 4.6-.92h6.8l4.6.92.22.04 1.78.72v2.64ZM12.44 9.87h7.13l.64.13 3.79.77v1.11l-4.21-.84c-.13-.03-.26-.04-.39-.04h-6.8c-.13 0-.26.01-.39.04L8 11.88v-1.11l3.8-.77.64-.13Zm13.04-.77c-.16-.08-.33-.14-.51-.17L20.41 8l-.44-.09a1.81 1.81 0 0 0-.4-.04h-7.13c-.14 0-.28.01-.4.04L11.6 8l-4.57.93c-.18.03-.35.09-.51.17L6 9.37V8.21l1.7-1.73L12.57 4h6.86l4.88 2.48L26 8.21v1.16l-.52-.27Z"
    fill="#000"
  /></svg>
