<svg width="32" height="32" fill="none" xmlns="http://www.w3.org/2000/svg"><path
    fill-rule="evenodd"
    clip-rule="evenodd"
    d="M18.23 3c.05-.008.1-.012.15-.012 1.858 0 3.64.737 4.954 2.05a6.997 6.997 0 0 1 2.052 4.95c0 .568-.098 1.107-.241 1.604 2.174.624 3.845 2.607 3.845 4.996 0 2.352-1.694 4.269-3.79 4.944.118.365.186.72.186 1.056a3.999 3.999 0 0 1-4.003 4c-.78 0-1.52-.253-2.138-.646-1.24 1.797-3.277 3.046-5.67 3.046a7.01 7.01 0 0 1-5.861-3.165 6.996 6.996 0 0 1-.96-5.436 5.205 5.205 0 0 1-3.763-4.915 5.197 5.197 0 0 1 3.71-5.064 3.997 3.997 0 0 1 1.77-4.413 4.005 4.005 0 0 1 2.104-.597c.781 0 1.52.252 2.138.646 1.214-1.759 3.19-2.993 5.518-3.045Zm.51 13.028-2.653-1.061-2.388-.955-.865-1.732 1.082-4.33c.742-1.58 2.208-2.733 3.951-2.924.17-.019.342-.028.516-.028a1 1 0 0 0 .126-.008 5.009 5.009 0 0 1 3.412 1.463 4.997 4.997 0 0 1 1.465 3.535c0 .597-.181 1.205-.45 1.844l-4.196 4.196Zm-8.165-8.63c.449 0 .92.194 1.293.497l-.8 3.204-2.255-.751a1.998 1.998 0 0 1 1.762-2.95Zm-2.538 4.8 3.023 1.006.695 1.39-4.042 3.96A3.206 3.206 0 0 1 4.99 15.44a3.198 3.198 0 0 1 2.98-3.242h.067Zm12.117 5.245 4.02-4.02c1.574.234 2.816 1.588 2.816 3.165 0 1.63-1.48 3.088-3.226 3.2l-2.863-.478-.747-1.867Zm.744 3.895 2.228.37c.2.447.26.73.26.88a1.999 1.999 0 0 1-2.003 2c-.441 0-.905-.188-1.275-.483l.79-2.767Zm-2.842 2.668c-.76 1.642-2.298 2.829-4.12 2.968a5.011 5.011 0 0 1-4.55-2.248 4.996 4.996 0 0 1-.48-4.54l4.303-4.216 2.518 1.007 2.483.993.916 2.29-1.07 3.746Z"
    fill="#000"
  /></svg>
