<svg width="32" height="32" fill="none" xmlns="http://www.w3.org/2000/svg"><path
    fill-rule="evenodd"
    clip-rule="evenodd"
    d="M17.762 5.215a3.893 3.893 0 0 1 5.65 0l3.438 3.578c1.534 1.598 1.534 4.171 0 5.768L15.864 26H27a1 1 0 1 1 0 2H10.587a4 4 0 0 1-2.885-1.23L5.15 24.115c-1.533-1.597-1.533-4.17 0-5.768L17.762 5.215Zm-1.734 17.727L13.09 26h-2.504a2 2 0 0 1-1.443-.615l-2.55-2.655a2.19 2.19 0 0 1 0-2.997l3.05-3.175 6.385 6.385Zm1.386-1.443 7.993-8.323a2.19 2.19 0 0 0 0-2.997L21.97 6.6c-.768-.8-1.997-.8-2.766 0l-8.176 8.514 6.385 6.385Z"
    fill="#000"
  /></svg>
