<svg width="32" height="32" fill="none" xmlns="http://www.w3.org/2000/svg"><path fill-rule="evenodd" clip-rule="evenodd" d="M18.371 5.168a3.988 3.988 0 0 1 5.64 0l2.82 2.82a3.988 3.988 0 0 1 0 5.641L13.63 26.832a3.988 3.988 0 0 1-5.64 0l-2.82-2.82a3.988 3.988 0 0 1 0-5.641l13.2-13.203Zm4.23 1.41a1.994 1.994 0 0 0-2.82 0l-9.387 9.387 5.64 5.64 9.388-9.386a1.994 1.994 0 0 0 0-2.82l-2.82-2.82ZM6.578 19.781l2.406-2.406 5.64 5.64-2.405 2.407a1.994 1.994 0 0 1-2.82 0l-2.82-2.82a1.994 1.994 0 0 1 0-2.82Z" fill="#000"/><path d="M17.994 25.972a.997.997 0 0 0 0 1.994h8.974a.997.997 0 0 0 0-1.994h-8.974Z" fill="#000"/></svg>