<svg width="32" height="32" fill="none" xmlns="http://www.w3.org/2000/svg"><path d="M19.707 15.293a1 1 0 0 1 0 1.414L17.414 19l2.293 2.293a1 1 0 0 1-1.414 1.414L16 20.414l-2.293 2.293a1 1 0 0 1-1.414-1.414L14.586 19l-2.293-2.293a1 1 0 0 1 1.414-1.414L16 17.586l2.293-2.293a1 1 0 0 1 1.414 0Z" fill="#000"/><path fill-rule="evenodd" clip-rule="evenodd" d="M12.75 6.058c1.422-2.744 5.078-2.744 6.5 0l8.27 15.953C28.91 24.693 27.116 28 24.27 28H7.73c-2.846 0-4.64-3.307-3.25-5.99l8.27-15.952Zm4.875.983c-.711-1.372-2.539-1.372-3.25 0l-8.27 15.953c-.695 1.34.202 2.994 1.625 2.994h16.54c1.423 0 2.32-1.653 1.625-2.994L17.625 7.04Z" fill="#000"/></svg>