<svg width="32" height="32" fill="none" xmlns="http://www.w3.org/2000/svg"><path d="M20.207 11.793a1 1 0 0 1 0 1.414L17.414 16l2.793 2.793a1 1 0 0 1-1.414 1.414L16 17.414l-2.793 2.793a1 1 0 0 1-1.414-1.414L14.586 16l-2.793-2.793a1 1 0 0 1 1.414-1.414L16 14.586l2.793-2.793a1 1 0 0 1 1.414 0Z" fill="#000"/><path fill-rule="evenodd" clip-rule="evenodd" d="M19.81 3.09a4 4 0 0 1 2.828 1.171l5.268 5.269a4 4 0 0 1 1.172 2.828v7.451a4 4 0 0 1-1.172 2.828l-5.268 5.269a4 4 0 0 1-2.829 1.171h-7.45a4 4 0 0 1-2.829-1.171l-5.268-5.269A4 4 0 0 1 3.09 19.81v-7.45a4 4 0 0 1 1.172-2.83L9.53 4.262a4 4 0 0 1 2.828-1.171h7.451Zm1.413 2.586a2 2 0 0 0-1.414-.586h-7.45a2 2 0 0 0-1.415.586l-5.268 5.268a2 2 0 0 0-.586 1.414v7.451a2 2 0 0 0 .586 1.414l5.268 5.269a2 2 0 0 0 1.414.585h7.451a2 2 0 0 0 1.414-.585l5.269-5.269a2 2 0 0 0 .585-1.414v-7.45a2 2 0 0 0-.585-1.415l-5.269-5.268Z" fill="#000"/></svg>