<svg width="32" height="32" fill="none" xmlns="http://www.w3.org/2000/svg"><path
    d="M20.207 11.793a1 1 0 0 1 0 1.414L17.414 16l2.793 2.793a1 1 0 0 1-1.414 1.414L16 17.414l-2.793 2.793a1 1 0 0 1-1.414-1.414L14.586 16l-2.793-2.793a1 1 0 0 1 1.414-1.414L16 14.586l2.793-2.793a1 1 0 0 1 1.414 0Z"
    fill="#000"
  /><path
    fill-rule="evenodd"
    clip-rule="evenodd"
    d="M2 16C2 8.268 8.268 2 16 2s14 6.268 14 14-6.268 14-14 14S2 23.732 2 16ZM16 4C9.373 4 4 9.373 4 16s5.373 12 12 12 12-5.373 12-12S22.627 4 16 4Z"
    fill="#000"
  /></svg>
