<svg width="32" height="32" fill="none" xmlns="http://www.w3.org/2000/svg"><path
    fill-rule="evenodd"
    clip-rule="evenodd"
    d="M16 10a6 6 0 1 0 0 12 6 6 0 0 0 0-12Zm-4 6a4 4 0 1 1 8 0 4 4 0 0 1-8 0Z"
    fill="#000"
  /><path
    fill-rule="evenodd"
    clip-rule="evenodd"
    d="M16 6c-3.769 0-6.43 1.321-8.439 3.2-1.886 1.763-3.18 4.008-4.29 5.934l-.137.237a1 1 0 0 0-.02.966c1.124 2.136 2.442 4.562 4.42 6.436C9.554 24.686 12.234 26 16 26c3.767 0 6.445-1.314 8.466-3.227 1.978-1.874 3.296-4.3 4.42-6.436a1 1 0 0 0-.02-.966l-.136-.237c-1.11-1.926-2.404-4.17-4.291-5.935C22.429 7.321 19.769 6 16 6ZM8.91 21.32c-1.58-1.494-2.71-3.436-3.768-5.428 1.088-1.88 2.212-3.761 3.785-5.232C10.589 9.107 12.769 8 16 8c3.231 0 5.412 1.107 7.073 2.66 1.573 1.47 2.697 3.351 3.785 5.232-1.06 1.992-2.19 3.934-3.768 5.428C21.425 22.898 19.233 24 16 24c-3.233 0-5.425-1.102-7.09-2.68Z"
    fill="#000"
  /></svg>
