<svg width="32" height="32" fill="none" xmlns="http://www.w3.org/2000/svg"><path fill-rule="evenodd" clip-rule="evenodd" d="M18.984 5.179a1 1 0 1 0-1.968-.358l-.218 1.2A13.9 13.9 0 0 0 16 6c-3.769 0-6.43 1.321-8.439 3.2-1.886 1.763-3.18 4.008-4.29 5.934l-.137.237a1 1 0 0 0-.02.966c1.94 3.69 4.45 8.258 10.1 9.397l-.198 1.087a1 1 0 1 0 1.968.358l4-22Zm-5.412 18.587.386-2.123A6.002 6.002 0 0 1 16.074 10l.363-1.993A13.706 13.706 0 0 0 16 8c-3.231 0-5.412 1.107-7.073 2.66-1.573 1.471-2.697 3.351-3.785 5.232 1.9 3.57 4.033 6.969 8.43 7.874Zm2.137-11.755a4 4 0 0 0-1.386 7.622l1.386-7.622Z" fill="#000"/><path d="M20.095 7.614a1 1 0 0 1 1.331-.479c3.7 1.743 5.683 5.186 7.282 7.962l.158.274a1 1 0 0 1 .02.966c-2.012 3.825-4.636 8.596-10.738 9.509a1 1 0 0 1-.296-1.978c4.79-.717 7.025-4.253 9.006-7.975-1.608-2.779-3.297-5.541-6.284-6.948a1 1 0 0 1-.479-1.331Z" fill="#000"/><path d="M19.4 12.2a1 1 0 0 1 1.4.2A5.978 5.978 0 0 1 22 16a5.992 5.992 0 0 1-2.399 4.8 1 1 0 1 1-1.201-1.6A3.992 3.992 0 0 0 20 16c0-.902-.297-1.73-.8-2.4a1 1 0 0 1 .2-1.4Z" fill="#000"/></svg>