<svg width="32" height="32" fill="none" xmlns="http://www.w3.org/2000/svg"><path d="M16.723 23.691a1 1 0 0 1-1.446 0l-3-3.136a1 1 0 0 1 1.446-1.382L15 20.508V15.5a1 1 0 1 1 2 0v5.008l1.277-1.335a1 1 0 1 1 1.446 1.382l-3 3.136Z" fill="#000"/><path fill-rule="evenodd" clip-rule="evenodd" d="M10 4a4 4 0 0 0-4 4v16a4 4 0 0 0 4 4h12a4 4 0 0 0 4-4V12a1 1 0 0 0-.293-.707l-7-7A1 1 0 0 0 18 4h-8ZM8 8a2 2 0 0 1 2-2h7v6a1 1 0 0 0 1 1h6v11a2 2 0 0 1-2 2H10a2 2 0 0 1-2-2V8Zm14.586 3L19 7.414V11h3.586Z" fill="#000"/></svg>