<svg width="32" height="32" fill="none" xmlns="http://www.w3.org/2000/svg"><path fill-rule="evenodd" clip-rule="evenodd" d="M6 8a4 4 0 0 1 4-4h8a1 1 0 0 1 .707.293l7 7A1 1 0 0 1 26 12v3a1 1 0 1 1-2 0v-2h-6a1 1 0 0 1-1-1V6h-7a2 2 0 0 0-2 2v7a1 1 0 1 1-2 0V8Zm13-.586L22.586 11H19V7.414Z" fill="#000"/><path d="M20.138 19.078c.509.09 1.036.268 1.443.551a1 1 0 1 1-1.142 1.642c-.092-.064-.316-.164-.652-.224a2.87 2.87 0 0 0-.98-.01c-.312.057-.513.163-.626.271-.088.086-.181.227-.181.53 0 .146.031.196.038.206.01.016.04.056.142.112.255.138.639.217 1.256.334l.044.009c.517.098 1.238.234 1.82.573.323.188.637.455.866.838.23.385.334.824.334 1.297 0 1.607-1.262 2.518-2.442 2.818-1.182.301-2.659.123-3.704-.762a1 1 0 0 1 1.292-1.526c.451.381 1.224.527 1.918.35.697-.177.936-.546.936-.88 0-.172-.036-.246-.052-.274a.4.4 0 0 0-.154-.133c-.245-.143-.625-.23-1.23-.345l-.095-.017c-.503-.095-1.19-.224-1.743-.524a2.338 2.338 0 0 1-.877-.799A2.347 2.347 0 0 1 16 21.838c0-.804.284-1.477.791-1.967.483-.468 1.097-.7 1.663-.802a4.864 4.864 0 0 1 1.684.01ZM14.5 20a1 1 0 1 0-2 0v4.75c0 .69-.56 1.25-1.25 1.25H11a1 1 0 0 1-1-1 1 1 0 1 0-2 0 3 3 0 0 0 3 3h.25a3.25 3.25 0 0 0 3.25-3.25V20Z" fill="#000"/></svg>