<svg width="32" height="32" fill="none" xmlns="http://www.w3.org/2000/svg"><path
    fill-rule="evenodd"
    clip-rule="evenodd"
    d="M10 4a4 4 0 0 0-4 4v7a1 1 0 1 0 2 0V8a2 2 0 0 1 2-2h7v6a1 1 0 0 0 1 1h6v2a1 1 0 1 0 2 0v-3a1 1 0 0 0-.293-.707l-7-7A1 1 0 0 0 18 4h-8Zm12.586 7L19 7.414V11h3.586ZM5 20a1 1 0 0 1 1-1h3a3 3 0 1 1 0 6H7v2a1 1 0 1 1-2 0v-7Zm2 1v2h2a1 1 0 1 0 0-2H7Zm7-2a1 1 0 0 0-1 1v7a1 1 0 0 0 1 1h2a4.5 4.5 0 1 0 0-9h-2Zm1 7v-5h1a2.5 2.5 0 0 1 0 5h-1Z"
    fill="#000"
  /><path
    d="M23 19a1 1 0 0 0-1 1v7a1 1 0 1 0 2 0v-2h2a1 1 0 1 0 0-2h-2v-2h3a1 1 0 1 0 0-2h-4Z"
    fill="#000"
  /></svg>
