<svg width="32" height="32" fill="none" xmlns="http://www.w3.org/2000/svg"><path fill-rule="evenodd" clip-rule="evenodd" d="M10 4a4 4 0 0 0-4 4v7a1 1 0 1 0 2 0V8a2 2 0 0 1 2-2h7v6a1 1 0 0 0 1 1h6v2a1 1 0 1 0 2 0v-3a1 1 0 0 0-.293-.707l-7-7A1 1 0 0 0 18 4h-8Zm12.586 7L19 7.414V11h3.586Z" fill="#000"/><path d="M14.868 19.504a1 1 0 1 0-1.736.992l1.716 3.004-1.716 3.004a1 1 0 1 0 1.736.992L16 25.516l1.132 1.98a1 1 0 1 0 1.736-.992L17.152 23.5l1.716-3.004a1 1 0 1 0-1.736-.992L16 21.484l-1.132-1.98ZM6 19a1 1 0 1 0 0 2h1.5v6a1 1 0 1 0 2 0v-6H11a1 1 0 1 0 0-2H6Zm14 1a1 1 0 0 1 1-1h5a1 1 0 1 1 0 2h-1.5v6a1 1 0 1 1-2 0v-6H21a1 1 0 0 1-1-1Z" fill="#000"/></svg>