<svg width="32" height="32" fill="none" xmlns="http://www.w3.org/2000/svg"><path
    d="M10 4a4 4 0 0 0-4 4v16a4 4 0 0 0 4 4h12a4 4 0 0 0 4-4v-6a1 1 0 1 0-2 0v6a2 2 0 0 1-2 2H10a2 2 0 0 1-2-2V8a2 2 0 0 1 2-2h7.586l.707.707a1 1 0 1 0 1.414-1.414l-1-1A1 1 0 0 0 18 4h-8Z"
    fill="#000"
  /><path
    fill-rule="evenodd"
    clip-rule="evenodd"
    d="M24.621 8.707a3 3 0 0 0-4.242 0l-8.5 8.5A3 3 0 0 0 11 19.328V22a1 1 0 0 0 1 1h2.672a3 3 0 0 0 2.12-.879l8.5-8.5a3 3 0 0 0 0-4.242l-.67-.672Zm-2.828 1.414a1 1 0 0 1 1.414 0l.672.672a1 1 0 0 1 0 1.414l-8.5 8.5a1 1 0 0 1-.707.293H13v-1.672a1 1 0 0 1 .293-.707l8.5-8.5Z"
    fill="#000"
  /></svg>
