<svg width="32" height="32" fill="none" xmlns="http://www.w3.org/2000/svg"><path
    fill-rule="evenodd"
    clip-rule="evenodd"
    d="M6 8a4 4 0 0 1 4-4h8a1 1 0 0 1 .707.293l7 7A1 1 0 0 1 26 12v3a1 1 0 1 1-2 0v-2h-6a1 1 0 0 1-1-1V6h-7a2 2 0 0 0-2 2v16a2 2 0 0 0 2 2h5a1 1 0 1 1 0 2h-5a4 4 0 0 1-4-4V8Zm13-.586L22.586 11H19V7.414Z"
    fill="#000"
  /><path
    d="M28.5 22a1 1 0 0 1-.309.723l-3.136 3a1 1 0 0 1-1.382-1.446L25.008 23h-5.516l1.335 1.277a1 1 0 1 1-1.382 1.446l-3.136-3a1 1 0 0 1 0-1.446l3.136-3a1 1 0 0 1 1.382 1.446L19.492 21h5.516l-1.335-1.277a1 1 0 1 1 1.382-1.446l3.136 3A1 1 0 0 1 28.5 22Z"
    fill="#000"
  /></svg>
