<svg width="32" height="32" fill="none" xmlns="http://www.w3.org/2000/svg"><path
    fill-rule="evenodd"
    clip-rule="evenodd"
    d="M17.137 2.396a1.912 1.912 0 0 0-2.284-.035c-1.073.767-3.487 2.584-5.75 4.936-2.23 2.318-4.468 5.314-4.939 8.445C2.862 24.398 9.544 29.99 15.972 30h.058c6.407-.024 13.192-5.62 11.782-14.27-.476-2.92-2.727-5.89-4.946-8.23-2.26-2.383-4.67-4.297-5.73-5.104Zm5.43 23.119c2.423-2.076 3.94-5.36 3.272-9.458-.37-2.265-2.223-4.85-4.418-7.165-2.128-2.243-4.412-4.066-5.451-4.858-1.044.748-3.317 2.468-5.43 4.666-2.175 2.26-4.027 4.87-4.399 7.345-.62 4.12.895 7.406 3.306 9.479-.412-1.086-.565-2.342-.352-3.738.264-1.73 1.438-3.333 2.583-4.554 1.173-1.252 2.46-2.253 3.178-2.775a1.898 1.898 0 0 1 2.287.033c.709.546 1.992 1.593 3.162 2.853 1.133 1.22 2.318 2.806 2.586 4.43.23 1.398.086 2.655-.323 3.742Zm-6.544 2.47h-.047c-2.71-.01-5.449-2.322-4.905-5.893.168-1.098.98-2.324 2.06-3.476 1.026-1.094 2.169-1.993 2.845-2.489.676.524 1.83 1.475 2.868 2.592 1.1 1.184 1.91 2.393 2.075 3.386.583 3.537-2.175 5.863-4.896 5.88Z"
    fill="#000"
  /></svg>
