<svg width="32" height="32" fill="none" xmlns="http://www.w3.org/2000/svg"><path
    fill-rule="evenodd"
    clip-rule="evenodd"
    d="M6 5a1 1 0 0 1 1-1c2.197 0 3.87.34 5.273.887 1.394.542 2.475 1.272 3.468 1.97l.287.203c1.842 1.302 3.573 2.526 7.063 2.855C24.638 10.061 26 11.315 26 13v8c0 1.63-1.348 3.071-3.097 2.906-4.024-.38-6.119-1.861-8.017-3.204l-.296-.209c-.974-.685-1.889-1.293-3.042-1.742-.942-.367-2.074-.639-3.548-.723V27a1 1 0 1 1-2 0V5Zm2 11.025c1.717.087 3.092.402 4.273.862 1.394.542 2.475 1.272 3.468 1.97l.287.203c1.842 1.302 3.573 2.526 7.063 2.855.45.043.909-.335.909-.915v-8c0-.525-.445-1.032-1.097-1.094-4.024-.38-6.119-1.861-8.017-3.204l-.296-.209c-.974-.685-1.889-1.293-3.042-1.743-.942-.366-2.074-.638-3.548-.722v9.997Z"
    fill="#000"
  /></svg>
