<svg width="32" height="32" fill="none" xmlns="http://www.w3.org/2000/svg"><path fill-rule="evenodd" clip-rule="evenodd" d="M10.73 7.047c1.274-1.533 3.096-2.414 4.09-2.816a3.13 3.13 0 0 1 2.36 0c.994.402 2.817 1.283 4.09 2.816a8.78 8.78 0 0 1 2.418-1.526c1.162-.485 2.294-.171 3.086.536C27.54 6.742 28 7.792 28 8.897v7.037C28 22.598 22.63 27.998 16.003 28H16C9.373 28 4 22.598 4 15.934V8.896c0-1.104.46-2.154 1.226-2.839.792-.707 1.925-1.021 3.086-.536a8.778 8.778 0 0 1 2.419 1.526Zm4.838-.951a1.14 1.14 0 0 1 .864 0c.99.4 2.525 1.194 3.45 2.427a14.782 14.782 0 0 0-1.354 2.075c-1.199 2.2-1.981 4.767-2.497 7.176L16 17.92l-.031-.147c-.516-2.409-1.298-4.975-2.497-7.176a14.766 14.766 0 0 0-1.354-2.075c.925-1.233 2.46-2.026 3.45-2.427Zm-.691 18.238c.048.63.077 1.174.095 1.603C9.932 25.419 6 21.138 6 15.934V8.896c0-.562.24-1.054.555-1.336.29-.26.622-.336.99-.182 1.733.723 3.1 2.216 4.173 4.185 1.071 1.967 1.802 4.327 2.296 6.633.492 2.3.739 4.505.863 6.138ZM26 15.934c0 5.205-3.932 9.485-8.972 10.003.018-.429.047-.972.095-1.603.124-1.633.371-3.837.863-6.137.494-2.307 1.225-4.667 2.296-6.634 1.073-1.97 2.44-3.462 4.172-4.185.369-.154.7-.077.991.182.316.282.555.774.555 1.336v7.038Z" fill="#000"/></svg>