<svg width="32" height="32" fill="none" xmlns="http://www.w3.org/2000/svg"><path d="M4 8a4 4 0 0 1 4-4h16a4 4 0 0 1 4 4v1a1 1 0 1 1-2 0V8a2 2 0 0 0-2-2H8a2 2 0 0 0-2 2v16a2 2 0 0 0 2 2h6.308a1 1 0 1 1 0 2H8a4 4 0 0 1-4-4V8Z" fill="#000"/><path fill-rule="evenodd" clip-rule="evenodd" d="M17 25c0-1.306.835-2.418 2-2.83V22a3 3 0 0 1 3-3h3a1 1 0 0 0 1-1v-.17a3.001 3.001 0 1 1 2 0V18a3 3 0 0 1-3 3h-3a1 1 0 0 0-1 1v.17A3.001 3.001 0 1 1 17 25Zm3-1a1 1 0 1 0 0 2 1 1 0 0 0 0-2Zm6-9a1 1 0 1 1 2 0 1 1 0 0 1-2 0Z" fill="#000"/><path d="M11 10a1 1 0 1 0 0 2h9a1 1 0 1 0 0-2h-9Zm-1 6a1 1 0 0 1 1-1h7a1 1 0 1 1 0 2h-7a1 1 0 0 1-1-1Zm1 4a1 1 0 1 0 0 2h3a1 1 0 1 0 0-2h-3Z" fill="#000"/></svg>