<svg width="32" height="32" fill="none" xmlns="http://www.w3.org/2000/svg"><path
    fill-rule="evenodd"
    clip-rule="evenodd"
    d="M23.868 4.342a1 1 0 0 1 .227.854 17.77 17.77 0 0 1-1.15 3.54 11.3 11.3 0 0 1-.773 1.448c1.496.373 2.79 1.341 3.378 3.086.043.126.08.254.114.384.795 3.078.065 5.467-1.005 8.152-.423 1.063-1.029 2.251-1.629 3.336-1.293 2.34-3.919 3.311-6.325 2.659a2.715 2.715 0 0 0-1.41 0c-2.406.652-5.032-.32-6.325-2.659-.6-1.085-1.206-2.273-1.629-3.336-1.07-2.685-1.8-5.074-1.005-8.152a5.53 5.53 0 0 1 .114-.384c.647-1.92 2.15-2.9 3.834-3.18 1.401-.234 2.942.004 4.342.525a13.045 13.045 0 0 0-.533-1.132C13.61 8.579 13.028 7.77 12.4 7.3a1 1 0 1 1 1.2-1.6c.879.659 1.576 1.628 2.097 2.55a5.053 5.053 0 0 1 .789-1.517c1.137-1.497 3.206-2.521 6.566-2.731a1 1 0 0 1 .816.34Zm-6.414 6.244a9.854 9.854 0 0 1 2.183-.528c.183-.116.412-.333.669-.686.288-.397.564-.9.815-1.458.264-.585.487-1.201.662-1.765-2.095.337-3.16 1.076-3.704 1.793-.604.796-.718 1.762-.625 2.644Zm-9.109 3.322c.37-1.1 1.177-1.664 2.268-1.846 1.141-.19 2.559.061 3.875.658a3.671 3.671 0 0 0 3.024 0c1.316-.597 2.734-.848 3.875-.658 1.091.182 1.897.747 2.268 1.847.027.081.052.163.073.245.63 2.437.105 4.321-.927 6.912-.378.949-.937 2.053-1.521 3.109-.824 1.49-2.486 2.12-4.052 1.696a4.715 4.715 0 0 0-2.456 0c-1.566.424-3.228-.206-4.052-1.696-.583-1.056-1.143-2.16-1.52-3.109-1.033-2.59-1.557-4.475-.928-6.912a3.61 3.61 0 0 1 .073-.245Z"
    fill="#000"
  /></svg>
