<svg width="32" height="32" fill="none" xmlns="http://www.w3.org/2000/svg"><path
    d="M15.325 8.399A3 3 0 0 1 18.265 6H20a1 1 0 1 0 0-2h-1.735a5 5 0 0 0-4.899 3.998L12.956 10H10a1 1 0 1 0 0 2h2.547l-2.373 11.601A3 3 0 0 1 7.236 26H5.5a1 1 0 1 0 0 2h1.735a5 5 0 0 0 4.899-3.998L14.589 12H18a1 1 0 1 0 0-2h-3.002l.328-1.601Z"
    fill="#000"
  /><path
    d="M16 17a1 1 0 0 1 1-1h1.207a3 3 0 0 1 2.736 1.769l1.041 2.314 1.13-1.882A4.532 4.532 0 0 1 27 16a1 1 0 1 1 0 2c-.89 0-1.714.467-2.172 1.23l-1.844 3.074 1.397 3.106a1 1 0 0 0 .912.59H27a1 1 0 1 1 0 2h-1.707a3 3 0 0 1-2.736-1.769l-.827-1.838-.843 1.406A4.532 4.532 0 0 1 17 28a1 1 0 1 1 0-2c.89 0 1.714-.467 2.172-1.23l1.559-2.598-1.612-3.582a1 1 0 0 0-.912-.59H17a1 1 0 0 1-1-1Z"
    fill="#000"
  /></svg>
