<svg width="32" height="32" fill="none" xmlns="http://www.w3.org/2000/svg"><path fill-rule="evenodd" clip-rule="evenodd" d="M12 8a4.002 4.002 0 0 1-3 3.874V13a2 2 0 0 0 2 2h2a3.99 3.99 0 0 1 3 1.354A3.99 3.99 0 0 1 19 15h2a2 2 0 0 0 2-2v-1.126A4.002 4.002 0 0 1 24 4a4 4 0 0 1 1 7.874V13a4 4 0 0 1-4 4h-2a2 2 0 0 0-2 2v1.126A4.002 4.002 0 0 1 16 28a4 4 0 0 1-1-7.874V19a2 2 0 0 0-2-2h-2a4 4 0 0 1-4-4v-1.126A4.002 4.002 0 0 1 8 4a4 4 0 0 1 4 4ZM6 8a2 2 0 1 1 4 0 2 2 0 0 1-4 0Zm10 14a2 2 0 1 0 0 4 2 2 0 0 0 0-4Zm8-12a2 2 0 1 0 0-4 2 2 0 0 0 0 4Z" fill="#000"/></svg>