<svg width="32" height="32" fill="none" xmlns="http://www.w3.org/2000/svg"><path fill-rule="evenodd" clip-rule="evenodd" d="M10 6a2 2 0 1 0 0 4 2 2 0 0 0 0-4Zm4 2a4.002 4.002 0 0 1-2.927 3.854A5.001 5.001 0 0 0 16 16h2.126A4.002 4.002 0 0 1 26 17a4 4 0 0 1-7.874 1H16a6.979 6.979 0 0 1-5-2.101V20c0 .042-.003.083-.008.124A4.002 4.002 0 0 1 10 28a4 4 0 0 1-.992-7.876A1.01 1.01 0 0 1 9 20v-8c0-.042.003-.083.008-.124A4.002 4.002 0 0 1 10 4a4 4 0 0 1 4 4Zm8 11a2 2 0 1 1 0-4 2 2 0 0 1 0 4Zm-12 3a2 2 0 1 0 0 4 2 2 0 0 0 0-4Z" fill="#000"/></svg>