<svg width="32" height="32" fill="none" xmlns="http://www.w3.org/2000/svg"><path
    fill-rule="evenodd"
    clip-rule="evenodd"
    d="M19.707 4.707a1 1 0 0 0-1.414-1.414l-4 4a1 1 0 0 0 0 1.414l4 4a1 1 0 0 0 1.414-1.414L17.414 9H21a2 2 0 0 1 2 2v9.126A4.002 4.002 0 0 0 24 28a4 4 0 0 0 1-7.874V11a4 4 0 0 0-4-4h-3.586l2.293-2.293ZM24 22a2 2 0 1 0 0 4 2 2 0 0 0 0-4ZM9 10.874A4.002 4.002 0 0 0 8 3a4 4 0 0 0-1 7.874V20a4 4 0 0 0 4 4h3.586l-2.293 2.293a1 1 0 0 0 1.414 1.414l4-4a1 1 0 0 0 0-1.414l-4-4a1 1 0 0 0-1.414 1.414L14.586 22H11a2 2 0 0 1-2-2v-9.126ZM8 9a2 2 0 1 0 0-4 2 2 0 0 0 0 4Z"
    fill="#000"
  /></svg>
