<svg width="32" height="32" fill="none" xmlns="http://www.w3.org/2000/svg"><path
    fill-rule="evenodd"
    clip-rule="evenodd"
    d="M19.707 4.707 17.414 7H21a4 4 0 0 1 4 4v9.126A4.002 4.002 0 0 1 24 28a4 4 0 0 1-1-7.874V11a2 2 0 0 0-2-2h-3.586l2.293 2.293a1 1 0 0 1-1.414 1.414l-4-4a1 1 0 0 1 0-1.414l4-4a1 1 0 1 1 1.414 1.414ZM22 24a2 2 0 1 1 4 0 2 2 0 0 1-4 0Z"
    fill="#000"
  /><path
    d="M4.293 4.293a1 1 0 0 1 1.414 0L8 6.586l2.293-2.293a1 1 0 1 1 1.414 1.414L9.414 8l2.293 2.293a1 1 0 0 1-1.414 1.414L8 9.414l-2.293 2.293a1 1 0 0 1-1.414-1.414L6.586 8 4.293 5.707a1 1 0 0 1 0-1.414Z"
    fill="#000"
  /><path
    fill-rule="evenodd"
    clip-rule="evenodd"
    d="M8.992 20.124c.005-.04.008-.082.008-.124v-5a1 1 0 1 0-2 0v5c0 .042.003.083.008.124A4.002 4.002 0 0 0 8 28a4 4 0 0 0 .992-7.876ZM6 24a2 2 0 1 0 4 0 2 2 0 0 0-4 0Z"
    fill="#000"
  /></svg>
