<svg width="32" height="32" fill="none" xmlns="http://www.w3.org/2000/svg"><path
    fill-rule="evenodd"
    clip-rule="evenodd"
    d="M19.707 4.707 17.414 7H21a4 4 0 0 1 4 4v9.126A4.002 4.002 0 0 1 24 28a4 4 0 0 1-1-7.874V11a2 2 0 0 0-2-2h-3.586l2.293 2.293a1 1 0 0 1-1.414 1.414l-4-4a1 1 0 0 1 0-1.414l4-4a1 1 0 1 1 1.414 1.414ZM22 24a2 2 0 1 1 4 0 2 2 0 0 1-4 0ZM4 8a4 4 0 1 1 4.992 3.876c.005.04.008.082.008.124v8c0 .042-.003.083-.008.124A4.002 4.002 0 0 1 8 28a4 4 0 0 1-.992-7.876A1.01 1.01 0 0 1 7 20v-8c0-.042.003-.083.008-.124A4.002 4.002 0 0 1 4 8Zm4-2a2 2 0 1 0 0 4 2 2 0 0 0 0-4Zm0 16a2 2 0 1 0 0 4 2 2 0 0 0 0-4Z"
    fill="#000"
  /></svg>
