<svg width="32" height="32" fill="none" xmlns="http://www.w3.org/2000/svg"><path fill-rule="evenodd" clip-rule="evenodd" d="m28.293 12.464-8.758-8.757a5 5 0 0 0-7.07 0l-8.758 8.757a5 5 0 0 0 0 7.072l8.757 8.757a5 5 0 0 0 7.071 0l8.758-8.757a5 5 0 0 0 0-7.072ZM13.879 5.121a3 3 0 0 1 4.242 0l8.758 8.758a3 3 0 0 1 0 4.242L18.12 26.88a3 3 0 0 1-4.242 0L5.12 18.12a3 3 0 0 1 0-4.242l6.672-6.672 1.5 1.5A3.001 3.001 0 0 0 15 12.83v5.34a3.001 3.001 0 1 0 1.999 0v-5.34c.1-.036.198-.077.293-.122l2 1.999a3 3 0 1 0 1.414-1.414l-2-2a3 3 0 0 0-4.001-4.001l-1.499-1.5.672-.67Zm7.192 11.25A1 1 0 0 1 22 15v-.001a.997.997 0 0 1 1 1 1 1 0 0 1-1.929.37ZM16 20a1 1 0 1 0 0 2 1 1 0 0 0 0-2Zm0-9a1 1 0 1 0 0-2 1 1 0 0 0 0 2Z" fill="#000"/></svg>