<svg width="32" height="32" fill="none" xmlns="http://www.w3.org/2000/svg"><path
    d="m12.89 17.07-5.15-3.14c-.2-.12-.42-.18-.64-.18-.23-.04-.45.06-.64.18-.24.15-.44.36-.58.62-.15.27-.22.57-.22.88v1.26c0 .65.17 1.3.48 1.87.31.56.75 1.04 1.28 1.36l6.26 3.82c1.18.72 1.68 1.01 2.12 1.01.44 0 .94-.29 2.12-1.01l6.65-4.05c.09-.06.2-.12.26-.17v-.89l-7.39 4.51c-.69.42-1.1.67-1.65.67-.55 0-.96-.25-1.65-.67l-6.58-4.02c-.25-.15-.4-.25-.55-.38-.32-.3-.54-.7-.63-1.14-.03-.16-.04-.33-.04-.68 0-.46 0-.71.1-.97.11-.28.31-.53.57-.69.27-.17.58-.23.89-.19.28.04.49.17.87.4l6.16 3.74c.41.25.74.45.86.45s.45-.2.86-.45l9.09-5.53c.57-.34 1.3-.34 1.86 0 .28.17.51.41.66.7.15.28.24.6.24.93v2.9c0 1.57 0 2.44-.43 3.22-.43.79-1.15 1.23-2.44 2.02l-4.43 2.7c-2.57 1.57-3.86 2.35-5.42 2.35s-2.85-.79-5.42-2.36l-4.19-2.56a8.42 8.42 0 0 1-3.04-3.17A9.006 9.006 0 0 1 2 16.09v-.27c.01-1.53.41-3.03 1.14-4.34A8.469 8.469 0 0 1 6.2 8.31l6.69-4.08c1.3-.79 2.02-1.23 2.9-1.23.88 0 1.6.44 2.9 1.23l7.8 4.74c.29.17.52.42.69.72.16.29.24.62.24.96 0 .34-.08.67-.25.96-.16.3-.4.55-.69.72l-7.79 4.74c-1.3.79-2.02 1.23-2.9 1.23-.88 0-1.6-.44-2.9-1.23ZM15.78 4.5c-.44 0-.94.29-2.11 1L6.96 9.59a7.048 7.048 0 0 0-2.52 2.62 7.575 7.575 0 0 0-.95 3.62v.25c0 1.26.34 2.51.94 3.61a6.994 6.994 0 0 0 2.51 2.61l4.2 2.56c4.65 2.84 4.61 2.85 9.27 0l4.43-2.7c1.19-.72 1.68-1.03 1.91-1.46.25-.45.25-1.13.25-2.5v-2.9c0-.08-.02-.15-.05-.21a.353.353 0 0 0-.13-.14c-.09-.05-.21-.06-.3 0l-9.09 5.53c-.68.42-1.1.67-1.64.67-.54 0-.96-.25-1.64-.67L8 16.74c-.06-.04-.11-.07-.16-.1v.25c0 .21 0 .31.01.41.02.13.09.24.18.32.07.06.15.1.31.2l6.58 4.02c.41.25.74.45.87.45s.45-.2.86-.45l8.07-4.92c.29-.17.71-.43 1.17-.14.44.26.44.73.44 1.07v1.31c0 .44 0 .75-.17 1.07-.18.33-.45.49-.81.72L18.7 25c-1.3.79-2.02 1.23-2.9 1.23-.88 0-1.6-.44-2.9-1.23l-6.22-3.8a5.16 5.16 0 0 1-1.85-1.95c-.43-.79-.66-1.68-.66-2.59V15.4c0-.56.14-1.11.4-1.59.27-.49.65-.9 1.12-1.18.43-.26.92-.4 1.42-.4.5 0 .99.14 1.42.4l5.15 3.14c1.18.72 1.67 1.01 2.12 1.01.44 0 .94-.29 2.12-1.01l7.79-4.74a.463.463 0 0 0 .21-.4.463.463 0 0 0-.21-.4l-7.8-4.74c-1.18-.72-1.67-1.01-2.12-1.01l-.01.02Z"
    fill="#000"
  /></svg>
