<svg width="32" height="32" fill="none" xmlns="http://www.w3.org/2000/svg"><path d="M8 3a1 1 0 0 1 1 1v2.5a1 1 0 1 1-2 0V4a1 1 0 0 1 1-1Zm4 8a1 1 0 0 1 1 1v2.5a1 1 0 1 1-2 0V12a1 1 0 0 1 1-1Zm5 3a1 1 0 1 0-2 0v2.5a1 1 0 1 0 2 0V14Zm3-6a1 1 0 0 1 1 1v2.5a1 1 0 1 1-2 0V9a1 1 0 0 1 1-1Zm5-1a1 1 0 1 0-2 0v2.5a1 1 0 1 0 2 0V7ZM9 16a1 1 0 1 1-2 0 1 1 0 0 1 2 0Zm3 3a1 1 0 1 0 0-2 1 1 0 0 0 0 2Zm5 1a1 1 0 1 1-2 0 1 1 0 0 1 2 0Zm7-3a1 1 0 1 1 0-2 1 1 0 0 1 0 2Zm-5 1a1 1 0 1 0 2 0 1 1 0 0 0-2 0ZM8 14a1 1 0 1 0 0-2 1 1 0 0 0 0 2Zm13 1a1 1 0 1 1-2 0 1 1 0 0 1 2 0Zm3-1a1 1 0 1 0 0-2 1 1 0 0 0 0 2ZM13 9a1 1 0 1 1-2 0 1 1 0 0 1 2 0Zm3 3a1 1 0 1 0 0-2 1 1 0 0 0 0 2Zm-7-2a1 1 0 1 1-2 0 1 1 0 0 1 2 0Zm3-3a1 1 0 1 0 0-2 1 1 0 0 0 0 2Zm5 1a1 1 0 1 1-2 0 1 1 0 0 1 2 0Zm3-1a1 1 0 1 0 0-2 1 1 0 0 0 0 2Zm5-3a1 1 0 1 1-2 0 1 1 0 0 1 2 0Z" fill="#000"/><path fill-rule="evenodd" clip-rule="evenodd" d="M6.19 19.415a1 1 0 0 0 .225 1.396l6.613 4.776a3 3 0 1 0 5.944 0l6.614-4.776a1 1 0 0 0-1.171-1.622l-6.38 4.607A2.989 2.989 0 0 0 16 23c-.786 0-1.5.302-2.036.796L7.586 19.19a1 1 0 0 0-1.397.226ZM17 26a1 1 0 1 0-2 0 1 1 0 0 0 2 0Z" fill="#000"/></svg>