<svg width="32" height="32" fill="none" xmlns="http://www.w3.org/2000/svg"><path
    fill-rule="evenodd"
    clip-rule="evenodd"
    d="M3.472 9.73C5.73 5.157 10.365 2 15.755 2c3.317 0 6.164 1.114 8.441 2.977.904.74.874 2.047.128 2.808l-2.338 2.382c-.756.77-1.894.717-2.637.165-1.022-.759-2.232-1.156-3.594-1.156-2.84 0-5.304 1.96-6.192 4.665A6.926 6.926 0 0 0 9.206 16c0 .745.13 1.467.357 2.159.889 2.707 3.354 4.677 6.192 4.677 1.527 0 2.777-.42 3.736-1.078l.004-.002a5.018 5.018 0 0 0 1.771-2.085H17.61c-1.594 0-2.855-1.312-2.855-2.891v-1.253c0-1.578 1.26-2.89 2.855-2.89h8.608c1.37 0 2.636 1.009 2.741 2.496.027.382.041.77.041 1.163 0 4.197-1.48 7.806-4.118 10.289-2.31 2.174-5.45 3.415-9.127 3.415-5.39 0-10.026-3.157-12.283-7.718l-.104-.21v-.015A14.036 14.036 0 0 1 2 16c0-2.263.537-4.388 1.472-6.27ZM15.755 4c-4.581 0-8.549 2.681-10.49 6.616l-.001.003A12.04 12.04 0 0 0 4 16c0 1.943.46 3.765 1.264 5.381l.104.21v.008C7.345 25.412 11.253 28 15.755 28c3.21 0 5.847-1.075 7.757-2.872C25.697 23.072 27 20.016 27 16.296c0-.347-.012-.687-.036-1.022-.024-.338-.32-.638-.746-.638H17.61a.874.874 0 0 0-.855.891v1.253c0 .51.4.89.855.89h6.213l-.22 1.184a7.001 7.001 0 0 1-2.982 4.555c-1.313.9-2.962 1.427-4.866 1.427-3.795 0-6.964-2.616-8.093-6.054v-.001A8.925 8.925 0 0 1 7.206 16c0-.98.172-1.913.456-2.78v-.002c1.13-3.44 4.3-6.042 8.093-6.042 1.772 0 3.404.524 4.787 1.551a.108.108 0 0 0 .037.018l2.255-2.298C20.92 4.914 18.55 4 15.755 4Z"
    fill="#000"
  /></svg>
