<svg width="32" height="32" fill="none" xmlns="http://www.w3.org/2000/svg"><path
    d="M26.707 6.707a1 1 0 0 0-1.414-1.414L16 14.586l-4.293-4.293a1 1 0 0 0-1.656.39l-5 15a1 1 0 0 0 1.898.633l4.488-13.465 3.856 3.856a1 1 0 0 0 1.414 0l10-10Zm-21 4.086a1 1 0 0 0-1.414 1.414l2 2a1 1 0 0 0 1.414-1.414l-2-2Z"
    fill="#000"
  /><path
    d="M23.664 17.253a1 1 0 0 0-1.34.01l-5.294 4.853-4.323-4.323a1 1 0 0 0-1.414 1.414l5 5a1 1 0 0 0 1.383.03l5.334-4.89 3.826 3.4a1 1 0 0 0 1.328-1.494l-4.5-4Z"
    fill="#000"
  /></svg>
