<svg width="32" height="32" fill="none" xmlns="http://www.w3.org/2000/svg"><path fill-rule="evenodd" clip-rule="evenodd" d="M7.816 6.788C6.924 7.426 6 8.698 6 11.418c0 .814.27 1.85.8 3.06.522 1.197 1.267 2.495 2.145 3.813 1.756 2.636 3.99 5.271 5.875 7.203a1.63 1.63 0 0 0 2.36 0c1.885-1.932 4.12-4.567 5.875-7.203.878-1.318 1.623-2.617 2.146-3.813.529-1.21.799-2.246.799-3.06 0-2.72-.924-3.992-1.816-4.63-.954-.681-2.08-.787-2.684-.787-1.938 0-2.917.731-3.49 1.4-.308.359-.517.721-.704 1.05l-.016.026a5.04 5.04 0 0 1-.289.466 1.568 1.568 0 0 1-.284.302A1.15 1.15 0 0 1 16 9.5a1.15 1.15 0 0 1-.717-.256 1.568 1.568 0 0 1-.284-.302 5.04 5.04 0 0 1-.305-.493c-.187-.328-.397-.69-.703-1.048C13.417 6.732 12.438 6 10.5 6c-.604 0-1.73.106-2.684.787ZM6.653 5.161C8.105 4.123 9.73 4 10.5 4c2.563 0 4.083 1.019 5.01 2.1.19.222.352.443.49.65.138-.207.3-.428.49-.65.927-1.081 2.448-2.1 5.01-2.1.77 0 2.395.123 3.847 1.16C26.86 6.243 28 8.18 28 11.42c0 1.207-.388 2.535-.966 3.86-.585 1.338-1.396 2.742-2.315 4.121-1.837 2.758-4.154 5.49-6.108 7.492a3.63 3.63 0 0 1-5.222 0c-1.954-2.003-4.271-4.734-6.108-7.492-.919-1.379-1.73-2.783-2.315-4.121C4.388 13.954 4 12.626 4 11.419 4 8.18 5.139 6.242 6.653 5.16Z" fill="#000"/></svg>