<svg width="32" height="32" fill="none" xmlns="http://www.w3.org/2000/svg"><path fill-rule="evenodd" clip-rule="evenodd" d="M7.833 6.82C6.936 7.488 6 8.834 6 11.707c0 4.294 2.197 7.881 4.658 10.437a20.172 20.172 0 0 0 3.53 2.931c.521.334.972.58 1.32.737.281.127.434.168.483.18l.009.003.01-.002c.048-.013.2-.054.482-.181a10.85 10.85 0 0 0 1.32-.737 20.172 20.172 0 0 0 3.53-2.931C23.802 19.589 26 16.002 26 11.708c0-2.873-.936-4.22-1.833-4.889C23.217 6.11 22.098 6 21.5 6c-1.92 0-2.897.756-3.477 1.464-.31.377-.52.76-.708 1.103l-.015.028c-.08.147-.183.334-.287.482-.056.08-.148.201-.279.31-.132.11-.383.272-.734.272s-.602-.163-.734-.272a1.589 1.589 0 0 1-.28-.31 5.274 5.274 0 0 1-.286-.482l-.015-.028c-.188-.344-.399-.726-.708-1.103C13.397 6.756 12.42 6 10.5 6c-.598 0-1.716.11-2.667.82ZM6.636 5.216C8.091 4.13 9.723 4 10.5 4c2.58 0 4.103 1.073 5.023 2.196.184.224.342.448.477.657a7.12 7.12 0 0 1 .477-.657C17.397 5.073 18.92 4 21.5 4c.777 0 2.409.13 3.864 1.217C26.874 6.345 28 8.352 28 11.708c0 4.998-2.553 9.057-5.217 11.824a22.169 22.169 0 0 1-3.89 3.227c-.582.373-1.12.67-1.578.876-.41.185-.894.365-1.315.365-.42 0-.905-.18-1.315-.365a12.622 12.622 0 0 1-1.577-.876 22.168 22.168 0 0 1-3.89-3.227C6.552 20.765 4 16.706 4 11.708c0-3.356 1.126-5.363 2.636-6.491Z" fill="#000"/></svg>