<svg width="32" height="32" fill="none" xmlns="http://www.w3.org/2000/svg"><path fill-rule="evenodd" clip-rule="evenodd" d="M12.111 6c-1.942 0-2.757 2.189-1.5 3.402L16 14.61l5.39-5.208C22.646 8.19 21.83 6 19.889 6H12.11Zm5.328 10 5.34-5.16c2.656-2.566.7-6.84-2.89-6.84H12.11c-3.59 0-5.546 4.274-2.89 6.84L14.56 16l-5.34 5.16C6.565 23.726 8.52 28 12.11 28h7.778c3.59 0 5.546-4.274 2.89-6.84L17.44 16ZM16 17.39l-5.39 5.208C9.354 23.81 10.17 26 12.111 26h7.778c1.942 0 2.757-2.189 1.5-3.402L16 17.39Z" fill="#000"/></svg>