<svg width="32" height="32" fill="none" xmlns="http://www.w3.org/2000/svg"><path d="M10 9a1 1 0 1 1 2 0 1 1 0 0 0 2 0 3 3 0 1 0-6 0 1 1 0 1 0 2 0Zm11-1a1 1 0 0 0-1 1 1 1 0 1 1-2 0 3 3 0 0 1 6 0 1 1 0 1 1-2 0 1 1 0 0 0-1-1Zm-10.352 4.238a1 1 0 1 0-1.296 1.524c1.667 1.416 4.05 2.27 6.648 2.27 2.599 0 4.98-.854 6.648-2.27a1 1 0 1 0-1.296-1.524c-1.264 1.075-3.172 1.793-5.352 1.793s-4.088-.718-5.352-1.793Z" fill="#000"/><path fill-rule="evenodd" clip-rule="evenodd" d="M2.176 17.227A14.094 14.094 0 0 1 2 15C2 7.268 8.268 1 16 1s14 6.268 14 14c0 .731-.056 1.45-.165 2.153a.996.996 0 0 1-.079.264c.408.65.414 1.48.02 2.136a2.045 2.045 0 0 1 .544 2.689 1.988 1.988 0 0 1 .052 3.104l-1.718 1.462a.904.904 0 0 1-.049.039l-3.502 2.586a4.638 4.638 0 0 1-.784.467 5.173 5.173 0 0 1-5.857-1.025l-.077-.077a14.091 14.091 0 0 1-4.94-.03l-.109.107A5.173 5.173 0 0 1 7.479 29.9a4.638 4.638 0 0 1-.784-.467l-3.502-2.586a.867.867 0 0 1-.049-.039l-1.717-1.462a1.988 1.988 0 0 1 .051-3.104 2.045 2.045 0 0 1 .545-2.689 2.046 2.046 0 0 1 .153-2.326ZM4 15C4 8.373 9.373 3 16 3s12 5.373 12 12c0 .495-.03.982-.088 1.46a2.05 2.05 0 0 0-.5.09 2.044 2.044 0 0 0-3.294-.473l-1.628 1.805a2.04 2.04 0 0 0-3.965-.175l-.005.018-.003.016-.54 2.223-.434 1.709a.64.64 0 0 0-.006.024l-.004.018a4.228 4.228 0 0 1-.201.686l-.159.409c-.509 1.312-.651 2.815-.121 4.145a12.195 12.195 0 0 1-2.298-.019c.521-1.325.378-2.82-.129-4.126l-.158-.41a4.238 4.238 0 0 1-.211-.727l-.434-1.71-.54-2.222a2.04 2.04 0 0 0-3.974.141L7.68 16.076a2.044 2.044 0 0 0-3.294.473 2.045 2.045 0 0 0-.296-.068A12.08 12.08 0 0 1 4 15Zm15.15 12a.949.949 0 0 1 .17.188l.007.007.408.407a3.374 3.374 0 0 0 3.82.669c.168-.08.329-.175.479-.286l3.477-2.567 1.698-1.447.012-.01c.086-.07.093-.2.014-.279a.418.418 0 0 0-.16-.107l-1.494 1.495a.9.9 0 0 1-1.276-1.27l.003-.003 1.477-1.49.003-.002c.044-.044.09-.086.137-.125l.81-.81a.244.244 0 0 0-.03-.369h-.003c-.02.002-.101.021-.208.128l-.028.027-2.531 2.323a.9.9 0 0 1-1.245-1.3l3.505-3.506a.244.244 0 1 0-.345-.345l-3.506 3.506a.9.9 0 0 1-1.295-1.25l2.697-2.9a.843.843 0 0 1 .022-.023.244.244 0 0 0-.334-.356l-3.12 3.46a.9.9 0 0 1-1.568-.593l-.02-1.908a.24.24 0 0 0-.466-.075l-.538 2.213-.43 1.694a6.034 6.034 0 0 1-.282.955l-.159.41c-.523 1.348-.447 2.635.3 3.54ZM3.949 18.329a.244.244 0 1 0-.345.345L7.11 22.18a.9.9 0 0 1-1.245 1.3l-2.532-2.323a1.026 1.026 0 0 1-.028-.027c-.106-.107-.188-.126-.208-.128h-.003a.244.244 0 0 0-.03.37l.81.809c.048.04.094.08.137.125l.003.002 1.478 1.49.002.003a.9.9 0 0 1-1.275 1.27l-1.495-1.495a.419.419 0 0 0-.16.107.189.189 0 0 0 .014.28l.012.01 1.698 1.445 3.477 2.568c.15.11.311.206.48.286a3.373 3.373 0 0 0 3.82-.669l.407-.407c.91-.91 1.037-2.287.476-3.734l-.159-.41c-.12-.31-.214-.63-.282-.955l-.43-1.694-.538-2.213a.24.24 0 0 0-.466.075l-.02 1.908a.9.9 0 0 1-1.568.593l-3.12-3.46a.244.244 0 0 0-.334.356.873.873 0 0 1 .023.023l2.696 2.9a.9.9 0 0 1-1.295 1.25l-3.506-3.506Z" fill="#000"/></svg>