<svg width="32" height="32" fill="none" xmlns="http://www.w3.org/2000/svg"><path d="M18.5 13a1.5 1.5 0 1 0 0-3 1.5 1.5 0 0 0 0 3Z" fill="#000"/><path fill-rule="evenodd" clip-rule="evenodd" d="M2 10a4 4 0 0 1 4-4h20a4 4 0 0 1 4 4v12a4 4 0 0 1-4 4H6a4 4 0 0 1-4-4V10Zm2 12v-3.586l4-4L14.586 21a2 2 0 0 0 2.828 0L22 16.414l5.793 5.793a.979.979 0 0 0 .177.141A2 2 0 0 1 26 24H6a2 2 0 0 1-2-2Zm24-12v9.586L23.414 15a2 2 0 0 0-2.828 0L16 19.586 9.414 13a2 2 0 0 0-2.828 0L4 15.586V10a2 2 0 0 1 2-2h20a2 2 0 0 1 2 2Z" fill="#000"/></svg>