<svg width="32" height="32" fill="none" xmlns="http://www.w3.org/2000/svg"><path
    d="M18.5 13a1.5 1.5 0 1 0 0-3 1.5 1.5 0 0 0 0 3Z"
    fill="#000"
  /><path
    fill-rule="evenodd"
    clip-rule="evenodd"
    d="M4 8a4 4 0 0 1 4-4h16a4 4 0 0 1 4 4v16a4 4 0 0 1-4 4H8a4 4 0 0 1-4-4V8Zm22 0v9.586L23.414 15a2 2 0 0 0-2.828 0L16 19.586 9.414 13a2 2 0 0 0-2.828 0L6 13.586V8a2 2 0 0 1 2-2h16a2 2 0 0 1 2 2ZM6 24v-7.586l2-2L14.586 21a2 2 0 0 0 2.828 0L22 16.414l4 4V24a2 2 0 0 1-2 2H8a2 2 0 0 1-2-2Z"
    fill="#000"
  /></svg>
