<svg width="32" height="32" fill="none" xmlns="http://www.w3.org/2000/svg"><path d="M10.15 12.165a1.016 1.016 0 0 0 0 1.434 1.01 1.01 0 0 0 1.43 0l2.023-2.028a1.016 1.016 0 0 0 0-1.434 1.01 1.01 0 0 0-1.43 0l-2.024 2.028Z" fill="#000"/><path fill-rule="evenodd" clip-rule="evenodd" d="M16.473 22.31h1.976v.783c0 .56.453 1.014 1.012 1.014h1.976v.783c0 .268.107.526.296.716l2.092 2.097c.19.19.447.297.715.297h2.448c.56 0 1.012-.454 1.012-1.014v-4.177c0-.27-.107-.528-.298-.719l-7.108-7.086a4.063 4.063 0 0 0-.003-5.732l-4.074-4.084a4.039 4.039 0 0 0-5.722 0l-5.61 5.624a4.063 4.063 0 0 0 0 5.736L9.26 20.63a4.04 4.04 0 0 0 5.406.286l1.093 1.096c.19.19.447.297.715.297ZM12.225 6.622a2.02 2.02 0 0 1 2.861 0l4.074 4.084c.79.792.79 2.076 0 2.868l-.713.715a1.015 1.015 0 0 0 .002 1.436l7.528 7.506v2.741h-1.018l-1.499-1.503v-1.376c0-.56-.453-1.014-1.012-1.014h-1.976v-.783c0-.56-.453-1.014-1.011-1.014h-2.569l-1.496-1.5a1.01 1.01 0 0 0-1.43 0l-.415.415a2.02 2.02 0 0 1-2.861 0l-4.074-4.083a2.031 2.031 0 0 1 0-2.869l5.61-5.623Z" fill="#000"/></svg>