<svg width="32" height="32" fill="none" xmlns="http://www.w3.org/2000/svg"><path
    d="M10.15 12.165a1.016 1.016 0 0 0 0 1.434 1.01 1.01 0 0 0 1.43 0l2.023-2.028a1.016 1.016 0 0 0 0-1.434 1.01 1.01 0 0 0-1.43 0l-2.024 2.028Z"
    fill="#000"
  /><path
    fill-rule="evenodd"
    clip-rule="evenodd"
    d="M5.185 16.547a4.063 4.063 0 0 1 0-5.736l5.61-5.623a4.039 4.039 0 0 1 5.722 0l4.074 4.084a4.063 4.063 0 0 1 .003 5.732l7.108 7.086c.19.19.298.45.298.72v4.176A1.015 1.015 0 0 1 26.988 28H24.54a1.01 1.01 0 0 1-.715-.297l-2.092-2.096a1.015 1.015 0 0 1-.296-.717v-.783h-1.976a1.013 1.013 0 0 1-1.012-1.014v-.783h-1.976a1.01 1.01 0 0 1-.715-.297l-1.093-1.096a4.04 4.04 0 0 1-5.406-.286l-4.074-4.084ZM16.111 19.5l3.053-3.06 6.813 6.792v2.741h-1.018L23.46 24.47v-1.376c0-.56-.453-1.014-1.012-1.014h-1.976v-.783c0-.56-.453-1.014-1.011-1.014h-2.569l-.781-.783Zm-9.495-7.253a2.032 2.032 0 0 0 0 2.867l4.074 4.084a2.02 2.02 0 0 0 2.86 0l5.61-5.623c.79-.792.79-2.076 0-2.868l-4.074-4.084a2.02 2.02 0 0 0-2.86 0l-5.61 5.623Z"
    fill="#000"
  /></svg>
