<svg width="32" height="32" fill="none" xmlns="http://www.w3.org/2000/svg"><path d="M9.374 11.374a1 1 0 1 0 1.414 1.414l2-2a1 1 0 0 0-1.414-1.414l-2 2Z" fill="#000"/><path fill-rule="evenodd" clip-rule="evenodd" d="M3.341 10.745c-1.533 1.533-1.495 4.016.035 5.545l5.555 5.556c1.53 1.53 4.013 1.567 5.546.034l.17-.17 1.376 1.376a1 1 0 0 0 .7.293l2.459.02.009 1.083a1 1 0 0 0 .992.992l2.46.02.008 1.083a1 1 0 0 0 .293.699l2.43 2.43a1 1 0 0 0 .7.293l2.821.024a1 1 0 0 0 1.009-1.009l-.041-4.801a1 1 0 0 0-.295-.7l-8.384-8.34.51-.51c1.533-1.533 1.495-4.016-.035-5.545l-5.555-5.556c-1.53-1.53-4.013-1.568-5.546-.035l-7.217 7.218Zm1.45 4.131c-.772-.771-.765-1.988-.036-2.717l7.218-7.217c.729-.73 1.945-.737 2.717.035l5.555 5.555c.771.771.764 1.988.035 2.717l-1.219 1.219a1 1 0 0 0 .002 1.416l8.803 8.757.029 3.373-1.396-.011-1.851-1.852-.014-1.657a1 1 0 0 0-.992-.991l-2.46-.02-.008-1.083a1 1 0 0 0-.992-.992l-3.034-.026-1.793-1.793a1 1 0 0 0-1.415 0l-.877.877c-.73.73-1.946.737-2.718-.035L4.79 14.876Z" fill="#000"/></svg>