<svg width="32" height="32" fill="none" xmlns="http://www.w3.org/2000/svg"><path fill-rule="evenodd" clip-rule="evenodd" d="M8 4a4 4 0 0 0-4 4v3a4 4 0 0 0 4 4h3a4 4 0 0 0 4-4V8a4 4 0 0 0-4-4H8Zm3 2H8a2 2 0 0 0-2 2v3a2 2 0 0 0 2 2h3a2 2 0 0 0 2-2V8a2 2 0 0 0-2-2ZM8 17a4 4 0 0 0-4 4v3a4 4 0 0 0 4 4h3a4 4 0 0 0 4-4v-3a4 4 0 0 0-4-4H8Zm3 2H8a2 2 0 0 0-2 2v3a2 2 0 0 0 2 2h3a2 2 0 0 0 2-2v-3a2 2 0 0 0-2-2Zm6-11a4 4 0 0 1 4-4h3a4 4 0 0 1 4 4v16a4 4 0 0 1-4 4h-3a4 4 0 0 1-4-4V8Zm4-2h3a2 2 0 0 1 2 2v16a2 2 0 0 1-2 2h-3a2 2 0 0 1-2-2V8a2 2 0 0 1 2-2Z" fill="#000"/></svg>