<svg width="32" height="32" fill="none" xmlns="http://www.w3.org/2000/svg"><path d="M5 9a1 1 0 0 0 0 2h22a1 1 0 1 0 0-2H5Z" fill="#000"/><path fill-rule="evenodd" clip-rule="evenodd" d="M19.5 16c-.402 0-1.284.065-2.083.662-.853.637-1.417 1.73-1.417 3.387 0 2.464 1.257 4.438 2.524 5.753a10.617 10.617 0 0 0 1.867 1.547c.28.18.549.33.787.437.19.086.503.214.822.214.319 0 .633-.128.822-.214.238-.108.506-.256.787-.437a10.617 10.617 0 0 0 1.867-1.547C26.743 24.487 28 22.513 28 20.049c0-1.657-.564-2.75-1.417-3.387-.8-.597-1.681-.662-2.083-.662-1.185 0-1.978.441-2.5.97-.522-.529-1.315-.97-2.5-.97ZM18 20.05c0-1.175.374-1.607.614-1.786.295-.22.663-.264.886-.264.693 0 .988.257 1.159.466.104.127.18.26.265.417l.008.015c.034.062.095.175.161.269.037.052.111.152.224.246.115.095.349.25.683.25.334 0 .568-.155.683-.25.113-.094.187-.194.224-.246.066-.094.127-.207.161-.269l.008-.015c.086-.156.16-.29.265-.417.171-.209.466-.466 1.159-.466.223 0 .591.044.886.264.24.18.614.61.614 1.785 0 1.76-.902 3.262-1.965 4.366a8.624 8.624 0 0 1-1.507 1.252c-.219.14-.4.237-.528.296a4.308 4.308 0 0 1-.528-.297 8.624 8.624 0 0 1-1.507-1.251C18.902 23.31 18 21.809 18 20.049Z" fill="#000"/><path d="M4 22a1 1 0 0 1 1-1h5a1 1 0 1 1 0 2H5a1 1 0 0 1-1-1Zm1-7a1 1 0 1 0 0 2h8a1 1 0 1 0 0-2H5Z" fill="#000"/></svg>