<svg width="32" height="32" fill="none" xmlns="http://www.w3.org/2000/svg"><path d="M5 9a1 1 0 0 0 0 2h22a1 1 0 1 0 0-2H5ZM4 22a1 1 0 0 1 1-1h5a1 1 0 1 1 0 2H5a1 1 0 0 1-1-1Zm0-6a1 1 0 0 1 1-1h8a1 1 0 1 1 0 2H5a1 1 0 0 1-1-1Z" fill="#000"/><path fill-rule="evenodd" clip-rule="evenodd" d="M19.21 15.219c.64-1.625 2.94-1.625 3.58 0l1.13 2.862 2.861 1.129c1.625.64 1.625 2.94 0 3.58l-2.862 1.13-1.129 2.861c-.64 1.625-2.94 1.625-3.58 0l-1.13-2.862-2.861-1.129c-1.625-.64-1.625-2.94 0-3.58l2.862-1.13 1.129-2.861Zm2.919 3.568L21 15.925l-1.129 2.862a1.924 1.924 0 0 1-1.084 1.084L15.925 21l2.862 1.129a1.92 1.92 0 0 1 1.084 1.084L21 26.075l1.129-2.862a1.924 1.924 0 0 1 1.084-1.084L26.075 21l-2.862-1.129a1.924 1.924 0 0 1-1.084-1.084Z" fill="#000"/></svg>