<svg width="32" height="32" fill="none" xmlns="http://www.w3.org/2000/svg"><path
    d="M4 10a1 1 0 0 1 1-1h22a1 1 0 1 1 0 2H5a1 1 0 0 1-1-1Z"
    fill="#000"
  /><path
    fill-rule="evenodd"
    clip-rule="evenodd"
    d="M16 21a5 5 0 1 1 9.172 2.757l2.535 2.536a1 1 0 0 1-1.414 1.414l-2.536-2.535A5 5 0 0 1 16 21Zm5-3a3 3 0 1 0 0 6 3 3 0 0 0 0-6Z"
    fill="#000"
  /><path
    d="M4 22a1 1 0 0 1 1-1h5a1 1 0 1 1 0 2H5a1 1 0 0 1-1-1Zm1-7a1 1 0 1 0 0 2h8a1 1 0 1 0 0-2H5Z"
    fill="#000"
  /></svg>
