<svg width="32" height="32" fill="none" xmlns="http://www.w3.org/2000/svg"><path
    d="M5 9a1 1 0 0 0 0 2h22a1 1 0 1 0 0-2H5Zm0 12a1 1 0 1 0 0 2h4a1 1 0 1 0 0-2H5Zm-1-5a1 1 0 0 1 1-1h6a1 1 0 1 1 0 2H5a1 1 0 0 1-1-1Z"
    fill="#000"
  /><path
    fill-rule="evenodd"
    clip-rule="evenodd"
    d="M15 18a3 3 0 0 1 3-3h7a3 3 0 0 1 3 3v7.018A3 3 0 0 1 25 28h-7a3 3 0 0 1-3-3v-7Zm11 0v4.203l-1.602-1.955a1 1 0 0 0-1.547 0l-1.396 1.704-2.12-2.586a1 1 0 0 0-1.547 0l-.788.962V18a1 1 0 0 1 1-1h7a1 1 0 0 1 1 1Zm-9 7v-1.517l1.562-1.906 2.12 2.586a1 1 0 0 0 1.546 0l1.397-1.703 2.329 2.841A1 1 0 0 1 25 26h-7a1 1 0 0 1-1-1Z"
    fill="#000"
  /></svg>
