<svg width="32" height="32" fill="none" xmlns="http://www.w3.org/2000/svg"><path d="M17.456 5.81a1.03 1.03 0 0 0 1.456 1.455 4.118 4.118 0 0 1 5.823 5.824l-4.316 4.315a4.118 4.118 0 0 1-5.823 0 1.03 1.03 0 0 0-1.456 1.456 6.177 6.177 0 0 0 8.735 0l4.316-4.316a6.177 6.177 0 0 0-8.735-8.735Z" fill="#000"/><path d="M5.809 17.456a6.177 6.177 0 1 0 8.735 8.735 1.03 1.03 0 0 0-1.456-1.456 4.118 4.118 0 1 1-5.823-5.823l4.757-4.758a4.118 4.118 0 0 1 5.824 0 1.03 1.03 0 0 0 1.455-1.456 6.177 6.177 0 0 0-8.735 0L5.81 17.456Z" fill="#000"/></svg>