<svg width="32" height="32" fill="none" xmlns="http://www.w3.org/2000/svg"><path fill-rule="evenodd" clip-rule="evenodd" d="M8 4a2 2 0 0 0-2 2v2a2 2 0 0 0 2 2h2a2 2 0 0 0 2-2V6a2 2 0 0 0-2-2H8Zm0 2h2v2H8V6Z" fill="#000"/><path d="M16 6a1 1 0 1 0 0 2h9a1 1 0 1 0 0-2h-9Zm0 9a1 1 0 1 0 0 2h9a1 1 0 1 0 0-2h-9Zm-1 10a1 1 0 0 1 1-1h9a1 1 0 1 1 0 2h-9a1 1 0 0 1-1-1Z" fill="#000"/><path fill-rule="evenodd" clip-rule="evenodd" d="M6 15a2 2 0 0 1 2-2h2a2 2 0 0 1 2 2v2a2 2 0 0 1-2 2H8a2 2 0 0 1-2-2v-2Zm4 0H8v2h2v-2Zm-2 7a2 2 0 0 0-2 2v2a2 2 0 0 0 2 2h2a2 2 0 0 0 2-2v-2a2 2 0 0 0-2-2H8Zm0 2h2v2H8v-2Z" fill="#000"/></svg>