<svg width="32" height="32" fill="none" xmlns="http://www.w3.org/2000/svg"><path
    fill-rule="evenodd"
    clip-rule="evenodd"
    d="M15.979 6.13a9.873 9.873 0 0 0-5.808 1.876 3.26 3.26 0 1 1-1.426-1.432 11.874 11.874 0 0 1 7.233-2.444c6.17 0 11.245 4.683 11.843 10.684a1 1 0 1 1-1.99.198c-.497-4.984-4.716-8.882-9.852-8.882ZM7.26 10.74a1.26 1.26 0 1 0 0-2.523 1.26 1.26 0 0 0 0 2.522Z"
    fill="#000"
  /><path
    fill-rule="evenodd"
    clip-rule="evenodd"
    d="M10.608 16a5.348 5.348 0 1 1 10.696 0 5.348 5.348 0 0 1-10.696 0Zm5.348-3.348a3.348 3.348 0 1 0 0 6.696 3.348 3.348 0 0 0 0-6.696Z"
    fill="#000"
  /><path
    fill-rule="evenodd"
    clip-rule="evenodd"
    d="M4.989 16.092a1 1 0 0 1 1.093.897c.493 4.99 4.68 8.88 9.762 8.88a9.75 9.75 0 0 0 6.993-2.946 3.26 3.26 0 1 1 1.414 1.414 11.749 11.749 0 0 1-8.406 3.533c-6.13 0-11.161-4.69-11.753-10.685a1 1 0 0 1 .897-1.093ZM27 21.435a1.26 1.26 0 1 1-2.521 0 1.26 1.26 0 0 1 2.521 0Z"
    fill="#000"
  /></svg>
