<svg width="32" height="32" fill="none" xmlns="http://www.w3.org/2000/svg"><path
    fill-rule="evenodd"
    clip-rule="evenodd"
    d="M21.805 4.902c.474-1.203 2.173-1.203 2.647 0l.749 1.9 1.898.75c1.201.475 1.201 2.176 0 2.65l-1.898.75-.75 1.9c-.473 1.203-2.172 1.203-2.646 0l-.749-1.9-1.899-.75c-1.2-.474-1.2-2.175 0-2.65l1.9-.75.748-1.9Zm1.323 1.816-.383.973a1.423 1.423 0 0 1-.801.802l-.972.384.972.384c.366.145.657.435.801.802l.383.973.384-.973c.144-.367.435-.657.801-.802l.972-.384-.972-.384a1.423 1.423 0 0 1-.801-.802l-.384-.973Zm-8.908 5.679a2.843 2.843 0 0 1 4.024 0l1.341 1.342a2.85 2.85 0 0 1 0 4.028l-9.387 9.399a2.843 2.843 0 0 1-4.024 0l-1.34-1.343a2.85 2.85 0 0 1 0-4.028l9.387-9.398Zm2.683 1.342a.947.947 0 0 0-1.341 0l-1.93 1.933 2.682 2.685 1.93-1.932a.95.95 0 0 0 0-1.343l-1.341-1.343Zm-1.93 5.96-2.683-2.684-6.116 6.123a.95.95 0 0 0 0 1.342l1.341 1.343c.37.37.971.37 1.341 0l6.117-6.123Z"
    fill="#000"
  /></svg>
