<svg width="32" height="32" fill="none" xmlns="http://www.w3.org/2000/svg"><path fill-rule="evenodd" clip-rule="evenodd" d="M22.605 3.812c.499-1.266 2.291-1.266 2.79 0l.79 2.003 2.003.79c1.266.499 1.266 2.291 0 2.79l-2.003.79-.79 2.002c-.499 1.267-2.291 1.267-2.79 0l-.79-2.002-2.003-.79c-1.266-.499-1.266-2.291 0-2.79l2.003-.79.79-2.003ZM24 5.726l-.404 1.025a1.5 1.5 0 0 1-.845.845L21.726 8l1.025.404a1.5 1.5 0 0 1 .845.845L24 10.274l.404-1.025a1.5 1.5 0 0 1 .845-.845L26.274 8l-1.025-.404a1.5 1.5 0 0 1-.845-.845L24 5.726Zm-9.393 5.981a3 3 0 0 1 4.242 0l1.415 1.414a3 3 0 0 1 0 4.243l-9.9 9.9a3 3 0 0 1-4.243 0l-1.414-1.415a3 3 0 0 1 0-4.242l9.9-9.9Zm2.828 1.414a1 1 0 0 0-1.414 0l-2.036 2.036 2.829 2.828 2.035-2.035a1 1 0 0 0 0-1.414l-1.414-1.415ZM15.4 19.4l-2.829-2.828-6.45 6.45a1 1 0 0 0 0 1.414l1.415 1.414a1 1 0 0 0 1.414 0l6.45-6.45Z" fill="#000"/></svg>