<svg width="32" height="32" viewBox="0 0 32 32" fill="none" xmlns="http://www.w3.org/2000/svg">
<g clip-path="url(#clip0_34_2804)">
<path d="M6 17.4487V24C6 25.6568 7.34315 27 9 27H23C24.6569 27 26 25.6568 26 24V17.4487" stroke="black" stroke-width="2" stroke-linecap="round" stroke-linejoin="round"/>
<path d="M24.498 5H7.5086C6.61564 5 5.83087 5.59196 5.58555 6.45056L4 12H28L26.4216 6.45266C26.177 5.59301 25.3917 5 24.498 5Z" stroke="black" stroke-width="2" stroke-linecap="round" stroke-linejoin="round"/>
<path d="M12 12V14C12 15.0609 11.5786 16.0783 10.8284 16.8284C10.0783 17.5786 9.06087 18 8 18C6.93913 18 5.92172 17.5786 5.17157 16.8284C4.42143 16.0783 4 15.0609 4 14V12" stroke="black" stroke-width="2" stroke-linecap="round" stroke-linejoin="round"/>
<path d="M20 12V14C20 15.0609 19.5786 16.0783 18.8284 16.8284C18.0783 17.5786 17.0609 18 16 18C14.9391 18 13.9217 17.5786 13.1716 16.8284C12.4214 16.0783 12 15.0609 12 14V12" stroke="black" stroke-width="2" stroke-linecap="round" stroke-linejoin="round"/>
<path d="M28 12V14C28 15.0609 27.5786 16.0783 26.8284 16.8284C26.0783 17.5786 25.0609 18 24 18C22.9391 18 21.9217 17.5786 21.1716 16.8284C20.4214 16.0783 20 15.0609 20 14V12" stroke="black" stroke-width="2" stroke-linecap="round" stroke-linejoin="round"/>
</g>
<defs>
<clipPath id="clip0_34_2804">
<rect width="32" height="32" fill="white"/>
</clipPath>
</defs>
</svg>
