<svg width="32" height="32" fill="none" xmlns="http://www.w3.org/2000/svg"><path
    fill-rule="evenodd"
    clip-rule="evenodd"
    d="M13 11a2 2 0 0 0-2 2v6a2 2 0 0 0 2 2h6a2 2 0 0 0 2-2v-6a2 2 0 0 0-2-2h-6Zm0 2h6v6h-6v-6Z"
    fill="#000"
  /><path
    fill-rule="evenodd"
    clip-rule="evenodd"
    d="M22 5a1 1 0 1 0-2 0v1h-3V5a1 1 0 1 0-2 0v1h-3V5a1 1 0 1 0-2 0v1a4 4 0 0 0-4 4H5a1 1 0 1 0 0 2h1v3H5a1 1 0 1 0 0 2h1v3H5a1 1 0 1 0 0 2h1a4 4 0 0 0 4 4v1a1 1 0 1 0 2 0v-1h3v1a1 1 0 1 0 2 0v-1h3v1a1 1 0 1 0 2 0v-1a4 4 0 0 0 4-4h1a1 1 0 1 0 0-2h-1v-3h1a1 1 0 1 0 0-2h-1v-3h1a1 1 0 1 0 0-2h-1a4 4 0 0 0-4-4V5Zm0 19a2 2 0 0 0 2-2V10a2 2 0 0 0-2-2H10a2 2 0 0 0-2 2v12a2 2 0 0 0 2 2h12Z"
    fill="#000"
  /></svg>
