<svg width="32" height="32" fill="none" xmlns="http://www.w3.org/2000/svg"><path
    d="M22 5a1 1 0 1 0-2 0v1h-3V5a1 1 0 1 0-2 0v1h-3V5a1 1 0 1 0-2 0v1a4 4 0 0 0-4 4H5a1 1 0 1 0 0 2h1v3H5a1 1 0 1 0 0 2h1v3H5a1 1 0 1 0 0 2h1a4 4 0 0 0 4 4v1a1 1 0 1 0 2 0v-1h3a1 1 0 1 0 0-2h-5a2 2 0 0 1-2-2V10a2 2 0 0 1 2-2h12a2 2 0 0 1 2 2 1 1 0 1 0 2 0 4 4 0 0 0-4-4V5Z"
    fill="#000"
  /><path
    d="M13 11a2 2 0 0 0-2 2v6a2 2 0 0 0 2 2h2a1 1 0 1 0 0-2h-2v-6h6v.333a1 1 0 1 0 2 0V13a2 2 0 0 0-2-2h-6Z"
    fill="#000"
  /><path
    fill-rule="evenodd"
    clip-rule="evenodd"
    d="M25 14a1 1 0 0 0-1.888-.46l-5 9.643a1 1 0 0 0 .888 1.46h3V29a1 1 0 0 0 1.869.495l5.5-9.642a1 1 0 0 0-.869-1.496H25V14Zm-2 8.643h-2.355L23 18.1v1.256a1 1 0 0 0 1 1h2.778L24 25.228v-1.585a1 1 0 0 0-1-1Z"
    fill="#000"
  /></svg>
