<svg width="32" height="32" fill="none" xmlns="http://www.w3.org/2000/svg"><path
    d="M22 5a1 1 0 1 0-2 0v1h-3V5a1 1 0 1 0-2 0v1h-3V5a1 1 0 1 0-2 0v1a4 4 0 0 0-4 4H5a1 1 0 1 0 0 2h1v3H5a1 1 0 1 0 0 2h1v3H5a1 1 0 1 0 0 2h1a4 4 0 0 0 4 4v1a1 1 0 1 0 2 0v-1h5a1 1 0 1 0 0-2h-7a2 2 0 0 1-2-2V10a2 2 0 0 1 2-2h12a2 2 0 0 1 2 2v6a1 1 0 1 0 2 0v-6a4 4 0 0 0-4-4V5Z"
    fill="#000"
  /><path
    d="M13 11a2 2 0 0 0-2 2v6a2 2 0 0 0 2 2h4a1 1 0 1 0 0-2h-4v-6h6v3a1 1 0 1 0 2 0v-3a2 2 0 0 0-2-2h-6Zm13.156 9.703a1 1 0 1 0-1.423-1.406L22 22.064V20a1 1 0 1 0-2 0v7a1 1 0 1 0 2 0v-2.09l.782-.791 2.397 3.451a1 1 0 0 0 1.642-1.14l-2.61-3.759 1.945-1.968Z"
    fill="#000"
  /></svg>
