<svg width="32" height="32" fill="none" xmlns="http://www.w3.org/2000/svg"><path
    fill-rule="evenodd"
    clip-rule="evenodd"
    d="M11 11a2 2 0 0 0-2 2v6a2 2 0 0 0 2 2h10a2 2 0 0 0 2-2v-6a2 2 0 0 0-2-2H11Zm0 2h10v6H11v-6Z"
    fill="#000"
  /><path
    fill-rule="evenodd"
    clip-rule="evenodd"
    d="M22 4a1 1 0 0 1 1 1v1h1a4 4 0 0 1 4 4v12a4 4 0 0 1-4 4h-1v1a1 1 0 1 1-2 0v-1h-2v1a1 1 0 1 1-2 0v-1h-2v1a1 1 0 1 1-2 0v-1h-2v1a1 1 0 1 1-2 0v-1H8a4 4 0 0 1-4-4V10a4 4 0 0 1 4-4h1V5a1 1 0 0 1 2 0v1h2V5a1 1 0 1 1 2 0v1h2V5a1 1 0 1 1 2 0v1h2V5a1 1 0 0 1 1-1Zm2 20a2 2 0 0 0 2-2V10a2 2 0 0 0-2-2H8a2 2 0 0 0-2 2v12a2 2 0 0 0 2 2h16Z"
    fill="#000"
  /></svg>
