<svg width="32" height="32" fill="none" xmlns="http://www.w3.org/2000/svg"><path
    fill-rule="evenodd"
    clip-rule="evenodd"
    d="m11.485 9.307-.064.05-.179.147-.589.49c-.482.404-1.123.943-1.834 1.543-1.422 1.2-3.12 2.638-4.376 3.702a.993.993 0 0 0 .001 1.52c1.255 1.06 2.954 2.496 4.375 3.693a638.464 638.464 0 0 0 2.423 2.028l.178.147.065.05A7.012 7.012 0 0 0 15.575 24C19.614 24 23 20.481 23 16s-3.386-8-7.426-8a6.999 6.999 0 0 0-4.09 1.307Zm-1.173-1.62A8.999 8.999 0 0 1 15.574 6C20.841 6 25 10.54 25 16s-4.159 10-9.426 10a9.013 9.013 0 0 1-5.262-1.702l-.011-.008c-.336-.247-4.667-3.907-7.149-6.005a2.993 2.993 0 0 1-.002-4.572c2.48-2.102 6.815-5.771 7.15-6.018l.012-.008Z"
    fill="#000"
  /><path
    fill-rule="evenodd"
    clip-rule="evenodd"
    d="M15 19a3 3 0 1 0 0-6 3 3 0 0 0 0 6Zm0 2a5 5 0 1 0 0-10 5 5 0 0 0 0 10Zm11.534-7.885a1 1 0 0 1 1.173.178l2.201 2.201a1 1 0 0 1 0 1.415l-2.201 2.201a1 1 0 0 1-1.69-.89 11.07 11.07 0 0 0 0-4.038 1 1 0 0 1 .517-1.067Z"
    fill="#000"
  /></svg>
