<svg width="32" height="32" fill="none" xmlns="http://www.w3.org/2000/svg"><path fill-rule="evenodd" clip-rule="evenodd" d="M10 26.5a1 1 0 0 0 1-1v-7h1V21a1 1 0 0 0 1 1h5a1 1 0 0 0 1-1v-2.5h1v7a1 1 0 0 0 1 1h6a1 1 0 0 0 1-1V6a1 1 0 0 0-1-1h-6a1 1 0 0 0-1 1v3h-3a1 1 0 0 0-1 1v2.5h-1V10a1 1 0 0 0-1-1h-3V6a1 1 0 0 0-1-1H4a1 1 0 0 0-1 1v19.5a1 1 0 0 0 1 1h6Zm4-12a1 1 0 0 1-1-1V11h-3a1 1 0 0 1-1-1V7H6v17.5h3v-7a1 1 0 0 1 1-1h4a1 1 0 0 1 1 1V20h2v-2.5a1 1 0 0 1 1-1h4a1 1 0 0 1 1 1v7h3V7h-3v3a1 1 0 0 1-1 1h-3v2.5a1 1 0 0 1-1 1h-4Z" fill="#000"/></svg>