<svg width="32" height="32" fill="none" xmlns="http://www.w3.org/2000/svg"><path fill-rule="evenodd" clip-rule="evenodd" d="M16 2C8.63 2 2.59 7.694 2.04 14.924v.02l-.02.518A1.48 1.48 0 0 0 3.5 17a3 3 0 0 1 3 3v2.626c0 1.085.305 2.149.88 3.07 1.133 1.812 3.887 1.384 4.416-.688l4.394-17.21c.014-.054.035-.078.052-.091a.187.187 0 0 1 .098-.038.187.187 0 0 1 .104.016c.018.01.045.028.07.079l.612 1.223a3.59 3.59 0 0 0 2.076 1.801l3.286 1.095c1.452.485 1.887 2.328.805 3.41l-1.752 1.752a5 5 0 0 0-1.375 4.48c.102.53.348.972.572 1.311l1.948 2.95c.634.96 2.033 1.241 2.953.367A13.963 13.963 0 0 0 30 16c0-7.732-6.268-14-14-14ZM8.5 20a5 5 0 0 0-4.461-4.971C4.533 8.856 9.699 4 16 4c6.627 0 12 5.373 12 12 0 3.393-1.407 6.457-3.673 8.64l-1.92-2.906c-.162-.245-.247-.43-.277-.587a3 3 0 0 1 .825-2.688l1.752-1.752c2.134-2.134 1.276-5.767-1.587-6.72L19.834 8.89a1.59 1.59 0 0 1-.92-.798l-.611-1.224c-.9-1.8-3.553-1.515-4.05.435l-4.395 17.21a.43.43 0 0 1-.782.121 3.792 3.792 0 0 1-.576-2.01V20Z" fill="#000"/><path d="M19.25 14.5a1.25 1.25 0 1 0 0-2.5 1.25 1.25 0 0 0 0 2.5Z" fill="#000"/></svg>