<svg width="32" height="32" fill="none" xmlns="http://www.w3.org/2000/svg"><path
    fill-rule="evenodd"
    clip-rule="evenodd"
    d="M15 27.519a1.948 1.948 0 0 1-.133-.088C11.823 25.234 8 21.097 8 15c0-6.043 3.764-11.07 6.854-13.41a1.896 1.896 0 0 1 2.292 0C20.236 3.93 24 8.956 24 15c0 6.098-3.823 10.234-6.867 12.43a2.2 2.2 0 0 1-.133.089V29a1 1 0 1 1-2 0v-1.481ZM10 15c0-5.208 3.268-9.671 6-11.77 2.732 2.1 6 6.562 6 11.77 0 4.55-2.502 7.889-5 9.998V12a1 1 0 1 0-2 0v12.998c-2.498-2.11-5-5.447-5-9.998Z"
    fill="#000"
  /></svg>
