<svg width="32" height="32" fill="none" xmlns="http://www.w3.org/2000/svg"><path fill-rule="evenodd" clip-rule="evenodd" d="M14.099 6.326a3.48 3.48 0 0 1-.385.995 7.978 7.978 0 0 0-1.085 4.03c0 4.426 3.582 8.01 7.997 8.01a7.945 7.945 0 0 0 4.023-1.085 4.05 4.05 0 0 1 .956-.401c.323-.088.758-.159 1.187-.064.227.05.486.154.712.358.235.21.384.482.452.777.124.538-.03 1.109-.258 1.628C25.791 24.945 21.436 28 16.364 28 9.534 28 4 22.456 4 15.62c0-5.077 3.051-9.438 7.415-11.349l.37.845-.37-.845c.491-.215 1.042-.354 1.573-.216.62.161.968.628 1.101 1.093.12.416.082.844.01 1.178Zm-1.96-.4-.323-.739.323.738c-.02.085-.05.172-.084.25A10.383 10.383 0 0 0 6 15.62C6 21.354 10.642 26 16.364 26c4.187 0 7.796-2.486 9.432-6.07a1.817 1.817 0 0 0-.138.072 9.946 9.946 0 0 1-5.032 1.36c-5.523 0-9.997-4.483-9.997-10.01 0-1.835.494-3.557 1.357-5.038.024-.042.048-.089.07-.138" fill="#000"/></svg>