<svg width="32" height="32" fill="none" xmlns="http://www.w3.org/2000/svg"><path
    fill-rule="evenodd"
    clip-rule="evenodd"
    d="M24.406 6.14a1.5 1.5 0 0 0-1.583 1.413l-.49 8.608a6.054 6.054 0 0 1 2.912 1.635l.573-10.072a1.5 1.5 0 0 0-1.412-1.583ZM27 22.154l.815-14.316a3.5 3.5 0 1 0-6.988-.398l-.243 4.25a3.498 3.498 0 0 0-5.055.96A3.484 3.484 0 0 0 13.5 12c-.732 0-1.411.225-1.973.609l-.311-3.214a3.504 3.504 0 0 0-6.988.485c.007.151.027.286.041.379.118.75.69 4.55.731 7.754a49.307 49.307 0 0 1 0 1.36c.042 5.023 4.193 9.047 9.225 8.922l6.864-.172a6.063 6.063 0 0 0 5.91-5.97Zm-2-.068-.006.113a.999.999 0 0 0 0 .106 4.063 4.063 0 0 1-3.955 3.82l-6.864.171a7 7 0 0 1-7.174-7.051A51.14 51.14 0 0 0 7 17.988c-.044-3.358-.636-7.282-.755-8.038a1.42 1.42 0 0 1-.019-.152 1.504 1.504 0 0 1 3-.208l.783 8.085c.096.99.633 1.867 1.436 2.405.245.165.501.253.752.288A3.251 3.251 0 0 0 15.25 22.5H19a1 1 0 1 0 0-2h-3.75a1.25 1.25 0 0 1 0-2.5h5.688A4.062 4.062 0 0 1 25 22.063v.022ZM17 16v-1.5a1.5 1.5 0 0 1 3 0V16h-3Zm-2 .01a3.252 3.252 0 0 0-2.783 2.07 1.275 1.275 0 0 1-.217-.591V15.5a1.5 1.5 0 0 1 3 0v.51Z"
    fill="#000"
  /></svg>
