<svg width="32" height="32" fill="none" xmlns="http://www.w3.org/2000/svg"><path
    d="M16.544 1C14.01.988 11.585 2.026 9.799 3.872 8.014 5.717 7.01 8.217 7 10.82v.004c0 2.37.268 3.725.631 4.825.122.368.26.719.384 1.039.05.128.099.251.143.369a9.696 9.696 0 0 1 .436 1.432 8.81 8.81 0 0 1 .044 4.027l-1.606 6.235a1 1 0 1 0 1.936.498L10.578 23a10.81 10.81 0 0 0-.04-4.978 11.689 11.689 0 0 0-.51-1.674c-.06-.16-.117-.305-.172-.445-.116-.296-.222-.566-.326-.882-.284-.86-.53-1.996-.53-4.195.01-2.098.819-4.098 2.236-5.563C12.652 3.8 14.559 2.991 16.534 3c1.976.01 3.875.837 5.279 2.314 1.405 1.48 2.196 3.488 2.187 5.587v1.1a1 1 0 0 0 .106.446L25.382 15H25a1 1 0 0 0-1 1v4.164a2.82 2.82 0 0 1-.79 1.714 2.53 2.53 0 0 1-1.654.759 4.132 4.132 0 0 1-.48-.012c-1.734-.118-3.435 1.165-3.435 3.073V29a1 1 0 1 0 2 0v-3.302c0-.583.548-1.128 1.299-1.077.248.017.505.026.732.013a4.53 4.53 0 0 0 2.96-1.35A4.821 4.821 0 0 0 26 20.208V17h1a1 1 0 0 0 .894-1.447L26 11.763v-.855c.01-2.602-.97-5.11-2.737-6.971-1.77-1.863-4.186-2.925-6.72-2.937Z"
    fill="#000"
  /><path
    d="M15 8a1 1 0 0 1 1-1h4a1 1 0 0 1 .894.553l1 2a1 1 0 1 1-1.788.894L19.382 9H16a1 1 0 0 1-1-1Z"
    fill="#000"
  /><path
    d="M17.553 10.106a1 1 0 0 1 1.341.447L19.618 12H21a1 1 0 1 1 0 2h-2a1 1 0 0 1-.894-.553l-1-2a1 1 0 0 1 .447-1.341Zm-3.659-1.553a1 1 0 1 0-1.788.894l2 4a1 1 0 1 0 1.788-.894l-2-4Zm2.399 6.74A1 1 0 0 1 17 15h4a1 1 0 1 1 0 2h-3.586l-2.707 2.707a1 1 0 0 1-1.414-1.414l3-3Z"
    fill="#000"
  /></svg>
