<svg width="32" height="32" fill="none" xmlns="http://www.w3.org/2000/svg"><path d="M15 14.545a1 1 0 0 0-2 0v1.182a1 1 0 1 0 2 0v-1.182Z" fill="#000"/><path fill-rule="evenodd" clip-rule="evenodd" d="M6 10a4 4 0 0 0-4 4v2.273a4 4 0 0 0 4 4h3.682v.227a3 3 0 0 0 3 3h.136a3 3 0 0 0 3-3v-.227H26a4 4 0 0 0 4-4V14a4 4 0 0 0-4-4H6Zm3.682 2v6.273H8v-3.728a1 1 0 0 0-2 0v3.728a2 2 0 0 1-2-2V14a2 2 0 0 1 2-2h3.682Zm2 0h5.09v6.273h-1.954a1 1 0 0 0-1 1V20.5a1 1 0 0 1-1 1h-.136a1 1 0 0 1-1-1V12Zm7.09 6.273V12H26a2 2 0 0 1 2 2v2.273a2 2 0 0 1-1.5 1.937v-3.665a1 1 0 0 0-2 0v3.728H23v-3.728a1 1 0 0 0-2 0v3.728h-2.227Z" fill="#000"/></svg>