<svg width="32" height="32" fill="none" xmlns="http://www.w3.org/2000/svg"><path fill-rule="evenodd" clip-rule="evenodd" d="M8.461 10.755c-.146-1.252-.243-2.898-.08-4.308.09-.768.266-1.564.623-2.197C9.383 3.58 10.033 3 11 3c.721 0 1.274.339 1.658.787.357.418.579.938.73 1.404.137.419.237.861.318 1.263A5.982 5.982 0 0 1 16 6c.813 0 1.587.161 2.294.454.081-.402.181-.844.317-1.263.152-.466.374-.986.73-1.404C19.726 3.34 20.28 3 21 3c.967 0 1.617.58 1.996 1.25.357.633.533 1.43.622 2.197.164 1.41.067 3.056-.08 4.308C25.038 11.73 26 13.537 26 15.5a5.9 5.9 0 0 1-.771 2.938c.507.837.771 1.939.771 3.062 0 1.098-.252 2.172-.734 3 .482.828.734 1.902.734 3a1 1 0 1 1-2 0c0-1.11-.346-1.944-.695-2.312a1 1 0 0 1 0-1.376c.35-.368.695-1.201.695-2.312 0-1.13-.357-1.969-.71-2.327a1 1 0 0 1-.074-1.317c.48-.615.784-1.437.784-2.356 0-2.047-1.45-3.5-3-3.5l-.072.001a1 1 0 0 1-1.008-.801A3.999 3.999 0 0 0 16 8a3.983 3.983 0 0 0-2.422.817A3.999 3.999 0 0 0 12.08 11.2a1 1 0 0 1-1.008.801L11 12c-1.55 0-3 1.453-3 3.5 0 .919.303 1.741.784 2.356a1 1 0 0 1-.075 1.317C8.357 19.531 8 20.37 8 21.5c0 1.11.346 1.944.695 2.312a1 1 0 0 1 0 1.376C8.345 25.556 8 26.39 8 27.5a1 1 0 1 1-2 0c0-1.098.252-2.172.734-3-.482-.828-.734-1.902-.734-3 0-1.123.264-2.225.771-3.063A5.893 5.893 0 0 1 6 15.5c0-1.963.961-3.77 2.461-4.745Zm1.921-.867c-.093-1.04-.128-2.22-.014-3.21.078-.67.214-1.155.378-1.444.134-.238.212-.235.248-.234h.011c.027 0 .058 0 .134.088.106.124.228.354.348.721.115.356.205.765.29 1.196l.058.301.06.317a6.008 6.008 0 0 0-1.513 2.265Zm11.236 0a6.008 6.008 0 0 0-1.514-2.265l.061-.317.058-.3c.085-.432.175-.84.29-1.197.12-.367.242-.597.348-.721.076-.089.107-.088.134-.088h.011c.036-.001.114-.004.248.234.164.29.3.774.378 1.444.114.99.079 2.17-.014 3.21Z" fill="#000"/><path d="M11 16a1 1 0 1 0 0-2 1 1 0 0 0 0 2Zm11-1a1 1 0 1 1-2 0 1 1 0 0 1 2 0Z" fill="#000"/><path fill-rule="evenodd" clip-rule="evenodd" d="M16 13.5c-.627 0-1.569.15-2.39.643C12.739 14.665 12 15.59 12 17c0 1.41.738 2.334 1.61 2.858.821.492 1.763.642 2.39.642.628 0 1.569-.15 2.39-.642C19.262 19.334 20 18.409 20 17c0-1.41-.738-2.334-1.61-2.857-.821-.493-1.762-.643-2.39-.643ZM14 17c0-.59.262-.916.64-1.143.429-.257.987-.357 1.36-.357.372 0 .931.1 1.36.357.378.227.64.552.64 1.143 0 .59-.262.916-.64 1.142-.429.258-.988.358-1.36.358-.373 0-.931-.1-1.36-.358-.378-.226-.64-.551-.64-1.142Z" fill="#000"/></svg>