<svg width="32" height="32" viewBox="0 0 32 32" fill="none" xmlns="http://www.w3.org/2000/svg">
<path d="M15.9999 12.6108L21.9999 15.9608" stroke="black" stroke-width="2" stroke-linecap="round" stroke-linejoin="round"/>
<path d="M7.17676 19.5848C6.49544 20.407 6.12481 21.4424 6.12969 22.5102C6.13457 23.5779 6.51465 24.6099 7.20346 25.4258C7.89227 26.2416 8.84597 26.7894 9.89778 26.9732C10.9496 27.1571 12.0325 26.9653 12.9572 26.4314L15.4785 24.9657M18.5999 14.106V19.5848" stroke="black" stroke-width="2" stroke-linecap="round" stroke-linejoin="round"/>
<path d="M8.1984 9.98462C6.38989 9.67779 4.57487 10.4982 3.60366 12.1806C3.00488 13.2178 2.84259 14.4505 3.15248 15.6074C3.46237 16.7643 4.21906 17.7507 5.25616 18.3498L10.3045 21.3269C10.6106 21.5074 10.9894 21.512 11.2997 21.3388L18.5996 17.2655" stroke="black" stroke-width="2" stroke-linecap="round" stroke-linejoin="round"/>
<path d="M17.0169 6.06588C16.6453 5.06525 15.9339 4.22703 15.007 3.69773C14.0801 3.16843 12.9966 2.98171 11.946 3.17021C10.8954 3.35872 9.94439 3.91045 9.2593 4.72898C8.5742 5.54751 8.19855 6.58077 8.198 7.64817V13.6575C8.198 14.0154 8.38926 14.346 8.69953 14.5244L15.9989 18.7216" stroke="black" stroke-width="2" stroke-linecap="round" stroke-linejoin="round"/>
<path d="M24.8218 11.7476C25.5032 10.9254 25.8738 9.88997 25.8689 8.82224C25.864 7.7545 25.4839 6.72247 24.7951 5.90661C24.1063 5.09076 23.1526 4.54302 22.1008 4.35918C21.049 4.17534 19.9661 4.36711 19.0413 4.90095L13.8945 7.90607C13.5874 8.08533 13.3987 8.41412 13.3987 8.76965V17.2264" stroke="black" stroke-width="2" stroke-linecap="round" stroke-linejoin="round"/>
<path d="M28.3947 19.0636C28.9934 18.0263 29.1557 16.7937 28.8458 15.6368C28.5359 14.4799 27.7793 13.4934 26.7422 12.8943L21.6411 9.91755C21.3318 9.73706 20.9496 9.73573 20.6391 9.91408L13.3987 14.0723" stroke="black" stroke-width="2" stroke-linecap="round" stroke-linejoin="round"/>
<path d="M18 28.9997H18.8071C19.6909 28.9997 20.4526 28.3921 20.6297 27.546L21.991 21.4537C22.1681 20.6076 22.9299 20 23.8136 20H24.6207M20.0929 22.7023H23.8136M24 25.0214H24.5014C24.8438 25.0214 25.1586 25.2052 25.3207 25.5L27.3429 28.5213C27.5051 28.8161 27.8198 29 28.1622 29H28.6997M24.049 29C24.6261 29 25.1609 28.7041 25.4578 28.2205L27.2424 25.8009C27.5393 25.3173 28.0741 25.0214 28.6512 25.0214" stroke="black" stroke-width="2" stroke-linecap="round" stroke-linejoin="round"/>
</svg>
