<svg width="32" height="32" fill="none" xmlns="http://www.w3.org/2000/svg"><path fill-rule="evenodd" clip-rule="evenodd" d="M18.648 5.641h.002c5.7 1.533 9.082 7.394 7.554 13.097-.09.335-.194.663-.313.982-.283.758-1.014.982-1.558.903a1.578 1.578 0 0 1-1.273-1.054c-.306-.92-.873-1.675-1.56-2.308-1.324-1.224-3.236-2.115-4.973-2.914l-.105-.049c-1.806-.831-3.43-1.579-4.515-2.526-.53-.463-.883-.935-1.066-1.437-.18-.49-.224-1.082-.02-1.84.376-1.406 1.153-2.24 2.13-2.72.183-.09.375-.168.574-.235l.053-.018.055-.011a10.65 10.65 0 0 1 4.864.09l.002.001.15.04Zm-4.816 1.93a2.52 2.52 0 0 1 .279-.117c1.236-.257 2.758-.193 4.064.131a8.695 8.695 0 0 1 6.222 10.105 8.085 8.085 0 0 0-1.539-1.899c-1.58-1.46-3.767-2.466-5.43-3.23l-.112-.053c-1.932-.89-3.265-1.518-4.094-2.242-.36-.314-.468-.521-.503-.617a.57.57 0 0 1-.033-.188 1.594 1.594 0 0 1 .066-.449c.229-.855.627-1.22 1.08-1.441Zm-5.874 2.485c.469.076.926.397 1.119.923.323.885.905 1.605 1.595 2.208 1.276 1.114 3.093 1.957 4.77 2.728l.252.115c1.82.838 3.456 1.615 4.533 2.61.521.482.872.98 1.052 1.522.177.534.213 1.178-.006 1.997-.607 2.267-3.003 3.472-6.172 3.358-3.037-.108-6.073-.899-8.217-3.836-2.004-2.746-2.097-5.653-1.34-8.48.237-.881.577-1.71 1.006-2.473.32-.57.92-.75 1.408-.672Zm-.195 2.78c-.11.286-.206.58-.287.883-.648 2.42-.528 4.657 1.024 6.783 1.63 2.232 3.932 2.918 6.672 3.017 2.766.099 3.917-.937 4.17-1.878.13-.49.078-.731.04-.847-.048-.14-.168-.366-.513-.685-.797-.737-2.109-1.386-4.01-2.262l-.315-.144c-1.604-.737-3.672-1.687-5.187-3.01a8.023 8.023 0 0 1-1.594-1.857Z" fill="#000"/><path d="M29 15a1 1 0 0 1 1 1c0 7.732-6.268 14-14 14a1 1 0 1 1 0-2c6.628 0 12-5.373 12-12a1 1 0 0 1 1-1Z" fill="#000"/></svg>