<svg width="32" height="32" fill="none" xmlns="http://www.w3.org/2000/svg"><path
    fill-rule="evenodd"
    clip-rule="evenodd"
    d="M11.77 2.186a5.552 5.552 0 0 1 5.67 2.492l1.101-.643a5.552 5.552 0 0 1 7.685 7.4l1.016.593.002.002a5.516 5.516 0 0 1 2.017 7.534 1 1 0 0 1-1.733-1 3.516 3.516 0 0 0-1.286-4.804l-.004-.002-5.101-2.977L18 12.582l4.488 2.506a1 1 0 1 1-.976 1.746L19.6 15.766v3.819a1 1 0 0 1-2 0v-.617l-1.033.577a.998.998 0 0 1-.163.091l-4.617 2.576a2 2 0 0 1-1.99-.024L7.53 20.852a3.552 3.552 0 0 0 4.926 4.714h.002l2.518-1.465a1 1 0 1 1 1.005 1.73l-2.52 1.465-.004.002a5.552 5.552 0 0 1-7.651-7.463l-1.054-.622a5.517 5.517 0 0 1-2.014-7.532c.972-1.685 2.655-2.67 4.46-2.754v-1.28a5.552 5.552 0 0 1 4.572-5.461Zm13.099 6.64a3.551 3.551 0 0 1-.373 1.6l-2.351-1.372a2 2 0 0 0-2.004-.007l-5.743 3.298V8.77l5.145-3.004a3.552 3.552 0 0 1 5.326 3.06Zm-12.47 5.266V8.77a2 2 0 0 1 .991-1.727l2.32-1.355a3.553 3.553 0 0 0-6.512 1.96v6.01l3.2 1.84v-1.406Zm3.58-.348-1.58.907v1.997l1.603.922 1.598-.892V14.65l-1.622-.906Zm-3.104 4.334a.539.539 0 0 0 .052.03l1.039.598-3.153 1.76-5.049-2.978-.007-.004A3.517 3.517 0 0 1 4.47 12.68c.61-1.056 1.63-1.668 2.728-1.75v2.728a2 2 0 0 0 1.003 1.733l4.674 2.687Z"
    fill="#000"
  /><path
    d="M22.667 26a1 1 0 1 0 0-2 1 1 0 0 0 0 2Zm3.666-1a1 1 0 1 1-2 0 1 1 0 0 1 2 0Z"
    fill="#000"
  /><path
    fill-rule="evenodd"
    clip-rule="evenodd"
    d="M24 20a1 1 0 0 1 1 1v.333h2.333c.92 0 1.667.747 1.667 1.667v3.333A3.667 3.667 0 0 1 25.333 30h-2.666A3.667 3.667 0 0 1 19 26.333V23c0-.92.746-1.667 1.667-1.667H23V21a1 1 0 0 1 1-1Zm-3 3.333v3c0 .92.746 1.667 1.667 1.667h2.666c.92 0 1.667-.746 1.667-1.667v-3h-6Z"
    fill="#000"
  /></svg>
