<svg width="32" height="32" fill="none" xmlns="http://www.w3.org/2000/svg"><path fill-rule="evenodd" clip-rule="evenodd" d="M26 3a3 3 0 0 0-2.708 4.293l-5.26 5.26a4 4 0 1 0 1.414 1.414l5.26-5.26A3 3 0 1 0 26 3Zm-1 3a1 1 0 1 1 2 0 1 1 0 0 1-2 0ZM14 16a2 2 0 1 1 4 0 2 2 0 0 1-4 0Z" fill="#000"/><path fill-rule="evenodd" clip-rule="evenodd" d="M16 4C9.373 4 4 9.373 4 16s5.373 12 12 12 12-5.373 12-12c0-2.078-.529-4.035-1.46-5.741a1 1 0 0 0-1.585-.228l-3.345 3.345a1 1 0 0 0-.25.997 5.6 5.6 0 1 1-3.733-3.733 1 1 0 0 0 .997-.25l3.345-3.345a1 1 0 0 0-.228-1.585A11.951 11.951 0 0 0 16 4ZM6 16c0-5.523 4.477-10 10-10 1.248 0 2.441.228 3.541.645l-1.927 1.927a7.6 7.6 0 1 0 5.814 5.814l1.927-1.927c.417 1.1.645 2.293.645 3.541 0 5.523-4.477 10-10 10S6 21.523 6 16Z" fill="#000"/></svg>