<svg width="32" height="32" fill="none" xmlns="http://www.w3.org/2000/svg"><path
    fill-rule="evenodd"
    clip-rule="evenodd"
    d="M11.771 2.587a5.573 5.573 0 0 1 3.731.64 5.542 5.542 0 0 1 1.937 1.84l1.105-.642a5.573 5.573 0 0 1 7.014 1.22 5.512 5.512 0 0 1 .672 6.144l1.011.587.002.001a5.496 5.496 0 0 1 2.57 3.334 5.472 5.472 0 0 1-.553 4.17c-.973 1.677-2.656 2.656-4.459 2.74v1.354a5.51 5.51 0 0 1-1.296 3.547 5.574 5.574 0 0 1-7.007 1.251 5.54 5.54 0 0 1-1.937-1.84l-1.105.642a5.573 5.573 0 0 1-7.014-1.22 5.513 5.513 0 0 1-.638-6.206l-1.049-.615a5.496 5.496 0 0 1-2.567-3.332 5.471 5.471 0 0 1 .552-4.17c.973-1.678 2.656-2.657 4.46-2.74V8.025c0-1.298.46-2.554 1.295-3.547a5.557 5.557 0 0 1 3.277-1.891Zm11.03 18.935a.983.983 0 0 0 0 .085v2.367c0 .826-.292 1.626-.826 2.26a3.573 3.573 0 0 1-4.489.8 3.542 3.542 0 0 1-1.193-1.107l2.313-1.343a2 2 0 0 0 .995-1.73v-6.75l3.2 1.778v3.64Zm2-.905c1.1-.08 2.12-.69 2.73-1.74a3.471 3.471 0 0 0 .35-2.646 3.496 3.496 0 0 0-1.636-2.12l-.004-.003-5.103-2.962-3.129 1.787 5.763 3.2a2 2 0 0 1 1.03 1.749v2.735Zm-8.822-6.524-1.58.902v1.976l1.604.918 1.598-.887v-2.008l-1.622-.901Zm-3.58.303v1.432l-3.2-1.83v-3.613a1 1 0 0 0 0-.074V8.025c0-.825.293-1.625.827-2.26a3.573 3.573 0 0 1 4.489-.8c.482.274.89.655 1.193 1.108l-2.313 1.343a2 2 0 0 0-.996 1.73v5.25Zm2-1.704 5.747-3.283a2 2 0 0 1 1.996.007l2.356 1.368a3.507 3.507 0 0 0-.465-3.844 3.573 3.573 0 0 0-4.491-.781l-5.143 2.986v3.547Zm-6.193 3.042 4.671 2.671.053.03 1.029.588-3.145 1.746-5.05-2.962-.008-.005a3.496 3.496 0 0 1-1.637-2.12 3.471 3.471 0 0 1 .35-2.647c.61-1.05 1.63-1.659 2.73-1.74v2.702a2 2 0 0 0 1.007 1.737Zm8.197 4.22-4.619 2.564a2 2 0 0 1-1.982-.024L7.53 21.162a3.508 3.508 0 0 0 .437 3.898 3.573 3.573 0 0 0 4.491.781h.002l5.141-2.986v-3.566l-1.035.575a.997.997 0 0 1-.163.09Z"
    fill="#000"
  /></svg>
