<svg width="32" height="32" fill="none" xmlns="http://www.w3.org/2000/svg"><path
    fill-rule="evenodd"
    clip-rule="evenodd"
    d="M28 1a3 3 0 0 0-2.708 4.293l-7.26 7.26a4 4 0 1 0 1.414 1.414l7.26-7.26A3 3 0 1 0 28 1Zm-1 3a1 1 0 1 1 2 0 1 1 0 0 1-2 0ZM14 16a2 2 0 1 1 4 0 2 2 0 0 1-4 0Z"
    fill="#000"
  /><path
    fill-rule="evenodd"
    clip-rule="evenodd"
    d="M16 3C8.82 3 3 8.82 3 16s5.82 13 13 13 13-5.82 13-13a12.96 12.96 0 0 0-1.105-5.253 1 1 0 0 0-1.622-.303l-3.849 3.849a1 1 0 0 0-.283.845 6.2 6.2 0 1 1-5.278-5.278 1 1 0 0 0 .844-.284l3.849-3.849a1 1 0 0 0-.303-1.622A12.959 12.959 0 0 0 16 3ZM5 16C5 9.925 9.925 5 16 5c1.053 0 2.07.148 3.032.423l-2.401 2.4a8.2 8.2 0 1 0 7.545 7.545l2.401-2.4c.275.963.423 1.98.423 3.032 0 6.075-4.925 11-11 11S5 22.075 5 16Z"
    fill="#000"
  /></svg>
