<svg width="32" height="32" fill="none" xmlns="http://www.w3.org/2000/svg"><path
    d="M16 1a1 1 0 0 1 .723.309l3 3.136a1 1 0 0 1-1.446 1.382L17 4.492V12a1 1 0 1 1-2 0V4.492l-1.277 1.335a1 1 0 0 1-1.446-1.382l3-3.136A1 1 0 0 1 16 1Z"
    fill="#000"
  /><path
    d="M10 10a2 2 0 0 0-2 2v13a2 2 0 0 0 2 2h12a2 2 0 0 0 2-2V12a2 2 0 0 0-2-2h-1a1 1 0 1 1 0-2h1a4 4 0 0 1 4 4v13a4 4 0 0 1-4 4H10a4 4 0 0 1-4-4V12a4 4 0 0 1 4-4h1a1 1 0 1 1 0 2h-1Z"
    fill="#000"
  /><path
    d="M14 17a1 1 0 1 0 0 2h7a1 1 0 1 0 0-2h-7Zm0 4a1 1 0 1 0 0 2h7a1 1 0 1 0 0-2h-7Zm-2-3a1 1 0 1 1-2 0 1 1 0 0 1 2 0Zm-1 5a1 1 0 1 0 0-2 1 1 0 0 0 0 2Z"
    fill="#000"
  /></svg>
