<svg width="32" height="32" fill="none" xmlns="http://www.w3.org/2000/svg"><path
    d="M16.723 2.309a1 1 0 0 0-1.446 0l-3 3.136a1 1 0 0 0 1.446 1.382L15 5.492V13a1 1 0 1 0 2 0V5.492l1.277 1.335a1 1 0 0 0 1.446-1.382l-3-3.136Zm-3.551 17.337c-.381-.292-.874-.474-1.347-.566a4.128 4.128 0 0 0-1.569-.009c-.534.105-1.107.347-1.552.82-.461.49-.704 1.143-.704 1.905 0 .442.094.858.306 1.225.211.367.505.624.806.804.516.308 1.153.44 1.596.53l.088.019c.543.113.849.193 1.04.316.071.045.098.08.113.108.016.03.051.111.051.292 0 .375-.235.694-.77.845-.56.156-1.182.028-1.549-.313a1 1 0 0 0-1.362 1.464c.963.896 2.341 1.085 3.45.774 1.13-.316 2.231-1.247 2.231-2.77 0-.45-.09-.87-.293-1.244a2.292 2.292 0 0 0-.793-.841c-.54-.346-1.208-.485-1.665-.58l-.045-.01c-.556-.115-.867-.188-1.066-.307-.074-.044-.093-.073-.1-.086-.007-.012-.038-.07-.038-.226 0-.32.092-.461.16-.535.085-.09.236-.18.482-.228a2.13 2.13 0 0 1 .799.01c.279.054.454.143.516.191a1 1 0 0 0 1.215-1.588Zm10.571-.612a1 1 0 0 1 1.125.47L27 23.234V20a1 1 0 1 1 2 0v7a1 1 0 0 1-1.868.496L25 23.766V27a1 1 0 1 1-2 0v-7a1 1 0 0 1 .743-.966Z"
    fill="#000"
  /><path
    fill-rule="evenodd"
    clip-rule="evenodd"
    d="M18.5 19c-.662 0-1.55.267-2.272.996C15.484 20.745 15 21.893 15 23.5s.484 2.755 1.228 3.504c.722.729 1.61.996 2.272.996.662 0 1.55-.267 2.272-.996C21.516 26.255 22 25.107 22 23.5s-.484-2.755-1.228-3.504C20.05 19.267 19.162 19 18.5 19ZM17 23.5c0-1.193.349-1.795.647-2.096.32-.321.682-.404.853-.404.17 0 .534.083.853.404.298.301.647.903.647 2.096s-.349 1.795-.647 2.096c-.32.321-.682.404-.853.404-.17 0-.534-.083-.853-.404-.298-.301-.647-.903-.647-2.096Z"
    fill="#000"
  /><path
    d="M6 19a1 1 0 0 1 1 1v5a3 3 0 1 1-6 0 1 1 0 1 1 2 0 1 1 0 1 0 2 0v-5a1 1 0 0 1 1-1Zm2-6a2 2 0 0 1 2-2h1a1 1 0 1 0 0-2h-1a4 4 0 0 0-4 4v2a1 1 0 1 0 2 0v-2Zm13-4a1 1 0 1 0 0 2h1a2 2 0 0 1 2 2v2a1 1 0 1 0 2 0v-2a4 4 0 0 0-4-4h-1Z"
    fill="#000"
  /></svg>
