<svg width="32" height="32" fill="none" xmlns="http://www.w3.org/2000/svg"><path
    d="M15.5 9a1.5 1.5 0 1 0 0-3 1.5 1.5 0 0 0 0 3Zm9 8a1.5 1.5 0 1 0 0-3 1.5 1.5 0 0 0 0 3ZM23 9.5a1.5 1.5 0 1 1-3 0 1.5 1.5 0 0 1 3 0ZM9.5 12a1.5 1.5 0 1 0 0-3 1.5 1.5 0 0 0 0 3ZM9 16.5a1.5 1.5 0 1 1-3 0 1.5 1.5 0 0 1 3 0Z"
    fill="#000"
  /><path
    fill-rule="evenodd"
    clip-rule="evenodd"
    d="M16 2C8.268 2 2 8.268 2 16s6.268 14 14 14c.444 0 .948-.052 1.437-.124 2.399-.351 3.052-3.172 1.57-4.773L17.71 23.7c-.69-.748.047-1.93 1.022-1.637l2.643.793c3.475 1.042 7.355-.75 8.243-4.444.213-.883.382-1.77.382-2.413 0-7.732-6.268-14-14-14ZM4 16C4 9.373 9.373 4 16 4s12 5.373 12 12c0 .382-.115 1.065-.326 1.945-.581 2.415-3.18 3.759-5.724 2.996l-2.643-.793c-2.926-.878-5.139 2.668-3.065 4.91l1.298 1.403c.259.28.312.629.225.912a.724.724 0 0 1-.618.524A8.34 8.34 0 0 1 16 28C9.373 28 4 22.627 4 16Z"
    fill="#000"
  /></svg>
