<svg width="32" height="32" fill="none" xmlns="http://www.w3.org/2000/svg"><path
    d="M4 12.536a1 1 0 0 1 1.366.366L6 14l.634-1.098a1 1 0 0 1 1.732 1L7.732 15H9a1 1 0 1 1 0 2H7.732l.634 1.098a1 1 0 1 1-1.732 1L6 18l-.634 1.098a1 1 0 0 1-1.732-1L4.268 17H3a1 1 0 1 1 0-2h1.268l-.634-1.098A1 1 0 0 1 4 12.536Zm10 0a1 1 0 0 1 1.366.366L16 14l.634-1.098a1 1 0 0 1 1.732 1L17.732 15H19a1 1 0 1 1 0 2h-1.268l.634 1.098a1 1 0 1 1-1.732 1L16 18l-.634 1.098a1 1 0 0 1-1.732-1L14.268 17H13a1 1 0 1 1 0-2h1.268l-.634-1.098A1 1 0 0 1 14 12.536Zm11.366.366a1 1 0 0 0-1.732 1L24.268 15H23a1 1 0 1 0 0 2h1.268l-.634 1.098a1 1 0 1 0 1.732 1L26 18l.634 1.098a1 1 0 0 0 1.732-1L27.732 17H29a1 1 0 1 0 0-2h-1.268l.634-1.098a1 1 0 1 0-1.732-1L26 14l-.634-1.098Z"
    fill="#000"
  /></svg>
