<svg width="32" height="32" fill="none" xmlns="http://www.w3.org/2000/svg"><path d="M8 13a1 1 0 1 0-2 0v.586l-.414-.414a1 1 0 0 0-1.414 1.414l.414.414H4a1 1 0 1 0 0 2h.586l-.414.414a1 1 0 1 0 1.414 1.414L6 18.414V19a1 1 0 1 0 2 0v-.586l.414.414a1 1 0 1 0 1.414-1.414L9.414 17H10a1 1 0 1 0 0-2h-.586l.414-.414a1 1 0 1 0-1.414-1.414L8 13.586V13Zm8-1a1 1 0 0 1 1 1v.586l.414-.414a1 1 0 1 1 1.414 1.414l-.414.414H19a1 1 0 1 1 0 2h-.586l.414.414a1 1 0 1 1-1.414 1.414L17 18.414V19a1 1 0 1 1-2 0v-.586l-.414.414a1 1 0 0 1-1.414-1.414l.414-.414H13a1 1 0 1 1 0-2h.586l-.414-.414a1 1 0 0 1 1.414-1.414l.414.414V13a1 1 0 0 1 1-1Zm9 0a1 1 0 0 1 1 1v.586l.414-.414a1 1 0 1 1 1.414 1.414l-.414.414H28a1 1 0 1 1 0 2h-.586l.414.414a1 1 0 1 1-1.414 1.414L26 18.414V19a1 1 0 1 1-2 0v-.586l-.414.414a1 1 0 0 1-1.414-1.414l.414-.414H22a1 1 0 1 1 0-2h.586l-.414-.414a1 1 0 0 1 1.414-1.414l.414.414V13a1 1 0 0 1 1-1Z" fill="#000"/></svg>