<svg width="32" height="32" fill="none" xmlns="http://www.w3.org/2000/svg"><path fill-rule="evenodd" clip-rule="evenodd" d="M16 2a1 1 0 0 1 1 1v4.855l3.764-3.106c1.488-1.378 3.995-.374 3.995 1.721v2.507h.866c1.297 0 2.375 1.039 2.375 2.354v8.315C28 20.961 26.922 22 25.625 22h-.866v1.547c0 2.08-2.46 3.072-3.947 1.764a1.24 1.24 0 0 0-.04-.034l-.007-.006L17 22.667V29a1 1 0 1 1-2 0v-6.333l-3.765 2.604-.007.006a1.4 1.4 0 0 0-.04.034C9.7 26.62 7.24 25.627 7.24 23.547V22h-.866C5.078 22 4 20.96 4 19.646v-8.315c0-1.315 1.078-2.354 2.375-2.354h.866V6.47c0-2.095 2.507-3.1 3.995-1.72L15 7.854V3a1 1 0 0 1 1-1Zm-2.783 6.977L9.938 6.271a.994.994 0 0 1-.055-.049.372.372 0 0 0-.418-.075.335.335 0 0 0-.224.323v2.507h3.976Zm-4.992 2a.855.855 0 0 0 .032 0H13l-4.907 3.68c-.067.05-.158.125-.249.226a2.34 2.34 0 0 0-.603 1.566V20h-.866A.365.365 0 0 1 6 19.646v-8.315c0-.18.153-.354.375-.354h1.85Zm6.775 1-5.689 4.267a.34.34 0 0 0-.07.205v7.098c0 .147.076.258.216.32a.373.373 0 0 0 .41-.057c.046-.04.128-.113.228-.182L15 20.235v-8.258Zm2 8.258v-8.258l5.689 4.267a.34.34 0 0 1 .07.205v7.098a.333.333 0 0 1-.216.32.373.373 0 0 1-.41-.058 2.478 2.478 0 0 0-.229-.182L17 20.235ZM24.759 20h.866a.365.365 0 0 0 .375-.354v-8.315a.365.365 0 0 0-.375-.354H19l4.907 3.68c.067.05.158.125.25.225.385.43.602.986.602 1.567V20ZM18.783 8.977h3.976V6.47a.335.335 0 0 0-.224-.323.372.372 0 0 0-.418.075 1 1 0 0 1-.055.05l-3.28 2.705Z" fill="#000"/></svg>