<svg width="32" height="32" fill="none" xmlns="http://www.w3.org/2000/svg"><path d="M18.053 2.106a1 1 0 0 1 1.228.27l2 2.5a1 1 0 0 1-1.562 1.249l-.66-.825-.578 2.896a1 1 0 1 1-1.962-.392l.6-2.995-1.172.585a1 1 0 1 1-.894-1.788l3-1.5ZM8.236 7.397a1 1 0 0 1 .927-.85l3.196-.198a1 1 0 1 1 .124 1.996l-1.029.064 1.264 1.305a1 1 0 1 1-1.436 1.391L9.914 9.694l-.198 1.317a1 1 0 0 1-1.978-.297l.498-3.317Zm18.41 2.835a1 1 0 0 0-.678-1.06l-3.182-1.06a1 1 0 1 0-.633 1.897l1.216.406-1.915 1.247a1 1 0 0 0 1.092 1.676l1.878-1.223-.12 1.078a1 1 0 1 0 1.988.22l.354-3.181Zm-8.866.143a1 1 0 0 0-1.227-.27l-3 1.5a1 1 0 1 0 .894 1.79l1.171-.586-.598 2.995a1 1 0 0 0 1.96.392l.58-2.896.66.825a1 1 0 1 0 1.56-1.25l-2-2.5ZM13.5 30a1.5 1.5 0 1 0 0-3 1.5 1.5 0 0 0 0 3Zm9.399-2.027a1 1 0 0 1-1.06.678l-3.181-.354a1 1 0 1 1 .22-1.988l1.043.116-1.252-1.868a1 1 0 1 1 1.662-1.114l1.315 1.963.416-1.247a1 1 0 0 1 1.897.632l-1.06 3.182ZM5.894 26.202a1 1 0 0 1-.726-1.027l.216-3.347a1 1 0 0 1 1.996.13l-.07 1.084 1.311-1.05a1 1 0 1 1 1.25 1.56l-1.564 1.254 1.212.343a1 1 0 1 1-.545 1.924l-3.08-.87Zm22.001-6.649a1 1 0 0 1-.27 1.228l-2.5 2a1 1 0 1 1-1.25-1.562l.924-.739-2.041-.51a1 1 0 1 1 .485-1.94l1.89.473-.527-1.056a1 1 0 0 1 1.788-.894l1.5 3ZM4.375 15.22a1 1 0 0 0-.27 1.227l1.5 3a1 1 0 1 0 1.79-.894l-.665-1.329 2.146.268a1 1 0 1 0 .248-1.984l-1.65-.206.65-.521a1 1 0 0 0-1.249-1.562l-2.5 2Zm11.905 3.155a1 1 0 0 0-1.227-.27l-3 1.5a1 1 0 1 0 .894 1.79l1.171-.586-.598 2.995a1 1 0 0 0 1.96.392l.58-2.896.66.825a1 1 0 1 0 1.56-1.25l-2-2.5Z" fill="#000"/></svg>