<svg width="32" height="32" fill="none" xmlns="http://www.w3.org/2000/svg"><path d="M16.653 9.714a.774.774 0 0 1 .435.975c-.122.355.052.747.391.874a.645.645 0 0 0 .836-.41c.383-1.102-.157-2.323-1.21-2.723-1.053-.401-2.219.163-2.602 1.266-.122.355.052.747.392.874a.645.645 0 0 0 .835-.41c.14-.391.557-.6.931-.455l-.008.009Zm5.673 2.788a.774.774 0 0 0-.435-.975c-.374-.146-.792.064-.931.455a.644.644 0 0 1-.835.41c-.34-.127-.514-.519-.392-.874.383-1.103 1.549-1.676 2.602-1.267 1.053.401 1.601 1.622 1.21 2.724a.645.645 0 0 1-.836.41c-.34-.127-.513-.519-.392-.874l.01-.01Zm-2.158 3.644.018-.018c.33-.155.47-.565.313-.912a.631.631 0 0 0-.853-.327h-.009a.392.392 0 0 1-.078.027c-.07.018-.183.045-.33.064-.288.036-.732.027-1.271-.174a2.802 2.802 0 0 1-1.088-.72 2.758 2.758 0 0 1-.217-.282c-.018-.027-.035-.072-.035-.072a.63.63 0 0 0-.862-.32c-.322.155-.47.565-.313.912l.018.009v.018c0 .01.008.027.026.046a.751.751 0 0 0 .087.154c.078.128.191.292.356.474a4.18 4.18 0 0 0 1.584 1.066c.757.282 1.401.31 1.88.246.235-.027.418-.073.557-.118.07-.019.122-.037.165-.055a.12.12 0 0 1 .052-.018Z" fill="#000"/><path fill-rule="evenodd" clip-rule="evenodd" d="M15.852 3.264c-.94-.592-2.167-.146-2.54.93l-1.994 5.73c-1.331 3.835.583 8.864 4.639 10.412 4.055 1.549 8.614-1.02 9.946-4.855l1.993-5.73c.374-1.085-.288-2.25-1.375-2.424l-.905-.146a23.76 23.76 0 0 1-8.98-3.425l-.784-.501v.01Zm-.905 1.558-1.993 5.73c-1.027 2.943.505 6.896 3.594 8.08 3.098 1.185 6.692-.82 7.719-3.762l1.993-5.73-.905-.146a25.535 25.535 0 0 1-9.625-3.662l-.783-.501v-.01Z" fill="#000"/><path d="M8.951 14.825c.462-.128.94.164 1.062.647l-.009.009c.122.482-.156.984-.617 1.111-.897.255-1.82.456-2.742.601l-.905.146 1.993 5.73c1.027 2.943 4.62 4.947 7.719 3.763 1.888-.72 3.22-2.478 3.707-4.464.122-.492.6-.784 1.062-.656.47.128.748.628.626 1.111-.61 2.47-2.28 4.765-4.795 5.721-4.055 1.55-8.615-1.02-9.946-4.855l-1.993-5.74c-.374-1.084.287-2.25 1.375-2.423l.905-.146a22.504 22.504 0 0 0 2.558-.555Z" fill="#000"/><path d="M11.005 20.3c-.14-.392-.557-.601-.931-.456a.774.774 0 0 0-.435.975c.122.355-.052.747-.392.875a.645.645 0 0 1-.835-.41c-.383-1.103.156-2.323 1.21-2.724 1.052-.401 2.218.164 2.601 1.266.122.355-.052.747-.391.875a.645.645 0 0 1-.836-.41l.009.009Zm5.021 2.87a.645.645 0 0 0 .792-.483h-.009a.688.688 0 0 0-.46-.838v-.01h-.018l-.025-.003a.123.123 0 0 0-.036-.006 2.757 2.757 0 0 0-.74-.046c-.47.028-1.105.174-1.801.593a4.204 4.204 0 0 0-1.393 1.34 4.56 4.56 0 0 0-.27.518l-.03.087a2.943 2.943 0 0 1-.039.114.095.095 0 0 1-.009.027l-.008.027c-.096.365.113.748.46.839.349.1.697-.11.802-.483 0-.01.008-.037.026-.073.026-.064.078-.173.165-.31.156-.255.452-.601.948-.902a2.59 2.59 0 0 1 1.227-.41 1.875 1.875 0 0 1 .41.018h.008Z" fill="#000"/></svg>