<svg width="32" height="32" fill="none" xmlns="http://www.w3.org/2000/svg"><path d="M23.056 11.914a.833.833 0 0 0-1.566-.57.75.75 0 1 1-1.41-.513 2.333 2.333 0 0 1 4.386 1.596.75.75 0 0 1-1.41-.513ZM16.543 8.86a.833.833 0 0 1 .498 1.069.75.75 0 1 0 1.41.513 2.333 2.333 0 1 0-4.385-1.597.75.75 0 1 0 1.41.513.834.834 0 0 1 1.067-.498Zm3.747 6.36.317.68h-.003l-.003.002-.008.003-.02.01a2.066 2.066 0 0 1-.247.088c-.156.047-.374.1-.643.13-.542.063-1.286.038-2.152-.277a4.71 4.71 0 0 1-1.827-1.17 3.674 3.674 0 0 1-.409-.514 2.677 2.677 0 0 1-.132-.227l-.01-.02-.003-.007-.002-.003v-.002s-.001-.001.678-.318l-.68.317a.75.75 0 0 1 1.356-.644l.005.01a2.182 2.182 0 0 0 .287.376c.233.247.628.566 1.25.792.622.227 1.13.236 1.467.197a2.173 2.173 0 0 0 .462-.104l.01-.004a.75.75 0 0 1 .623 1.364l-.316-.68Z" fill="#000"/><path fill-rule="evenodd" clip-rule="evenodd" d="M15.622 1.78a1.999 1.999 0 0 0-2.919 1.023l-2.29 6.295c-1.532 4.207.67 9.733 5.329 11.429 4.659 1.696 9.898-1.123 11.429-5.33l2.29-6.294a2 2 0 0 0-1.576-2.66l-1.043-.16a28 28 0 0 1-10.32-3.756l-.9-.547Zm-1.04 1.708-2.29 6.294c-1.177 3.232.575 7.57 4.134 8.866 3.559 1.295 7.69-.902 8.866-4.135l2.29-6.293-1.042-.16a30 30 0 0 1-11.057-4.024l-.9-.548Z" fill="#000"/><path d="M8.906 15.181a1 1 0 0 0-1.223-.71c-.967.256-1.95.46-2.942.613l-1.042.159a1.999 1.999 0 0 0-1.578 2.66l2.291 6.294c1.531 4.207 6.77 7.026 11.43 5.33 2.888-1.051 4.809-3.57 5.51-6.276a1 1 0 1 0-1.935-.502c-.565 2.177-2.087 4.108-4.26 4.899-3.558 1.295-7.689-.902-8.865-4.135L4 17.22l1.042-.16a29.999 29.999 0 0 0 3.152-.656 1 1 0 0 0 .71-1.223Z" fill="#000"/><path d="M10.053 20.474a.833.833 0 1 0-1.566.57.75.75 0 1 1-1.41.513 2.333 2.333 0 0 1 4.386-1.596.75.75 0 1 1-1.41.513Zm1.114 4.609.724.195-.724-.195a.75.75 0 0 0 1.446.4l.003-.011a2.178 2.178 0 0 1 .217-.42c.188-.284.52-.667 1.094-.998.574-.33 1.072-.428 1.41-.448a2.18 2.18 0 0 1 .473.022l.011.002a.75.75 0 0 0 .378-1.452l-.194.725c.194-.725.195-.724.194-.725h-.003l-.003-.001-.008-.002-.022-.006a2.67 2.67 0 0 0-.259-.044 3.674 3.674 0 0 0-.656-.017c-.544.033-1.273.187-2.07.647-.799.46-1.296 1.015-1.596 1.47a3.67 3.67 0 0 0-.314.577 2.65 2.65 0 0 0-.09.246l-.007.021-.002.008-.001.004-.001.002Z" fill="#000"/></svg>