<svg width="32" height="32" fill="none" xmlns="http://www.w3.org/2000/svg"><path d="M9.99 4.833a1 1 0 1 0-1.415 1.414l2.122 2.121a1 1 0 1 0 1.414-1.414L9.99 4.833Z" fill="#000"/><path fill-rule="evenodd" clip-rule="evenodd" d="M7.868 14.025a3 3 0 0 0 0 4.243l2.122 2.121a5 5 0 0 0 7.07 0l.708-.707 6.364 6.364a1 1 0 0 0 1.414-1.414l-6.364-6.364.707-.707a5 5 0 0 0 0-7.071l-2.121-2.122a3 3 0 0 0-4.243 0l-5.657 5.657Zm10.607 2.121a3 3 0 0 0 0-4.242l-2.122-2.122a1 1 0 0 0-1.414 0L9.282 15.44a1 1 0 0 0 0 1.415l2.122 2.12a3 3 0 0 0 4.242 0l1.415-1.413 1.414-1.415Z" fill="#000"/><path d="M4.333 9.075a1 1 0 0 1 1.414 0l2.121 2.122a1 1 0 1 1-1.414 1.414L4.333 10.49a1 1 0 0 1 0-1.415Z" fill="#000"/></svg>