<svg width="32" height="32" fill="none" xmlns="http://www.w3.org/2000/svg"><path
    d="M14.396 12.17c.155-.369-1.092-.755-1.469-.47-.377.286-.131.735.331.915.547.213.984-.076 1.138-.445Zm7.976-.586c-.258-.194-1.109.069-1.003.32.105.252.404.45.776.304.316-.123.484-.429.227-.624Z"
    fill="#000"
  /><path
    fill-rule="evenodd"
    clip-rule="evenodd"
    d="M18.663 4.576c1.102-.43 2.778-.772 4.436-.447 1.788.35 3.514 1.477 4.41 3.942.89 2.445.426 4.595-.609 6.37-.817 1.404-1.992 2.577-3.128 3.514.61.208 1.622.39 2.885.137a.75.75 0 0 1 .844 1.014c-.426 1.064-1.945 2.715-4.774 2.52a81.65 81.65 0 0 1-.246 1.516c-.157.913-.332 1.82-.501 2.537-.084.357-.17.68-.255.938a3.533 3.533 0 0 1-.14.364 1.319 1.319 0 0 1-.25.377c-.379.378-1.02.673-1.606.869-.612.203-1.32.35-1.925.35-.645 0-1.23-.17-1.717-.657-.442-.442-.737-1.083-.994-1.855-.134-.403-.197-.963-.23-1.538a26.497 26.497 0 0 1-.02-1.978l.002-.113a6.33 6.33 0 0 1-.647.483c-.524.34-1.086.59-1.63.701-.532.11-1.127.1-1.636-.19a.75.75 0 0 1 .166-1.372c.567-.162.849-.403.995-.617.15-.22.213-.493.2-.804a2.51 2.51 0 0 0-.269-.99c-.221.437-.46.893-.595 1.097-.442.662-.915 1.132-1.428 1.401-.533.28-1.072.32-1.565.179-.901-.258-1.5-1.068-1.789-1.635-1.064-1.786-3.003-6.554-2.59-11.919.11-1.424.549-2.51 1.266-3.28.716-.77 1.64-1.15 2.583-1.292 1.766-.265 3.728.287 5.043.871.858-.713 1.99-1.148 3.438-.987.815.09 1.575.26 2.276.494Zm2.104.994a6.177 6.177 0 0 1 2.043.03c1.312.258 2.586 1.05 3.29 2.984.71 1.955.355 3.641-.496 5.102-.468.804-1.086 1.537-1.76 2.195a10.62 10.62 0 0 0 .21-2.053v-3c0-1.91-1.186-3.92-3.287-5.258Zm-8.87.686c-1.131-.437-2.561-.756-3.769-.574-.695.104-1.277.367-1.707.83-.43.462-.778 1.197-.869 2.373-.385 5.01 1.456 9.49 2.396 11.057.01.016.019.033.027.05.216.432.563.8.873.89.12.034.262.036.457-.066.215-.112.517-.367.875-.905.102-.153.376-.681.652-1.234.074-.147.144-.29.208-.42-.706-.803-1.293-2.149-.975-4.053.399-2.395.49-3.61.49-3.877 0-.02 0-.041.002-.062.09-1.083.466-2.691 1.335-4.002l.005-.007Zm1.72 13.343c.093.297.16.628.174.973a3.06 3.06 0 0 1-.078.852 4.939 4.939 0 0 0 1.248-1.43l.003-.045a23.29 23.29 0 0 1-1.347-.35Zm2.89.66-.07.15a52.31 52.31 0 0 0-.095 2.172c-.015.675-.011 1.32.02 1.863.03.563.088.949.154 1.146.243.728.448 1.087.631 1.27.138.137.302.218.657.218.396 0 .938-.104 1.45-.274.484-.162.823-.344.976-.467.017-.04.041-.103.07-.191.066-.198.14-.472.22-.811a43.48 43.48 0 0 0 .483-2.447 71.485 71.485 0 0 0 .439-2.9l-.014.009c-.743.47-1.647.694-2.706.576a36.014 36.014 0 0 1-2.215-.314Zm6.428-.123c.04-.324.073-.618.094-.858.497.2 1.17.376 1.97.424-.497.279-1.173.476-2.064.434Zm-2.725 6.241v.001-.001Zm-8.666-11.926c.242-1.452.378-2.508.447-3.205a6.582 6.582 0 0 1 1.353-.772c.291-.115.53-.17.704-.172.162-.002.21.039.226.056.38.38.707 1 .939 1.752a7.82 7.82 0 0 1 .342 2.218c0 .195-.051.485-.159.862-.105.367-.252.773-.415 1.189-.122.311-.261.645-.395.966-.13.312-.255.613-.356.87-.814-.23-1.349-.438-1.59-.558-.381-.19-1.44-1.14-1.096-3.206Zm1.246-5.37a6.336 6.336 0 0 0-.571.262c.17-.742.467-1.563.923-2.251.666-1.004 1.627-1.68 3.08-1.52 2.849.317 4.731 1.676 5.657 3.144a4.84 4.84 0 0 0-1.19.52c-.661.404-1.32 1.026-1.596 1.854-.162.486-.119 1.085-.024 1.63.1.575.281 1.218.5 1.862a24.779 24.779 0 0 0 1.577 3.605.768.768 0 0 0 .04.064 2.72 2.72 0 0 1-.561.479c-.439.278-.997.434-1.738.352a32.667 32.667 0 0 1-3.187-.507c.068-.169.146-.355.23-.557.137-.325.29-.69.448-1.092.17-.434.336-.89.46-1.323.121-.423.216-.871.216-1.275a9.32 9.32 0 0 0-.408-2.659c-.268-.873-.69-1.751-1.311-2.372-.383-.383-.87-.5-1.308-.494-.427.005-.857.127-1.237.278Zm9.276 7.615c.354-.982.488-2.069.488-2.869v-3c0-.229-.027-.468-.081-.713-.298.06-.658.194-1.004.404-.488.297-.83.675-.953 1.047-.038.114-.056.399.03.898.082.47.238 1.033.443 1.635a23.68 23.68 0 0 0 1.077 2.598Z"
    fill="#000"
  /></svg>
