<svg width="32" height="32" fill="none" xmlns="http://www.w3.org/2000/svg"><path fill-rule="evenodd" clip-rule="evenodd" d="M8.447 7.106a1 1 0 0 0-.894 0l-4 2a1 1 0 0 0 .021 1.799l1.676.788V14a.75.75 0 0 0 1.5 0v-1.6l3.532 1.661-6.589 3.56a1 1 0 0 0 .013 1.766l1.544.806V25a.75.75 0 0 0 1.5 0v-4.024l.787.41a1 1 0 0 0 .953-.014L16 17.147l7.51 4.225a1 1 0 0 0 .937.022l.803-.401V25a.75.75 0 0 0 1.5 0v-4.757l1.697-.849a1 1 0 0 0 .02-1.778l-6.73-3.563 3.513-1.654V14a.75.75 0 0 0 1.5 0v-2.307l1.676-.788a1 1 0 0 0 .021-1.8l-4-2a1 1 0 0 0-.894 0L16 10.883 8.447 7.106Zm4.479 5.99L6.29 9.972 8 9.118l7.553 3.776a1 1 0 0 0 .894 0L24 9.118l1.71.855-6.636 3.122a1 1 0 0 0-.042 1.789l6.783 3.59-1.787.894-7.538-4.24a1 1 0 0 0-.98 0l-7.528 4.235-1.681-.878 6.674-3.605a1 1 0 0 0-.05-1.785Z" fill="#000"/></svg>