<svg width="32" height="32" fill="none" xmlns="http://www.w3.org/2000/svg"><path fill-rule="evenodd" clip-rule="evenodd" d="M11 6a4 4 0 1 1 7.874 1H21a4 4 0 0 1 4 4v3.126a4 4 0 1 1 0 7.747V24a4 4 0 0 1-4 4H8a4 4 0 0 1-4-4v-3.317c0-.532.333-.917.689-1.088a1.236 1.236 0 0 1 1.215.078 2 2 0 1 0 0-3.346c-.4.263-.866.246-1.215.078A1.208 1.208 0 0 1 4 15.316V11a4 4 0 0 1 4-4h3.126A4 4 0 0 1 11 6Zm4-2a2 2 0 0 0-1.673 3.096c.263.4.246.866.078 1.215A1.208 1.208 0 0 1 12.317 9H8a2 2 0 0 0-2 2v3.126a4 4 0 1 1 0 7.747V24a2 2 0 0 0 2 2h13a2 2 0 0 0 2-2v-3.317c0-.532.332-.917.689-1.088a1.236 1.236 0 0 1 1.215.078 2 2 0 1 0 0-3.346c-.4.263-.866.246-1.215.078A1.208 1.208 0 0 1 23 15.316V11a2 2 0 0 0-2-2h-3.317c-.532 0-.917-.333-1.088-.689a1.236 1.236 0 0 1 .078-1.215A2 2 0 0 0 15 4Z" fill="#000"/></svg>