<svg width="32" height="32" fill="none" xmlns="http://www.w3.org/2000/svg"><path
    fill-rule="evenodd"
    clip-rule="evenodd"
    d="M16.515 2.143a1 1 0 0 0-.994-.02l-11 6A1 1 0 0 0 4 9v12a1 1 0 0 0 .521.878l11 6a1 1 0 0 0 .98-.013l3-1.736a1 1 0 0 0 .499-.866V21a1 1 0 0 0-1.555-.832l-2.502 1.668L9.5 18.4v-6.8l6.464-3.448L21.5 11.56V27.5a1 1 0 0 0 1.538.843l3.5-2.237a1 1 0 0 0 .462-.843V9a1 1 0 0 0-.485-.857l-10-6ZM6 20.406V9.594l9.976-5.442L25 9.566v15.15l-1.5.958V11a1 1 0 0 0-.476-.852l-6.5-4a1 1 0 0 0-.995-.03l-7.5 4A1 1 0 0 0 7.5 11v8a1 1 0 0 0 .53.882l7.5 4a1 1 0 0 0 1.025-.05L18 22.87v1.818l-2.015 1.166L6 20.406Z"
    fill="#000"
  /><path
    fill-rule="evenodd"
    clip-rule="evenodd"
    d="M16.015 11.143a1 1 0 0 0-1.03 0l-2.5 1.5A1 1 0 0 0 12 13.5v3a1 1 0 0 0 .486.858l2.5 1.5a1 1 0 0 0 1.029 0l2.5-1.5A1 1 0 0 0 19 16.5v-3a1 1 0 0 0-.485-.857l-2.5-1.5ZM14 15.933v-1.867l1.5-.9 1.5.9v1.868l-1.5.9-1.5-.9Z"
    fill="#000"
  /></svg>
