<svg width="32" height="32" fill="none" xmlns="http://www.w3.org/2000/svg"><path
    d="M8.01 5a1 1 0 0 0 1 1h1.576l-4.293 4.293a1 1 0 1 0 1.414 1.414L12 7.414V8.99a1 1 0 1 0 2 0V5a1 1 0 0 0-1-1H9.01a1 1 0 0 0-1 1Z"
    fill="#000"
  /><path
    fill-rule="evenodd"
    clip-rule="evenodd"
    d="M18 10a3 3 0 0 1 3-3h3a3 3 0 0 1 3 3v15a3 3 0 0 1-3 3H7a3 3 0 0 1-3-3v-5a3 3 0 0 1 3-3h3c.35 0 .687.06 1 .17V16a3 3 0 0 1 3-3h3c.35 0 .687.06 1 .17V10Zm0 6v10h-5V16a1 1 0 0 1 1-1h3a1 1 0 0 1 1 1Zm6 10h-4V10a1 1 0 0 1 1-1h3a1 1 0 0 1 1 1v15a1 1 0 0 1-1 1Zm-13 0v-6a1 1 0 0 0-1-1H7a1 1 0 0 0-1 1v5a1 1 0 0 0 1 1h4Z"
    fill="#000"
  /></svg>
