<svg width="32" height="32" fill="none" xmlns="http://www.w3.org/2000/svg"><path
    fill-rule="evenodd"
    clip-rule="evenodd"
    d="M17.876 4.3c-.645-1.733-3.107-1.733-3.752 0l-.523 1.407-1.414.52c-1.74.642-1.74 3.093 0 3.734l1.414.52.523 1.408c.645 1.733 3.107 1.733 3.752 0l.523-1.407 1.413-.52c1.742-.642 1.742-3.093 0-3.735l-1.413-.52-.523-1.407Zm-2.4 2.098L16 4.99l.523 1.407c.203.544.634.974 1.182 1.176l1.414.52-1.414.521c-.548.202-.98.631-1.182 1.176L16 11.198l-.523-1.407a1.995 1.995 0 0 0-1.182-1.176l-1.413-.52 1.413-.521c.548-.202.98-.632 1.182-1.176ZM14 14.066c-1.657 0-3 1.337-3 2.986v1.165c-.313-.11-.65-.17-1-.17H7c-1.657 0-3 1.337-3 2.986v3.981A2.993 2.993 0 0 0 7 28h18c1.657 0 3-1.337 3-2.986v-1.99a2.993 2.993 0 0 0-3-2.986h-3c-.35 0-.687.06-1 .17v-3.156a2.993 2.993 0 0 0-3-2.986h-4Zm5 11.943h-6v-8.957c0-.55.448-.995 1-.995h4c.552 0 1 .445 1 .995v8.957Zm6 0h-4v-2.985c0-.55.448-.996 1-.996h3c.552 0 1 .446 1 .996v1.99c0 .55-.448.995-1 .995Zm-14 0v-4.976a.998.998 0 0 0-1-.995H7c-.552 0-1 .445-1 .995v3.981c0 .55.448.995 1 .995h4Z"
    fill="#000"
  /></svg>
