<svg width="32" height="32" fill="none" xmlns="http://www.w3.org/2000/svg"><path fill-rule="evenodd" clip-rule="evenodd" d="M17.876 4.187c-.645-1.74-3.107-1.74-3.752 0l-.523 1.414-1.414.523c-1.74.645-1.74 3.107 0 3.752l1.414.523.523 1.414c.645 1.74 3.107 1.74 3.752 0l.523-1.414 1.413-.523c1.742-.645 1.742-3.107 0-3.752L18.4 5.601l-.523-1.414Zm-2.4 2.108L16 4.882l.523 1.413a2 2 0 0 0 1.182 1.182L19.119 8l-1.414.523a2 2 0 0 0-1.182 1.182L16 11.118l-.523-1.413a2 2 0 0 0-1.182-1.182L12.882 8l1.413-.523a2 2 0 0 0 1.182-1.182ZM14 14a3 3 0 0 0-3 3v1.17c-.313-.11-.65-.17-1-.17H7a3 3 0 0 0-3 3v4a3 3 0 0 0 3 3h18a3 3 0 0 0 3-3v-2a3 3 0 0 0-3-3h-3c-.35 0-.687.06-1 .17V17a3 3 0 0 0-3-3h-4Zm5 12h-6v-9a1 1 0 0 1 1-1h4a1 1 0 0 1 1 1v9Zm6 0h-4v-3a1 1 0 0 1 1-1h3a1 1 0 0 1 1 1v2a1 1 0 0 1-1 1Zm-14 0v-5a1 1 0 0 0-1-1H7a1 1 0 0 0-1 1v4a1 1 0 0 0 1 1h4Z" fill="#000"/></svg>