<svg width="32" height="32" fill="none" xmlns="http://www.w3.org/2000/svg"><path d="M18.36 12.303c-1.06-1.737-3.66-1.737-4.72 0l-.282.463a1 1 0 0 0 1.708 1.041l.282-.463c.28-.459 1.024-.459 1.304 0l.282.463a1 1 0 0 0 1.708-1.04l-.282-.464Zm-4.988 4.284a1 1 0 0 0-1.708-1.041l-.282.463C10.256 17.855 11.72 20 13.742 20h.564a1 1 0 1 0 0-2h-.565a.742.742 0 0 1-.652-.344.559.559 0 0 1 0-.606l.283-.463Zm6.964-1.041a1 1 0 1 0-1.708 1.04l.282.464a.558.558 0 0 1 0 .606.742.742 0 0 1-.651.344h-.565a1 1 0 1 0 0 2h.565c2.02 0 3.485-2.145 2.36-3.991l-.283-.463Z" fill="#000"/><path fill-rule="evenodd" clip-rule="evenodd" d="M8.07 4a2 2 0 0 0-1.995 2.136l1.237 18.136A4 4 0 0 0 11.302 28h9.396a4 4 0 0 0 3.99-3.728l1.237-18.136A2 2 0 0 0 23.929 4H8.07Zm0 2h15.86l-1.237 18.136A2 2 0 0 1 20.698 26h-9.396a2 2 0 0 1-1.995-1.864L8.07 6Z" fill="#000"/></svg>