<svg width="32" height="32" fill="none" xmlns="http://www.w3.org/2000/svg"><path d="M18.376 12.303c-1.066-1.737-3.686-1.737-4.752 0l-.285.463a.996.996 0 0 0 .336 1.375 1.011 1.011 0 0 0 1.384-.334l.285-.463c.281-.459 1.031-.459 1.313 0l.284.463c.29.472.909.621 1.384.334a.996.996 0 0 0 .336-1.375l-.285-.463Zm-5.023 4.284a.996.996 0 0 0-.336-1.375 1.011 1.011 0 0 0-1.384.334l-.284.463C10.216 17.855 11.69 20 13.725 20h.569c.556 0 1.007-.448 1.007-1s-.45-1-1.007-1h-.569a.748.748 0 0 1-.656-.344.555.555 0 0 1 0-.606l.284-.463Zm7.014-1.041a1.012 1.012 0 0 0-1.384-.334.996.996 0 0 0-.336 1.375l.284.463a.555.555 0 0 1 0 .606.748.748 0 0 1-.656.344h-.569c-.556 0-1.007.448-1.007 1s.45 1 1.007 1h.569c2.035 0 3.51-2.145 2.376-3.991l-.284-.463Z" fill="#000"/><path fill-rule="evenodd" clip-rule="evenodd" d="M8.014 4c-1.166 0-2.089.98-2.01 2.136L7.25 24.272C7.394 26.371 9.15 28 11.27 28h9.46c2.12 0 3.876-1.63 4.02-3.728l1.245-18.136A2.006 2.006 0 0 0 23.985 4H8.016Zm0 2h15.972L22.74 24.136A2.008 2.008 0 0 1 20.73 26h-9.46a2.008 2.008 0 0 1-2.01-1.864L8.014 6Z" fill="#000"/></svg>