<svg width="32" height="32" fill="none" xmlns="http://www.w3.org/2000/svg"><path
    d="m13.668 5.703 1.27-.555c.057-.025.083-.108.053-.174l-.348-.792c-.044-.1.038-.215.125-.173l1.387.666c.021.01.045.011.067.002l1.33-.537c.08-.033.156.067.123.164l-.3.883c-.022.064.004.138.056.163l1.118.523c.1.046.08.225-.025.237l-1.605.196c-.037.004-.069.033-.083.076l-.36 1.09c-.03.095-.136.104-.178.017l-.611-1.27a.1.1 0 0 0-.077-.06l-1.917-.218c-.107-.012-.126-.194-.025-.238Zm.27 2.527c0 .68-1.343 1.418-3 1.418-1.656 0-3-.738-3-1.417 0-.68 1.344-1.389 3-1.389 1.657 0 3 .71 3 1.389ZM4.09 10.757c.228-.618.821-.892 1.324-.61l9.345 5.223a2.495 2.495 0 0 0 2.482 0l9.345-5.223c.503-.282 1.096-.008 1.324.61.229.619.006 1.348-.496 1.629l-9.345 5.224a4.159 4.159 0 0 1-4.138 0l-9.345-5.224c-.502-.281-.725-1.01-.496-1.629Z"
    fill="#000"
  /><path
    d="M4.09 15.677c.228-.619.821-.892 1.324-.611l9.345 5.224a2.495 2.495 0 0 0 2.482 0l9.345-5.224c.503-.281 1.096-.008 1.324.61.229.619.006 1.348-.496 1.63l-9.345 5.223a4.159 4.159 0 0 1-4.138 0l-9.345-5.224c-.502-.28-.725-1.01-.496-1.628Z"
    fill="#000"
  /><path
    d="M5.414 19.985c-.503-.28-1.096-.007-1.324.611-.229.619-.006 1.348.496 1.629l9.345 5.224a4.159 4.159 0 0 0 4.138 0l9.345-5.224c.502-.281.725-1.01.496-1.629-.228-.618-.821-.892-1.324-.61l-9.345 5.223a2.495 2.495 0 0 1-2.482 0l-9.345-5.224ZM21.355 6.426l-3.344 1.64c-.083.042-.084.187 0 .229l3.002 1.495a.08.08 0 0 0 .074 0l3.385-1.64c.084-.041.084-.188 0-.23L21.43 6.427a.083.083 0 0 0-.074 0Zm-8.595 4.27 4.997-.938c.083-.016.143.092.102.182l-1.315 2.865c-.025.055-.08.077-.126.053l-3.682-1.928c-.093-.048-.075-.216.024-.234Z"
    fill="#000"
  /></svg>
