<svg width="32" height="32" fill="none" xmlns="http://www.w3.org/2000/svg"><path d="m13.668 7.477 1.269-.452a.1.1 0 0 0 .055-.141l-.349-.644a.1.1 0 0 1 .125-.14l1.387.54a.1.1 0 0 0 .067.003l1.33-.437a.1.1 0 0 1 .123.133l-.3.718a.1.1 0 0 0 .057.132l1.117.426c.1.038.08.183-.025.193l-1.605.159a.1.1 0 0 0-.083.062l-.36.886a.1.1 0 0 1-.178.014l-.611-1.033a.1.1 0 0 0-.077-.048l-1.917-.178c-.107-.01-.126-.158-.025-.193Zm.27 2.055c0 .552-1.343 1.152-3 1.152s-3-.6-3-1.152c0-.552 1.343-1.129 3-1.129s3 .577 3 1.129ZM4.09 11.586a1 1 0 0 1 1.324-.496l9.345 4.247a3 3 0 0 0 2.482 0l9.345-4.247a1 1 0 0 1 .828 1.82l-9.345 4.248a5 5 0 0 1-4.138 0L4.586 12.91a1 1 0 0 1-.496-1.324Z" fill="#000"/><path d="M4.09 15.586a1 1 0 0 1 1.324-.496l9.345 4.247a3 3 0 0 0 2.482 0l9.345-4.247a1 1 0 0 1 .828 1.82l-9.345 4.248a5 5 0 0 1-4.138 0L4.586 16.91a1 1 0 0 1-.496-1.324Z" fill="#000"/><path d="M5.414 19.09a1 1 0 0 0-.828 1.82l9.345 4.248a5 5 0 0 0 4.138 0l9.345-4.248a1 1 0 0 0-.828-1.82l-9.345 4.247a3 3 0 0 1-2.482 0L5.414 19.09ZM21.355 8.064 18.01 9.398a.1.1 0 0 0 0 .186l3.002 1.216a.1.1 0 0 0 .074 0l3.385-1.334a.1.1 0 0 0 0-.186L21.43 8.064a.1.1 0 0 0-.074 0Zm-8.595 3.472 4.997-.762a.1.1 0 0 1 .102.148l-1.315 2.33a.1.1 0 0 1-.126.042l-3.682-1.567c-.093-.04-.075-.176.024-.19Z" fill="#000"/></svg>