<svg width="32" height="32" fill="none" xmlns="http://www.w3.org/2000/svg"><path fill-rule="evenodd" clip-rule="evenodd" d="M10 12a6 6 0 1 1 12 0 6 6 0 0 1-12 0Zm6-4a4 4 0 1 0 0 8 4 4 0 0 0 0-8Z" fill="#000"/><path fill-rule="evenodd" clip-rule="evenodd" d="M16 2C10.477 2 6 6.477 6 12a9.985 9.985 0 0 0 4 8v7.92c0 1.676 1.94 2.609 3.25 1.561l2.75-2.2 2.75 2.2c1.31 1.048 3.25.115 3.25-1.562v-7.918A9.985 9.985 0 0 0 26 12c0-5.523-4.477-10-10-10ZM8 12a8 8 0 1 1 16 0 8 8 0 0 1-16 0Zm12 9.168A9.966 9.966 0 0 1 16 22a9.966 9.966 0 0 1-4-.832v6.751l2.75-2.2a2 2 0 0 1 2.5 0l2.75 2.2v-6.751Z" fill="#000"/></svg>