<svg width="32" height="32" fill="none" xmlns="http://www.w3.org/2000/svg"><path fill-rule="evenodd" clip-rule="evenodd" d="M10 12a6 6 0 1 1 12 0 6 6 0 0 1-12 0Zm6-4a4 4 0 1 0 0 8 4 4 0 0 0 0-8Z" fill="#000"/><path fill-rule="evenodd" clip-rule="evenodd" d="M14.38 1.852a3 3 0 0 1 3.24 0l1.167.749a1 1 0 0 0 .483.157l1.384.08a3 3 0 0 1 2.622 1.905l.503 1.291a1 1 0 0 0 .299.41l1.073.879a3 3 0 0 1 1.001 3.082l-.352 1.341a1 1 0 0 0 0 .508l.352 1.34a3 3 0 0 1-1.002 3.083l-1.072.878a1 1 0 0 0-.299.41l-.503 1.292A2.999 2.999 0 0 1 22 20.754v7.165c0 1.677-1.94 2.61-3.25 1.562l-2.75-2.2-2.75 2.2C11.94 30.53 10 29.596 10 27.92v-7.165a2.999 2.999 0 0 1-1.276-1.497l-.504-1.291a1 1 0 0 0-.298-.41l-1.072-.879a3 3 0 0 1-1.002-3.082l.352-1.341a1 1 0 0 0 0-.508l-.352-1.34A3 3 0 0 1 6.85 7.322l1.072-.878a1 1 0 0 0 .298-.41l.504-1.292a3 3 0 0 1 2.622-1.905l1.384-.08a1 1 0 0 0 .483-.157l1.166-.749ZM12 21.2v6.72l2.75-2.201a2 2 0 0 1 2.5 0l2.75 2.2V21.2l-.73.042a1 1 0 0 0-.483.157l-1.166.749a3 3 0 0 1-3.242 0l-1.166-.749a1 1 0 0 0-.483-.157L12 21.2Zm4.54-17.665a1 1 0 0 0-1.08 0l-1.167.749a3 3 0 0 1-1.448.47l-1.384.08a1 1 0 0 0-.874.635l-.503 1.292a3 3 0 0 1-.895 1.231l-1.073.878a1 1 0 0 0-.334 1.028l.352 1.34a3 3 0 0 1 0 1.523l-.352 1.341a1 1 0 0 0 .334 1.028l1.073.878a3 3 0 0 1 .895 1.231l.503 1.292a1 1 0 0 0 .874.635l1.384.08a3 3 0 0 1 1.448.47l1.167.749a1 1 0 0 0 1.08 0l1.167-.749a3 3 0 0 1 1.448-.47l1.383-.08a1 1 0 0 0 .875-.635l.503-1.292a3 3 0 0 1 .895-1.231l1.073-.878a1 1 0 0 0 .334-1.028l-.352-1.34a3 3 0 0 1 0-1.523l.352-1.341a1 1 0 0 0-.334-1.028l-1.073-.878a3 3 0 0 1-.895-1.231l-.503-1.292a1 1 0 0 0-.875-.635l-1.383-.08a3 3 0 0 1-1.448-.47l-1.167-.749Z" fill="#000"/></svg>