<svg width="32" height="32" fill="none" xmlns="http://www.w3.org/2000/svg"><path
    fill-rule="evenodd"
    clip-rule="evenodd"
    d="M10.147 12.42c0-3.25 2.62-5.885 5.853-5.885 3.233 0 5.853 2.635 5.853 5.885s-2.62 5.885-5.853 5.885c-3.233 0-5.853-2.635-5.853-5.885ZM16 8.497c-2.155 0-3.902 1.756-3.902 3.923s1.747 3.923 3.902 3.923c2.155 0 3.902-1.756 3.902-3.923S18.155 8.497 16 8.497Z"
    fill="#000"
  /><path
    fill-rule="evenodd"
    clip-rule="evenodd"
    d="M14.419 2.466a2.913 2.913 0 0 1 3.162 0l1.138.735a.972.972 0 0 0 .47.154l1.351.078a2.928 2.928 0 0 1 2.558 1.869l.492 1.266a.981.981 0 0 0 .29.403l1.047.861a2.952 2.952 0 0 1 .977 3.024l-.343 1.315a.985.985 0 0 0 0 .498l.343 1.315a2.952 2.952 0 0 1-.977 3.024l-1.046.86a.98.98 0 0 0-.291.404l-.492 1.266a2.936 2.936 0 0 1-1.245 1.469v7.028c0 1.645-1.892 2.559-3.17 1.531L16 27.408l-2.683 2.158c-1.278 1.028-3.17.114-3.17-1.531v-7.028a2.937 2.937 0 0 1-1.245-1.469l-.492-1.266a.98.98 0 0 0-.29-.403l-1.047-.861a2.952 2.952 0 0 1-.977-3.024l.343-1.315a.986.986 0 0 0 0-.498l-.343-1.315a2.952 2.952 0 0 1 .977-3.024l1.047-.86a.98.98 0 0 0 .29-.404l.492-1.266a2.928 2.928 0 0 1 2.558-1.869l1.35-.078a.972.972 0 0 0 .47-.154l1.139-.735Zm-2.321 18.978v6.59l2.683-2.158a1.943 1.943 0 0 1 2.438 0l2.683 2.159v-6.591l-.712.041a.972.972 0 0 0-.47.154l-1.139.735a2.913 2.913 0 0 1-3.162 0l-1.138-.735a.972.972 0 0 0-.47-.154l-.713-.041Zm4.429-17.327a.971.971 0 0 0-1.054 0l-1.138.735a2.92 2.92 0 0 1-1.413.461l-1.35.078a.976.976 0 0 0-.852.623l-.492 1.267a2.941 2.941 0 0 1-.873 1.208L8.31 9.35a.984.984 0 0 0-.326 1.008l.343 1.315c.128.49.128 1.004 0 1.494l-.343 1.315a.984.984 0 0 0 .326 1.008l1.046.86c.39.321.69.737.873 1.209l.492 1.267c.138.357.471.6.852.623l1.35.078c.503.03.99.188 1.413.461l1.138.735a.971.971 0 0 0 1.054 0l1.138-.735a2.92 2.92 0 0 1 1.413-.461l1.35-.078a.976.976 0 0 0 .852-.623l.492-1.267c.183-.472.483-.888.873-1.208l1.046-.861a.984.984 0 0 0 .326-1.008l-.343-1.315a2.958 2.958 0 0 1 0-1.494l.343-1.315a.984.984 0 0 0-.326-1.008l-1.046-.86a2.941 2.941 0 0 1-.873-1.209l-.492-1.267a.976.976 0 0 0-.852-.623l-1.35-.078a2.916 2.916 0 0 1-1.413-.461l-1.138-.735Z"
    fill="#000"
  /></svg>
