<svg width="32" height="32" fill="none" xmlns="http://www.w3.org/2000/svg"><path fill-rule="evenodd" clip-rule="evenodd" d="M10 12.027c0-3.322 2.686-6.016 6-6.016s6 2.694 6 6.016c0 3.323-2.686 6.017-6 6.017s-6-2.694-6-6.017Zm6-4.01c-2.21 0-4 1.795-4 4.01a4.006 4.006 0 0 0 4 4.011c2.21 0 4-1.795 4-4.01a4.006 4.006 0 0 0-4-4.011Z" fill="#000"/><path fill-rule="evenodd" clip-rule="evenodd" d="M16 2C10.477 2 6 6.49 6 12.027a10.02 10.02 0 0 0 4 8.023v7.94c0 1.682 1.94 2.617 3.25 1.567L16 27.35l2.75 2.207c1.31 1.05 3.25.115 3.25-1.566v-7.94c2.429-1.83 4-4.743 4-8.023C26 6.489 21.523 2 16 2ZM8 12.027c0-4.43 3.582-8.021 8-8.021s8 3.591 8 8.021c0 4.431-3.582 8.023-8 8.023s-8-3.592-8-8.023Zm12 9.194a9.944 9.944 0 0 1-4 .834 9.944 9.944 0 0 1-4-.834v6.77l2.75-2.207a1.996 1.996 0 0 1 2.5 0L20 27.991v-6.77Z" fill="#000"/></svg>