<svg width="32" height="32" fill="none" xmlns="http://www.w3.org/2000/svg"><path
    d="M13.5 15a1.5 1.5 0 1 0 0-3 1.5 1.5 0 0 0 0 3Zm6.5-1.5a1.5 1.5 0 1 1-3 0 1.5 1.5 0 0 1 3 0Z"
    fill="#000"
  /><path
    fill-rule="evenodd"
    clip-rule="evenodd"
    d="M16 4a1 1 0 0 1 1 1v2h4a5 5 0 0 1 5 5v3a5 5 0 0 1-3.142 4.643A7.987 7.987 0 0 1 26 26v1a1 1 0 1 1-2 0v-1a6 6 0 0 0-6-6h-4a6 6 0 0 0-6 6v1a1 1 0 1 1-2 0v-1a7.987 7.987 0 0 1 3.142-6.357A5.002 5.002 0 0 1 6 15v-3a5 5 0 0 1 5-5h4V5a1 1 0 0 1 1-1Zm5 14a3 3 0 0 0 3-3v-3a3 3 0 0 0-3-3H11a3 3 0 0 0-3 3v3a3 3 0 0 0 3 3h10Z"
    fill="#000"
  /></svg>
