<svg width="32" height="32" fill="none" xmlns="http://www.w3.org/2000/svg"><path fill-rule="evenodd" clip-rule="evenodd" d="M16 14a5 5 0 1 0 0 10 5 5 0 0 0 0-10Zm-3 5a3 3 0 1 1 6 0 3 3 0 0 1-6 0Z" fill="#000"/><path fill-rule="evenodd" clip-rule="evenodd" d="M19.757 4H8a4 4 0 0 0-4 4v16a4 4 0 0 0 4 4h16a4 4 0 0 0 4-4V12.243a4 4 0 0 0-1.172-2.829l-4.242-4.242A4 4 0 0 0 19.757 4ZM8 6a2 2 0 0 0-2 2v16a2 2 0 0 0 2 2h16a2 2 0 0 0 2-2V12.243a2 2 0 0 0-.586-1.415l-4.242-4.242A2 2 0 0 0 19.757 6H19.5v4a2 2 0 0 1-2 2h-7a2 2 0 0 1-2-2V6H8Zm2.5 4h7V6h-7v4Z" fill="#000"/></svg>