<svg width="32" height="32" fill="none" xmlns="http://www.w3.org/2000/svg"><path
    fill-rule="evenodd"
    clip-rule="evenodd"
    d="M8 4a4 4 0 0 0-4 4v16a4 4 0 0 0 4 4h16a4 4 0 0 0 4-4V12.243a4 4 0 0 0-1.172-2.829l-4.242-4.242A4 4 0 0 0 19.757 4H8Zm0 2a2 2 0 0 0-2 2v16a2 2 0 0 0 2 2h2v-6a3 3 0 0 1 3-3h6a3 3 0 0 1 3 3v6h2a2 2 0 0 0 2-2V12.243a2 2 0 0 0-.586-1.415l-4.242-4.242A2 2 0 0 0 19.757 6H19.5v4a2 2 0 0 1-2 2h-7a2 2 0 0 1-2-2V6H8Zm2.5 0v4h7V6h-7ZM20 26h-8v-6a1 1 0 0 1 1-1h6a1 1 0 0 1 1 1v6Z"
    fill="#000"
  /></svg>
