<svg width="32" height="32" fill="none" xmlns="http://www.w3.org/2000/svg"><path fill-rule="evenodd" clip-rule="evenodd" d="M3.577 9.326a1 1 0 0 1 1.307-.54l10.035 4.174a.32.32 0 0 1 .043.017l5.895 2.451a5 5 0 1 1-1.02 1.742l-4.279-1.779.003 4.26a5 5 0 1 1-2-.007l-.004-5.085-9.44-3.926a1 1 0 0 1-.54-1.307Zm9.305 12.727a3 3 0 1 0 3.332 4.99 3 3 0 0 0-3.332-4.99Zm9.194-1.609a3 3 0 1 1 4.99-3.332 3 3 0 0 1-4.99 3.332Z" fill="#000"/><path d="M14.549 2a1 1 0 0 1 1 1l.005 6.534a1 1 0 0 1-2 .002L13.549 3a1 1 0 0 1 1-1.001Z" fill="#000"/></svg>