<svg width="32" height="32" fill="none" xmlns="http://www.w3.org/2000/svg"><path fill-rule="evenodd" clip-rule="evenodd" d="M5.068 10.382a.886.886 0 0 1 1.153-.47l8.853 3.636.037.015 5.201 2.136c.24-.262.516-.5.827-.705 2.026-1.335 4.765-.796 6.118 1.204a4.323 4.323 0 0 1-1.219 6.042c-2.026 1.336-4.765.797-6.118-1.204a4.303 4.303 0 0 1-.508-3.82l-3.774-1.55.002 3.712a4.4 4.4 0 0 1 2.775 1.847 4.323 4.323 0 0 1-1.22 6.041c-2.025 1.336-4.764.797-6.117-1.204a4.323 4.323 0 0 1 1.22-6.041 4.428 4.428 0 0 1 1.578-.649l-.003-4.43-8.33-3.42a.867.867 0 0 1-.475-1.14Zm8.209 11.088a2.594 2.594 0 0 0-.731 3.625 2.667 2.667 0 0 0 3.67.722 2.594 2.594 0 0 0 .732-3.625 2.667 2.667 0 0 0-3.671-.722Zm8.11-1.402a2.594 2.594 0 0 1 .732-3.625 2.667 2.667 0 0 1 3.67.723 2.594 2.594 0 0 1-.73 3.625 2.667 2.667 0 0 1-3.671-.723Z" fill="#000"/><path d="M14.747 4c.487 0 .883.39.883.87l.004 5.694a.877.877 0 0 1-.882.872.877.877 0 0 1-.882-.87l-.004-5.694c0-.481.394-.872.881-.872Z" fill="#000"/></svg>