<svg width="32" height="32" fill="none" xmlns="http://www.w3.org/2000/svg"><path
    d="M16 7.5a5.5 5.5 0 0 0-5.5 5.5v6.75a3.75 3.75 0 1 1-7.5 0V19a1 1 0 1 1 2 0v.75a1.75 1.75 0 1 0 3.5 0V13a7.5 7.5 0 0 1 15 0v6.75a1.75 1.75 0 1 0 3.5 0V19a1 1 0 1 1 2 0v.75a3.75 3.75 0 1 1-7.5 0V13A5.5 5.5 0 0 0 16 7.5Z"
    fill="#000"
  /><path
    d="M14 18a1 1 0 1 0-2 0v3.5a2 2 0 0 1-2 2 1 1 0 1 0 0 2 4 4 0 0 0 4-4V18Zm3 1a1 1 0 1 0-2 0v7a1 1 0 1 0 2 0v-7Zm1-1a1 1 0 1 1 2 0v3.5a2 2 0 0 0 2 2 1 1 0 1 1 0 2 4 4 0 0 1-4-4V18Zm-3-5.5a1.5 1.5 0 1 1-3 0 1.5 1.5 0 0 1 3 0Zm3.5 1.5a1.5 1.5 0 1 0 0-3 1.5 1.5 0 0 0 0 3Z"
    fill="#000"
  /></svg>
