<svg width="32" height="32" fill="none" xmlns="http://www.w3.org/2000/svg"><path
    fill-rule="evenodd"
    clip-rule="evenodd"
    d="M5.904 10.724c-2.412.866-2.572 4.216-.253 5.308l6.08 2.86a2.875 2.875 0 0 1 1.377 1.378l2.86 6.079c1.092 2.319 4.442 2.16 5.308-.253l6.55-18.244c.82-2.287-1.391-4.498-3.678-3.677L5.904 10.724Zm.563 3.573c-.773-.364-.72-1.48.084-1.769l18.244-6.549a.958.958 0 0 1 1.226 1.226l-6.549 18.244c-.289.804-1.405.857-1.77.084l-2.86-6.08a4.78 4.78 0 0 0-.338-.601l4.982-4.983a.958.958 0 1 0-1.355-1.355l-4.983 4.982a4.791 4.791 0 0 0-.601-.338l-6.08-2.86Z"
    fill="#000"
  /></svg>
