<svg width="32" height="32" fill="none" xmlns="http://www.w3.org/2000/svg"><path
    fill-rule="evenodd"
    clip-rule="evenodd"
    d="M8.234 4.305C5.846 3.129 3.288 5.556 4.183 8.151l2.345 6.801a3.222 3.222 0 0 1 0 2.096L4.183 23.85c-.895 2.594 1.663 5.021 4.051 3.845l18.067-8.897c2.265-1.116 2.265-4.48 0-5.596L8.234 4.305ZM6.041 7.452c-.298-.865.555-1.674 1.35-1.282l18.067 8.897c.756.372.756 1.494 0 1.866L7.392 25.83c-.796.392-1.649-.417-1.35-1.282l2.345-6.802c.08-.234.144-.473.192-.715h7.261c.546 0 .988-.462.988-1.031 0-.57-.442-1.031-.988-1.031H8.58a5.331 5.331 0 0 0-.193-.715L6.041 7.452Z"
    fill="#000"
  /></svg>
