<svg width="32" height="32" fill="none" xmlns="http://www.w3.org/2000/svg"><path
    fill-rule="evenodd"
    clip-rule="evenodd"
    d="M10 28a6 6 0 0 1-6-6V10a6 6 0 0 1 6-6h12a6 6 0 0 1 6 6v12a6 6 0 0 1-6 6H10ZM22 6h-9v2.323a2.858 2.858 0 1 1-2 0V6h-1a4 4 0 0 0-4 4v9h3.323A2.858 2.858 0 1 1 13 22.677V26h6v-3.323a2.858 2.858 0 0 1 0-5.354v-3.646A2.858 2.858 0 1 1 22.677 10H26a4 4 0 0 0-4-4Zm.677 6A2.866 2.866 0 0 1 21 13.677v3.646a2.858 2.858 0 0 1 0 5.354V26h1a4 4 0 0 0 4-4V12h-3.323ZM6 21h3.323A2.866 2.866 0 0 0 11 22.677V26h-1a4 4 0 0 1-4-4v-1Zm6-2.143a1.143 1.143 0 1 0 0 2.286 1.143 1.143 0 0 0 0-2.286ZM18.857 20a1.143 1.143 0 1 1 2.286 0 1.143 1.143 0 0 1-2.286 0ZM12 9.857a1.143 1.143 0 1 0 0 2.286 1.143 1.143 0 0 0 0-2.286ZM18.857 11a1.143 1.143 0 1 1 2.286 0 1.143 1.143 0 0 1-2.286 0Z"
    fill="#000"
  /></svg>
