<svg width="32" height="32" fill="none" xmlns="http://www.w3.org/2000/svg"><path
    d="M20.048 10.164c-.594-.39-1.426-.672-2.282-.834a9.303 9.303 0 0 0-2.803-.11c-.933.114-1.91.41-2.672 1.03-.802.654-1.291 1.607-1.291 2.829 0 .684.17 1.29.514 1.802.339.504.8.849 1.28 1.094.868.444 1.969.64 2.889.804l.141.025c1.042.186 1.867.35 2.445.668.266.146.435.303.542.472.104.163.189.402.189.782 0 .951-.772 1.775-2.236 2.126-1.441.346-3.105.084-4.14-.742a1 1 0 0 0-1.248 1.564c1.625 1.295 3.961 1.577 5.855 1.123 1.871-.45 3.769-1.77 3.769-4.071 0-.702-.165-1.323-.498-1.851-.331-.523-.787-.891-1.271-1.156-.913-.501-2.075-.709-3.027-.879l-.028-.005c-1.053-.188-1.883-.34-2.47-.64-.27-.139-.434-.283-.532-.43-.094-.139-.174-.344-.174-.686 0-.632.227-1.011.554-1.277.366-.298.931-.509 1.652-.597a7.307 7.307 0 0 1 2.187.09c.716.136 1.266.35 1.559.541a1 1 0 1 0 1.096-1.672Z"
    fill="#000"
  /><path
    fill-rule="evenodd"
    clip-rule="evenodd"
    d="M16 2C8.268 2 2 8.268 2 16s6.268 14 14 14 14-6.268 14-14S23.732 2 16 2ZM4 16C4 9.373 9.373 4 16 4s12 5.373 12 12-5.373 12-12 12S4 22.627 4 16Z"
    fill="#000"
  /></svg>
