<svg width="32" height="32" fill="none" xmlns="http://www.w3.org/2000/svg"><path
    fill-rule="evenodd"
    clip-rule="evenodd"
    d="M7.036 8.474a3 3 0 0 1 1.098-4.098l1.732-1a3 3 0 0 1 4.098 1.098l.549.95c.199.345.648.593 1.22.578.178-.005.356-.005.534 0 .571.016 1.02-.232 1.22-.576l.549-.952a3 3 0 0 1 4.098-1.098l1.732 1a3 3 0 0 1 1.098 4.098l-.55.953c-.199.344-.19.856.109 1.342a10.152 10.152 0 0 1 .268.465c.273.502.71.766 1.109.766H27a3 3 0 0 1 3 3v2a3 3 0 0 1-3 3h-1.1c-.397 0-.836.265-1.108.768-.085.156-.174.31-.267.462-.299.488-.309 1.001-.11 1.346l.55.95a3 3 0 0 1-1.099 4.098l-1.732 1a3 3 0 0 1-4.098-1.098l-.549-.95c-.199-.345-.648-.593-1.22-.578a9.977 9.977 0 0 1-.534 0c-.571-.016-1.02.231-1.22.576l-.549.952a3 3 0 0 1-4.098 1.098l-1.732-1a3 3 0 0 1-1.098-4.098l.55-.953c.199-.344.19-.856-.109-1.343a10.26 10.26 0 0 1-.268-.464C6.937 20.264 6.499 20 6.1 20H5a3 3 0 0 1-3-3v-2a3 3 0 0 1 3-3h1.1c.397 0 .836-.265 1.108-.768.085-.156.174-.31.267-.462.299-.489.309-1.001.11-1.346l-.55-.95Zm2.098-2.366a1 1 0 0 0-.366 1.366l.549.95c.649 1.124.45 2.433-.137 3.39a8.035 8.035 0 0 0-.213.37C8.432 13.172 7.397 14 6.1 14H5a1 1 0 0 0-1 1v2a1 1 0 0 0 1 1h1.1c1.296 0 2.33.825 2.867 1.812a7.94 7.94 0 0 0 .215.373c.587.958.784 2.266.136 3.388l-.55.953a1 1 0 0 0 .366 1.366l1.732 1a1 1 0 0 0 1.366-.366l.55-.952c.649-1.124 1.883-1.607 3.006-1.576.142.004.285.004.427 0 1.122-.028 2.355.454 3.004 1.578l.549.95a1 1 0 0 0 1.366.366l1.732-1a1 1 0 0 0 .366-1.366l-.549-.95c-.649-1.124-.45-2.433.137-3.39.074-.122.145-.245.213-.37.535-.988 1.57-1.816 2.867-1.816H27a1 1 0 0 0 1-1v-2a1 1 0 0 0-1-1h-1.1c-1.296 0-2.33-.825-2.866-1.812a7.983 7.983 0 0 0-.216-.373c-.587-.958-.784-2.266-.136-3.388l.55-.953a1 1 0 0 0-.366-1.366l-1.732-1a1 1 0 0 0-1.366.366l-.55.952C18.57 7.55 17.335 8.032 16.212 8a8 8 0 0 0-.427 0c-1.122.03-2.355-.453-3.004-1.577l-.549-.95a1 1 0 0 0-1.366-.366l-1.732 1Zm5.366 7.294a3 3 0 1 0 3 5.196 3 3 0 0 0-3-5.196ZM11.67 18.5a5 5 0 1 1 8.66-5 5 5 0 0 1-8.66 5Z"
    fill="#000"
  /></svg>
