<svg width="32" height="32" fill="none" xmlns="http://www.w3.org/2000/svg"><path
    fill-rule="evenodd"
    clip-rule="evenodd"
    d="M8.095 7.368a3 3 0 0 1 1.624-3.92l1.847-.765a3 3 0 0 1 3.92 1.624L16 5.547l.514-1.24a3 3 0 0 1 3.92-1.624l1.847.765a3 3 0 0 1 1.624 3.92l-.514 1.241 1.24-.514a3 3 0 0 1 3.92 1.624l.766 1.847a3 3 0 0 1-1.624 3.92l-1.24.514 1.24.514a3 3 0 0 1 1.624 3.92l-.765 1.847a3 3 0 0 1-3.92 1.624l-1.241-.514.514 1.24a3 3 0 0 1-1.624 3.92l-1.847.766a3 3 0 0 1-3.92-1.624L16 26.453l-.514 1.24a3 3 0 0 1-3.92 1.624l-1.847-.765a3 3 0 0 1-1.624-3.92l.514-1.241-1.24.514a3 3 0 0 1-3.92-1.624l-.766-1.847a3 3 0 0 1 1.624-3.92L5.547 16l-1.24-.514a3 3 0 0 1-1.624-3.92l.765-1.847a3 3 0 0 1 3.92-1.624l1.241.514-.514-1.24Zm2.389-2.072a1 1 0 0 0-.541 1.307l.779 1.88a1.709 1.709 0 0 1-.38 1.859 1.706 1.706 0 0 1-1.859.38l-1.88-.78a1 1 0 0 0-1.307.542l-.765 1.848a1 1 0 0 0 .541 1.306l1.88.78A1.706 1.706 0 0 1 7.999 16a1.71 1.71 0 0 1-1.045 1.583l-1.881.779a1 1 0 0 0-.541 1.306l.765 1.848a1 1 0 0 0 1.307.541l1.88-.779a1.709 1.709 0 0 1 1.859.38c.468.468.655 1.195.38 1.859l-.78 1.88a1 1 0 0 0 .542 1.307l1.848.765a1 1 0 0 0 1.306-.541l.78-1.88A1.706 1.706 0 0 1 16 24.001a1.71 1.71 0 0 1 1.583 1.045l.779 1.881a1 1 0 0 0 1.306.541l1.848-.765a1 1 0 0 0 .541-1.307l-.779-1.88a1.709 1.709 0 0 1 .38-1.859 1.706 1.706 0 0 1 1.859-.38l1.88.78a1 1 0 0 0 1.307-.542l.765-1.848a1 1 0 0 0-.541-1.306l-1.88-.78A1.706 1.706 0 0 1 24.001 16a1.71 1.71 0 0 1 1.045-1.583l1.881-.779a1 1 0 0 0 .541-1.306l-.765-1.848a1 1 0 0 0-1.307-.541l-1.88.779a1.709 1.709 0 0 1-1.859-.38 1.706 1.706 0 0 1-.38-1.859l.78-1.88a1 1 0 0 0-.542-1.307l-1.848-.765a1 1 0 0 0-1.306.541l-.78 1.88A1.706 1.706 0 0 1 16 7.999a1.71 1.71 0 0 1-1.583-1.045l-.779-1.881a1 1 0 0 0-1.306-.541l-1.848.765Zm4.368 7.932a3 3 0 1 0 2.296 5.544 3 3 0 0 0-2.296-5.544Zm-3.471 4.685a5 5 0 1 1 9.239-3.826 5 5 0 0 1-9.24 3.826Z"
    fill="#000"
  /></svg>
