<svg width="32" height="32" fill="none" xmlns="http://www.w3.org/2000/svg"><path
    d="M20.707 13.707a1 1 0 0 0-1.414-1.414L14.5 17.086l-1.793-1.793a1 1 0 0 0-1.414 1.414l2.5 2.5a1 1 0 0 0 1.414 0l5.5-5.5Z"
    fill="#000"
  /><path
    fill-rule="evenodd"
    clip-rule="evenodd"
    d="M16.515 4.143a1 1 0 0 0-1.03 0L13.038 5.61a5 5 0 0 1-4.43.355l-.865-.346A1.999 1.999 0 0 0 5 7.475V17c0 5.518 4.892 11 11 11s11-5.482 11-11V7.475a2 2 0 0 0-2.743-1.855l-.865.346a5 5 0 0 1-4.43-.355l-2.447-1.468Zm-2.449 3.183L16 6.166l1.933 1.16a7 7 0 0 0 6.202.497L25 7.477V17c0 4.482-4.063 9-9 9s-9-4.518-9-9V7.477l.865.346a7 7 0 0 0 6.201-.497Z"
    fill="#000"
  /></svg>
