<svg width="32" height="32" fill="none" xmlns="http://www.w3.org/2000/svg"><path d="M20.207 12.293a1 1 0 0 1 0 1.414l-2.543 2.543 2.543 2.543a1 1 0 0 1-1.414 1.414l-2.543-2.543-2.543 2.543a1 1 0 0 1-1.414-1.414l2.543-2.543-2.543-2.543a1 1 0 0 1 1.414-1.414l2.543 2.543 2.543-2.543a1 1 0 0 1 1.414 0Z" fill="#000"/><path fill-rule="evenodd" clip-rule="evenodd" d="M15.486 4.143a1 1 0 0 1 1.029 0l2.447 1.468a5 5 0 0 0 4.43.355l.865-.346A2 2 0 0 1 27 7.475V17c0 5.518-4.892 11-11 11S5 22.518 5 17V7.475A1.999 1.999 0 0 1 7.743 5.62l.865.346a5 5 0 0 0 4.43-.355l2.447-1.468ZM16 6.166l-1.934 1.16a7 7 0 0 1-6.2.497L7 7.477V17c0 4.482 4.063 9 9 9s9-4.518 9-9V7.477l-.865.346a7 7 0 0 1-6.202-.497L16 6.166Z" fill="#000"/></svg>