<svg width="32" height="32" fill="none" xmlns="http://www.w3.org/2000/svg"><path
    fill-rule="evenodd"
    clip-rule="evenodd"
    d="M17.582 2.604a1 1 0 0 1 1.008-.6c3.094.281 5.946 2.17 7.999 4.7C28.647 9.239 30 12.53 30 15.802c0 7.732-6.268 14-14 14s-14-6.268-14-14A13.96 13.96 0 0 1 6.211 5.793C8.248 3.8 11.175 3.04 13.829 3.397c2.66.358 5.202 1.869 6.307 4.593.21.521.356 1.067.441 1.657a1 1 0 0 1-1.503 1.001A6 6 0 1 0 16 21.802c2.961 0 5.123-2.334 6.051-5.118.888-2.663.481-5.323-.495-7.637-.98-2.323-2.505-4.224-3.719-5.298a1 1 0 0 1-.255-1.145Zm4.009 2.413c.672.96 1.304 2.057 1.808 3.253 1.107 2.625 1.632 5.799.55 9.046-1.072 3.216-3.78 6.486-7.949 6.486a8 8 0 1 1 1.93-15.765c-.9-1.493-2.518-2.409-4.368-2.658-2.131-.287-4.415.34-5.952 1.844A11.96 11.96 0 0 0 4 15.802c0 6.628 5.373 12 12 12s12-5.372 12-12c0-2.74-1.147-5.6-2.964-7.838-1.005-1.237-2.185-2.25-3.445-2.947Z"
    fill="#000"
  /></svg>
