<svg width="32" height="32" fill="none" xmlns="http://www.w3.org/2000/svg"><path
    fill-rule="evenodd"
    clip-rule="evenodd"
    d="M9.008 17.124A1.011 1.011 0 0 1 9 17V3a1 1 0 0 1 2 0v14c0 .042-.003.083-.008.124a4.002 4.002 0 0 1 .008 7.75V29a1 1 0 1 1-2 0v-4.126a4.002 4.002 0 0 1 .008-7.75ZM10 23a2 2 0 1 1 0-4 2 2 0 0 1 0 4ZM21 7.126a4.002 4.002 0 0 0 .008 7.75c-.005.04-.008.082-.008.124v14a1 1 0 1 0 2 0V15a1.02 1.02 0 0 0-.008-.124A4.002 4.002 0 0 0 23 7.126V3a1 1 0 1 0-2 0v4.126ZM22 9a2 2 0 1 0 0 4 2 2 0 0 0 0-4Z"
    fill="#000"
  /></svg>
