<svg width="32" height="32" fill="none" xmlns="http://www.w3.org/2000/svg"><path
    d="M14.43 3.316c.143-.557-.174-1.13-.707-1.28-.534-.15-1.082.181-1.225.74l-.84 3.273-1.292-2.34A.977.977 0 0 0 9 3.325c-.478.288-.642.928-.366 1.428l1.293 2.34-3.132-.877c-.534-.15-1.082.182-1.225.74-.143.557.174 1.13.707 1.28l5.064 1.418 2.927 5.3H8.414l-3.707-3.876a.97.97 0 0 0-1.414 0 1.08 1.08 0 0 0 0 1.479l2.293 2.397H3c-.552 0-1 .468-1 1.045s.448 1.045 1 1.045h2.586l-2.293 2.397a1.08 1.08 0 0 0 0 1.479.97.97 0 0 0 1.414 0l3.707-3.876h5.854l-2.927 5.3-5.064 1.418c-.533.15-.85.723-.707 1.28.143.558.691.89 1.225.74l3.132-.878-1.293 2.341c-.276.5-.112 1.14.366 1.428a.977.977 0 0 0 1.366-.382l1.293-2.341.84 3.274c.142.558.69.888 1.224.74.533-.15.85-.724.707-1.281l-1.357-5.294L16 18.09l2.927 5.3-1.357 5.294c-.143.557.174 1.13.707 1.28.534.15 1.082-.181 1.225-.74l.84-3.273 1.292 2.34c.276.5.888.672 1.366.383.478-.288.642-.928.366-1.428l-1.293-2.34 3.132.877c.534.15 1.082-.182 1.225-.74.143-.557-.174-1.13-.707-1.28l-5.064-1.418-2.927-5.3h5.854l3.707 3.876a.97.97 0 0 0 1.414 0 1.08 1.08 0 0 0 0-1.479l-2.293-2.397H29c.552 0 1-.468 1-1.045s-.448-1.045-1-1.045h-2.586l2.293-2.397a1.08 1.08 0 0 0 0-1.479.97.97 0 0 0-1.414 0l-3.707 3.876h-5.854l2.927-5.3 5.064-1.418c.533-.15.85-.723.707-1.28-.143-.558-.691-.89-1.225-.74l-3.132.878 1.293-2.341c.276-.5.112-1.14-.366-1.428a.977.977 0 0 0-1.366.382L20.34 6.05l-.84-3.274c-.142-.558-.69-.889-1.224-.74-.533.15-.85.724-.707 1.281l1.357 5.294L16 13.91l-2.927-5.3 1.357-5.294Z"
    fill="#000"
  /></svg>
