<svg width="32" height="32" fill="none" xmlns="http://www.w3.org/2000/svg"><path d="M14.43 3.866a1 1 0 0 0-1.932-.517l-.84 3.132-1.292-2.24a1 1 0 0 0-1.732 1l1.293 2.24-3.132-.84a1 1 0 1 0-.518 1.933l5.064 1.357L14.268 15H8.414l-3.707-3.707a1 1 0 0 0-1.414 1.414L5.586 15H3a1 1 0 1 0 0 2h2.586l-2.293 2.293a1 1 0 1 0 1.414 1.414L8.414 17h5.854l-2.927 5.07-5.064 1.356a1 1 0 1 0 .518 1.932l3.132-.839-1.293 2.24a1 1 0 0 0 1.732 1l1.293-2.24.84 3.132a1 1 0 1 0 1.931-.517l-1.357-5.064L16 18l2.927 5.07-1.357 5.064a1 1 0 1 0 1.932.517l.84-3.132 1.292 2.24a1 1 0 0 0 1.732-1l-1.293-2.24 3.132.84a1 1 0 0 0 .518-1.933l-5.064-1.356L17.732 17h5.854l3.707 3.707a1 1 0 0 0 1.414-1.414L26.414 17H29a1 1 0 1 0 0-2h-2.586l2.293-2.293a1 1 0 1 0-1.414-1.414L23.586 15h-5.854l2.927-5.07 5.064-1.356a1 1 0 1 0-.518-1.932l-3.132.839 1.293-2.24a1 1 0 1 0-1.732-1l-1.293 2.24-.84-3.132a1 1 0 1 0-1.931.518l1.357 5.064L16 14l-2.927-5.07 1.357-5.064Z" fill="#000"/></svg>