<svg width="32" height="32" fill="none" xmlns="http://www.w3.org/2000/svg"><path fill-rule="evenodd" clip-rule="evenodd" d="M21.605 4.812c.499-1.266 2.291-1.266 2.79 0l.79 2.003 2.003.79c1.266.499 1.266 2.291 0 2.79l-2.003.79-.79 2.002c-.499 1.267-2.291 1.267-2.79 0l-.79-2.002-2.003-.79c-1.266-.499-1.266-2.291 0-2.79l2.003-.79.79-2.003ZM23 6.726l-.404 1.025a1.5 1.5 0 0 1-.845.845L20.726 9l1.025.404a1.5 1.5 0 0 1 .845.845L23 11.274l.404-1.025a1.5 1.5 0 0 1 .845-.845L25.274 9l-1.025-.404a1.5 1.5 0 0 1-.845-.845L23 6.726ZM9.14 8.992c.665-1.688 3.055-1.688 3.72 0l1.457 3.691 3.691 1.457c1.689.665 1.689 3.055 0 3.72l-3.691 1.457-1.457 3.691c-.665 1.689-3.055 1.689-3.72 0l-1.457-3.691-3.691-1.457c-1.688-.665-1.688-3.055 0-3.72l3.691-1.457L9.14 8.992Zm1.86.734-1.456 3.691a2 2 0 0 1-1.127 1.127L4.726 16l3.691 1.456a2 2 0 0 1 1.127 1.127L11 22.274l1.456-3.691a2 2 0 0 1 1.127-1.127L17.274 16l-3.691-1.456a2 2 0 0 1-1.127-1.127L11 9.726Zm14.185 11.089-.79-2.003c-.499-1.266-2.291-1.266-2.79 0l-.79 2.003-2.003.79c-1.266.499-1.266 2.291 0 2.79l2.003.79.79 2.003c.499 1.266 2.291 1.266 2.79 0l.79-2.003 2.003-.79c1.266-.499 1.266-2.291 0-2.79l-2.003-.79Zm-2.59.936L23 20.726l.404 1.025a1.5 1.5 0 0 0 .845.845l1.025.404-1.025.404a1.5 1.5 0 0 0-.845.845L23 25.274l-.404-1.025a1.5 1.5 0 0 0-.845-.845L20.726 23l1.025-.404a1.5 1.5 0 0 0 .845-.845Z" fill="#000"/></svg>