<svg width="32" height="32" fill="none" xmlns="http://www.w3.org/2000/svg"><path
    fill-rule="evenodd"
    clip-rule="evenodd"
    d="M21.556 4.939c.492-1.252 2.26-1.252 2.753 0l.779 1.98 1.975.78c1.25.494 1.25 2.266 0 2.76l-1.975.78-.78 1.98c-.492 1.252-2.26 1.252-2.752 0l-.78-1.98-1.975-.78c-1.249-.494-1.249-2.266 0-2.76l1.976-.78.779-1.98Zm1.376 1.891-.399 1.014c-.15.382-.452.685-.833.835l-1.012.4 1.012.4c.381.15.683.453.833.835l.4 1.014.398-1.014a1.48 1.48 0 0 1 .834-.835l1.01-.4-1.01-.4a1.481 1.481 0 0 1-.834-.835l-.399-1.014ZM10.327 9.071c.657-1.67 3.014-1.67 3.671 0l1.437 3.65 3.641 1.44c1.666.658 1.666 3.02 0 3.679l-3.642 1.439-1.436 3.65c-.657 1.67-3.014 1.67-3.67 0l-1.437-3.65-3.642-1.44c-1.665-.658-1.665-3.02 0-3.678l3.642-1.44 1.436-3.65Zm1.836.726-1.437 3.65c-.2.51-.603.913-1.111 1.114L5.973 16l3.642 1.44c.508.2.91.604 1.111 1.113l1.437 3.65 1.436-3.65c.2-.51.603-.913 1.112-1.114L18.352 16l-3.641-1.44a1.976 1.976 0 0 1-1.112-1.114l-1.436-3.65ZM25.088 20.76l-.78-1.98c-.492-1.251-2.26-1.251-2.752 0l-.78 1.98-1.975.781c-1.249.494-1.249 2.266 0 2.76l1.976.78.779 1.98c.492 1.252 2.26 1.252 2.753 0l.779-1.98 1.975-.78c1.25-.494 1.25-2.266 0-2.76l-1.975-.78Zm-2.555.926.4-1.014.398 1.014c.15.382.452.684.834.835l1.01.4-1.01.4c-.382.15-.684.453-.834.835l-.399 1.014-.399-1.014a1.481 1.481 0 0 0-.833-.835l-1.012-.4 1.012-.4c.381-.15.683-.453.833-.835Z"
    fill="#000"
  /></svg>
