<svg width="32" height="32" fill="none" xmlns="http://www.w3.org/2000/svg"><path fill-rule="evenodd" clip-rule="evenodd" d="M15 17.17V10a1 1 0 1 1 2 0v7.17a3.001 3.001 0 1 1-2 0ZM16 19a1 1 0 1 0 0 2 1 1 0 0 0 0-2Z" fill="#000"/><path fill-rule="evenodd" clip-rule="evenodd" d="M16 2c7.732 0 14 6.268 14 14s-6.268 14-14 14S2 23.732 2 16 8.268 2 16 2ZM8.251 6.837A11.947 11.947 0 0 1 15 4.041V6a1 1 0 1 0 2 0V4.041a11.947 11.947 0 0 1 6.749 2.796l-1.456 1.456a1 1 0 0 0 1.414 1.414l1.456-1.456A11.947 11.947 0 0 1 27.96 15H26a1 1 0 1 0 0 2h1.959C27.45 23.16 22.29 28 16 28S4.55 23.16 4.041 17H6a1 1 0 1 0 0-2H4.041a11.947 11.947 0 0 1 2.796-6.749l1.456 1.456a1 1 0 0 0 1.414-1.414L8.251 6.837Z" fill="#000"/></svg>