<svg width="32" height="32" fill="none" xmlns="http://www.w3.org/2000/svg"><path d="M19.179 4.016a1 1 0 0 1 .805 1.163l-4 22a1 1 0 1 1-1.968-.358l4-22a1 1 0 0 1 1.163-.805Z" fill="#000"/><path fill-rule="evenodd" clip-rule="evenodd" d="M9.5 6a1 1 0 0 1 .932.638l3.5 9a1 1 0 1 1-1.864.724L11.538 15H7.462l-.53 1.362a1 1 0 1 1-1.864-.724l3.5-9A1 1 0 0 1 9.5 6Zm1.26 7L9.5 9.759 8.24 13h2.52ZM21 18a1 1 0 0 0-1 1v8a1 1 0 0 0 1 1h3.6c1.831 0 3.4-1.426 3.4-3.286 0-.979-.434-1.837-1.113-2.431.321-.438.513-.976.513-1.569C27.4 19.17 26.1 18 24.6 18H21Zm1 8v-2.571h2.6c.82 0 1.4.62 1.4 1.285C26 25.38 25.42 26 24.6 26H22Zm3.4-5.286c0 .35-.312.715-.8.715H22V20h2.6c.488 0 .8.365.8.714Z" fill="#000"/></svg>