<svg width="32" height="32" fill="none" xmlns="http://www.w3.org/2000/svg"><path
    d="M18.984 5.179a1 1 0 1 0-1.968-.358l-4 22a1 1 0 1 0 1.968.358l4-22ZM7.646 5.59C8.373 4.573 9.512 4 11 4a1 1 0 1 1 0 2c-.922 0-1.42.323-1.726.753C8.927 7.238 8.727 8 8.727 9v1c0 1.098-.067 2.328-.575 3.294a3.165 3.165 0 0 1-.5.706c.201.213.367.451.5.706.508.966.575 2.196.575 3.294v1c0 1 .2 1.762.547 2.247.307.43.804.753 1.726.753a1 1 0 1 1 0 2c-1.488 0-2.627-.573-3.354-1.59-.687-.962-.919-2.201-.919-3.41v-1c0-1.111-.091-1.881-.345-2.363a1.02 1.02 0 0 0-.42-.446C5.777 15.089 5.48 15 5 15a1 1 0 1 1 0-2c.481 0 .777-.09.962-.19a1.02 1.02 0 0 0 .42-.447c.254-.482.345-1.252.345-2.363V9c0-1.209.232-2.448.92-3.41Zm16.708 4C23.627 8.573 22.488 8 21 8a1 1 0 1 0 0 2c.922 0 1.42.323 1.726.753.347.486.547 1.247.547 2.247v1c0 1.098.067 2.328.575 3.294.133.254.299.493.5.706a3.182 3.182 0 0 0-.5.706c-.508.966-.575 2.196-.575 3.294v1c0 1-.2 1.762-.547 2.247-.307.43-.804.753-1.726.753a1 1 0 1 0 0 2c1.488 0 2.627-.573 3.354-1.59.687-.962.919-2.201.919-3.41v-1c0-1.111.091-1.881.345-2.363.11-.21.245-.35.42-.446.185-.102.481-.191.962-.191a1 1 0 1 0 0-2c-.481 0-.777-.09-.962-.19a1.02 1.02 0 0 1-.42-.447c-.254-.482-.345-1.252-.345-2.363v-1c0-1.209-.232-2.448-.92-3.41Z"
    fill="#000"
  /></svg>
