<svg width="32" height="32" fill="none" xmlns="http://www.w3.org/2000/svg"><path
    d="M28 10a1 1 0 0 1-.307.723l-3.119 3a.99.99 0 0 1-1.405-.032 1.005 1.005 0 0 1 .03-1.414L24.529 11h-4.744c-.885 0-1.725.396-2.291 1.08l-2.587 3.12a4.96 4.96 0 0 1-3.82 1.8H4.994A.997.997 0 0 1 4 16c0-.552.445-1 .994-1h6.092c.886 0 1.725-.396 2.292-1.08l2.587-3.12a4.96 4.96 0 0 1 3.82-1.8h4.743L23.2 7.723a1.004 1.004 0 0 1-.031-1.414.99.99 0 0 1 1.405-.032l3.119 3c.196.189.307.45.307.723Zm-12.447 7.58a.99.99 0 0 0-1.4-.129 1.004 1.004 0 0 0-.128 1.409l1.94 2.34a4.96 4.96 0 0 0 3.82 1.8h4.743L23.2 24.277a1.004 1.004 0 0 0-.031 1.414.99.99 0 0 0 1.405.032l3.119-3a1.003 1.003 0 0 0 0-1.446l-3.119-3a.99.99 0 0 0-1.405.032 1.005 1.005 0 0 0 .03 1.414L24.529 21h-4.744a2.977 2.977 0 0 1-2.291-1.08l-1.94-2.34Z"
    fill="#000"
  /></svg>
