<svg width="32" height="32" fill="none" xmlns="http://www.w3.org/2000/svg"><path d="M28.136 10a1 1 0 0 1-.309.723l-3.136 3a1 1 0 0 1-1.383-1.446L24.644 11h-4.77a3 3 0 0 0-2.305 1.08l-2.601 3.12a5 5 0 0 1-3.841 1.8H5a1 1 0 1 1 0-2h6.127a3 3 0 0 0 2.304-1.08l2.601-3.12A5 5 0 0 1 19.873 9h4.77l-1.335-1.277a1 1 0 0 1 1.383-1.446l3.136 3a1 1 0 0 1 .309.723Zm-12.518 7.58a1 1 0 0 0-1.537 1.28l1.951 2.34a5 5 0 0 0 3.841 1.8h4.77l-1.335 1.277a1 1 0 0 0 1.383 1.446l3.136-3a1 1 0 0 0 0-1.446l-3.136-3a1 1 0 0 0-1.383 1.446L24.644 21h-4.77a3 3 0 0 1-2.305-1.08l-1.951-2.34Z" fill="#000"/></svg>