<svg width="32" height="32" fill="none" xmlns="http://www.w3.org/2000/svg"><path d="M19.179 4.016a1 1 0 0 1 .805 1.163l-4 22a1 1 0 1 1-1.968-.358l4-22a1 1 0 0 1 1.163-.805ZM4.731 5.037a1 1 0 0 1 1.125.445L8.5 9.854l2.644-4.372A1 1 0 0 1 13 6v9a1 1 0 1 1-2 0V9.585l-1.644 2.718a1 1 0 0 1-1.712 0L6 9.585V15a1 1 0 1 1-2 0V6a1 1 0 0 1 .731-.963Zm18.546 22.654a1 1 0 0 0 1.446 0l3-3.136a1 1 0 0 0-1.446-1.382L25 24.508V17a1 1 0 1 0-2 0v7.508l-1.277-1.335a1 1 0 0 0-1.446 1.382l3 3.136Z" fill="#000"/></svg>