<svg width="32" height="32" fill="none" xmlns="http://www.w3.org/2000/svg"><path fill-rule="evenodd" clip-rule="evenodd" d="M16.371 4.387c.405.352.629.885.629 1.424v16.628c0 .667-.296 1.198-.604 1.58-.303.378-.678.684-.964.907l-3.125 2.444c-2.252 1.762-5.408-.45-4.575-3.206l1.314-4.356a.993.993 0 0 0-.335-1.069l-3.57-2.79c-2.204-1.725-1.001-5.3 1.784-5.3h4.166a.975.975 0 0 0 .93-.697l1.214-4.02a2.9 2.9 0 0 1 1.399-1.743c.635-.343 1.298-.185 1.737.198ZM15.054 6.65l-1.171 3.878a2.924 2.924 0 0 1-2.792 2.093H6.925c-.928 0-1.33 1.192-.595 1.766L9.9 17.18a2.98 2.98 0 0 1 1.008 3.206L9.593 24.74c-.278.919.774 1.655 1.525 1.068l3.125-2.444c.274-.213.493-.403.645-.591.147-.183.166-.287.166-.335V6.649Z" fill="#000"/></svg>