<svg width="32" height="32" fill="none" xmlns="http://www.w3.org/2000/svg"><path
    fill-rule="evenodd"
    clip-rule="evenodd"
    d="M13.214 6.079C13.634 4.696 14.836 4 16 4s2.366.696 2.785 2.079l1.211 3.993a.972.972 0 0 0 .929.693h4.156c2.78 0 3.98 3.55 1.78 5.263L23.3 18.801a.984.984 0 0 0-.335 1.062l1.312 4.326c.83 2.739-2.318 4.935-4.566 3.185l-3.118-2.427a.963.963 0 0 0-1.186 0l-3.118 2.427c-2.248 1.75-5.396-.446-4.566-3.184l1.312-4.327A.984.984 0 0 0 8.7 18.8l-3.561-2.773c-2.2-1.712-1-5.263 1.78-5.263h4.156a.972.972 0 0 0 .929-.693l1.21-3.993Zm3.757.713v16.16c.286.102.56.25.809.444l3.118 2.428c.749.583 1.799-.149 1.522-1.062l-1.312-4.327a2.952 2.952 0 0 1 1.005-3.184l3.562-2.773c.733-.571.333-1.755-.594-1.755h-4.156a2.916 2.916 0 0 1-2.786-2.078l-1.168-3.853Zm-1.942 16.16V6.792l-1.168 3.853a2.916 2.916 0 0 1-2.786 2.078H6.92c-.927 0-1.327 1.184-.594 1.755l3.562 2.773a2.953 2.953 0 0 1 1.005 3.184L9.58 24.762c-.276.913.773 1.645 1.522 1.062l3.118-2.428c.25-.194.523-.342.809-.444Z"
    fill="#000"
  /></svg>
