<svg width="32" height="32" fill="none" xmlns="http://www.w3.org/2000/svg"><path d="M16 2a1 1 0 0 1 1 1v3a1 1 0 1 1-2 0V3a1 1 0 0 1 1-1Z" fill="#000"/><path fill-rule="evenodd" clip-rule="evenodd" d="M9 16a7 7 0 1 1 14 0 7 7 0 0 1-14 0Zm7-5a5 5 0 1 0 0 10 5 5 0 0 0 0-10Z" fill="#000"/><path d="M17 26a1 1 0 1 0-2 0v3a1 1 0 1 0 2 0v-3Zm13-10a1 1 0 0 1-1 1h-3a1 1 0 1 1 0-2h3a1 1 0 0 1 1 1ZM6 17a1 1 0 1 0 0-2H3a1 1 0 1 0 0 2h3ZM25.9 6.1a1 1 0 0 1 0 1.415l-2.122 2.121a1 1 0 1 1-1.414-1.414L24.485 6.1a1 1 0 0 1 1.415 0ZM9.636 23.778a1 1 0 0 0-1.414-1.414L6.1 24.485A1 1 0 1 0 7.515 25.9l2.121-2.122ZM25.9 25.9a1 1 0 0 1-1.415 0l-2.121-2.122a1 1 0 1 1 1.414-1.414l2.122 2.121a1 1 0 0 1 0 1.415ZM8.222 9.636a1 1 0 1 0 1.414-1.414L7.515 6.1A1 1 0 1 0 6.1 7.515l2.12 2.121Z" fill="#000"/></svg>