<svg width="32" height="32" fill="none" xmlns="http://www.w3.org/2000/svg"><path fill-rule="evenodd" clip-rule="evenodd" d="M9.74 8c-.722 0-1.389.371-1.758.977l-3.65 6a1.963 1.963 0 0 0 0 2.046l3.65 6A2.054 2.054 0 0 0 9.74 24h18.214l-3.403-6.658a2.941 2.941 0 0 1 0-2.684L27.953 8H9.74Zm-3.514-.046A4.108 4.108 0 0 1 9.739 6h18.214c1.52 0 2.508 1.565 1.829 2.894l-3.403 6.659a.981.981 0 0 0 0 .894l3.402 6.659c.68 1.33-.308 2.894-1.828 2.894H9.74a4.107 4.107 0 0 1-3.513-1.954l-3.65-6a3.926 3.926 0 0 1 0-4.092l3.65-6Z" fill="#000"/></svg>