<svg width="32" height="32" fill="none" xmlns="http://www.w3.org/2000/svg"><path d="M11.008 13.003a1.995 1.995 0 1 0 0-3.99 1.995 1.995 0 0 0 0 3.99Z" fill="#000"/><path fill-rule="evenodd" clip-rule="evenodd" d="M18.32 5.169A3.99 3.99 0 0 0 15.489 4l-7.49.018a3.99 3.99 0 0 0-3.981 3.98L4 15.489a3.99 3.99 0 0 0 1.169 2.832l8.511 8.511a3.99 3.99 0 0 0 5.644 0l7.507-7.507a3.99 3.99 0 0 0 0-5.644L18.32 5.17Zm-2.827.826a2 2 0 0 1 1.416.585l8.511 8.511c.78.78.78 2.043 0 2.822l-7.507 7.507c-.78.78-2.043.78-2.822 0L6.58 16.91a1.995 1.995 0 0 1-.585-1.416l.018-7.49a1.995 1.995 0 0 1 1.99-1.99l7.49-.018Z" fill="#000"/></svg>