<svg width="32" height="32" fill="none" xmlns="http://www.w3.org/2000/svg"><path fill-rule="evenodd" clip-rule="evenodd" d="M10 16a6 6 0 1 1 12 0 6 6 0 0 1-12 0Zm6-4a4 4 0 1 0 0 8 4 4 0 0 0 0-8Z" fill="#000"/><path fill-rule="evenodd" clip-rule="evenodd" d="M16 6C10.477 6 6 10.477 6 16s4.477 10 10 10 10-4.477 10-10S21.523 6 16 6ZM8 16a8 8 0 1 1 16 0 8 8 0 0 1-16 0Z" fill="#000"/><path fill-rule="evenodd" clip-rule="evenodd" d="M2 16C2 8.268 8.268 2 16 2s14 6.268 14 14-6.268 14-14 14S2 23.732 2 16ZM16 4C9.373 4 4 9.373 4 16s5.373 12 12 12 12-5.373 12-12S22.627 4 16 4Z" fill="#000"/></svg>