<svg width="32" height="32" fill="none" xmlns="http://www.w3.org/2000/svg"><path fill-rule="evenodd" clip-rule="evenodd" d="M15 5a1 1 0 0 0-1.515-.857l-9 5.407a1 1 0 0 0-.485.857v4.859a1 1 0 0 0 1.523.852l3.858-2.364V24.8a1 1 0 0 0 .48.855l3.62 2.199A1 1 0 0 0 15 27V5Zm-9 8.48v-2.507l7-4.206v18.456l-1.62-.984V11.968a1 1 0 0 0-1.522-.853L6 13.48Zm12.515-9.337A1 1 0 0 0 17 5v22a1 1 0 0 0 1.52.855l3.619-2.199a1 1 0 0 0 .48-.855V21.89l1.822 1.239a1 1 0 0 0 1.563-.827V18a1 1 0 0 0-.453-.837l-2.931-1.918v-1.49l3.857 2.364A1 1 0 0 0 28 15.266v-4.859a1 1 0 0 0-.485-.857l-9-5.407ZM19 25.223V6.767l7 4.206v2.508l-3.858-2.365a1 1 0 0 0-1.523.853v3.817a1 1 0 0 0 .453.837l2.932 1.918v1.871l-1.822-1.239a1 1 0 0 0-1.563.827v4.239L19 25.222Z" fill="#000"/></svg>