<svg width="32" height="32" fill="none" xmlns="http://www.w3.org/2000/svg"><path fill-rule="evenodd" clip-rule="evenodd" d="M12.423 6.615a1 1 0 0 0-1.846 0l-7.5 18a1 1 0 1 0 1.846.77l1.894-4.545a1 1 0 0 0 .183.017h9a1 1 0 0 0 .183-.017l1.894 4.545a1 1 0 0 0 1.846-.77l-7.5-18ZM11.5 9.6l3.857 9.257H7.643L11.5 9.6ZM22 15a1 1 0 0 1 1-1h2.474A3.526 3.526 0 0 1 29 17.526V25a1 1 0 0 1-1.911.412A4 4 0 1 1 27 18.535v-1.009c0-.843-.683-1.526-1.526-1.526H23a1 1 0 0 1-1-1Zm3 5a2 2 0 1 1 0 4 2 2 0 0 1 0-4Z" fill="#000"/></svg>