<svg width="32" height="32" fill="none" xmlns="http://www.w3.org/2000/svg"><path fill-rule="evenodd" clip-rule="evenodd" d="M19.984 5.179a1 1 0 1 0-1.968-.358l-.326 1.795a4.002 4.002 0 0 0-4.518.798l-5.657 5.657a4 4 0 0 0 0 5.657l5.657 5.657c.34.34.728.607 1.142.8l-.298 1.636a1 1 0 1 0 1.968.358l.399-2.194a1.003 1.003 0 0 0 .109-.6l3.492-19.206Zm-5.287 17.895.485-2.663a1.996 1.996 0 0 1-.596-.411L12 17.414a2 2 0 0 1 0-2.828L14.586 12a2 2 0 0 1 2.202-.425l.518-2.847a2 2 0 0 0-2.72.1l-5.657 5.657a2 2 0 0 0 0 2.829l5.657 5.657c.036.036.073.07.111.103Zm1.687-9.276L16 13.414 13.414 16l2.174 2.174.796-4.376Z" fill="#000"/><path d="M20.243 10.243a1 1 0 0 1 1.414 0l2.828 2.828a4 4 0 0 1 .008 5.65l-4.771 4.971a1 1 0 1 1-1.444-1.384l4.786-4.987.007-.007a2 2 0 0 0 0-2.829l-2.828-2.828a1 1 0 0 1 0-1.414Z" fill="#000"/></svg>