<svg width="32" height="32" fill="none" xmlns="http://www.w3.org/2000/svg"><path fill-rule="evenodd" clip-rule="evenodd" d="M19.399 4.277c.112-.588-.298-1.152-.917-1.26-.619-.106-1.212.284-1.325.873l-.308 1.615c-1.429-.256-2.963.14-4.07 1.194l-6.444 6.128c-1.78 1.692-1.78 4.436 0 6.128l6.443 6.128a4.5 4.5 0 0 0 .28.246l-.457 2.394c-.112.588.298 1.152.917 1.26.619.106 1.212-.284 1.324-.873L19.4 4.277ZM13.55 22.754l.52-2.723-2.627-2.499a2.092 2.092 0 0 1 0-3.064l2.945-2.801c.391-.372.891-.58 1.401-.626l.651-3.404a2.353 2.353 0 0 0-2.052.594l-6.444 6.128a2.092 2.092 0 0 0 0 3.064l5.606 5.331Zm1.688-8.832L13.055 16l1.512 1.439.672-3.517Z" fill="#000"/><path d="M20.833 9.763a1.181 1.181 0 0 1 1.61 0l3.223 3.064c1.779 1.692 1.779 4.436 0 6.128l-5.443 5.177a1.18 1.18 0 0 1-1.611 0 1.046 1.046 0 0 1 0-1.533l5.443-5.176c.89-.846.89-2.218 0-3.064l-3.222-3.064a1.046 1.046 0 0 1 0-1.532Z" fill="#000"/></svg>