<svg width="32" height="32" fill="none" xmlns="http://www.w3.org/2000/svg"><path fill-rule="evenodd" clip-rule="evenodd" d="M17.757 11.154a2.485 2.485 0 0 0-3.514 0l-3.214 3.213a2.487 2.487 0 0 0 0 3.515l3.214 3.213c.97.971 2.544.971 3.514 0l3.214-3.213c.97-.97.97-2.544 0-3.515l-3.214-3.213ZM16 12.912l3.213 3.213L16 19.338l-3.213-3.213L16 12.912Z" fill="#000"/><path fill-rule="evenodd" clip-rule="evenodd" d="M19.515 5.456a4.97 4.97 0 0 0-7.03 0l-7.03 7.03a4.97 4.97 0 0 0 0 7.029l7.03 7.03a4.97 4.97 0 0 0 7.03 0l7.03-7.03a4.97 4.97 0 0 0 0-7.03l-7.03-7.03Zm-5.272 1.757c.97-.97 2.544-.97 3.514 0l7.03 7.03c.97.97.97 2.544 0 3.514l-7.03 7.03c-.97.97-2.544.97-3.514 0l-7.03-7.03a2.485 2.485 0 0 1 0-3.514l7.03-7.03Z" fill="#000"/></svg>