<svg width="32" height="32" fill="none" xmlns="http://www.w3.org/2000/svg"><path fill-rule="evenodd" clip-rule="evenodd" d="M18.984 5.179a1 1 0 1 0-1.968-.358l-.27 1.492a3.996 3.996 0 0 0-3.574 1.101l-5.657 5.657a4 4 0 0 0 0 5.657l5.657 5.657c.08.08.161.155.246.227l-.402 2.21a1 1 0 1 0 1.968.357l4-22ZM13.85 22.235l.457-2.514L12 17.414a2 2 0 0 1 0-2.828L14.586 12a1.996 1.996 0 0 1 1.23-.577l.571-3.143a1.998 1.998 0 0 0-1.801.549l-5.657 5.656a2 2 0 0 0 0 2.829l4.921 4.92Zm1.482-8.153L13.415 16l1.328 1.328.59-3.246Z" fill="#000"/><path d="M20.243 10.243a1 1 0 0 1 1.414 0l2.828 2.828a4 4 0 0 1 0 5.657l-4.778 4.778a1 1 0 0 1-1.414-1.414l4.778-4.778a2 2 0 0 0 0-2.829l-2.828-2.828a1 1 0 0 1 0-1.414Z" fill="#000"/></svg>