<svg width="32" height="32" fill="none" xmlns="http://www.w3.org/2000/svg"><path fill-rule="evenodd" clip-rule="evenodd" d="M18.152 2.012a1 1 0 0 1 .836 1.14l-4 26a1 1 0 0 1-1.976-.304l.302-1.967a1.022 1.022 0 0 1-.102-.064 4.84 4.84 0 0 1-.61-.509L5.414 19.22a4.723 4.723 0 0 1 0-6.74l7.188-7.09a4.84 4.84 0 0 1 4.222-1.319l.188-1.222a1 1 0 0 1 1.14-.836ZM14.285 20.57l-.613 3.984-6.853-6.759a2.723 2.723 0 0 1 0-3.893l7.188-7.089a2.844 2.844 0 0 1 2.513-.766l-.7 4.548c-.45.04-.89.233-1.234.578l-3.435 3.434a2 2 0 0 0 0 2.829l3.134 3.134Zm.377-2.452.763-4.956-2.86 2.86 2.097 2.096Z" fill="#000"/><path d="M21.578 8.943a1 1 0 0 1 1.414-.01l3.594 3.545a4.723 4.723 0 0 1 0 6.741l-6.072 5.988a1 1 0 1 1-1.404-1.424l6.071-5.988a2.723 2.723 0 0 0 0-3.893l-3.594-3.544a1 1 0 0 1-.01-1.415Z" fill="#000"/></svg>