<svg width="32" height="32" fill="none" xmlns="http://www.w3.org/2000/svg"><path
    d="M14.39 2.219a1.759 1.759 0 0 0-1.334 1.38c-.122.614.07 1.274.544 1.749l1.88 1.879c.23.23.294.74-.11 1.144-.403.403-.912.339-1.143.108L12.347 6.6a1.943 1.943 0 0 0-1.748-.544 1.759 1.759 0 0 0-1.38 1.335c-.486 2.035-.003 4.24 1.55 5.793 1.72 1.72 4.224 2.126 6.431 1.365l1.16 1.32a1 1 0 0 0 1.502-1.322l-1.63-1.852a1 1 0 0 0-1.18-.242c-1.7.81-3.636.549-4.868-.683-.932-.932-1.306-2.259-1.086-3.59l1.714 1.713c1.123 1.123 2.904.961 3.973-.108 1.07-1.07 1.23-2.85.108-3.972L15.18 4.098c1.332-.22 2.659.154 3.59 1.086 1.233 1.232 1.493 3.168.684 4.868a1 1 0 0 0 .242 1.18l1.852 1.63a1 1 0 0 0 1.321-1.502L21.55 10.2c.761-2.207.354-4.71-1.365-6.43-1.554-1.554-3.758-2.037-5.793-1.551Zm8.782 17.427c-.381-.292-.874-.474-1.347-.566a4.128 4.128 0 0 0-1.569-.009c-.534.105-1.107.347-1.552.82-.461.49-.704 1.143-.704 1.905 0 .442.094.858.305 1.225.212.367.506.624.807.804.516.308 1.153.44 1.596.53l.088.019c.543.113.849.193 1.04.316.071.045.098.08.113.108.016.03.051.111.051.292 0 .375-.235.694-.77.845-.56.156-1.182.028-1.549-.313a1 1 0 0 0-1.362 1.464c.963.896 2.341 1.085 3.45.774 1.13-.316 2.231-1.247 2.231-2.77 0-.45-.09-.87-.293-1.244a2.29 2.29 0 0 0-.793-.84c-.54-.347-1.209-.486-1.665-.58l-.045-.01c-.556-.116-.867-.19-1.066-.308-.074-.044-.093-.073-.1-.086-.007-.012-.038-.07-.038-.226 0-.32.092-.461.16-.535.085-.09.236-.18.482-.228a2.13 2.13 0 0 1 .799.01c.279.054.454.143.516.191a1 1 0 0 0 1.215-1.588Z"
    fill="#000"
  /><path
    fill-rule="evenodd"
    clip-rule="evenodd"
    d="M3 20a1 1 0 0 1 1-1h2.5a3 3 0 0 1 0 6H5v2a1 1 0 1 1-2 0v-7Zm2 3h1.5a1 1 0 1 0 0-2H5v2Z"
    fill="#000"
  /><path
    d="M24 20a1 1 0 0 1 1-1h4a1 1 0 1 1 0 2h-1v6a1 1 0 1 1-2 0v-6h-1a1 1 0 0 1-1-1Z"
    fill="#000"
  /><path
    fill-rule="evenodd"
    clip-rule="evenodd"
    d="M11.228 19.996c.722-.729 1.61-.996 2.272-.996.662 0 1.55.267 2.272.996.744.749 1.228 1.897 1.228 3.504s-.484 2.755-1.228 3.504c-.722.729-1.61.996-2.272.996-.662 0-1.55-.267-2.272-.996C10.484 26.255 10 25.107 10 23.5s.484-2.755 1.228-3.504Zm1.42 1.408c-.3.301-.648.903-.648 2.096s.349 1.795.647 2.096c.32.321.682.404.853.404.17 0 .534-.083.853-.404.298-.301.647-.903.647-2.096s-.349-1.795-.647-2.096c-.32-.321-.682-.404-.853-.404-.17 0-.534.083-.853.404Z"
    fill="#000"
  /></svg>
