<svg width="32" height="32" fill="none" xmlns="http://www.w3.org/2000/svg"><path
    fill-rule="evenodd"
    clip-rule="evenodd"
    d="M5.982 10.395a5.017 5.017 0 0 0 1.425 4.254 5.02 5.02 0 0 0 5.58 1.048 1 1 0 0 1 1.152.25l7.565 8.51a1.829 1.829 0 1 0 2.582-2.582l-8.51-7.565a1 1 0 0 1-.25-1.152 5.021 5.021 0 0 0-1.048-5.58 5.017 5.017 0 0 0-4.254-1.425l2.12 2.119A3 3 0 1 1 8.1 12.514l-2.12-2.119ZM5.45 8.27a1.94 1.94 0 0 1 1.772.539L9.515 11.1a1 1 0 1 0 1.414-1.414L8.637 7.394a1.94 1.94 0 0 1-.54-1.773 1.758 1.758 0 0 1 1.378-1.366 7.019 7.019 0 0 1 6.417 1.909 7.02 7.02 0 0 1 1.727 7.109l7.996 7.108a3.829 3.829 0 1 1-5.405 5.405l-7.108-7.996a7.02 7.02 0 0 1-7.11-1.727 7.019 7.019 0 0 1-1.908-6.417A1.758 1.758 0 0 1 5.45 8.269Z"
    fill="#000"
  /></svg>
