<svg width="32" height="32" fill="none" xmlns="http://www.w3.org/2000/svg"><path d="M14.39 2.219a1.759 1.759 0 0 0-1.334 1.38c-.122.614.07 1.274.544 1.749l1.88 1.879c.23.23.294.74-.11 1.144-.403.403-.912.339-1.143.108L12.347 6.6a1.943 1.943 0 0 0-1.748-.544 1.759 1.759 0 0 0-1.38 1.335c-.486 2.035-.003 4.24 1.55 5.793 1.72 1.72 4.224 2.126 6.431 1.365l1.16 1.32a1 1 0 0 0 1.502-1.322l-1.63-1.852a1 1 0 0 0-1.18-.242c-1.7.81-3.636.549-4.868-.683-.932-.932-1.306-2.259-1.086-3.59l1.714 1.713c1.123 1.123 2.904.961 3.973-.108 1.07-1.07 1.23-2.85.108-3.972L15.18 4.098c1.332-.22 2.659.154 3.59 1.086 1.233 1.232 1.493 3.168.684 4.868a1 1 0 0 0 .242 1.18l1.852 1.63a1 1 0 0 0 1.321-1.502L21.55 10.2c.761-2.207.354-4.71-1.365-6.43-1.554-1.554-3.758-2.037-5.793-1.551ZM7 23.5c0-.793.22-1.431.555-1.849C7.871 21.257 8.333 21 9 21c.327 0 .55.08.678.144a.86.86 0 0 1 .128.078l.01.007a1 1 0 0 0 1.391-1.436l-.693.693.693-.693-.001-.002-.002-.001-.003-.003-.007-.007-.016-.015a1.567 1.567 0 0 0-.172-.143 2.84 2.84 0 0 0-.434-.266A3.493 3.493 0 0 0 9 19c-1.266 0-2.304.526-3.005 1.4-.681.848-.995 1.96-.995 3.1 0 1.14.314 2.252.995 3.1.701.874 1.74 1.4 3.005 1.4 1.35 0 2.375-.702 2.851-1.476A1 1 0 0 0 12 26v-2a1 1 0 0 0-1-1h-1a1 1 0 1 0 0 2v.648c-.19.17-.523.352-1 .352-.667 0-1.129-.257-1.445-.651C7.22 24.93 7 24.293 7 23.5Zm7-4.4a.9.9 0 0 0-.9.9v7a.9.9 0 0 0 .9.9h4.5a.9.9 0 1 0 0-1.8h-3.6v-1.7h2.6a.9.9 0 1 0 0-1.8h-2.6v-1.7h3.6a.9.9 0 1 0 0-1.8H14Zm6 .9a1 1 0 0 1 1-1h5a1 1 0 1 1 0 2h-1.5v6a1 1 0 1 1-2 0v-6H21a1 1 0 0 1-1-1Z" fill="#000"/></svg>