<svg width="32" height="32" fill="none" xmlns="http://www.w3.org/2000/svg"><path
    d="M12 4a2 2 0 0 1 2-2h4a2 2 0 0 1 2 2v1a1 1 0 1 1-2 0V4h-4v1a1 1 0 1 1-2 0V4Zm2 9a1 1 0 1 0-2 0v11a1 1 0 1 0 2 0V13Zm5-1a1 1 0 0 1 1 1v11a1 1 0 1 1-2 0V13a1 1 0 0 1 1-1Z"
    fill="#000"
  /><path
    fill-rule="evenodd"
    clip-rule="evenodd"
    d="M4 8a1 1 0 0 1 1-1h22a1 1 0 1 1 0 2h-1.074c0 .047-.002.095-.005.142l-1.225 17.143A4 4 0 0 1 20.706 30h-9.413a4 4 0 0 1-3.99-3.715L6.08 9.143A2.027 2.027 0 0 1 6.074 9H5a1 1 0 0 1-1-1Zm4.074 1 1.224 17.142A2 2 0 0 0 11.293 28h9.414a2 2 0 0 0 1.994-1.858L23.927 9H8.074Z"
    fill="#000"
  /></svg>
