<svg width="32" height="32" fill="none" xmlns="http://www.w3.org/2000/svg"><path d="M12 5a1 1 0 0 0-1.555-.832l-6 4A1 1 0 0 0 4 9v12a1 1 0 0 0 .521.878l11 6a1 1 0 0 0 .958-1.756L6 20.406V9.536l4-2.667V17.5a1 1 0 0 0 .486.858l5 3a1 1 0 0 0 1.029-1.716L12 16.934V5Zm9.555-.832A1 1 0 0 0 20 5v8.5a1 1 0 1 0 2 0V6.869l4 2.666V13.5a1 1 0 1 0 2 0V9a1 1 0 0 0-.445-.832l-6-4ZM22.5 21a1 1 0 0 1 1-1H25a1 1 0 1 1 0 2h-1.5a1 1 0 0 1-1-1Zm1 2a1 1 0 1 0 0 2H25a1 1 0 1 0 0-2h-1.5Z" fill="#000"/><path fill-rule="evenodd" clip-rule="evenodd" d="M21 16a2 2 0 0 0-2 2v9a2 2 0 0 0 2 2h7a2 2 0 0 0 2-2v-6.5a1 1 0 0 0-.293-.707l-3.5-3.5A1 1 0 0 0 25.5 16H21Zm0 2h4.086L28 20.914V27h-7v-9Z" fill="#000"/></svg>