<svg width="32" height="32" fill="none" xmlns="http://www.w3.org/2000/svg"><path
    d="M12 5a1 1 0 0 0-1.555-.832l-6 4A1 1 0 0 0 4 9v12a1 1 0 0 0 .521.878l9 4.909a1 1 0 0 0 .958-1.756L6 20.406V9.536l4-2.667V17.5a1 1 0 0 0 .486.858l3 1.8a1 1 0 0 0 1.028-1.716L12 16.934V5Zm9.555-.832A1 1 0 0 0 20 5v10.5a1 1 0 1 0 2 0V6.869l4 2.666V15.5a1 1 0 1 0 2 0V9a1 1 0 0 0-.445-.832l-6-4Z"
    fill="#000"
  /><path
    fill-rule="evenodd"
    clip-rule="evenodd"
    d="M18.786 18A1.793 1.793 0 0 0 17 19.8v6.4c0 .977.783 1.8 1.786 1.8h9.428A1.793 1.793 0 0 0 30 26.2V22a2 2 0 0 0-2-2h-4.08l-1.67-1.7a1 1 0 0 0-.714-.3h-2.75ZM19 26v-6h2.116l1.67 1.7a1 1 0 0 0 .714.3H28v4h-9Z"
    fill="#000"
  /></svg>
