<svg width="32" height="32" fill="none" xmlns="http://www.w3.org/2000/svg"><path
    d="M4 5a1 1 0 0 1 1-1h4.5a1 1 0 0 1 0 2H7.414l5.793 5.793a1 1 0 0 1-1.414 1.414L6 7.414V9.5a1 1 0 0 1-2 0V5Zm9 0a1 1 0 0 1 1-1h10a4 4 0 0 1 4 4v3a1 1 0 0 1-2 0V8a2 2 0 0 0-2-2H14a1 1 0 0 1-1-1Zm-8 8a1 1 0 0 1 1 1v10a2 2 0 0 0 2 2h3a1 1 0 1 1 0 2H8a4 4 0 0 1-4-4V14a1 1 0 0 1 1-1Z"
    fill="#000"
  /><path
    fill-rule="evenodd"
    clip-rule="evenodd"
    d="M14 17a3 3 0 0 1 3-3h8a3 3 0 0 1 3 3v8a3 3 0 0 1-3 3h-8a3 3 0 0 1-3-3v-8Zm3-1a1 1 0 0 0-1 1v8a1 1 0 0 0 1 1h8a1 1 0 0 0 1-1v-8a1 1 0 0 0-1-1h-8Z"
    fill="#000"
  /></svg>
