<svg width="32" height="32" fill="none" xmlns="http://www.w3.org/2000/svg"><path
    d="M11.757 20.243c-3.549-3.55-3.639-9.089-.353-12.375 3.286-3.285 8.825-3.196 12.374.354a1 1 0 1 0 1.414-1.414C20.932 2.546 14.124 2.32 9.99 6.454c-4.133 4.133-3.908 10.937.348 15.198l.005.005a5.243 5.243 0 1 0 7.414-7.414 1 1 0 1 0-1.414 1.414 3.243 3.243 0 0 1-4.582 4.59l-.004-.004Z"
    fill="#000"
  /><path
    d="M15.657 16.343a3.243 3.243 0 0 1 4.581-4.59l.005.004c3.549 3.55 3.639 9.089.353 12.375-3.286 3.285-8.825 3.195-12.374-.354a1 1 0 0 0-1.414 1.414c4.26 4.261 11.068 4.488 15.202.354 4.133-4.133 3.908-10.936-.348-15.198l-.005-.005a5.243 5.243 0 0 0-7.414 7.414 1 1 0 1 0 1.414-1.414Z"
    fill="#000"
  /></svg>
