<svg width="32" height="32" fill="none" xmlns="http://www.w3.org/2000/svg"><path d="M8.346 8.59A1 1 0 0 0 6.73 7.41C5.02 9.753 4 12.75 4 16s1.019 6.247 2.731 8.59a1 1 0 1 0 1.615-1.18C6.888 21.415 6 18.833 6 16c0-2.834.888-5.415 2.346-7.41Zm16.923-1.18a1 1 0 0 0-1.615 1.18C25.112 10.585 26 13.166 26 16c0 2.833-.888 5.415-2.346 7.41a1 1 0 1 0 1.615 1.18C26.981 22.247 28 19.25 28 16s-1.019-6.247-2.731-8.59ZM10 12a1 1 0 0 1 1-1h1.358a4 4 0 0 1 3.603 2.261l.418.867.68-1.019A4.737 4.737 0 0 1 21 11a1 1 0 0 1 0 2c-.915 0-1.77.458-2.277 1.22l-1.334 2 1.28 2.65a2 2 0 0 0 1.8 1.13H21a1 1 0 0 1 0 2h-.53a4 4 0 0 1-3.603-2.26l-.766-1.587-1.16 1.738A4.737 4.737 0 0 1 11 22a1 1 0 1 1 0-2c.915 0 1.77-.457 2.277-1.219l1.814-2.72-.931-1.93A2 2 0 0 0 12.357 13H11a1 1 0 0 1-1-1Z" fill="#000"/></svg>