<svg width="32" height="32" fill="none" xmlns="http://www.w3.org/2000/svg"><path
    fill-rule="evenodd"
    clip-rule="evenodd"
    d="M23.34 8.624c-.816.783-1.741 2.245-2.88 4.503-1.383 2.741-3.034 4.547-5.072 4.685-2.043.138-3.813-1.442-5.313-3.673-1.342-1.996-2.28-2.781-2.839-3.038-.254-.117-.389-.106-.44-.096a.393.393 0 0 0-.202.121c-.356.353-.828 1.426-.463 3.341.358 1.873 1.508 4.43 4.162 7.501 1.405 1.625 2.664 2.46 3.757 2.814 1.072.348 2.067.259 3.024-.122 2.003-.798 3.792-2.85 5.343-4.901 1.857-2.456 3.04-5.248 3.436-7.542.198-1.15.19-2.116.014-2.83-.173-.707-.48-1.072-.817-1.24-.314-.155-.552-.172-.765-.122-.237.055-.549.218-.945.599Zm.49-2.547c.726-.169 1.437-.054 2.108.279 1.03.51 1.609 1.48 1.872 2.555.262 1.069.24 2.331.013 3.647-.455 2.637-1.78 5.722-3.811 8.407-1.526 2.018-3.613 4.523-6.198 5.553-1.336.532-2.813.675-4.38.167-1.547-.5-3.095-1.606-4.654-3.409-2.816-3.258-4.173-6.126-4.613-8.434-.433-2.267.007-4.133 1.019-5.136a2.385 2.385 0 0 1 1.231-.665c.532-.102 1.092-.016 1.655.243 1.076.495 2.27 1.666 3.663 3.739 1.46 2.172 2.654 2.852 3.518 2.794.869-.06 2.068-.908 3.421-3.59 1.141-2.263 2.195-4.003 3.28-5.046.554-.532 1.173-.94 1.876-1.104Z"
    fill="#000"
  /></svg>
