<svg width="32" height="32" fill="none" xmlns="http://www.w3.org/2000/svg"><path d="M21.707 12.707a1 1 0 0 0-1.414-1.414L13.5 18.086l-2.793-2.793a1 1 0 0 0-1.414 1.414l3.5 3.5a1 1 0 0 0 1.414 0l7.5-7.5Z" fill="#000"/><path fill-rule="evenodd" clip-rule="evenodd" d="M18.595 2.897a4 4 0 0 0-5.19 0l-1.6 1.365a2 2 0 0 1-1.139.471L8.57 4.9A4 4 0 0 0 4.9 8.57l-.167 2.096a2 2 0 0 1-.471 1.139l-1.365 1.6a4 4 0 0 0 0 5.19l1.365 1.6a2 2 0 0 1 .471 1.139L4.9 23.43a4 4 0 0 0 3.67 3.67l2.096.167a2 2 0 0 1 1.139.471l1.6 1.365a4 4 0 0 0 5.19 0l1.6-1.365a2 2 0 0 1 1.139-.471l2.097-.167a4 4 0 0 0 3.669-3.67l.167-2.096a2 2 0 0 1 .471-1.139l1.365-1.6a4 4 0 0 0 0-5.19l-1.365-1.6a2 2 0 0 1-.471-1.139L27.1 8.57a4 4 0 0 0-3.67-3.67l-2.096-.167a2 2 0 0 1-1.139-.471l-1.6-1.365ZM14.703 4.42a2 2 0 0 1 2.594 0l1.601 1.365a4 4 0 0 0 2.277.943l2.096.167a2 2 0 0 1 1.835 1.835l.167 2.096a4 4 0 0 0 .943 2.277l1.365 1.6a2 2 0 0 1 0 2.595l-1.365 1.601a4 4 0 0 0-.943 2.277l-.167 2.096a2 2 0 0 1-1.835 1.835l-2.096.167a4 4 0 0 0-2.277.943l-1.6 1.365a2 2 0 0 1-2.595 0l-1.601-1.365a4 4 0 0 0-2.277-.943l-2.096-.167a2 2 0 0 1-1.835-1.835l-.167-2.096a4 4 0 0 0-.943-2.277l-1.365-1.6a2 2 0 0 1 0-2.595l1.365-1.601a4 4 0 0 0 .943-2.277l.167-2.096a2 2 0 0 1 1.835-1.835l2.096-.167a4 4 0 0 0 2.277-.943l1.6-1.365Z" fill="#000"/></svg>