<svg width="32" height="32" fill="none" xmlns="http://www.w3.org/2000/svg"><path
    d="M16 8a1 1 0 0 1 1 1v7a1 1 0 1 1-2 0V9a1 1 0 0 1 1-1Zm1.5 14a1.5 1.5 0 1 1-3 0 1.5 1.5 0 0 1 3 0Z"
    fill="#000"
  /><path
    fill-rule="evenodd"
    clip-rule="evenodd"
    d="M22.637 4.261A4 4 0 0 0 19.81 3.09h-7.45a4 4 0 0 0-2.83 1.17L4.262 9.53a4 4 0 0 0-1.172 2.828v7.451a4 4 0 0 0 1.172 2.828l5.268 5.269a4 4 0 0 0 2.828 1.171h7.451a4 4 0 0 0 2.828-1.171l5.269-5.269a4 4 0 0 0 1.172-2.828v-7.45a4 4 0 0 0-1.172-2.83l-5.268-5.268Zm-2.828.829a2 2 0 0 1 1.414.586l5.269 5.268a2 2 0 0 1 .585 1.414v7.451a2 2 0 0 1-.585 1.414l-5.269 5.269a2 2 0 0 1-1.414.585h-7.45a2 2 0 0 1-1.415-.585l-5.268-5.269a2 2 0 0 1-.586-1.414v-7.45a2 2 0 0 1 .586-1.415l5.268-5.268a2 2 0 0 1 1.414-.586h7.451Z"
    fill="#000"
  /></svg>
