<svg width="32" height="32" fill="none" xmlns="http://www.w3.org/2000/svg"><path d="M16 11a1 1 0 0 1 1 1v6a1 1 0 1 1-2 0v-6a1 1 0 0 1 1-1Zm0 12.5a1.5 1.5 0 1 0 0-3 1.5 1.5 0 0 0 0 3Z" fill="#000"/><path fill-rule="evenodd" clip-rule="evenodd" d="M12.51 6.185c1.527-2.727 5.453-2.727 6.98 0l8.882 15.86c1.493 2.667-.434 5.955-3.49 5.955H7.118c-3.056 0-4.983-3.288-3.49-5.954l8.882-15.86Zm5.235.978c-.764-1.364-2.726-1.364-3.49 0l-8.882 15.86C4.627 24.356 5.59 26 7.118 26h17.764c1.528 0 2.491-1.644 1.745-2.977l-8.882-15.86Z" fill="#000"/></svg>