<svg width="32" height="32" fill="none" xmlns="http://www.w3.org/2000/svg"><path
    fill-rule="evenodd"
    clip-rule="evenodd"
    d="M10.819 9.64c0-1.85-2.04-2.83-3.497-1.897l-4.289 2.752A2.241 2.241 0 0 0 2 12.38v6.19c0 1.098.562 2.106 1.47 2.695l3.786 2.454a4.71 4.71 0 0 0 .444.248l.037.019.01.006h.003l.234.12c.525.277 1.08.488 1.685.502.627.014 1.202-.186 1.762-.544l3.453-2.245a2.052 2.052 0 0 1 2.233 0l3.451 2.245c.09.057.181.11.272.16l.008.005c.472.254.96.39 1.483.379.605-.014 1.16-.225 1.685-.502l.232-.118.001-.001.003-.002.011-.005.037-.02a4.737 4.737 0 0 0 .443-.248l3.786-2.452A3.214 3.214 0 0 0 30 18.572V12.38a2.24 2.24 0 0 0-1.033-1.886l-4.29-2.752c-1.455-.934-3.496.047-3.496 1.897v4.288L18.07 11.98a3.892 3.892 0 0 0-4.14 0l-3.111 1.948V9.64Zm10.362 6.517-4.09-2.56a2.052 2.052 0 0 0-2.182 0l-4.09 2.56v1.86l3.111-1.948a3.892 3.892 0 0 1 4.14 0l3.111 1.948v-1.86Zm0 4.09-4.09-2.56a2.052 2.052 0 0 0-2.182 0l-4.09 2.56v1.552l-.003.227-.001.077a.11.11 0 0 0 .03.063l.016.012 3.02-1.954a3.893 3.893 0 0 1 4.238-.001l3.022 1.953a.086.086 0 0 0 .013-.01.11.11 0 0 0 .031-.063l-.001-.077-.003-.227v-1.552ZM8.755 9.332a.34.34 0 0 1 .197.308V21.8l-.002.195-.002.085v.105c.006.108.02.214.042.316a4.715 4.715 0 0 1-.15-.076l-.015-.008-.245-.124-.007-.004-.03-.015a9.11 9.11 0 0 1-.284-.155l-3.785-2.454a1.307 1.307 0 0 1-.607-1.093V12.38c0-.1.051-.21.162-.28l4.289-2.752a.424.424 0 0 1 .437-.017Zm14.663 12.962-.366-.18v-.034l-.002-.085-.002-.196V9.64a.34.34 0 0 1 .198-.307.424.424 0 0 1 .436.017l4.29 2.752c.11.07.161.18.161.28v6.19c0 .428-.218.842-.607 1.094l-3.785 2.454a3.29 3.29 0 0 1-.284.155l-.03.015-.007.004-.002.001Zm0 0-.367-.108a2.17 2.17 0 0 1-.04.315 4.79 4.79 0 0 0 .15-.076l.014-.008.243-.123Z"
    fill="#000"
  /></svg>
