<svg width="32" height="32" fill="none" xmlns="http://www.w3.org/2000/svg"><path fill-rule="evenodd" clip-rule="evenodd" d="M30 16c0 7.732-6.268 14-14 14S2 23.732 2 16 8.268 2 16 2s14 6.268 14 14ZM8.063 7a11.996 11.996 0 0 1 3.676-2.222 12.09 12.09 0 0 0-.89 1.61c-.091.199-.18.403-.265.612H8.063Zm4.71 0C13.8 4.885 15.003 4 16 4c.997 0 2.199.885 3.227 3h-6.454Zm8.378-.611c.091.198.18.402.265.611h2.521a11.997 11.997 0 0 0-3.676-2.222c.33.499.627 1.042.89 1.61ZM11.018 15c.082-2.236.433-4.286.97-6h8.024c.537 1.714.889 3.764.97 6h-9.964Zm11.08-6c.5 1.792.812 3.833.885 6h4.976a11.935 11.935 0 0 0-2.211-6h-3.65Zm-10.11 14c-.537-1.714-.888-3.764-.97-6h9.964c-.081 2.236-.433 4.286-.97 6h-8.024Zm-2.085 0c-.502-1.792-.813-3.833-.886-6H4.04a11.935 11.935 0 0 0 2.211 6h3.65Zm-1.84 2h2.52c.086.21.175.413.266.611.263.57.56 1.112.89 1.61A11.996 11.996 0 0 1 8.063 25Zm4.71 0h6.454c-1.028 2.115-2.23 3-3.227 3-.997 0-2.199-.885-3.227-3Zm8.643 0c-.085.21-.174.413-.265.611-.263.57-.56 1.112-.89 1.61A11.996 11.996 0 0 0 23.938 25h-2.522Zm4.332-2a11.935 11.935 0 0 0 2.21-6h-4.975c-.073 2.167-.384 4.208-.886 6h3.65ZM9.903 9c-.502 1.792-.813 3.833-.886 6H4.04a11.935 11.935 0 0 1 2.211-6h3.65Z" fill="#000"/></svg>