<svg width="32" height="32" fill="none" xmlns="http://www.w3.org/2000/svg"><path
    fill-rule="evenodd"
    clip-rule="evenodd"
    d="M4 16c0-.337.014-.67.041-1h4.976c-.011.33-.017.664-.017 1a1 1 0 1 0 2 0c0-.337.006-.67.018-1h9.964c.012.33.018.663.018 1a1 1 0 1 0 2 0c0-.336-.006-.67-.017-1h4.976c.027.33.041.663.041 1a1 1 0 1 0 2 0c0-7.732-6.268-14-14-14S2 8.268 2 16a1 1 0 1 0 2 0Zm2.252-7a11.949 11.949 0 0 0-1.874 4h4.777c.15-1.424.404-2.77.748-4h-3.65Zm1.81-2h2.522c.085-.21.174-.413.265-.611.263-.57.56-1.112.89-1.61A11.996 11.996 0 0 0 8.063 7Zm3.927 2a21.568 21.568 0 0 0-.822 4h9.666a21.568 21.568 0 0 0-.821-4h-8.024Zm7.238-2h-6.454C13.8 4.885 15.003 4 16 4c.997 0 2.199.885 3.227 3Zm2.87 2c.344 1.23.599 2.576.748 4h4.777a11.947 11.947 0 0 0-1.874-4h-3.65Zm1.84-2h-2.52a15.12 15.12 0 0 0-.266-.611 12.09 12.09 0 0 0-.89-1.61A11.997 11.997 0 0 1 23.938 7Z"
    fill="#000"
  /><path
    d="M6 20a1 1 0 0 1 1 1v3.513l.652-1.043a1 1 0 0 1 1.696 0L10 24.513V21a1 1 0 1 1 2 0v7a1 1 0 0 1-1.848.53L8.5 25.887 6.848 28.53A1 1 0 0 1 5 28v-7a1 1 0 0 1 1-1Zm8 0a1 1 0 0 1 1 1v3.513l.652-1.043a1 1 0 0 1 1.696 0L18 24.513V21a1 1 0 1 1 2 0v7a1 1 0 0 1-1.848.53L16.5 25.887l-1.652 2.643A1 1 0 0 1 13 28v-7a1 1 0 0 1 1-1Zm9 1a1 1 0 1 0-2 0v7a1 1 0 0 0 1.848.53l1.652-2.643 1.652 2.643A1 1 0 0 0 28 28v-7a1 1 0 1 0-2 0v3.513l-.652-1.043a1 1 0 0 0-1.696 0L23 24.513V21Z"
    fill="#000"
  /></svg>
