<svg width="32" height="32" fill="none" xmlns="http://www.w3.org/2000/svg"><path
    fill-rule="evenodd"
    clip-rule="evenodd"
    d="M25.62 5.16a3.955 3.955 0 0 0-5.595-.002L4.87 20.306A2.972 2.972 0 0 0 4 22.408v4.602c0 .547.443.99.99.99h4.599c.787 0 1.54-.313 2.098-.869l15.152-15.145a3.964 3.964 0 0 0 .002-5.604L25.62 5.16Zm-4.197 1.4a1.978 1.978 0 0 1 2.798 0l1.22 1.222a1.982 1.982 0 0 1 0 2.802L10.288 25.73a.99.99 0 0 1-.7.29h-3.61v-3.612c0-.263.105-.515.291-.701L21.423 6.56Z"
    fill="#000"
  /><path
    d="M17.852 26.02a.99.99 0 0 0 0 1.98h8.905a.99.99 0 0 0 0-1.98h-8.905Z"
    fill="#000"
  /></svg>
