<svg width="32" height="32" fill="none" xmlns="http://www.w3.org/2000/svg"><path
    fill-rule="evenodd"
    clip-rule="evenodd"
    d="M25.62 5.16a3.955 3.955 0 0 0-5.596 0L4.871 20.304A2.972 2.972 0 0 0 4 22.408v4.602c0 .547.443.99.99.99h4.599c.786 0 1.54-.312 2.097-.869L26.84 11.985a3.964 3.964 0 0 0 0-5.603L25.62 5.16ZM6.27 21.707 18.84 9.142l4.02 4.023L10.288 25.73a.989.989 0 0 1-.7.29h-3.61v-3.612a.99.99 0 0 1 .291-.701Zm19.17-11.123-1.181 1.181-4.02-4.023 1.183-1.182a1.978 1.978 0 0 1 2.798 0l1.22 1.222a1.982 1.982 0 0 1 0 2.802Z"
    fill="#000"
  /><path
    d="M17.852 26.02a.99.99 0 0 0 0 1.98h8.905a.99.99 0 0 0 0-1.98h-8.905Z"
    fill="#000"
  /></svg>
