<svg width="32" height="32" fill="none" xmlns="http://www.w3.org/2000/svg"><path
    d="M17 4a1 1 0 1 0-2 0v6a1 1 0 1 0 2 0V4Zm0 18a1 1 0 1 0-2 0v6a1 1 0 1 0 2 0v-6Zm12-6a1 1 0 0 1-1 1h-6a1 1 0 1 1 0-2h6a1 1 0 0 1 1 1Zm-3.808-7.778a1 1 0 0 0-1.414-1.414l-4.242 4.242a1 1 0 0 0 1.414 1.414l4.242-4.242Zm0 16.97a1 1 0 0 1-1.414 0l-4.242-4.242a1 1 0 0 1 1.414-1.415l4.242 4.243a1 1 0 0 1 0 1.414ZM4 17a1 1 0 1 1 0-2h6a1 1 0 1 1 0 2H4ZM6.808 6.808a1 1 0 0 0 0 1.414l4.242 4.242a1 1 0 0 0 1.414-1.414L8.222 6.808a1 1 0 0 0-1.414 0Zm1.414 18.384a1 1 0 1 1-1.414-1.414l4.242-4.242a1 1 0 0 1 1.414 1.414l-4.242 4.242Z"
    fill="#000"
  /></svg>
