<svg width="32" height="32" fill="none" xmlns="http://www.w3.org/2000/svg"><path d="M18 4a2 2 0 1 0-4 0v6a2 2 0 1 0 4 0V4Zm0 18a2 2 0 1 0-4 0v6a2 2 0 1 0 4 0v-6Zm12-6a2 2 0 0 1-2 2h-6a2 2 0 1 1 0-4h6a2 2 0 0 1 2 2Zm-4.1-7.071A2 2 0 1 0 23.07 6.1l-4.243 4.242a2 2 0 0 0 2.829 2.829l4.242-4.243Zm0 16.971a2 2 0 0 1-2.829 0l-4.243-4.243a2 2 0 0 1 2.829-2.829l4.242 4.243a2 2 0 0 1 0 2.828ZM4 18a2 2 0 1 1 0-4h6a2 2 0 1 1 0 4H4ZM6.1 6.1a2 2 0 0 0 0 2.829l4.243 4.243a2 2 0 1 0 2.829-2.829L8.928 6.101a2 2 0 0 0-2.829 0Zm2.829 19.8A2 2 0 1 1 6.1 23.07l4.243-4.243a2 2 0 1 1 2.829 2.829l-4.243 4.242Z" fill="#000"/></svg>