<svg width="32" height="32" fill="none" xmlns="http://www.w3.org/2000/svg"><path
    d="M15 6a1 1 0 1 1-2 0 1 1 0 0 1 2 0Zm3 1a1 1 0 1 0 0-2 1 1 0 0 0 0 2Z"
    fill="#000"
  /><path
    fill-rule="evenodd"
    clip-rule="evenodd"
    d="M13 2a3 3 0 0 0-3 3v4a2 2 0 0 0 2 2h8a2 2 0 0 0 2-2V5a3 3 0 0 0-3-3h-6Zm-1 3a1 1 0 0 1 1-1h6a1 1 0 0 1 1 1v4h-8V5Zm0 7a3 3 0 0 0-3 3v2a3 3 0 0 0 3 3h8a3 3 0 0 0 3-3v-2a3 3 0 0 0-3-3h-8Zm-1 3a1 1 0 0 1 1-1h8a1 1 0 0 1 1 1v2a1 1 0 0 1-1 1h-8a1 1 0 0 1-1-1v-2Z"
    fill="#000"
  /><path
    d="M7 12a1 1 0 0 1 1 1v8a1 1 0 1 1-2 0v-8a1 1 0 0 1 1-1Zm19 1a1 1 0 1 0-2 0v8a1 1 0 1 0 2 0v-8Zm-13 8a1 1 0 0 1 1 1v5a1 1 0 1 1 0 2h-2a1 1 0 1 1 0-2v-5a1 1 0 0 1 1-1Zm7 1a1 1 0 1 0-2 0v5a1 1 0 1 0 0 2h2a1 1 0 1 0 0-2v-5Z"
    fill="#000"
  /></svg>
