<svg width="32" height="32" fill="none" xmlns="http://www.w3.org/2000/svg"><path d="M18.5 16H17v-2h1.5a1 1 0 1 1 0 2Zm-8-.027.545 1.527h-1.09l.545-1.527Z" fill="#000"/><path fill-rule="evenodd" clip-rule="evenodd" d="M5 6a3 3 0 0 0-3 3v14a3 3 0 0 0 3 3h22a3 3 0 0 0 3-3V9a3 3 0 0 0-3-3H5Zm11 6a1 1 0 0 0-1 1v7a1 1 0 1 0 2 0v-2h1.5a3 3 0 1 0 0-6H16Zm7.5 0a1 1 0 0 1 1 1v7a1 1 0 1 1-2 0v-7a1 1 0 0 1 1-1Zm-12.058.664a1 1 0 0 0-1.884 0l-2.5 7a1 1 0 1 0 1.884.672l.298-.836h2.52l.298.836a1 1 0 1 0 1.884-.672l-2.5-7Z" fill="#000"/></svg>