<svg width="32" height="32" fill="none" xmlns="http://www.w3.org/2000/svg"><path
    d="M12.473 13.543a1 1 0 0 0 1.07-1.07l-.39-5.34a1 1 0 0 0-1.705-.635L9.68 8.266 6.182 4.768a1 1 0 1 0-1.414 1.414L8.266 9.68l-1.768 1.768a1 1 0 0 0 .634 1.704l5.34.391Zm6.004-1.07a1 1 0 0 0 1.07 1.07l5.341-.39a1 1 0 0 0 .635-1.705L23.755 9.68l3.498-3.498a1 1 0 0 0-1.414-1.414L22.34 8.266l-1.768-1.768a1 1 0 0 0-1.705.634l-.39 5.341Zm-4.934 7.075a1 1 0 0 0-1.07-1.07l-5.34.39a1 1 0 0 0-.635 1.705l1.768 1.767-3.498 3.499a1 1 0 0 0 1.414 1.414l3.498-3.498 1.768 1.768a1 1 0 0 0 1.704-.635l.391-5.34Zm6.005-1.071a1 1 0 0 0-1.07 1.07l.39 5.341a1 1 0 0 0 1.705.635l1.768-1.768 3.498 3.498a1 1 0 0 0 1.414-1.414l-3.498-3.498 1.768-1.768a1 1 0 0 0-.634-1.705l-5.341-.39Z"
    fill="#000"
  /></svg>
