<svg width="32" height="32" fill="none" xmlns="http://www.w3.org/2000/svg"><path d="m22.29 21.024.074-11.388-11.388.075 5.656 5.657 5.657 5.656Z" fill="#000"/><path fill-rule="evenodd" clip-rule="evenodd" d="M23.071 8.929a1 1 0 0 0-.714-.293l-11.388.075a1 1 0 0 0-.7 1.707l4.95 4.95-6.29 6.289a1 1 0 1 0 1.414 1.414l6.29-6.29 4.95 4.95a1 1 0 0 0 1.706-.7l.075-11.388a1 1 0 0 0-.293-.714Zm-6.439 5.024-3.258-3.258 6.56-.043-3.302 3.301Zm4.716-1.887-3.301 3.302 3.258 3.258.043-6.56Z" fill="#000"/></svg>