<svg width="32" height="32" fill="none" xmlns="http://www.w3.org/2000/svg"><path d="M5.548 4.478a1 1 0 0 0-1.07 1.07l.39 5.34a1 1 0 0 0 1.705.635L8.34 9.755l3.498 3.498a1 1 0 1 0 1.414-1.414L9.755 8.34l1.768-1.768a1 1 0 0 0-.634-1.705l-5.341-.39Zm21.995 1.07a1 1 0 0 0-1.07-1.07l-5.34.39a1 1 0 0 0-.635 1.705l1.768 1.768-3.498 3.498a1 1 0 0 0 1.414 1.414l3.498-3.498 1.768 1.768a1 1 0 0 0 1.704-.634l.391-5.341ZM4.478 26.473a1 1 0 0 0 1.07 1.07l5.34-.39a1 1 0 0 0 .635-1.705L9.755 23.68l3.498-3.498a1 1 0 0 0-1.414-1.414L8.34 22.266l-1.768-1.768a1 1 0 0 0-1.705.634l-.39 5.341Zm21.995 1.07a1 1 0 0 0 1.07-1.07l-.39-5.34a1 1 0 0 0-1.705-.635l-1.768 1.768-3.498-3.498a1 1 0 0 0-1.414 1.414l3.498 3.498-1.768 1.768a1 1 0 0 0 .634 1.704l5.34.391Z" fill="#000"/></svg>