<svg width="32" height="32" fill="none" xmlns="http://www.w3.org/2000/svg"><path d="M9 14a1 1 0 1 1 0 2 1 1 0 0 1 0-2Z" fill="#000"/><path fill-rule="evenodd" clip-rule="evenodd" d="M8 4a4 4 0 0 0-4 4v16a4 4 0 0 0 4 4h16a4 4 0 0 0 4-4V8a4 4 0 0 0-4-4H8Zm17.172 5.646c-.381-.292-.874-.474-1.346-.566a4.129 4.129 0 0 0-1.57-.009c-.534.105-1.107.347-1.552.82-.461.49-.704 1.143-.704 1.905 0 .442.094.858.305 1.225.212.367.506.624.807.804.516.308 1.153.44 1.596.53l.088.019c.543.113.849.193 1.04.316.071.045.098.08.113.109.016.03.051.11.051.291 0 .375-.235.694-.77.845-.56.156-1.182.028-1.549-.313a1 1 0 0 0-1.362 1.464c.963.896 2.341 1.085 3.45.774 1.13-.316 2.231-1.247 2.231-2.77 0-.45-.09-.87-.293-1.244a2.29 2.29 0 0 0-.793-.84c-.54-.347-1.209-.486-1.665-.58l-.045-.01c-.556-.116-.867-.19-1.066-.308-.074-.044-.093-.073-.1-.086-.007-.012-.038-.07-.038-.226 0-.32.092-.461.16-.535.085-.09.236-.18.483-.228.245-.048.53-.043.798.01.279.054.454.143.516.191a1 1 0 0 0 1.215-1.588ZM22.1 20.065a1 1 0 0 1 1.335-.465l2.5 1.208a1 1 0 0 1 .554 1.05l-.5 3.292a1 1 0 0 1-1.978-.3l.195-1.28-.604.328a.993.993 0 0 1-.043.022c-2.038.982-4.72 1.56-7.559 1.56-2.176 0-4.254-.34-6.018-.936-1.748-.59-3.265-1.459-4.236-2.575a1 1 0 1 1 1.508-1.313c.655.753 1.81 1.467 3.368 1.993 1.541.52 3.4.83 5.378.83 2.58 0 4.948-.527 6.67-1.35l.66-.36-.765-.369a1 1 0 0 1-.465-1.335ZM15 10a1 1 0 1 0-2 0v7a1 1 0 0 0 1.894.447L16 15.237l1.106 2.21A1 1 0 0 0 19 17v-7a1 1 0 1 0-2 0v2.764l-.106-.211a1 1 0 0 0-1.788 0l-.106.21V10ZM7.5 9a1 1 0 0 0 0 2H9a1 1 0 0 1 1 1v.17a3 3 0 1 0 .293 5.537A1 1 0 0 0 12 17v-4.999a3 3 0 0 0-3-3H7.5Z" fill="#000"/></svg>