<svg width="32" height="32" fill="none" xmlns="http://www.w3.org/2000/svg"><path
    fill-rule="evenodd"
    clip-rule="evenodd"
    d="m13.783 24.082-.844 2.497a1.867 1.867 0 0 1-.673.915 1.843 1.843 0 0 1-1.083.351H6.025a1.907 1.907 0 0 1-1.563-.815 1.941 1.941 0 0 1-.25-1.74l6.374-18.887a1.856 1.856 0 0 1 1.693-1.29.9.9 0 0 1 .099-.005h7.36c.77 0 1.44.496 1.683 1.213l6.363 18.842a2.081 2.081 0 0 1-.268 1.86 2.05 2.05 0 0 1-1.67.869H18.71c-.563.068-1.167-.103-1.681-.61l-3.246-3.2Zm2.658-5.369-.424-1.256-.425 1.256h.85Zm-2.105 1.784h2.708l1.743 5.164c.036.107.025.18.005.23a.345.345 0 0 1-.136.162.319.319 0 0 1-.19.054c-.045-.003-.108-.02-.185-.095l-5.593-5.515h1.648Zm-.627-1.784 1.366-4.04-2.598-7.7c-.016-.044-.033-.057-.04-.062a.11.11 0 0 0-.06-.016.11.11 0 0 0-.062.016c-.006.005-.024.018-.04.063L5.902 25.86a.164.164 0 0 0 .02.144c.014.02.03.034.049.043.018.01.037.014.056.014h5.158a.062.062 0 0 0 .036-.012.083.083 0 0 0 .029-.04l1.122-3.32-2.484-2.449a.892.892 0 0 1 .627-1.527h3.195Z"
    fill="#000"
  /></svg>
