<svg width="32" height="32" fill="none" xmlns="http://www.w3.org/2000/svg"><path fill-rule="evenodd" clip-rule="evenodd" d="M16 2c.735 0 1.458.057 2.163.166.48.522.837 1.259.837 2.318 0 1.26-.497 1.837-1.01 2.141-.59.35-1.35.418-1.866.354a1 1 0 1 0-.248 1.984c.817.102 2.057.02 3.134-.618C20.163 7.662 21 6.412 21 4.484c0-.605-.081-1.154-.226-1.649C26.155 4.787 30 9.945 30 16c0 7.732-6.268 14-14 14S2 23.732 2 16 8.268 2 16 2Zm-5 15.5a1.5 1.5 0 1 0 0-3 1.5 1.5 0 0 0 0 3ZM22.5 16a1.5 1.5 0 1 1-3 0 1.5 1.5 0 0 1 3 0Zm-10.207 5.293a1 1 0 0 1 1.404-.01l.008.007a2.7 2.7 0 0 0 .492.315c.378.19.976.395 1.803.395s1.425-.206 1.803-.394a2.7 2.7 0 0 0 .492-.316l.008-.007a1 1 0 0 1 1.404 1.424L19 22l.707.707-.001.002-.002.001-.003.003-.008.008-.02.02a3.347 3.347 0 0 1-.26.215 4.69 4.69 0 0 1-.716.438c-.622.312-1.524.606-2.697.606s-2.075-.294-2.697-.606a4.69 4.69 0 0 1-.716-.438 3.347 3.347 0 0 1-.26-.215l-.02-.02-.008-.008-.003-.003-.002-.002L13 22l-.706.708a1 1 0 0 1-.001-1.415Z" fill="#000"/></svg>