<svg width="32" height="32" fill="none" xmlns="http://www.w3.org/2000/svg"><path fill-rule="evenodd" clip-rule="evenodd" d="M12 2a1 1 0 0 0-.751.34L9.36 4.489a6.335 6.335 0 0 0-.714-.064c-.678-.021-1.783.064-2.56.841a68.667 68.667 0 0 0-1.705 1.77l-.028.03-.01.01a1 1 0 0 0-.189 1.057l.469 1.142-.648 1.848a1.001 1.001 0 0 0-.023.586l.361 1.37.815 3.091c.605 2.3 1.24 4.717 1.368 5.227l.001.006c.266 1.034.515 1.875.932 2.6.436.758 1.016 1.325 1.836 1.91 1.44 1.03 4.015 2.753 4.662 3.155.538.44 1.17.752 1.849.907.073.016.148.025.223.025.534 0 .996-.245 1.276-.411.155-.092.304-.192.425-.273l.013-.01c.125-.083.218-.145.302-.196.487-.294 3.223-2.16 4.717-3.186.838-.576 1.422-1.143 1.855-1.91.41-.727.65-1.577.914-2.61V21.4l2.545-9.693a1 1 0 0 0-.025-.59l-.665-1.865.468-1.139a1 1 0 0 0-.19-1.057l-.009-.01-.027-.03-.103-.11A62.91 62.91 0 0 0 25.89 5.25c-.779-.773-1.879-.861-2.558-.842a6.218 6.218 0 0 0-.712.062l-1.87-2.13A1 1 0 0 0 20 2h-8Zm-.115 18.358a.944.944 0 0 1 .324-.294c.08-.044.242-.13.463-.247.278-.146.646-.341 1.059-.564.486-.263.994-.48 1.519-.65V15.95a12.958 12.958 0 0 1-.907-.195 1.267 1.267 0 0 1-.558-.275 1.055 1.055 0 0 1-.332-.573 1.548 1.548 0 0 1-.023-.445c.004-.061.014-.15.021-.219l.01-.082c.023-.25.156-.975.283-1.644.123-.647.252-1.302.31-1.59a7.77 7.77 0 0 0-1.229-.366 7.759 7.759 0 0 0-2.237.058.75.75 0 1 1-.255-1.478 9.256 9.256 0 0 1 2.765-.056 9.27 9.27 0 0 1 1.93.624.75.75 0 0 1 .325.282l.036.049c.048.066.116.173.16.325.076.265.039.544-.014.804-.05.243-.187.94-.317 1.627a31.96 31.96 0 0 0-.265 1.51l-.005.052c.334.077.672.139 1.012.185.34-.046.678-.107 1.012-.184a4.69 4.69 0 0 1-.005-.053c-.016-.163-.132-.794-.269-1.509l-.092-.48a61.49 61.49 0 0 1-.22-1.177c-.041-.255-.067-.51-.009-.747a1.052 1.052 0 0 1 .157-.35l.012-.018a.752.752 0 0 1 .35-.318 9.715 9.715 0 0 1 1.922-.62.75.75 0 0 1 .073-.012 10.01 10.01 0 0 1 2.688.064.75.75 0 0 1-.238 1.482 8.51 8.51 0 0 0-2.248-.06c-.416.09-.825.213-1.221.366.031.19.11.601.202 1.079l.098.51c.127.665.264 1.394.288 1.645l.014.13.001.007c.006.042.012.094.017.145.01.1.021.266-.015.444a1.048 1.048 0 0 1-.332.58c-.17.152-.369.233-.543.282l-.017.005c-.276.07-.555.13-.835.182v2.667c.524.17 1.032.387 1.518.65h.002l1.51.805a.986.986 0 0 1 .33.3c.49-.584.929-1.21 1.31-1.871a2.395 2.395 0 0 0-.213-2.147.994.994 0 0 1 .393-1.167 195.73 195.73 0 0 1 2.187-2.326 5.5 5.5 0 0 1 .2-.195c.296-.276.546-.51.546-1.139 0-.766-2.913-4.293-2.913-4.293s-2.467.473-2.8.473a9.18 9.18 0 0 1-1.713-.493c-.357-.126-.73-.2-1.107-.22-.377.02-.75.094-1.107.22l.043-.009-.043.016a9.18 9.18 0 0 1-1.713.493c-.333 0-2.8-.473-2.8-.473s-2.913 3.526-2.913 4.293c0 .616.24.845.53 1.118.07.067.143.137.216.215.152.163.511.544.896.952v.001l.106.112c.53.562 1.078 1.144 1.185 1.262a.993.993 0 0 1 .393 1.167 2.393 2.393 0 0 0-.213 2.146c.38.66.817 1.283 1.305 1.865Zm6.954 1.403c.148-.089.277-.356.124-.462l-1.305-.694a7.362 7.362 0 0 0-1.683-.674 7.434 7.434 0 0 0-1.683.695c-.557.312-.963.547-1.166.665l-.086.05c-.153.089-.018.313.118.42a335.76 335.76 0 0 1 2.204 1.802c.037.03.076.066.118.104.168.151.369.333.519.333.187 0 .465-.26.636-.437.17-.177 2.057-1.714 2.204-1.802Z" fill="#000"/></svg>