<svg width="32" height="32" fill="none" xmlns="http://www.w3.org/2000/svg"><path fill-rule="evenodd" clip-rule="evenodd" d="M8 2a4 4 0 0 0-4 4v6a4 4 0 0 0 4 4h16a4 4 0 0 0 4-4V6a4 4 0 0 0-4-4H8Zm4.375 2C9.36 4 7 6.555 7 9.6c0 1.623.664 3.094 1.737 4.122a1 1 0 1 0 1.383-1.444A3.697 3.697 0 0 1 9 9.6C9 7.564 10.558 6 12.375 6h1.25C15.442 6 17 7.564 17 9.6a1 1 0 0 0 2 0C19 6.555 16.64 4 13.625 4h-1.25Zm6.25 1a1 1 0 0 1 1-1C22.507 4 25 6.156 25 9s-2.493 5-5.375 5h-1.25C15.493 14 13 11.844 13 9a1 1 0 1 1 2 0c0 1.574 1.425 3 3.375 3h1.25C21.575 12 23 10.574 23 9s-1.425-3-3.375-3a1 1 0 0 1-1-1ZM9.482 19.934A4.026 4.026 0 0 1 12 19c.695 0 1.684.234 2.518.934.873.734 1.482 1.9 1.482 3.566 0 1.009-.223 1.835-.594 2.492l.301.3a1 1 0 0 1-1.414 1.415l-.28-.28A4.02 4.02 0 0 1 12 28a4.026 4.026 0 0 1-2.518-.934C8.609 26.332 8 25.166 8 23.5s.609-2.832 1.482-3.566Zm4.4 4.534-.175-.175a1 1 0 0 0-1.414 1.414l.213.213A1.83 1.83 0 0 1 12 26a2.03 2.03 0 0 1-1.232-.466c-.377-.316-.768-.9-.768-2.034s.391-1.718.768-2.034A2.03 2.03 0 0 1 12 21c.305 0 .816.116 1.232.466.377.316.768.9.768 2.034 0 .381-.044.7-.117.968ZM20.5 19a1 1 0 0 1 .942.664l2.5 7a1 1 0 1 1-1.884.672l-.12-.336h-2.876l-.12.336a1 1 0 1 1-1.884-.672l2.5-7A1 1 0 0 1 20.5 19Zm.724 6-.724-2.027L19.776 25h1.448Z" fill="#000"/></svg>