<svg width="32" height="32" viewBox="0 0 32 32" fill="none" xmlns="http://www.w3.org/2000/svg">
<path d="M4 27V20H6.5C7.60457 20 8.5 20.8954 8.5 22C8.5 23.1046 7.60457 24 6.5 24H4" stroke="black" stroke-width="2" stroke-linecap="round" stroke-linejoin="round"/>
<path d="M27 27V20M25 20H29" stroke="black" stroke-width="2" stroke-linecap="round" stroke-linejoin="round"/>
<path d="M22.5644 20.4399C21.6769 19.7608 19 19.6332 19 21.7961C19 24.1915 23 22.5657 23 25.0902C23 26.9875 20.33 27.5912 19 26.3537" stroke="black" stroke-width="2" stroke-linecap="round" stroke-linejoin="round"/>
<path d="M11 23.5C11 20.7 12.6667 20 13.5 20C14.3333 20 16 20.7 16 23.5C16 26.3 14.3333 27 13.5 27C12.6667 27 11 26.3 11 23.5Z" stroke="black" stroke-width="2" stroke-linecap="round" stroke-linejoin="round"/>
<rect x="4" y="2" width="24" height="14" rx="2" fill="black"/>
<path d="M18 9.59975C18 7.05938 16.0412 5 13.625 5H12.375C9.95875 5 8 7.05938 8 9.59975C8 10.9469 8.55081 12.1588 9.42857 13" stroke="white" stroke-width="2" stroke-linecap="round"/>
<path d="M14 9C14 11.2091 15.9588 13 18.375 13H19.625C22.0412 13 24 11.2091 24 9C24 6.79086 22.0412 5 19.625 5" stroke="white" stroke-width="2" stroke-linecap="round"/>
</svg>
