<svg width="32" height="32" viewBox="0 0 32 32" fill="none" xmlns="http://www.w3.org/2000/svg">
<path d="M17 25L19 27M16 20C15 20 13 20.7 13 23.5C13 26.3 15 27 16 27C17 27 19 26.3 19 23.5C19 20.7 17 20 16 20Z" stroke="black" stroke-width="2" stroke-linecap="round" stroke-linejoin="round"/>
<path d="M23 20V27H26.5" stroke="black" stroke-width="2" stroke-linecap="round" stroke-linejoin="round"/>
<path d="M9.56442 20.4399C8.67691 19.7608 6 19.6332 6 21.7961C6 24.1915 10 22.5657 10 25.0902C10 26.9875 7.32996 27.5912 6 26.3537" stroke="black" stroke-width="2" stroke-linecap="round" stroke-linejoin="round"/>
<rect x="4" y="2" width="24" height="14" rx="2" fill="black"/>
<path d="M18 9.59975C18 7.05938 16.0412 5 13.625 5H12.375C9.95875 5 8 7.05938 8 9.59975C8 10.9469 8.55081 12.1588 9.42857 13" stroke="white" stroke-width="2" stroke-linecap="round"/>
<path d="M14 9C14 11.2091 15.9588 13 18.375 13H19.625C22.0412 13 24 11.2091 24 9C24 6.79086 22.0412 5 19.625 5" stroke="white" stroke-width="2" stroke-linecap="round"/>
</svg>
