<svg width="32" height="32" fill="none" xmlns="http://www.w3.org/2000/svg"><path fill-rule="evenodd" clip-rule="evenodd" d="M4 6a4 4 0 0 1 4-4h16a4 4 0 0 1 4 4v6a4 4 0 0 1-4 4H8a4 4 0 0 1-4-4V6Zm8.375-2C9.36 4 7 6.555 7 9.6c0 1.623.664 3.094 1.737 4.122a1 1 0 1 0 1.383-1.444A3.697 3.697 0 0 1 9 9.6C9 7.564 10.558 6 12.375 6h1.25C15.442 6 17 7.564 17 9.6a1 1 0 0 0 2 0C19 6.555 16.64 4 13.625 4h-1.25Zm7.25 0a1 1 0 1 0 0 2C21.575 6 23 7.426 23 9s-1.425 3-3.375 3h-1.25C16.425 12 15 10.574 15 9a1 1 0 1 0-2 0c0 2.844 2.493 5 5.375 5h1.25C22.507 14 25 11.844 25 9s-2.493-5-5.375-5ZM9 20a1 1 0 0 1 1-1h2a4.5 4.5 0 1 1 0 9h-2a1 1 0 0 1-1-1v-7Zm2 1v5h1a2.5 2.5 0 0 0 0-5h-1Zm6-1a1 1 0 0 1 1-1h3a2.5 2.5 0 0 1 2.1 3.857A3 3 0 0 1 21 28h-3a1 1 0 0 1-1-1v-7Zm2 4v2h2a1 1 0 1 0 0-2h-2Zm2-2a.5.5 0 0 0 0-1h-2v1h2Z" fill="#000"/></svg>