<svg width="32" height="32" fill="none" xmlns="http://www.w3.org/2000/svg"><path fill-rule="evenodd" clip-rule="evenodd" d="M6 6a4 4 0 0 0-4 4v12a4 4 0 0 0 4 4h20a4 4 0 0 0 4-4V10a4 4 0 0 0-4-4H6Zm13.188 5a1 1 0 0 1 1-1C23.433 10 26 12.723 26 16s-2.567 6-5.813 6h-1.375C15.567 22 13 19.277 13 16a1 1 0 1 1 2 0c0 2.245 1.743 4 3.813 4h1.375C22.258 20 24 18.245 24 16s-1.743-4-3.813-4a1 1 0 0 1-1-1ZM6 17c0-3.277 2.567-6 5.813-6h1.374C16.433 11 19 13.723 19 17a1 1 0 1 1-2 0c0-2.245-1.743-4-3.813-4h-1.374C9.742 13 8 14.755 8 17s1.743 4 3.813 4a1 1 0 1 1 0 2C8.566 23 6 20.277 6 17Z" fill="#000"/></svg>