<svg width="32" height="32" viewBox="0 0 32 32" fill="none" xmlns="http://www.w3.org/2000/svg">
<path d="M10 27V20H12C13.933 20 15.5 21.567 15.5 23.5C15.5 25.433 13.933 27 12 27H10Z" stroke="black" stroke-width="2" stroke-linecap="round" stroke-linejoin="round"/>
<path d="M21 23H18M21 23C21.8284 23 22.5 22.3284 22.5 21.5C22.5 20.6716 21.8284 20 21 20H18V27H21C22.1046 27 23 26.1046 23 25C23 23.8954 22.1046 23 21 23Z" stroke="black" stroke-width="2" stroke-linecap="round" stroke-linejoin="round"/>
<rect x="4" y="2" width="24" height="14" rx="2" fill="black"/>
<path d="M18 9.59975C18 7.05938 16.0412 5 13.625 5H12.375C9.95875 5 8 7.05938 8 9.59975C8 10.9469 8.55081 12.1588 9.42857 13" stroke="white" stroke-width="2" stroke-linecap="round"/>
<path d="M14 9C14 11.2091 15.9588 13 18.375 13H19.625C22.0412 13 24 11.2091 24 9C24 6.79086 22.0412 5 19.625 5" stroke="white" stroke-width="2" stroke-linecap="round"/>
</svg>
