<svg width="32" height="32" fill="none" xmlns="http://www.w3.org/2000/svg"><path
    fill-rule="evenodd"
    clip-rule="evenodd"
    d="M4 6a4 4 0 0 1 4-4h16a4 4 0 0 1 4 4v6a4 4 0 0 1-4 4H8a4 4 0 0 1-4-4V6Zm8.375-2C9.36 4 7 6.555 7 9.6c0 1.623.664 3.094 1.737 4.122a1 1 0 1 0 1.383-1.444A3.697 3.697 0 0 1 9 9.6C9 7.564 10.558 6 12.375 6h1.25C15.442 6 17 7.564 17 9.6a1 1 0 0 0 2 0C19 6.555 16.64 4 13.625 4h-1.25Zm7.25 0a1 1 0 1 0 0 2C21.575 6 23 7.426 23 9s-1.425 3-3.375 3h-1.25C16.425 12 15 10.574 15 9a1 1 0 1 0-2 0c0 2.844 2.493 5 5.375 5h1.25C22.507 14 25 11.844 25 9s-2.493-5-5.375-5Z"
    fill="#000"
  /><path
    d="M23.172 19.646c-.381-.292-.874-.474-1.347-.566a4.128 4.128 0 0 0-1.569-.009c-.534.105-1.107.347-1.552.82-.461.49-.704 1.143-.704 1.905 0 .442.094.858.305 1.225.212.367.506.624.807.804.516.308 1.153.44 1.596.53l.088.019c.543.113.849.193 1.04.316.071.045.098.08.113.108.016.03.051.111.051.292 0 .375-.235.694-.77.845-.56.156-1.182.028-1.549-.313a1 1 0 0 0-1.362 1.464c.963.896 2.341 1.085 3.45.774 1.13-.316 2.231-1.247 2.231-2.77 0-.45-.09-.87-.293-1.244a2.29 2.29 0 0 0-.793-.84c-.54-.347-1.209-.486-1.665-.58l-.045-.01c-.556-.116-.867-.19-1.066-.308-.074-.044-.093-.073-.1-.086-.007-.012-.038-.07-.038-.226 0-.32.092-.461.16-.535.085-.09.236-.18.482-.228a2.13 2.13 0 0 1 .799.01c.279.054.454.143.516.191a1 1 0 0 0 1.215-1.588Z"
    fill="#000"
  /><path
    fill-rule="evenodd"
    clip-rule="evenodd"
    d="M3 20a1 1 0 0 1 1-1h2.5a3 3 0 1 1 0 6H5v2a1 1 0 1 1-2 0v-7Zm2 3h1.5a1 1 0 1 0 0-2H5v2Z"
    fill="#000"
  /><path
    d="M24 20a1 1 0 0 1 1-1h4a1 1 0 1 1 0 2h-1v6a1 1 0 1 1-2 0v-6h-1a1 1 0 0 1-1-1Z"
    fill="#000"
  /><path
    fill-rule="evenodd"
    clip-rule="evenodd"
    d="M11.228 19.996c.722-.729 1.61-.996 2.272-.996.662 0 1.55.267 2.272.996.744.749 1.228 1.897 1.228 3.504s-.484 2.755-1.228 3.504c-.722.729-1.61.996-2.272.996-.662 0-1.55-.267-2.272-.996C10.484 26.255 10 25.107 10 23.5s.484-2.755 1.228-3.504Zm1.42 1.408c-.3.301-.648.903-.648 2.096s.349 1.795.647 2.096c.32.321.682.404.853.404.17 0 .534-.083.853-.404.298-.301.647-.903.647-2.096s-.349-1.795-.647-2.096c-.32-.321-.682-.404-.853-.404-.17 0-.534.083-.853.404Z"
    fill="#000"
  /></svg>
