<svg width="32" height="32" fill="none" xmlns="http://www.w3.org/2000/svg"><path fill-rule="evenodd" clip-rule="evenodd" d="M8 2a4 4 0 0 0-4 4v6a4 4 0 0 0 4 4h16a4 4 0 0 0 4-4V6a4 4 0 0 0-4-4H8Zm4.375 2C9.36 4 7 6.555 7 9.6c0 1.623.664 3.094 1.737 4.122a1 1 0 1 0 1.383-1.444A3.697 3.697 0 0 1 9 9.6C9 7.564 10.558 6 12.375 6h1.25C15.442 6 17 7.564 17 9.6a1 1 0 0 0 2 0C19 6.555 16.64 4 13.625 4h-1.25Zm6.25 1a1 1 0 0 1 1-1C22.507 4 25 6.156 25 9s-2.493 5-5.375 5h-1.25C15.493 14 13 11.844 13 9a1 1 0 1 1 2 0c0 1.574 1.425 3 3.375 3h1.25C21.575 12 23 10.574 23 9s-1.425-3-3.375-3a1 1 0 0 1-1-1Z" fill="#000"/><path d="M16.75 21.032a1 1 0 0 1 1.124.482l1.626 2.927 1.626-2.927A1 1 0 0 1 23 22v7a1 1 0 1 1-2 0v-3.14l-.626 1.126a1 1 0 0 1-1.748 0L18 25.859V29a1 1 0 1 1-2 0v-7a1 1 0 0 1 .75-.968Z" fill="#000"/><path fill-rule="evenodd" clip-rule="evenodd" d="M2 22a1 1 0 0 1 1-1h2.222C6.864 21 8 22.457 8 24s-1.136 3-2.778 3H4v2a1 1 0 1 1-2 0v-7Zm2 3h1.222c.322 0 .778-.334.778-1 0-.666-.456-1-.778-1H4v2Zm6-4a1 1 0 0 0-1 1v7a1 1 0 1 0 2 0v-2h.652l1.488 2.51a1 1 0 0 0 1.72-1.02l-1.154-1.948C14.509 25.992 15 25.014 15 24c0-1.543-1.136-3-2.778-3H10Zm2.222 4H11v-2h1.222c.322 0 .778.334.778 1 0 .666-.456 1-.778 1Z" fill="#000"/><path d="M24 22a1 1 0 0 1 1-1h4a1 1 0 1 1 0 2h-1v6a1 1 0 1 1-2 0v-6h-1a1 1 0 0 1-1-1Z" fill="#000"/></svg>