<svg width="32" height="32" fill="none" xmlns="http://www.w3.org/2000/svg"><path fill-rule="evenodd" clip-rule="evenodd" d="M4 6a4 4 0 0 1 4-4h16a4 4 0 0 1 4 4v6a4 4 0 0 1-4 4H8a4 4 0 0 1-4-4V6Zm8.375-2C9.36 4 7 6.555 7 9.6c0 1.623.664 3.094 1.737 4.122a1 1 0 1 0 1.383-1.444A3.697 3.697 0 0 1 9 9.6C9 7.564 10.558 6 12.375 6h1.25C15.442 6 17 7.564 17 9.6a1 1 0 0 0 2 0C19 6.555 16.64 4 13.625 4h-1.25Zm7.25 0a1 1 0 1 0 0 2C21.575 6 23 7.426 23 9s-1.425 3-3.375 3h-1.25C16.425 12 15 10.574 15 9a1 1 0 1 0-2 0c0 2.844 2.493 5 5.375 5h1.25C22.507 14 25 11.844 25 9s-2.493-5-5.375-5Z" fill="#000"/><path d="M7 23.5c0-.793.22-1.431.555-1.849C7.871 21.257 8.333 21 9 21c.327 0 .55.08.678.144a.851.851 0 0 1 .128.078l.01.007a1 1 0 0 0 1.391-1.436l-.693.693.693-.693-.001-.002-.002-.001-.003-.003-.007-.007-.016-.015a1.764 1.764 0 0 0-.172-.143 2.847 2.847 0 0 0-.434-.266A3.493 3.493 0 0 0 9 19c-1.266 0-2.304.526-3.005 1.4-.681.848-.995 1.96-.995 3.1 0 1.14.314 2.252.995 3.1.701.874 1.74 1.4 3.005 1.4 1.35 0 2.375-.702 2.851-1.476A1 1 0 0 0 12 26v-2a1 1 0 0 0-1-1h-1a1 1 0 1 0 0 2v.648c-.19.17-.523.352-1 .352-.667 0-1.129-.257-1.445-.651C7.22 24.93 7 24.293 7 23.5Zm7-4.4a.9.9 0 0 0-.9.9v7a.9.9 0 0 0 .9.9h4.5a.9.9 0 1 0 0-1.8h-3.6v-1.7h2.6a.9.9 0 1 0 0-1.8h-2.6v-1.7h3.6a.9.9 0 1 0 0-1.8H14Zm6 .9a1 1 0 0 1 1-1h5a1 1 0 1 1 0 2h-1.5v6a1 1 0 1 1-2 0v-6H21a1 1 0 0 1-1-1Z" fill="#000"/></svg>