<svg width="32" height="32" viewBox="0 0 32 32" fill="none" xmlns="http://www.w3.org/2000/svg">
<path d="M17 29V22L19.5 26.5L22 22V29" stroke="black" stroke-width="2" stroke-linecap="round" stroke-linejoin="round"/>
<path d="M3 29V22H5.22222C6.20406 22 7 22.8954 7 24C7 25.1046 6.20406 26 5.22222 26H3" stroke="black" stroke-width="2" stroke-linecap="round" stroke-linejoin="round"/>
<path d="M10 29V22H12.2222C13.2041 22 14 22.8954 14 24C14 25.1046 13.2041 26 12.2222 26M12.2222 26H10M12.2222 26L14 29" stroke="black" stroke-width="2" stroke-linecap="round" stroke-linejoin="round"/>
<path d="M27 29V22M25 22H29" stroke="black" stroke-width="2" stroke-linecap="round" stroke-linejoin="round"/>
<rect x="4" y="2" width="24" height="14" rx="2" fill="black"/>
<path d="M18 9.59975C18 7.05938 16.0412 5 13.625 5H12.375C9.95875 5 8 7.05938 8 9.59975C8 10.9469 8.55081 12.1588 9.42857 13" stroke="white" stroke-width="2" stroke-linecap="round"/>
<path d="M14 9C14 11.2091 15.9588 13 18.375 13H19.625C22.0412 13 24 11.2091 24 9C24 6.79086 22.0412 5 19.625 5" stroke="white" stroke-width="2" stroke-linecap="round"/>
</svg>
