<svg width="32" height="32" viewBox="0 0 32 32" fill="none" xmlns="http://www.w3.org/2000/svg">
<path d="M18 27L20.5 20L23 27M19 26H22" stroke="black" stroke-width="2" stroke-linecap="round" stroke-linejoin="round"/>
<path d="M13 25L15 27M12 20C11 20 9 20.7 9 23.5C9 26.3 11 27 12 27C13 27 15 26.3 15 23.5C15 20.7 13 20 12 20Z" stroke="black" stroke-width="2" stroke-linecap="round" stroke-linejoin="round"/>
<rect x="4" y="2" width="24" height="14" rx="2" fill="black"/>
<path d="M18 9.59975C18 7.05938 16.0412 5 13.625 5H12.375C9.95875 5 8 7.05938 8 9.59975C8 10.9469 8.55081 12.1588 9.42857 13" stroke="white" stroke-width="2" stroke-linecap="round"/>
<path d="M14 9C14 11.2091 15.9588 13 18.375 13H19.625C22.0412 13 24 11.2091 24 9C24 6.79086 22.0412 5 19.625 5" stroke="white" stroke-width="2" stroke-linecap="round"/>
</svg>
