<svg width="32" height="32" fill="none" xmlns="http://www.w3.org/2000/svg"><path
    fill-rule="evenodd"
    clip-rule="evenodd"
    d="M8 2a4 4 0 0 0-4 4v6a4 4 0 0 0 4 4h16a4 4 0 0 0 4-4V6a4 4 0 0 0-4-4H8Zm4.375 2C9.36 4 7 6.555 7 9.6c0 1.623.664 3.094 1.737 4.122a1 1 0 1 0 1.383-1.444A3.697 3.697 0 0 1 9 9.6C9 7.564 10.558 6 12.375 6h1.25C15.442 6 17 7.564 17 9.6a1 1 0 0 0 2 0C19 6.555 16.64 4 13.625 4h-1.25Zm6.25 1a1 1 0 0 1 1-1C22.507 4 25 6.156 25 9s-2.493 5-5.375 5h-1.25C15.493 14 13 11.844 13 9a1 1 0 1 1 2 0c0 1.574 1.425 3 3.375 3h1.25C21.575 12 23 10.574 23 9s-1.425-3-3.375-3a1 1 0 0 1-1-1Z"
    fill="#000"
  /><path
    d="M8.825 19.08c.473.092.966.274 1.347.566a1 1 0 0 1-1.215 1.588c-.063-.048-.237-.137-.516-.192a2.132 2.132 0 0 0-.798-.009c-.247.049-.398.139-.482.228-.07.074-.161.216-.161.535 0 .157.031.214.038.226.007.013.026.042.1.086.2.119.51.192 1.066.308l.045.01c.456.094 1.124.233 1.665.579.304.195.59.465.793.84.203.374.293.795.293 1.245 0 1.523-1.1 2.454-2.232 2.77-1.108.31-2.486.122-3.45-.774a1 1 0 0 1 1.363-1.464c.367.34.989.47 1.548.313.536-.15.771-.47.771-.845 0-.18-.035-.262-.051-.291a.299.299 0 0 0-.113-.11c-.191-.122-.497-.202-1.04-.315l-.088-.018c-.443-.092-1.08-.223-1.596-.531a2.237 2.237 0 0 1-.806-.804A2.418 2.418 0 0 1 5 21.796c0-.762.243-1.415.704-1.905.445-.473 1.018-.715 1.552-.82a4.128 4.128 0 0 1 1.57.009Z"
    fill="#000"
  /><path
    fill-rule="evenodd"
    clip-rule="evenodd"
    d="M16 19c-.695 0-1.684.234-2.518.934-.873.734-1.482 1.9-1.482 3.566s.609 2.832 1.482 3.566c.834.7 1.823.934 2.518.934a4.02 4.02 0 0 0 2.012-.574l.28.281a1 1 0 0 0 1.415-1.414l-.3-.3c.37-.658.593-1.484.593-2.493 0-1.666-.609-2.832-1.482-3.566A4.026 4.026 0 0 0 16 19Zm1.707 5.293.176.175A3.67 3.67 0 0 0 18 23.5c0-1.134-.391-1.718-.768-2.034A2.032 2.032 0 0 0 16 21a2.03 2.03 0 0 0-1.232.466c-.377.316-.768.9-.768 2.034s.391 1.718.768 2.034c.416.35.927.466 1.232.466.137 0 .314-.023.506-.08l-.213-.213a1 1 0 0 1 1.414-1.414Z"
    fill="#000"
  /><path
    d="M24 20a1 1 0 1 0-2 0v7a1 1 0 0 0 1 1h3.5a1 1 0 1 0 0-2H24v-6Z"
    fill="#000"
  /></svg>
