<svg width="32" height="32" viewBox="0 0 32 32" fill="none" xmlns="http://www.w3.org/2000/svg">
<path d="M14.3077 27H8C6.34315 27 5 25.6569 5 24V8C5 6.34315 6.34315 5 8 5H24C25.6569 5 27 6.34315 27 8V9" stroke="black" stroke-width="2" stroke-linecap="round"/>
<circle cx="20" cy="25" r="2" fill="black" stroke="black" stroke-width="2"/>
<circle cx="27" cy="15" r="2" fill="black" stroke="black" stroke-width="2"/>
<path d="M27 17L27 18C27 19.1046 26.1046 20 25 20L22 20C20.8954 20 20 20.8954 20 22L20 22.5" stroke="black" stroke-width="2"/>
<path d="M11 11H20" stroke="black" stroke-width="2" stroke-linecap="round" stroke-linejoin="round"/>
<path d="M11 16H18" stroke="black" stroke-width="2" stroke-linecap="round" stroke-linejoin="round"/>
<path d="M11 21H14" stroke="black" stroke-width="2" stroke-linecap="round" stroke-linejoin="round"/>
</svg>
