<svg width="32" height="32" fill="none" xmlns="http://www.w3.org/2000/svg"><path d="M21 14c.356 0 1 .452 1 1.5s-.644 1.5-1 1.5-1-.452-1-1.5.644-1.5 1-1.5Zm-7.462.429h-2.076l1.038-2.67 1.038 2.67Z" fill="#000"/><path fill-rule="evenodd" clip-rule="evenodd" d="M4 8a4 4 0 0 1 4-4h16a4 4 0 0 1 4 4v11.81a4 4 0 0 1-4 4h-7.636l-4.722 3.956A1 1 0 0 1 10 27v-3.19H8a4 4 0 0 1-4-4V8Zm15.5 1a1 1 0 1 0 0 2H21a1 1 0 0 1 1 1v.19a2.67 2.67 0 0 0-1-.19c-1.854 0-3 1.787-3 3.5s1.146 3.5 3 3.5c.472 0 .897-.116 1.27-.316A1 1 0 0 0 24 18v-6a3 3 0 0 0-3-3h-1.5Zm-6.068-.362a1 1 0 0 0-1.864 0l-3.5 9a1 1 0 1 0 1.864.724l.752-1.933h3.632l.752 1.933a1 1 0 1 0 1.864-.724l-3.5-9Z" fill="#000"/></svg>