<svg width="32" height="32" fill="none" xmlns="http://www.w3.org/2000/svg"><path
    fill-rule="evenodd"
    clip-rule="evenodd"
    d="M19.518 6.042c.27-.032.552-.042.834-.042C25.678 6 30 10.492 30 16.005 30 21.52 25.678 26 20.352 26A9.303 9.303 0 0 1 16 24.927a.2.2 0 0 0 .06-.042.09.09 0 0 1-.07.031c-.05.042-.11.073-.17.104a9.324 9.324 0 0 1-2.715.865.753.753 0 0 1-.148.024 19.444 19.444 0 0 0-.334.039c-.05.01-.1.01-.15.01-.272.042-.553.042-.835.042C6.312 26 2 21.529 2 16.005 2 10.482 6.312 6 11.638 6c1.568 0 3.045.386 4.352 1.084H16l.085-.047.086-.047a5.52 5.52 0 0 1 .432-.198 7.82 7.82 0 0 1 .965-.365A2.96 2.96 0 0 1 18 6.302c.13-.041.271-.073.412-.094.107-.029.213-.048.323-.068l.14-.025.452-.063c.07-.01.13-.01.19-.01Zm-4.252 17.092c.191-.104.382-.219.563-.344v.01c.043-.022.08-.05.12-.078l.051-.036c.15-.094.291-.209.432-.323a4.44 4.44 0 0 0 .523-.47c.331-.322.643-.677.924-1.062.121-.167.242-.334.332-.511a.98.98 0 0 0 .068-.106 7.184 7.184 0 0 0 .324-.603l.02-.04a.407.407 0 0 0 .03-.064c.06-.122.107-.239.157-.358l.054-.132c.1-.26.191-.542.262-.823.05-.146.08-.292.11-.448.01-.032.02-.063.02-.104.03-.105.06-.22.06-.344.03-.146.06-.303.06-.459.006-.038.009-.075.011-.115a2.03 2.03 0 0 1 .01-.114c.01-.188.02-.375.02-.563V8a1.476 1.476 0 0 0-.058.012.668.668 0 0 1-.133.02c-.15.02-.291.041-.442.083-.08.01-.16.031-.231.052a1.95 1.95 0 0 0-.352.094c-.06.01-.11.03-.16.052a.484.484 0 0 0-.172.062 7.107 7.107 0 0 0-1.598.771c-.09.053-.18.115-.261.178H16c-.01 0-.03 0-.03.02-.14.084-.272.188-.402.292 0 .007-.004.01-.01.013a21.05 21.05 0 0 1-.966.926.183.183 0 0 1-.04.051c-.15.178-.29.355-.431.553a5.7 5.7 0 0 0-.392.594c-.09.156-.181.313-.252.469-.05.083-.09.167-.13.26a.39.39 0 0 0-.05.115c-.07.146-.131.292-.192.448a7.8 7.8 0 0 0-.22.688c-.06.209-.111.417-.151.625-.03.063-.03.125-.03.178a6.67 6.67 0 0 0-.09.625v.042c-.031.24-.041.49-.041.74v8.045l.095-.015.096-.016a3.3 3.3 0 0 0 .442-.083c.07-.01.14-.021.211-.042l.079-.022c.127-.034.259-.07.383-.113.09-.021.171-.042.252-.084.13-.041.261-.094.392-.146.06-.02.12-.041.18-.073.192-.083.382-.177.563-.281Z"
    fill="#000"
  /></svg>
