<svg width="32" height="32" viewBox="0 0 32 32" fill="none" xmlns="http://www.w3.org/2000/svg">
<rect x="4" y="4" width="24" height="24" rx="2" fill="black"/>
<path d="M20.0909 10.2729C22.0627 10.2729 22.7686 11.7381 22.7686 13.5456V14.3638C22.7686 16.1712 23.0282 17.6365 25 17.6365C23.0282 17.6365 22.7686 19.1017 22.7686 20.9092V21.7273C22.7686 23.5348 22.0627 25 20.0909 25" stroke="white" stroke-width="2" stroke-linecap="round" stroke-linejoin="round"/>
<path d="M11.9091 6.99996C9.9373 6.99996 9.2314 8.4652 9.2314 10.2727V11.0908C9.2314 12.8983 8.97179 14.3635 7 14.3635C8.97179 14.3635 9.2314 15.8288 9.2314 17.6362V18.4544C9.2314 20.2619 9.9373 21.7271 11.9091 21.7271" stroke="white" stroke-width="2" stroke-linecap="round" stroke-linejoin="round"/>
<path d="M17.6365 6.99996L14.3638 24.9998" stroke="white" stroke-width="2" stroke-linecap="round" stroke-linejoin="round"/>
</svg>
