<svg width="32" height="32" fill="none" xmlns="http://www.w3.org/2000/svg"><path fill-rule="evenodd" clip-rule="evenodd" d="M8 4a4 4 0 0 0-4 4v16a4 4 0 0 0 4 4h16a4 4 0 0 0 4-4V8a4 4 0 0 0-4-4H8Zm3.707 8.707a1 1 0 0 0-1.414-1.414L7 14.586a2 2 0 0 0 0 2.828l3.293 3.293a1 1 0 0 0 1.414-1.414L8.414 16l3.293-3.293Zm8.586-1.414a1 1 0 0 0 0 1.414L23.586 16l-3.293 3.293a1 1 0 0 0 1.414 1.414L25 17.414a2 2 0 0 0 0-2.828l-3.293-3.293a1 1 0 0 0-1.414 0Zm-1.323-3.05a1 1 0 1 0-1.94-.486l-4 16a1 1 0 1 0 1.94.485l4-16Z" fill="#000"/></svg>