<svg width="32" height="32" fill="none" xmlns="http://www.w3.org/2000/svg"><path
    fill-rule="evenodd"
    clip-rule="evenodd"
    d="M4 8a4 4 0 0 1 4-4h16a4 4 0 0 1 4 4v16a4 4 0 0 1-4 4H8a4 4 0 0 1-4-4V8Zm18.354-.41C21.627 6.573 20.488 6 19 6a1 1 0 1 0 0 2c.922 0 1.42.323 1.726.753.347.485.547 1.247.547 2.247v1c0 1.098.067 2.328.575 3.294.133.255.299.493.5.706a3.182 3.182 0 0 0-.5.706c-.508.966-.575 2.196-.575 3.294v1c0 1-.2 1.762-.547 2.247-.307.43-.804.753-1.726.753a1 1 0 1 0 0 2c1.488 0 2.627-.573 3.354-1.59.687-.962.919-2.201.919-3.41v-1c0-1.111.091-1.881.345-2.363.11-.21.245-.35.42-.446.185-.102.481-.191.962-.191a1 1 0 1 0 0-2c-.481 0-.777-.09-.962-.19a1.02 1.02 0 0 1-.42-.447c-.254-.482-.345-1.252-.345-2.363v-1c0-1.209-.232-2.448-.92-3.41ZM13 6c-1.488 0-2.627.573-3.354 1.59-.687.962-.919 2.201-.919 3.41v1c0 1.111-.091 1.881-.345 2.363-.11.21-.245.35-.42.446C7.777 14.911 7.48 15 7 15a1 1 0 1 0 0 2c.481 0 .777.09.962.19.175.097.31.236.42.447.254.482.345 1.252.345 2.363v1c0 1.209.232 2.448.92 3.41C10.372 25.427 11.511 26 13 26a1 1 0 1 0 0-2c-.922 0-1.42-.323-1.726-.753-.347-.485-.547-1.247-.547-2.247v-1c0-1.098-.067-2.328-.575-3.294a3.181 3.181 0 0 0-.5-.706c.201-.213.367-.451.5-.706.508-.966.575-2.196.575-3.294v-1c0-1 .2-1.762.547-2.247C11.58 8.323 12.078 8 13 8a1 1 0 1 0 0-2Z"
    fill="#000"
  /></svg>
