<svg width="32" height="32" fill="none" xmlns="http://www.w3.org/2000/svg"><g clip-path="url(#confluence__a)" fill="#000"><path d="m22.65 4.24-1.27-.19a1.705 1.705 0 0 1 1.27.19Z"/><path d="M27.76 9.18h-.01v.02c-.12.19-.25.39-.38.6-.1.16-.21.32-.31.48-2.1 3.25-4.6 5.04-7.49 5.56-.15.02-.29.03-.43.05.78.27 1.56.59 2.36.96 1.5.68 3 1.37 4.51 2.04.39.18.72.5.88.91.17.42.16.88-.03 1.29l-2.15 4.65c-.1.21-.24.39-.4.54-.17.15-.36.26-.57.34a1.796 1.796 0 0 1-1.29-.06l-4.52-2.03c-1.65-.75-2.69-1.09-3.48-1.03-.33.03-.65.12-1 .37s-.71.65-1.11 1.28c-.18.29-.35.55-.5.79-.05.1-.11.18-.16.27a1.753 1.753 0 0 1-1.05.75c-.22.05-.44.05-.65.02-.22-.03-.43-.1-.62-.22l-4.53-2.65c-.37-.22-.66-.58-.77-1.02-.11-.44-.04-.89.2-1.27h.01v-.03c.06-.09.16-.23.26-.39.15-.24.32-.51.44-.69 2.1-3.24 4.6-5.02 7.49-5.55.14-.02.28-.03.42-.05-.77-.27-1.56-.59-2.35-.95-1.69-.78-3.57-1.62-4.52-2.05-.39-.17-.72-.49-.88-.91-.08-.19-.12-.4-.12-.61 0-.23.05-.46.15-.68l2.15-4.65c.09-.2.23-.39.4-.54.16-.15.36-.26.57-.33a1.71 1.71 0 0 1 1.28.05l4.51 2.03c1.65.76 2.69 1.09 3.48 1.03.65-.05 1.31-.39 2.11-1.65h.01l.66-1.05c.12-.19.27-.36.45-.49.19-.12.39-.21.6-.26l1.27.19 4.53 2.65c.37.22.66.58.77 1.02.11.43.04.89-.19 1.27Z"/></g><defs><clipPath id="confluence__a"><path fill="#fff" transform="translate(4 4)" d="M0 0h24v23H0z"/></clipPath></defs></svg>