<svg width="32" height="32" viewBox="0 0 32 32" fill="none" xmlns="http://www.w3.org/2000/svg">
<path d="M21 20L23.5 27L26 20" stroke="black" stroke-width="2" stroke-linecap="round" stroke-linejoin="round"/>
<path d="M11 21C10.609 20.3986 10 20 9 20C7.067 20 6 21.567 6 23.5C6 25.433 7.067 27 9 27C10 27 10.7037 26.4812 11 26" stroke="black" stroke-width="2" stroke-linecap="round"/>
<path d="M18.01 20.45C17.0115 19.7553 14 19.6248 14 21.8374C14 24.288 18.5 22.6248 18.5 25.2074C18.5 27.1484 15.4962 27.766 14 26.5" stroke="black" stroke-width="2" stroke-linecap="round" stroke-linejoin="round"/>
<path d="M9 5H18L25 12V15H7V7C7 5.89543 7.89543 5 9 5Z" fill="black"/>
<path d="M18 5H9C7.89543 5 7 5.89543 7 7V15H25V12M18 5L25 12M18 5V12H25" stroke="black" stroke-width="2" stroke-linecap="round" stroke-linejoin="round"/>
<path d="M23.2929 10.2929L19.7071 6.70711C19.0771 6.07714 18 6.52331 18 7.41421V11C18 11.5523 18.4477 12 19 12H22.5858C23.4767 12 23.9229 10.9229 23.2929 10.2929Z" fill="white" stroke="black" stroke-width="2" stroke-linecap="round" stroke-linejoin="round"/>
</svg>
