<svg width="32" height="32" fill="none" xmlns="http://www.w3.org/2000/svg"><path d="M26 12.766V16a1 1 0 1 0 2 0V9.583c0-.98-.482-1.825-1.163-2.496-.677-.668-1.607-1.223-2.674-1.668C22.023 4.528 19.137 4 16 4c-3.137 0-6.023.528-8.163 1.42-1.067.444-1.997 1-2.674 1.667C4.48 7.757 4 8.602 4 9.583v12.834c0 .98.481 1.825 1.163 2.496.677.668 1.607 1.223 2.674 1.668C9.977 27.472 12.863 28 16 28a1 1 0 1 0 0-2c-2.938 0-5.552-.498-7.394-1.265-.923-.385-1.604-.818-2.04-1.247-.432-.425-.566-.787-.566-1.071v-3.234c.537.372 1.16.699 1.837.981 2.14.891 5.026 1.42 8.163 1.42a1 1 0 1 0 0-2c-2.938 0-5.552-.499-7.394-1.266-.923-.385-1.604-.817-2.04-1.246C6.134 16.646 6 16.285 6 16v-3.234c.537.372 1.16.699 1.837.981 2.14.892 5.026 1.42 8.163 1.42 3.137 0 6.023-.528 8.163-1.42a9.991 9.991 0 0 0 1.837-.98Z" fill="#000"/><path d="M23.5 18a1 1 0 0 0-.757.346l-3.5 4.053A1 1 0 0 0 20 24.053h2.5V27a1 1 0 1 0 2 0v-2.947H27a1 1 0 0 0 .757-1.654l-3.5-4.053A1 1 0 0 0 23.5 18Z" fill="#000"/></svg>