<svg width="32" height="32" fill="none" xmlns="http://www.w3.org/2000/svg"><path
    fill-rule="evenodd"
    clip-rule="evenodd"
    d="M26.837 7.087C27.518 7.757 28 8.602 28 9.583v12.834c0 .98-.482 1.825-1.163 2.496-.677.668-1.607 1.223-2.674 1.668C22.023 27.472 19.137 28 16 28c-3.137 0-6.023-.528-8.163-1.42-1.067-.444-1.997-1-2.674-1.667C4.48 24.243 4 23.398 4 22.417V9.583c0-.98.481-1.825 1.163-2.496.677-.668 1.607-1.223 2.674-1.668C9.977 4.528 12.863 4 16 4c3.137 0 6.023.528 8.163 1.42 1.067.444 1.997 1 2.674 1.667Zm-2.674 6.66a9.991 9.991 0 0 0 1.837-.98V16c0 .285-.134.646-.566 1.072-.436.429-1.117.861-2.04 1.246-1.842.767-4.455 1.265-7.394 1.265-2.938 0-5.552-.498-7.394-1.265-.923-.385-1.604-.817-2.04-1.246C6.134 16.646 6 16.285 6 16v-3.234c.537.372 1.16.699 1.837.981 2.14.892 5.026 1.42 8.163 1.42 3.137 0 6.023-.528 8.163-1.42Zm0 6.417c.678-.282 1.3-.61 1.837-.981v3.234c0 .284-.134.646-.566 1.071-.436.43-1.117.862-2.04 1.247C21.552 25.502 18.939 26 16 26c-2.938 0-5.552-.498-7.394-1.265-.923-.385-1.604-.818-2.04-1.247-.432-.425-.566-.787-.566-1.071v-3.234c.537.372 1.16.699 1.837.981 2.14.891 5.026 1.42 8.163 1.42 3.137 0 6.023-.529 8.163-1.42Z"
    fill="#000"
  /></svg>
