<svg width="32" height="32" fill="none" xmlns="http://www.w3.org/2000/svg"><path
    d="M26 16v-3.234a9.982 9.982 0 0 1-1.837.981c-2.14.892-5.026 1.42-8.163 1.42-3.137 0-6.023-.528-8.163-1.42A9.981 9.981 0 0 1 6 12.767V16c0 .285.134.646.566 1.072.436.429 1.117.861 2.04 1.246 1.842.767 4.456 1.265 7.394 1.265a1 1 0 1 1 0 2c-3.137 0-6.023-.527-8.163-1.419A9.981 9.981 0 0 1 6 19.183v3.234c0 .284.134.646.566 1.071.436.43 1.117.862 2.04 1.247C10.448 25.502 13.062 26 16 26a1 1 0 1 1 0 2c-3.137 0-6.023-.528-8.163-1.42-1.067-.444-1.997-1-2.674-1.667C4.48 24.243 4 23.398 4 22.417V9.583c0-.98.481-1.825 1.163-2.496.677-.668 1.607-1.223 2.674-1.668C9.977 4.528 12.863 4 16 4c3.137 0 6.023.528 8.163 1.42 1.067.444 1.997 1 2.674 1.667.681.67 1.163 1.515 1.163 2.496V16a1 1 0 1 1-2 0Z"
    fill="#000"
  /><path
    d="M19.71 21.36a.5.5 0 0 0-.805.14c-.97 2.055-.587 4.596 1.127 6.31a5.58 5.58 0 0 0 5.982 1.268l.768.768a.5.5 0 0 0 .707 0l2.357-2.357a.5.5 0 0 0 0-.707l-.768-.768a5.58 5.58 0 0 0-1.268-5.982 5.576 5.576 0 0 0-6.31-1.127.5.5 0 0 0-.14.806l2.788 2.787c.47.47.468 1.217.018 1.668a1.18 1.18 0 0 1-1.668-.018L19.71 21.36Z"
    fill="#000"
  /></svg>
