<svg width="32" height="32" fill="none" xmlns="http://www.w3.org/2000/svg"><path d="M2 16a4 4 0 0 0 4 4h5a1 1 0 1 0 0-2H6a2 2 0 0 1-2-2v-6a2 2 0 0 1 2-2h20a2 2 0 0 1 2 2v6a2 2 0 0 1-2 2h-5a1 1 0 1 0 0 2h5a4 4 0 0 0 4-4v-6a4 4 0 0 0-4-4H6a4 4 0 0 0-4 4v6Z" fill="#000"/><path d="M8 13a1 1 0 0 1 1-1h8a1 1 0 1 1 0 2H9a1 1 0 0 1-1-1Zm14.5 1.5a1.5 1.5 0 1 0 0-3 1.5 1.5 0 0 0 0 3Zm-5.777 15.191a1 1 0 0 1-1.446 0l-3-3.136A1 1 0 0 1 13 24.864h2V19a1 1 0 1 1 2 0v5.864h2a1 1 0 0 1 .723 1.691l-3 3.136Z" fill="#000"/></svg>