<svg width="32" height="32" fill="none" xmlns="http://www.w3.org/2000/svg"><path d="M16.723 2.309a1 1 0 0 0-1.446 0l-3 3.136A1 1 0 0 0 13 7.136h2V13a1 1 0 1 0 2 0V7.136h2a1 1 0 0 0 .723-1.691l-3-3.136Z" fill="#000"/><path d="M2 16a4 4 0 0 1 4-4h5a1 1 0 1 1 0 2H6a2 2 0 0 0-2 2v6a2 2 0 0 0 2 2h20a2 2 0 0 0 2-2v-6a2 2 0 0 0-2-2h-5a1 1 0 1 1 0-2h5a4 4 0 0 1 4 4v6a4 4 0 0 1-4 4H6a4 4 0 0 1-4-4v-6Z" fill="#000"/><path d="M8 19a1 1 0 0 1 1-1h8a1 1 0 1 1 0 2H9a1 1 0 0 1-1-1Zm14.5 1.5a1.5 1.5 0 1 0 0-3 1.5 1.5 0 0 0 0 3Z" fill="#000"/></svg>