<svg width="32" height="32" fill="none" xmlns="http://www.w3.org/2000/svg"><path
    d="M16 3.5a2.5 2.5 0 1 0 0 5 2.5 2.5 0 0 0 0-5Zm-5 5a2.5 2.5 0 1 0 0 5 2.5 2.5 0 0 0 0-5Zm0 10a2.5 2.5 0 1 0 0 5 2.5 2.5 0 0 0 0-5Zm10-10a2.5 2.5 0 1 0 0 5 2.5 2.5 0 0 0 0-5Zm-5 5a2.5 2.5 0 1 0 0 5 2.5 2.5 0 0 0 0-5Zm5 5a2.5 2.5 0 1 0 0 5 2.5 2.5 0 0 0 0-5Zm5-5a2.5 2.5 0 1 0 0 5 2.5 2.5 0 0 0 0-5Zm-10 10a2.5 2.5 0 1 0 0 5 2.5 2.5 0 0 0 0-5Zm-10-10a2.5 2.5 0 1 0 0 5 2.5 2.5 0 0 0 0-5Z"
    fill="#000"
  /></svg>
