<svg width="32" height="32" viewBox="0 0 32 32" fill="none" xmlns="http://www.w3.org/2000/svg">
<path d="M5 9.58333C5 7.05203 9.92487 5 16 5C16.683 5 17.3514 5.02594 18 5.07557M5 9.58333V22.4167C5 24.948 9.92487 27 16 27C22.0751 27 27 24.948 27 22.4167V21V18M5 9.58333C5 11.8301 8.87976 13.6992 14 14.0911M5 16C5 18.5313 9.92487 20.5833 16 20.5833C16.683 20.5833 17.3514 20.5574 18 20.5078" stroke="black" stroke-width="2" stroke-linecap="round"/>
<path d="M18 14L22.7368 5V10H27L21.7895 19V14H18Z" fill="black" stroke="black" stroke-width="2" stroke-linecap="round" stroke-linejoin="round"/>
</svg>
