<svg width="32" height="32" fill="none" xmlns="http://www.w3.org/2000/svg"><path d="M26.55 11.89a.98.98 0 0 0 .97-.04c.3-.18.48-.5.48-.85V7.8c0-.26-.1-.51-.28-.7l-1.99-2.02c-.15-.15-.32-.28-.51-.38l-4.89-2.48c-.28-.14-.59-.22-.9-.22h-6.86c-.31 0-.62.08-.9.22L6.79 4.7c-.2.1-.37.23-.52.38L4.29 7.1c-.19.19-.29.44-.29.7V11c0 .35.18.67.48.85.3.18.67.2.97.04l.55-.28v.92l-1.37.54A1 1 0 0 0 4 14v4a1 1 0 0 0 .63.93l1.37.55v.9l-.54-.27c-.32-.16-.68-.14-.98.04-.3.18-.48.5-.48.85v3.2c0 .26.1.51.29.7l1.98 2.02c.15.15.32.28.52.38l4.88 2.48c.28.15.59.22.9.22h6.86c.31 0 .63-.07.91-.22l4.88-2.48c.19-.1.36-.23.52-.38l1.98-2.02c.18-.19.28-.44.28-.7V21c0-.35-.18-.67-.48-.85a.986.986 0 0 0-.97-.04l-.55.28v-.91l1.37-.55A1 1 0 0 0 28 18v-4a1 1 0 0 0-.63-.93L26 12.52v-.91l.55.28ZM24 21.23l-4.43.9h-7.13L8 21.23v-1.11l4.21.84c.13.03.26.04.39.04h6.8c.13 0 .26-.01.4-.04l4.2-.84v1.11Zm0-9.35-4.21-.84c-.13-.03-.26-.04-.39-.04h-6.8c-.13 0-.26.01-.39.04L8 11.88v-1.11l3.8-.77.64-.13h7.13l.64.13 3.79.77v1.11Z" fill="#000"/></svg>