<svg width="32" height="32" fill="none" xmlns="http://www.w3.org/2000/svg"><path d="M6.293 11.206a4.08 4.08 0 0 0-.488 8.078.468.468 0 0 0 .413-.131l4.648-4.554a.5.5 0 0 0 .098-.58l-.685-1.37a.5.5 0 0 0-.29-.251l-3.498-1.166a.5.5 0 0 0-.159-.026h-.039Zm.544 12.577c-.08-.938.054-1.88.39-2.758a.48.48 0 0 1 .113-.171l5.008-4.907a.5.5 0 0 1 .536-.107l5.75 2.3a.5.5 0 0 1 .279.279l1.023 2.558a.5.5 0 0 1 .017.323l-1.278 4.473a.48.48 0 0 1-.028.074c-.968 2.04-2.91 3.514-5.208 3.656a6.257 6.257 0 0 1-6.602-5.72Zm15.67 2.829c-.533 0-1.081-.204-1.537-.53a.455.455 0 0 1-.16-.5l.84-2.94a.5.5 0 0 1 .562-.355l2.274.379a.482.482 0 0 1 .366.282c.21.491.284.828.284 1.035a2.629 2.629 0 0 1-2.629 2.629Zm6.983-9.886c0 2.058-1.82 3.869-3.97 4.07a.47.47 0 0 1-.121-.006l-3.348-.558a.5.5 0 0 1-.382-.307l-.77-1.926a.5.5 0 0 1 .11-.539l4.614-4.614a.469.469 0 0 1 .413-.135c1.937.35 3.454 2.04 3.454 4.015Zm-4.354-7.983c0 .74-.218 1.482-.531 2.241a.494.494 0 0 1-.107.16l-4.902 4.9a.5.5 0 0 1-.539.112l-5.81-2.324a.5.5 0 0 1-.26-.24l-.949-1.897A.5.5 0 0 1 12 11.35l1.273-5.092a.488.488 0 0 1 .032-.09c.943-1.992 2.815-3.445 5.043-3.647a5.91 5.91 0 0 1 .533-.024 1 1 0 0 0 .1-.005.634.634 0 0 1 .082-.004 6.257 6.257 0 0 1 6.073 6.255ZM9.447 5.4c.542 0 1.1.21 1.56.545.15.11.207.303.162.484l-.85 3.403a.5.5 0 0 1-.644.353l-2.32-.774a.454.454 0 0 1-.269-.226A2.629 2.629 0 0 1 9.446 5.4Z" fill="#000"/></svg>