<svg width="32" height="32" fill="none" xmlns="http://www.w3.org/2000/svg"><path fill-rule="evenodd" clip-rule="evenodd" d="M18.371 5.168a3.988 3.988 0 0 1 5.64 0l2.82 2.82a3.988 3.988 0 0 1 0 5.641L13.63 26.832a3.988 3.988 0 0 1-5.64 0l-2.82-2.82a3.988 3.988 0 0 1 0-5.641l13.2-13.203Zm-3.746 17.848-5.641-5.64-2.406 2.405a1.994 1.994 0 0 0 0 2.82l2.82 2.82a1.994 1.994 0 0 0 2.82 0l2.407-2.405Z" fill="#000"/><path d="M17.994 25.972a.997.997 0 1 0 0 1.994h8.974a.997.997 0 1 0 0-1.994h-8.974Z" fill="#000"/></svg>