<svg width="32" height="32" fill="none" xmlns="http://www.w3.org/2000/svg"><path
    fill-rule="evenodd"
    clip-rule="evenodd"
    d="M12.75 6.058c1.422-2.744 5.078-2.744 6.5 0l8.27 15.953C28.91 24.693 27.116 28 24.27 28H7.73c-2.846 0-4.64-3.307-3.25-5.99l8.27-15.952Zm6.957 9.235a1 1 0 0 1 0 1.414L17.414 19l2.293 2.293a1 1 0 0 1-1.414 1.414L16 20.414l-2.293 2.293a1 1 0 0 1-1.414-1.414L14.586 19l-2.293-2.293a1 1 0 0 1 1.414-1.414L16 17.586l2.293-2.293a1 1 0 0 1 1.414 0Z"
    fill="#000"
  /></svg>
