<svg width="32" height="32" fill="none" xmlns="http://www.w3.org/2000/svg"><path fill-rule="evenodd" clip-rule="evenodd" d="M22.637 4.261A4 4 0 0 0 19.81 3.09h-7.45a4 4 0 0 0-2.83 1.17L4.262 9.53a4 4 0 0 0-1.172 2.828v7.45a4 4 0 0 0 1.172 2.83l5.268 5.268a4 4 0 0 0 2.828 1.171h7.451a4 4 0 0 0 2.828-1.171l5.269-5.269a4 4 0 0 0 1.172-2.828v-7.45a4 4 0 0 0-1.172-2.83l-5.268-5.268Zm-2.43 7.532a1 1 0 0 1 0 1.414L17.414 16l2.793 2.793a1 1 0 0 1-1.414 1.414L16 17.414l-2.793 2.793a1 1 0 0 1-1.414-1.414L14.586 16l-2.793-2.793a1 1 0 0 1 1.414-1.414L16 14.586l2.793-2.793a1 1 0 0 1 1.414 0Z" fill="#000"/></svg>