<svg width="32" height="32" fill="none" xmlns="http://www.w3.org/2000/svg"><path
    fill-rule="evenodd"
    clip-rule="evenodd"
    d="M18.179 4.016a1 1 0 0 1 .805 1.163l-4 22a1 1 0 1 1-1.968-.358l.198-1.087c-2.36-.477-4.197-1.558-5.68-2.962-1.978-1.873-3.296-4.299-4.42-6.435a1 1 0 0 1 .02-.966l.136-.237c1.11-1.926 2.405-4.17 4.291-5.935C9.571 7.321 12.231 6 16 6c.272 0 .538.008.798.021l.218-1.199a1 1 0 0 1 1.163-.805Zm-2.286 6.985-1.754 9.641a5.002 5.002 0 0 1 1.754-9.64Z"
    fill="#000"
  /><path
    d="M18.091 21a1.13 1.13 0 0 1 .535-.744 4.997 4.997 0 0 0 1.33-7.313 1.127 1.127 0 0 1-.24-.885L20.455 8c.113-.617.76-.981 1.317-.695A11.794 11.794 0 0 1 24.44 9.2c1.886 1.763 3.18 4.008 4.29 5.935l.137.236a1 1 0 0 1 .02.966c-1.124 2.137-2.442 4.562-4.42 6.436-1.546 1.464-3.478 2.577-5.988 3.02-.646.113-1.173-.47-1.056-1.116L18.091 21Z"
    fill="#000"
  /></svg>
