<svg width="32" height="32" fill="none" xmlns="http://www.w3.org/2000/svg"><path
    fill-rule="evenodd"
    clip-rule="evenodd"
    d="M7.561 9.2C9.571 7.32 12.231 6 16 6s6.43 1.321 8.439 3.2c1.887 1.763 3.18 4.008 4.29 5.934l.137.237a1 1 0 0 1 .02.966c-1.124 2.136-2.442 4.562-4.42 6.436C22.446 24.686 19.766 26 16 26c-3.767 0-6.445-1.314-8.466-3.227-1.978-1.874-3.296-4.3-4.42-6.436a1 1 0 0 1 .02-.966l.136-.237c1.11-1.926 2.405-4.17 4.291-5.935ZM16 21a5 5 0 1 0 0-10 5 5 0 0 0 0 10Z"
    fill="#000"
  /></svg>
