<svg width="32" height="32" fill="none" xmlns="http://www.w3.org/2000/svg"><path
    d="M21 10a2 2 0 0 1-2 2h-2V8h2a2 2 0 0 1 2 2Zm-6 4v4h-2a2 2 0 1 1 0-4h2Zm4 0a2 2 0 1 0 0 4 2 2 0 0 0 0-4Zm-4-6h-2a2 2 0 1 0 0 4h2V8Zm0 12h-2a2 2 0 1 0 2 2v-2Z"
    fill="#000"
  /><path
    fill-rule="evenodd"
    clip-rule="evenodd"
    d="M8 4a4 4 0 0 0-4 4v16a4 4 0 0 0 4 4h16a4 4 0 0 0 4-4V8a4 4 0 0 0-4-4H8Zm1 6a4 4 0 0 1 4-4h6a4 4 0 0 1 2.646 7A4 4 0 0 1 17 19.465V22a4 4 0 1 1-6.646-3A3.99 3.99 0 0 1 9 16a3.99 3.99 0 0 1 1.354-3A3.99 3.99 0 0 1 9 10Z"
    fill="#000"
  /></svg>
