<svg width="32" height="32" fill="none" xmlns="http://www.w3.org/2000/svg"><path d="M9 4h8.5v7.5a1 1 0 0 0 1 1H26V15a1 1 0 0 1-1 1H7a1 1 0 0 1-1-1V7a3 3 0 0 1 3-3Z" fill="#000"/><path d="m19.5 5.086 5.414 5.414H19.5V5.086ZM17.581 19.63c-.407-.284-.934-.461-1.443-.552a4.864 4.864 0 0 0-1.684-.009c-.566.101-1.18.334-1.663.802-.507.49-.791 1.163-.791 1.966 0 .466.11.9.349 1.278.236.373.557.625.877.799.554.3 1.24.43 1.743.523l.095.018c.605.115.985.202 1.23.345a.4.4 0 0 1 .154.133c.016.028.052.102.052.274 0 .334-.24.703-.936.88-.694.177-1.467.031-1.918-.35a1 1 0 0 0-1.292 1.526c1.045.885 2.522 1.063 3.704.762 1.18-.3 2.442-1.21 2.442-2.818 0-.473-.105-.912-.334-1.297a2.384 2.384 0 0 0-.866-.838c-.582-.339-1.303-.475-1.82-.573l-.044-.009c-.617-.117-1.001-.196-1.256-.334-.102-.056-.132-.096-.142-.111-.007-.011-.038-.06-.038-.208 0-.302.093-.443.181-.529.113-.108.314-.214.626-.27a2.87 2.87 0 0 1 .98.009c.336.06.56.16.652.224a1 1 0 0 0 1.142-1.642ZM9.5 19a1 1 0 0 1 1 1v4.75A3.25 3.25 0 0 1 7.25 28H7a3 3 0 0 1-3-3 1 1 0 1 1 2 0 1 1 0 0 0 1 1h.25c.69 0 1.25-.56 1.25-1.25V20a1 1 0 0 1 1-1Zm12.314.419a1 1 0 1 0-1.628 1.162l2.085 2.919-2.085 2.919a1 1 0 1 0 1.628 1.162l1.686-2.36 1.686 2.36a1 1 0 1 0 1.628-1.162L24.729 23.5l2.085-2.919a1 1 0 1 0-1.628-1.162l-1.686 2.36-1.686-2.36Z" fill="#000"/></svg>