<svg width="32" height="32" fill="none" xmlns="http://www.w3.org/2000/svg"><path
    d="M9 4h8.5v7.5a1 1 0 0 0 1 1H26V15a1 1 0 0 1-1 1H7a1 1 0 0 1-1-1V7a3 3 0 0 1 3-3Z"
    fill="#000"
  /><path
    d="m19.5 5.086 5.414 5.414H19.5V5.086ZM10.5 20a1 1 0 1 0-2 0v4.75c0 .69-.56 1.25-1.25 1.25H7a1 1 0 0 1-1-1 1 1 0 1 0-2 0 3 3 0 0 0 3 3h.25a3.25 3.25 0 0 0 3.25-3.25V20ZM22 23.5c0-.793.22-1.431.555-1.849.316-.394.778-.651 1.445-.651.327 0 .55.08.678.144a.847.847 0 0 1 .128.078l.01.007a1 1 0 0 0 1.391-1.436l-.693.693.693-.693-.001-.002-.002-.001-.003-.003-.007-.007-.016-.015a1.764 1.764 0 0 0-.172-.143 2.847 2.847 0 0 0-.434-.266A3.493 3.493 0 0 0 24 19c-1.266 0-2.304.526-3.005 1.4-.681.848-.995 1.96-.995 3.1 0 1.14.314 2.252.995 3.1.701.874 1.74 1.4 3.005 1.4 1.35 0 2.375-.702 2.852-1.476A1 1 0 0 0 27 26v-2a1 1 0 0 0-1-1h-1a1 1 0 1 0 0 2v.648c-.19.17-.523.352-1 .352-.667 0-1.129-.257-1.445-.651C22.22 24.93 22 24.293 22 23.5Z"
    fill="#000"
  /><path
    fill-rule="evenodd"
    clip-rule="evenodd"
    d="M12 20a1 1 0 0 1 1-1h3a3 3 0 1 1 0 6h-2v2a1 1 0 1 1-2 0v-7Zm2 3h2a1 1 0 1 0 0-2h-2v2Z"
    fill="#000"
  /></svg>
