<svg width="32" height="32" fill="none" xmlns="http://www.w3.org/2000/svg"><path d="M9 4.5h8.5V12a1 1 0 0 0 1 1H26v2.5a1 1 0 0 1-1 1H7a1 1 0 0 1-1-1v-8a3 3 0 0 1 3-3Z" fill="#000"/><path d="M19.5 5.586 24.914 11H19.5V5.586ZM10.581 19.63c-.407-.284-.934-.461-1.443-.552a4.865 4.865 0 0 0-1.684-.009c-.566.101-1.18.334-1.663.802-.507.49-.791 1.163-.791 1.966 0 .466.11.9.349 1.278.236.373.557.625.877.799.554.3 1.24.43 1.743.523l.095.018c.605.115.984.202 1.23.345a.4.4 0 0 1 .154.133c.016.028.052.102.052.274 0 .334-.24.703-.936.88-.694.177-1.467.031-1.918-.35a1 1 0 0 0-1.292 1.526c1.045.885 2.522 1.063 3.704.762 1.18-.3 2.442-1.21 2.442-2.818 0-.473-.105-.912-.334-1.297a2.384 2.384 0 0 0-.866-.838c-.582-.339-1.303-.475-1.82-.573l-.044-.009c-.617-.117-1.001-.196-1.256-.334-.102-.056-.132-.096-.142-.111-.007-.011-.038-.06-.038-.208 0-.302.093-.443.181-.529.113-.108.314-.214.626-.27a2.87 2.87 0 0 1 .98.009c.336.06.56.16.652.224a1 1 0 0 0 1.142-1.642ZM22 19a1 1 0 1 0 0 2h1.5v6a1 1 0 1 0 2 0v-6H27a1 1 0 1 0 0-2h-5Z" fill="#000"/><path fill-rule="evenodd" clip-rule="evenodd" d="M13 20a1 1 0 0 1 1-1h3a3 3 0 0 1 1.572 5.555l1.26 1.89a1 1 0 0 1-1.664 1.11L16.465 25H15v2a1 1 0 1 1-2 0v-7Zm2 3h2a1 1 0 1 0 0-2h-2v2Z" fill="#000"/></svg>