<svg width="32" height="32" fill="none" xmlns="http://www.w3.org/2000/svg"><path d="M9 4h8.5v7.5a1 1 0 0 0 1 1H26V15a1 1 0 0 1-1 1H7a1 1 0 0 1-1-1V7a3 3 0 0 1 3-3Z" fill="#000"/><path d="m19.5 5.086 5.414 5.414H19.5V5.086Zm5.004 14.046a1 1 0 0 1 1.364.372L27 21.484l1.132-1.98a1 1 0 1 1 1.736.992L28.152 23.5l1.716 3.004a1 1 0 1 1-1.736.992L27 25.516l-1.132 1.98a1 1 0 1 1-1.736-.992l1.716-3.004-1.716-3.004a1 1 0 0 1 .372-1.364Zm-5.042 2.433c-.275.427-.462 1.098-.462 1.935s.187 1.508.462 1.935c.254.395.56.565.938.565a.8.8 0 0 0 .703-.442 1 1 0 0 1 1.794.884C22.532 27.182 21.664 28 20.4 28c-1.168 0-2.062-.614-2.621-1.485-.54-.84-.779-1.919-.779-3.015s.24-2.175.779-3.015C18.338 19.614 19.232 19 20.4 19c.576 0 1.096.147 1.54.444.435.291.735.687.947 1.095a1 1 0 0 1-1.774.922c-.101-.194-.2-.298-.287-.356-.078-.052-.201-.105-.426-.105-.378 0-.684.17-.938.565Z" fill="#000"/><path fill-rule="evenodd" clip-rule="evenodd" d="M3 19a1 1 0 0 0-1 1v7a1 1 0 0 0 1 1h1.2C6.495 28 8 25.765 8 23.5S6.495 19 4.2 19H3Zm1 7v-5h.2c.797 0 1.8.9 1.8 2.5S4.997 26 4.2 26H4Zm6.228-6.004c.722-.729 1.61-.996 2.272-.996.662 0 1.55.267 2.272.996.744.749 1.228 1.897 1.228 3.504s-.484 2.755-1.228 3.504c-.722.729-1.61.996-2.272.996-.662 0-1.55-.267-2.272-.996C9.484 26.255 9 25.107 9 23.5s.484-2.755 1.228-3.504Zm1.42 1.408c-.3.301-.648.903-.648 2.096s.349 1.795.647 2.096c.32.321.682.404.853.404.17 0 .534-.083.853-.404.298-.301.647-.903.647-2.096s-.349-1.795-.647-2.096c-.32-.321-.682-.404-.853-.404-.17 0-.534.083-.853.404Z" fill="#000"/></svg>