<svg width="32" height="32" fill="none" xmlns="http://www.w3.org/2000/svg"><path
    d="M9 4.5h8.5V12a1 1 0 0 0 1 1H26v2.5a1 1 0 0 1-1 1H7a1 1 0 0 1-1-1v-8a3 3 0 0 1 3-3Z"
    fill="#000"
  /><path d="M19.5 5.586 24.914 11H19.5V5.586Z" fill="#000" /><path
    fill-rule="evenodd"
    clip-rule="evenodd"
    d="M5 20a1 1 0 0 1 1-1h3a3 3 0 1 1 0 6H7v2a1 1 0 1 1-2 0v-7Zm2 3h2a1 1 0 1 0 0-2H7v2Zm7-4a1 1 0 0 0-1 1v7a1 1 0 0 0 1 1h2a4.5 4.5 0 1 0 0-9h-2Zm1 7v-5h1a2.5 2.5 0 0 1 0 5h-1Z"
    fill="#000"
  /><path
    d="M23 19a1 1 0 0 0-1 1v7a1 1 0 1 0 2 0v-2h2a1 1 0 1 0 0-2h-2v-2h3a1 1 0 1 0 0-2h-4Z"
    fill="#000"
  /></svg>
