<svg width="32" height="32" fill="none" xmlns="http://www.w3.org/2000/svg"><path
    d="M9 4.5h8.5V12a1 1 0 0 0 1 1H26v2.5a1 1 0 0 1-1 1H7a1 1 0 0 1-1-1v-8a3 3 0 0 1 3-3Z"
    fill="#000"
  /><path
    d="M19.5 5.586 24.914 11H19.5V5.586Zm-4.632 13.918a1 1 0 1 0-1.736.992l1.716 3.004-1.716 3.004a1 1 0 1 0 1.736.992L16 25.516l1.132 1.98a1 1 0 1 0 1.736-.992L17.152 23.5l1.716-3.004a1 1 0 1 0-1.736-.992L16 21.484l-1.132-1.98ZM6 19a1 1 0 1 0 0 2h1.5v6a1 1 0 1 0 2 0v-6H11a1 1 0 1 0 0-2H6Zm14 1a1 1 0 0 1 1-1h5a1 1 0 1 1 0 2h-1.5v6a1 1 0 1 1-2 0v-6H21a1 1 0 0 1-1-1Z"
    fill="#000"
  /></svg>
