<svg width="32" height="32" fill="none" xmlns="http://www.w3.org/2000/svg"><path
    d="M9 4h8.5v7.5a1 1 0 0 0 1 1H26V15a1 1 0 0 1-1 1H7a1 1 0 0 1-1-1V7a3 3 0 0 1 3-3Z"
    fill="#000"
  /><path
    d="m19.5 5.086 5.414 5.414H19.5V5.086Zm1.638 13.992c.509.09 1.036.268 1.443.551a1 1 0 1 1-1.142 1.642c-.092-.064-.316-.164-.652-.224a2.87 2.87 0 0 0-.98-.01c-.312.057-.513.163-.626.271-.088.086-.181.227-.181.53 0 .146.031.196.038.206.01.016.04.056.142.112.255.138.639.217 1.256.334l.044.009c.517.098 1.238.234 1.82.573.323.188.637.455.866.838.23.385.334.824.334 1.297 0 1.607-1.262 2.518-2.442 2.818-1.182.301-2.659.123-3.704-.762a1 1 0 0 1 1.292-1.526c.451.381 1.224.527 1.918.35.697-.177.936-.546.936-.88 0-.172-.036-.246-.052-.274a.4.4 0 0 0-.154-.133c-.245-.143-.625-.23-1.23-.345l-.095-.017c-.503-.095-1.19-.224-1.743-.524a2.338 2.338 0 0 1-.877-.799A2.347 2.347 0 0 1 17 21.838c0-.804.284-1.477.791-1.967.483-.468 1.097-.7 1.663-.802a4.864 4.864 0 0 1 1.684.01ZM9 20a1 1 0 0 1 1-1h5a1 1 0 1 1 0 2h-1.5v6a1 1 0 1 1-2 0v-6H10a1 1 0 0 1-1-1Z"
    fill="#000"
  /></svg>
