<svg width="32" height="32" fill="none" xmlns="http://www.w3.org/2000/svg"><path
    fill-rule="evenodd"
    clip-rule="evenodd"
    d="M17.137 2.396a1.913 1.913 0 0 0-2.284-.035c-1.073.767-3.487 2.584-5.75 4.936-2.23 2.318-4.47 5.314-4.94 8.445C2.86 24.405 9.555 30 15.989 30h.023c6.413-.013 13.213-5.612 11.802-14.27-.476-2.92-2.727-5.89-4.947-8.23-2.26-2.383-4.67-4.297-5.73-5.104Zm-1.143 25.589c3.225 0 6.619-2.772 5.912-7.053-.384-2.328-3.24-4.932-4.838-6.228a1.733 1.733 0 0 0-2.17-.03c-1.6 1.238-4.433 3.748-4.815 6.258-.654 4.29 2.687 7.053 5.911 7.053Z"
    fill="#000"
  /></svg>
