<svg width="32" height="32" fill="none" xmlns="http://www.w3.org/2000/svg"><path fill-rule="evenodd" clip-rule="evenodd" d="M14.82 4.23c-.994.403-2.816 1.284-4.09 2.817a8.778 8.778 0 0 0-2.418-1.526c-1.161-.485-2.294-.171-3.086.536C4.46 6.742 4 7.792 4 8.897v7.037C4 22.599 9.373 28 16 28h.003C22.63 27.998 28 22.597 28 15.934V8.896c0-1.104-.46-2.154-1.226-2.839-.792-.707-1.925-1.021-3.086-.536a8.78 8.78 0 0 0-2.419 1.526c-1.272-1.533-3.095-2.414-4.09-2.816a3.13 3.13 0 0 0-2.358 0Zm.152 21.707a47.53 47.53 0 0 0-.095-1.603c-.124-1.633-.371-3.837-.864-6.137-.493-2.307-1.224-4.667-2.295-6.634-1.073-1.97-2.44-3.462-4.172-4.185-.369-.154-.7-.077-.991.182C6.239 7.842 6 8.334 6 8.896v7.038c0 5.205 3.932 9.485 8.972 10.003Zm2.056 0C22.068 25.419 26 21.138 26 15.934V8.896c0-.562-.24-1.054-.555-1.336-.29-.26-.622-.336-.99-.182-1.733.723-3.1 2.216-4.173 4.185-1.071 1.967-1.802 4.327-2.296 6.633-.492 2.3-.739 4.505-.863 6.138a47.53 47.53 0 0 0-.095 1.603Z" fill="#000"/></svg>