<svg width="32" height="32" fill="none" xmlns="http://www.w3.org/2000/svg"><path fill-rule="evenodd" clip-rule="evenodd" d="M23.868 4.342a1 1 0 0 1 .227.854c-.18.901-.58 2.274-1.151 3.54-.224.497-.482.995-.773 1.448 1.497.373 2.791 1.341 3.379 3.086.042.126.08.254.114.384.795 3.078.064 5.467-1.005 8.152-.424 1.063-1.03 2.251-1.63 3.336-1.292 2.34-3.918 3.311-6.324 2.659a2.715 2.715 0 0 0-1.41 0c-2.406.652-5.032-.32-6.325-2.659-.6-1.085-1.206-2.273-1.629-3.336-1.07-2.685-1.8-5.074-1.006-8.152.034-.13.072-.258.115-.384.646-1.92 2.149-2.9 3.834-3.18 1.4-.234 2.941.004 4.341.525a13.014 13.014 0 0 0-.533-1.132C13.611 8.579 13.028 7.77 12.4 7.3a1 1 0 1 1 1.2-1.6c.878.659 1.575 1.627 2.097 2.55a5.052 5.052 0 0 1 .789-1.517c1.136-1.497 3.205-2.521 6.566-2.731a1 1 0 0 1 .816.34Zm-3.563 5.03c-.256.353-.485.57-.669.686a9.852 9.852 0 0 0-2.182.528c-.094-.882.02-1.848.625-2.644.544-.717 1.609-1.456 3.704-1.793-.175.564-.399 1.18-.663 1.765a8.412 8.412 0 0 1-.815 1.458Z" fill="#000"/></svg>