<svg width="32" height="32" fill="none" xmlns="http://www.w3.org/2000/svg"><path fill-rule="evenodd" clip-rule="evenodd" d="M8 4a4 4 0 0 0-4 4v16a4 4 0 0 0 4 4h16a4 4 0 0 0 4-4V8a4 4 0 0 0-4-4H8Zm9.749 4.814c-.94 0-1.749.66-1.937 1.58l-.18.885h1.92a1 1 0 1 1 0 2h-2.33l-1.785 8.727a3.977 3.977 0 0 1-3.896 3.18H8.25a1 1 0 1 1 0-2h1.291c.94 0 1.749-.66 1.937-1.58l1.703-8.327h-1.582a1 1 0 1 1 0-2h1.99l.264-1.285a3.977 3.977 0 0 1 3.896-3.18h1.291a1 1 0 1 1 0 2h-1.29Zm-.94 6.93a1 1 0 1 0 0 2h.801c.18 0 .345.1.43.257l1.324 2.463-1.159 1.931c-.294.49-.824.791-1.396.791a1 1 0 1 0 0 2 3.628 3.628 0 0 0 3.111-1.762l.546-.91.732 1.362a2.488 2.488 0 0 0 2.192 1.31h.86a1 1 0 1 0 0-2h-.86a.488.488 0 0 1-.43-.257l-1.296-2.41 1.19-1.984c.294-.49.824-.79 1.396-.79a1 1 0 1 0 0-2 3.629 3.629 0 0 0-3.111 1.761l-.577.962-.76-1.413a2.488 2.488 0 0 0-2.192-1.31h-.802Z" fill="#000"/></svg>