<svg width="32" height="32" viewBox="0 0 32 32" fill="none" xmlns="http://www.w3.org/2000/svg">
<path d="M10.5 20.5C10.5 20.5 10 20 9 20C7.067 20 6 21.567 6 23.5C6 25.433 7.067 27 9 27C10 27 10.7037 26.4812 11 26V24H10" stroke="#110000" stroke-width="2" stroke-linecap="round" stroke-linejoin="round"/>
<path d="M18.5 20H14V27H18.5M14 23.5H17.5" stroke="black" stroke-width="1.8" stroke-linecap="round" stroke-linejoin="round"/>
<path d="M23.5 27V20M21 20H26" stroke="black" stroke-width="2" stroke-linecap="round" stroke-linejoin="round"/>
<path d="M11.477 12.477C9.87175 10.8718 9.61919 8.39304 10.6667 6.33333L13.5196 9.18628C14.1962 9.86283 15.3416 9.81433 16.078 9.07795C16.8143 8.34157 16.8628 7.19616 16.1863 6.51961L13.3333 3.66667C15.393 2.61919 17.8718 2.87175 19.477 4.477C21.0464 6.04639 21.3228 8.45065 20.3556 10.482L22.2076 12.1112L19.1112 15.2076L17.482 13.3556C15.4506 14.3228 13.0464 14.0464 11.477 12.477Z" fill="black" stroke="black" stroke-linecap="round" stroke-linejoin="round"/>
</svg>
