<svg width="32" height="32" viewBox="0 0 32 32" fill="none" xmlns="http://www.w3.org/2000/svg">
<path d="M8 9H9.94897C11.5049 9 12.9197 9.90227 13.5758 11.3131L17.5 19.75" stroke="black" stroke-width="2" stroke-linecap="round" stroke-linejoin="round"/>
<path d="M22 9V9C20.2543 9 18.6278 9.88553 17.6804 11.3518L12.3196 19.6482C11.3722 21.1145 9.74569 22 8 22V22" stroke="black" stroke-width="2" stroke-linecap="round" stroke-linejoin="round"/>
<path d="M22.7432 27.6536C22.9331 27.8736 23.2094 28 23.5 28C23.7906 28 24.0669 27.8736 24.2568 27.6536L27.7569 23.6008C28.0125 23.3047 28.0721 22.8868 27.9093 22.531C27.7465 22.1753 27.3912 21.9472 27 21.9472L24.5 21.9472V19C24.5 18.4477 24.0523 18 23.5 18C22.9477 18 22.5 18.4477 22.5 19L22.5 21.9472L20 21.9472C19.6088 21.9472 19.2535 22.1753 19.0907 22.531C18.9279 22.8868 18.9875 23.3047 19.2432 23.6008L22.7432 27.6536Z" fill="black"/>
</svg>
