<svg width="32" height="32" fill="none" xmlns="http://www.w3.org/2000/svg"><path
    d="M20 4a1 1 0 0 0-1.707-.707l-4 4a1 1 0 0 0 0 1.414l4 4A1 1 0 0 0 20 12V9h1a2 2 0 0 1 2 2v9.126A4.002 4.002 0 0 0 24 28a4 4 0 0 0 1-7.874V11a4 4 0 0 0-4-4h-1V4ZM9 20c0 .042-.003.083-.008.124A4.002 4.002 0 0 1 8 28a4 4 0 0 1-.992-7.876A1.011 1.011 0 0 1 7 20v-5a1 1 0 1 1 2 0v5ZM5.707 4.293a1 1 0 0 0-1.414 1.414L6.586 8l-2.293 2.293a1 1 0 1 0 1.414 1.414L8 9.414l2.293 2.293a1 1 0 0 0 1.414-1.414L9.414 8l2.293-2.293a1 1 0 0 0-1.414-1.414L8 6.586 5.707 4.293Z"
    fill="#000"
  /></svg>
