<svg width="32" height="32" fill="none" xmlns="http://www.w3.org/2000/svg"><path
    fill-rule="evenodd"
    clip-rule="evenodd"
    d="m19.535 3.707 8.758 8.757a5 5 0 0 1 0 7.072l-8.758 8.757a5 5 0 0 1-7.07 0l-8.758-8.757a5 5 0 0 1 0-7.072L9.672 6.5a1 1 0 0 1 1.414 0l2.206 2.207A3.001 3.001 0 0 0 15 12.83v5.34a3.001 3.001 0 1 0 2 0v-5.34c.1-.036.198-.077.293-.122l2 1.999a3 3 0 1 0 1.414-1.414l-2-2a3 3 0 0 0-4.001-4.001L12.465 5.05a.95.95 0 0 1 0-1.343 5 5 0 0 1 7.071 0Z"
    fill="#000"
  /></svg>
