<svg width="32" height="32" fill="none" xmlns="http://www.w3.org/2000/svg"><path
    d="M14.368 16.675c1.321.748 1.982 1.122 2.709 1.122.726 0 1.387-.372 2.71-1.117l8.42-4.74c.186-.105.341-.257.45-.44a1.182 1.182 0 0 0 0-1.201 1.216 1.216 0 0 0-.45-.44l-8.422-4.743C18.463 4.372 17.802 4 17.077 4c-.726 0-1.387.373-2.708 1.119L7.133 9.2l-.115.065A8.052 8.052 0 0 0 4.09 12.15 7.832 7.832 0 0 0 3 16.069v.26a7.832 7.832 0 0 0 1.09 3.917 8.052 8.052 0 0 0 2.92 2.882c.027.017.057.033.115.066l4.525 2.56c2.648 1.497 3.972 2.245 5.427 2.246 1.453 0 2.778-.747 5.427-2.243l4.783-2.701c1.324-.747 1.986-1.121 2.35-1.738.363-.615.363-1.363.363-2.859v-2.897c0-.2-.054-.398-.157-.571a1.158 1.158 0 0 0-.427-.418 1.19 1.19 0 0 0-1.168-.002l-9.82 5.528c-.66.372-.99.558-1.352.558-.362 0-.692-.185-1.352-.557L9.08 16.364c-.334-.187-.5-.282-.635-.298a.691.691 0 0 0-.428.085.668.668 0 0 0-.286.322c-.051.123-.05.311-.048.688.001.276.002.415.029.543.059.284.212.542.435.733.1.086.223.155.468.293l7.105 4.017c.662.375.993.562 1.357.562.363 0 .694-.187 1.356-.56l8.71-4.918c.225-.128.338-.191.423-.144.084.048.084.176.084.431v1.312c0 .374 0 .56-.09.715-.091.154-.256.247-.588.435l-7.181 4.055c-1.325.748-1.987 1.122-2.714 1.121-.728 0-1.39-.375-2.714-1.124l-6.716-3.8-.048-.027a4.57 4.57 0 0 1-1.666-1.641 4.444 4.444 0 0 1-.617-2.233l-.001-.054V15.67c0-.881.48-1.695 1.259-2.138a2.264 2.264 0 0 1 2.23-.002l5.564 3.145Z"
    fill="#000"
  /></svg>
