<svg width="32" height="32" fill="none" xmlns="http://www.w3.org/2000/svg"><path
    d="M15.755 2.5c-5.188 0-9.657 3.038-11.835 7.452A13.54 13.54 0 0 0 2.5 16c0 2.141.498 4.153 1.368 5.943v.012l.052.105c2.178 4.402 6.647 7.44 11.835 7.44 3.56 0 6.574-1.2 8.784-3.28 2.525-2.375 3.961-5.846 3.961-9.924 0-.382-.014-.758-.04-1.128-.085-1.2-1.109-2.032-2.242-2.032H17.61c-1.31 0-2.355 1.08-2.355 2.391v1.253c0 1.311 1.046 2.39 2.355 2.39h4.375a5.495 5.495 0 0 1-2.209 3h-.002c-1.048.72-2.397 1.165-4.019 1.165-3.077 0-5.719-2.13-6.668-5.02A7.426 7.426 0 0 1 8.707 16c0-.804.14-1.579.38-2.314.95-2.89 3.59-5.01 6.668-5.01 1.464 0 2.78.429 3.892 1.255.574.427 1.427.452 1.983-.114l2.337-2.383c.559-.57.57-1.533-.087-2.07C21.689 3.572 18.953 2.5 15.755 2.5Z"
    fill="#000"
  /></svg>
