<svg width="32" height="32" fill="none" xmlns="http://www.w3.org/2000/svg"><path
    d="M9 4a1 1 0 0 0-2 0v2.5a1 1 0 1 0 2 0V4Zm4 8a1 1 0 1 0-2 0v2.5a1 1 0 1 0 2 0V12Zm3 1a1 1 0 0 1 1 1v2.5a1 1 0 1 1-2 0V14a1 1 0 0 1 1-1Zm5-4a1 1 0 1 0-2 0v2.5a1 1 0 1 0 2 0V9Zm3-3a1 1 0 0 1 1 1v2.5a1 1 0 1 1-2 0V7a1 1 0 0 1 1-1Zm1.586 14.81a1 1 0 0 0-1.171-1.62l-6.38 4.606A2.989 2.989 0 0 0 16 23c-.786 0-1.5.302-2.036.796L7.586 19.19a1 1 0 0 0-1.171 1.622l6.613 4.776a3 3 0 1 0 5.944 0l6.614-4.776ZM8 17a1 1 0 1 0 0-2 1 1 0 0 0 0 2Z"
    fill="#000"
  /><path
    d="M13 18a1 1 0 1 1-2 0 1 1 0 0 1 2 0Zm3 3a1 1 0 1 0 0-2 1 1 0 0 0 0 2Zm7-5a1 1 0 1 0 2 0 1 1 0 0 0-2 0Zm-3 3a1 1 0 1 1 0-2 1 1 0 0 1 0 2ZM9 13a1 1 0 1 1-2 0 1 1 0 0 1 2 0Zm11 3a1 1 0 1 0 0-2 1 1 0 0 0 0 2Zm5-3a1 1 0 1 1-2 0 1 1 0 0 1 2 0Zm-13-3a1 1 0 1 0 0-2 1 1 0 0 0 0 2Zm5 1a1 1 0 1 1-2 0 1 1 0 0 1 2 0Zm-9 0a1 1 0 1 0 0-2 1 1 0 0 0 0 2Zm5-5a1 1 0 1 1-2 0 1 1 0 0 1 2 0Zm3 3a1 1 0 1 0 0-2 1 1 0 0 0 0 2Zm5-3a1 1 0 1 1-2 0 1 1 0 0 1 2 0Zm3-1a1 1 0 1 0 0-2 1 1 0 0 0 0 2Z"
    fill="#000"
  /></svg>
