<svg width="32" height="32" fill="none" xmlns="http://www.w3.org/2000/svg"><path
    d="M29.82 13.75c-1.3-2.55-3.79-4.19-6.59-4.39l2.18-2.18c.42-.41.59-1.01.45-1.58-.14-.57-.55-1.02-1.11-1.2-.82-.27-1.67-.4-2.52-.4a7.954 7.954 0 0 0-6.22 2.98c-.18-.23-.37-.44-.58-.65-2.14-2.13-5.27-2.87-8.18-1.93-.55.18-.97.63-1.1 1.2-.14.57.02 1.17.44 1.58l2.18 2.18c-2.79.2-5.28 1.84-6.58 4.39-.27.52-.24 1.13.07 1.63.31.51.84.81 1.43.81h3.9a7.224 7.224 0 0 0-1.33 6.84c.17.54.59.94 1.14 1.08.13.03.26.04.39.04.42 0 .83-.16 1.14-.47l4.28-4.28 1.07-1.07v8.8c0 .77.86 1.39 1.93 1.39 1.07 0 1.93-.62 1.93-1.39v-8.39l.93.93 4.03 4.02c.31.31.71.47 1.13.47.13 0 .27-.01.39-.04.55-.14.98-.54 1.15-1.07.23-.73.34-1.47.34-2.21 0-1.67-.58-3.32-1.68-4.64h3.9c.59 0 1.13-.3 1.44-.81.31-.5.33-1.11.07-1.63l-.02-.01ZM18 7.75a5.967 5.967 0 0 1 5.62-1.59l-3.67 3.67-2.19 2.19v-.04c0-.3-.02-.6-.06-.9a7.35 7.35 0 0 0-.57-2.21c.24-.4.53-.78.87-1.12Zm-3.99 0c.34.34.64.72.88 1.12.68 1.1.97 2.39.85 3.68-.41-.55-.89-1.04-1.43-1.46-.67-.54-1.43-.97-2.24-1.26L8.4 6.16a5.96 5.96 0 0 1 5.62 1.59h-.01Zm-9.78 6.44a5.99 5.99 0 0 1 6.74-2.62c.02 0 .04.02.06.02.31.09.6.21.89.35.11.05.21.12.32.18.19.1.37.21.54.34.13.09.25.19.37.29.12.1.24.21.36.33a6.54 6.54 0 0 1 .82.97c.03.05.08.09.11.14H4.23Zm8.93 2.42-5.17 5.17c-.31-1.7.23-3.45 1.47-4.69.36-.36.77-.66 1.2-.9h2.92l-.42.42Zm9.38.48A5.278 5.278 0 0 1 24 21.78l-4.99-4.99-.6-.6h2.93c.43.24.84.54 1.2.9Zm-.75-2.9h-4.23c.16-.26.35-.49.55-.72.1-.12.21-.23.32-.34.15-.15.3-.29.46-.42.1-.08.19-.16.29-.23.2-.14.41-.27.63-.39.08-.04.16-.1.24-.14.31-.15.63-.28.96-.38.53-.16 1.09-.24 1.66-.24 2.09 0 3.99 1.08 5.1 2.85h-5.98v.01Z"
    fill="#000"
  /></svg>
