<svg width="32" height="32" fill="none" xmlns="http://www.w3.org/2000/svg"><path
    fill-rule="evenodd"
    clip-rule="evenodd"
    d="M4 8a4 4 0 0 1 4-4h16a4 4 0 0 1 4 4v16a4 4 0 0 1-4 4H8a4 4 0 0 1-4-4V8Zm20.757.707-8 8a1 1 0 0 1-1.414 0l-2.856-2.856L9 24.316a1 1 0 0 1-1.898-.632l4-12a1 1 0 0 1 1.656-.391l3.293 3.293 7.293-7.293a1 1 0 0 1 1.414 1.414Zm-16.8 2.986a1 1 0 0 0-1.414 1.414l1.6 1.6a1 1 0 0 0 1.414-1.414l-1.6-1.6Zm14.357 5.16a1 1 0 0 0-1.34.01l-4.094 3.753-3.323-3.323a1 1 0 0 0-1.414 1.414l4 4a1 1 0 0 0 1.383.03l4.134-3.79 2.926 2.6a1 1 0 0 0 1.328-1.494l-3.6-3.2Z"
    fill="#000"
  /></svg>
