<svg width="32" height="32" fill="none" xmlns="http://www.w3.org/2000/svg"><path
    d="M10.5 4c-.77 0-2.395.123-3.847 1.16C5.14 6.243 4 8.18 4 11.42c0 1.207.388 2.535.966 3.86.585 1.338 1.396 2.742 2.315 4.121 1.837 2.758 4.154 5.49 6.108 7.492a3.63 3.63 0 0 0 5.222 0c1.954-2.003 4.271-4.734 6.108-7.492.919-1.379 1.73-2.783 2.314-4.121.58-1.325.967-2.653.967-3.86 0-3.239-1.139-5.177-2.653-6.258C23.895 4.123 22.27 4 21.5 4c-2.563 0-4.083 1.019-5.01 2.1-.19.222-.352.443-.49.65a6.857 6.857 0 0 0-.49-.65C14.582 5.019 13.062 4 10.5 4Z"
    fill="#000"
  /></svg>
