<svg width="32" height="32" fill="none" xmlns="http://www.w3.org/2000/svg"><path
    d="M10.5 4c-.777 0-2.409.13-3.864 1.217C5.126 6.345 4 8.352 4 11.708c0 4.998 2.553 9.057 5.217 11.824a22.168 22.168 0 0 0 3.89 3.227c.583.373 1.12.67 1.578.876.41.185.894.365 1.315.365.42 0 .905-.18 1.315-.365.458-.207.995-.503 1.577-.876a22.169 22.169 0 0 0 3.89-3.227C25.448 20.765 28 16.706 28 11.708c0-3.356-1.126-5.363-2.636-6.491C23.909 4.13 22.277 4 21.5 4c-2.58 0-4.103 1.073-5.023 2.196a7.083 7.083 0 0 0-.477.657 7.083 7.083 0 0 0-.477-.657C14.603 5.073 13.08 4 10.5 4Z"
    fill="#000"
  /></svg>
