<svg width="32" height="32" fill="none" xmlns="http://www.w3.org/2000/svg"><path d="M4.035 14.076C4.506 7.88 9.684 3 16 3s11.494 4.88 11.965 11.076a1 1 0 0 0 1.994-.152C29.41 6.694 23.37 1 16 1 8.63 1 2.59 6.694 2.04 13.924a1 1 0 0 0 1.995.152Z" fill="#000"/><path d="M10 9a1 1 0 1 1 2 0 1 1 0 1 0 2 0 3 3 0 0 0-6 0 1 1 0 1 0 2 0Zm10 0a1 1 0 1 1 2 0 1 1 0 1 0 2 0 3 3 0 0 0-6 0 1 1 0 1 0 2 0ZM9.238 12.352a1 1 0 0 1 1.41-.114c1.264 1.075 3.172 1.793 5.352 1.793s4.088-.718 5.352-1.793a1 1 0 1 1 1.296 1.524c-1.667 1.416-4.05 2.27-6.648 2.27-2.599 0-4.98-.854-6.647-2.27a1 1 0 0 1-.115-1.41Zm10.153 5.601-.541 2.228-.435 1.713a5.13 5.13 0 0 1-.244.832l-.159.41c-.638 1.646-.57 3.446.68 4.695l.407.408a4.273 4.273 0 0 0 4.838.846c.222-.104.434-.23.632-.376l3.502-2.586 1.722-1.467a1.089 1.089 0 0 0 .078-1.61c-.392-.392-.93-.512-1.345-.194l.845-.846a1.144 1.144 0 0 0 0-1.618c-.447-.446-1.067-.342-1.513.105l-2.532 2.323 3.506-3.506a1.144 1.144 0 0 0-1.618-1.618l-3.506 3.506 2.697-2.901a1.144 1.144 0 0 0-1.618-1.618l-3.14 3.484-.02-1.899a1.14 1.14 0 0 0-2.236-.31Zm-6.442 2.227-.542-2.227a1.14 1.14 0 0 0-2.235.311l-.02 1.899-3.14-3.484a1.144 1.144 0 1 0-1.618 1.618l2.696 2.9-3.505-3.505a1.144 1.144 0 1 0-1.618 1.618l3.505 3.506-2.531-2.323c-.447-.447-1.067-.551-1.514-.105a1.144 1.144 0 0 0 0 1.618l.845.846c-.414-.318-.953-.198-1.345.194a1.089 1.089 0 0 0 .078 1.61l1.723 1.467 3.502 2.586c.198.146.41.272.632.376a4.273 4.273 0 0 0 4.838-.846l.408-.408c1.248-1.249 1.317-3.049.678-4.696l-.158-.409a5.13 5.13 0 0 1-.244-.832l-.435-1.713Z" fill="#000"/></svg>