<svg width="32" height="32" fill="none" xmlns="http://www.w3.org/2000/svg"><path d="M4 7.979A3.979 3.979 0 0 1 7.979 4h15.916a3.979 3.979 0 0 1 3.979 3.979v2.984a.995.995 0 0 1-1.99 0V7.98a1.99 1.99 0 0 0-1.989-1.99H7.979a1.99 1.99 0 0 0-1.99 1.99v4.562l.583-.583a1.99 1.99 0 0 1 2.814 0l2.572 2.572 4.562-4.562a1.99 1.99 0 0 1 2.813 0l3.276 3.276a.995.995 0 1 1-1.407 1.407l-3.276-3.276-4.561 4.562a1.99 1.99 0 0 1-2.814 0L7.98 13.365l-1.99 1.99v8.54a1.99 1.99 0 0 0 1.99 1.99h2.984a.995.995 0 0 1 0 1.989H7.98A3.979 3.979 0 0 1 4 23.895V7.979Z" fill="#000"/><path d="M16.042 17.411c.61-1.803 3.16-1.803 3.77 0l.608 1.8 1.927.887c1.544.71 1.544 2.905 0 3.615l-1.927.887-.609 1.8c-.61 1.803-3.16 1.803-3.77 0l-.608-1.8-1.927-.887c-1.544-.71-1.544-2.905 0-3.615l1.927-.886.609-1.8Zm8.952-2.655c.497-1.26 2.28-1.26 2.776 0l.364.921.921.364c1.26.497 1.26 2.28 0 2.776l-.921.364-.364.922c-.497 1.26-2.28 1.26-2.776 0l-.364-.922-.921-.364c-1.26-.497-1.26-2.28 0-2.776l.921-.364.364-.921Zm0 8.953c.497-1.26 2.28-1.26 2.776 0l.364.921.921.364c1.26.497 1.26 2.28 0 2.776l-.921.364-.364.921c-.497 1.26-2.28 1.26-2.776 0l-.364-.921-.921-.364c-1.26-.497-1.26-2.28 0-2.776l.921-.364.364-.921ZM12.455 10.963a1.492 1.492 0 1 0 0-2.984 1.492 1.492 0 0 0 0 2.984Z" fill="#000"/></svg>