<svg width="32" height="32" fill="none" xmlns="http://www.w3.org/2000/svg"><path d="M4 8a4 4 0 0 1 4-4h16a4 4 0 0 1 4 4v3a1 1 0 1 1-2 0V8a2 2 0 0 0-2-2H8a2 2 0 0 0-2 2v4.586L6.586 12a2 2 0 0 1 2.828 0L12 14.586 16.586 10a2 2 0 0 1 2.828 0l1.793 1.793a1 1 0 0 1-1.414 1.414L18 11.414 13.414 16a2 2 0 0 1-2.828 0L8 13.414l-2 2V24a2 2 0 0 0 2 2h3a1 1 0 1 1 0 2H8a4 4 0 0 1-4-4V8Z" fill="#000"/><path d="M16.973 19.388c.655-1.85 3.399-1.85 4.054 0l.655 1.847 2.073.91a2.004 2.004 0 0 1 0 3.71l-2.073.91-.655 1.847c-.655 1.85-3.399 1.85-4.054 0l-.655-1.847-2.073-.91a2.004 2.004 0 0 1 0-3.71l2.073-.91.655-1.847Zm10.675-4.718a1.318 1.318 0 0 0-2.296 0l-.607 1.075-1.074.607a1.318 1.318 0 0 0 0 2.296l1.075.607.606 1.074a1.318 1.318 0 0 0 2.296 0l.607-1.075 1.074-.606a1.318 1.318 0 0 0 0-2.296l-1.075-.607-.606-1.074ZM12.5 11a1.5 1.5 0 1 0 0-3 1.5 1.5 0 0 0 0 3Z" fill="#000"/></svg>