<svg width="32" height="32" fill="none" xmlns="http://www.w3.org/2000/svg"><path fill-rule="evenodd" clip-rule="evenodd" d="M3.73 15.937c-1.34-1.34-1.367-3.507-.035-4.839l7.217-7.217c1.332-1.332 3.498-1.305 4.838.035l5.556 5.555c1.34 1.34 1.367 3.507.034 4.839l-.864.864 8.74 8.693a.5.5 0 0 1 .147.35l.04 4.802a.5.5 0 0 1-.504.504l-2.822-.024a.5.5 0 0 1-.349-.146l-2.43-2.43a.5.5 0 0 1-.147-.35l-.013-1.574-2.951-.025a.5.5 0 0 1-.496-.496l-.013-1.574-2.952-.025a.5.5 0 0 1-.349-.146l-1.73-1.73-.524.524c-1.332 1.332-3.498 1.305-4.838-.035L3.73 15.937Zm5.644-4.563a1 1 0 0 0 1.414 1.414l2-2a1 1 0 0 0-1.414-1.414l-2 2Z" fill="#000"/></svg>