<svg width="32" height="32" fill="none" xmlns="http://www.w3.org/2000/svg"><path
    fill-rule="evenodd"
    clip-rule="evenodd"
    d="M5.185 10.812a4.063 4.063 0 0 0 0 5.736L9.26 20.63a4.04 4.04 0 0 0 5.406.286l1.093 1.096c.19.19.447.297.715.297h1.976v.783c0 .56.453 1.014 1.012 1.014h1.976v.783c0 .268.107.526.296.716l2.092 2.097c.19.19.447.297.715.297h2.448A1.01 1.01 0 0 0 28 26.986v-4.177c0-.27-.107-.528-.298-.719l-7.108-7.086a4.063 4.063 0 0 0-.003-5.732l-4.074-4.084a4.039 4.039 0 0 0-5.722 0l-5.61 5.624Zm11.707 9.47-.781-.783 3.053-3.06 6.813 6.792v2.741h-1.018l-1.499-1.503v-1.376c0-.56-.453-1.014-1.012-1.014h-1.976v-.783c0-.56-.453-1.014-1.011-1.014h-2.569Zm-6.742-8.117a1.016 1.016 0 0 0 0 1.434 1.01 1.01 0 0 0 1.43 0l2.023-2.028a1.016 1.016 0 0 0 0-1.434 1.01 1.01 0 0 0-1.43 0l-2.024 2.028Z"
    fill="#000"
  /></svg>
