<svg width="32" height="32" viewBox="0 0 32 32" fill="none" xmlns="http://www.w3.org/2000/svg">
<g clip-path="url(#clip0_34_2834)">
<path d="M11.2654 4.23459L4.0483 11.4517C2.91706 12.5829 2.93268 14.4327 4.0832 15.5832L9.63841 21.1384C10.7889 22.2889 12.6387 22.3046 13.7699 21.1733L14.6474 20.2958L16.7306 22.379L20.1735 22.4081L20.191 24.4738L23.6339 24.5029L23.6513 26.5687L26.0817 28.9991L28.9035 29.0229L28.8629 24.2214L19.7681 15.175L20.987 13.9562C22.1183 12.825 22.1026 10.9752 20.9521 9.8247L15.3969 4.26949C14.2464 3.11897 12.3967 3.10335 11.2654 4.23459Z" fill="black" stroke="black" stroke-linecap="round" stroke-linejoin="round"/>
<path d="M10.0808 12.0808L12.0808 10.0808" stroke="white" stroke-width="2" stroke-linecap="round" stroke-linejoin="round"/>
</g>
<defs>
<clipPath id="clip0_34_2834">
<rect width="32" height="32" fill="white"/>
</clipPath>
</defs>
</svg>
