<svg width="32" height="32" fill="none" xmlns="http://www.w3.org/2000/svg"><path
    d="M4 10a1 1 0 0 1 1-1h22a1 1 0 1 1 0 2H5a1 1 0 0 1-1-1Zm0 12a1 1 0 0 1 1-1h5a1 1 0 1 1 0 2H5a1 1 0 0 1-1-1Zm1-7a1 1 0 1 0 0 2h8a1 1 0 1 0 0-2H5Zm14.5 1c-.402 0-1.284.065-2.083.662-.853.637-1.417 1.73-1.417 3.387 0 2.464 1.257 4.438 2.524 5.753a10.617 10.617 0 0 0 1.867 1.547c.28.18.549.33.787.437.19.086.503.214.822.214.319 0 .633-.128.822-.214.238-.108.506-.256.787-.437a10.617 10.617 0 0 0 1.867-1.547C26.743 24.487 28 22.513 28 20.049c0-1.657-.564-2.75-1.417-3.387-.8-.597-1.681-.662-2.083-.662-1.185 0-1.978.441-2.5.97-.522-.529-1.315-.97-2.5-.97Z"
    fill="#000"
  /></svg>
