<svg width="32" height="32" fill="none" xmlns="http://www.w3.org/2000/svg"><path
    d="M4 10a1 1 0 0 1 1-1h22a1 1 0 1 1 0 2H5a1 1 0 0 1-1-1Zm0 12a1 1 0 0 1 1-1h4a1 1 0 1 1 0 2H5a1 1 0 0 1-1-1Zm1-7a1 1 0 1 0 0 2h6a1 1 0 1 0 0-2H5Z"
    fill="#000"
  /><path
    fill-rule="evenodd"
    clip-rule="evenodd"
    d="M18 15a3 3 0 0 0-3 3v7a3 3 0 0 0 3 3h7a3 3 0 0 0 3-3v-7a3 3 0 0 0-3-3h-7Zm-1 3a1 1 0 0 1 1-1h7a1 1 0 0 1 1 1v4.203l-1.602-1.955a1 1 0 0 0-1.547 0l-1.396 1.704-2.12-2.586a1 1 0 0 0-1.48-.073l-.855.854V18Z"
    fill="#000"
  /></svg>
