<svg width="32" height="32" fill="none" xmlns="http://www.w3.org/2000/svg"><path fill-rule="evenodd" clip-rule="evenodd" d="M4 8a4 4 0 0 1 4-4h16a4 4 0 0 1 4 4v16a4 4 0 0 1-4 4H8a4 4 0 0 1-4-4V8Zm4.07 15.93a4.928 4.928 0 0 1 0-6.97l3.631-3.631a4.928 4.928 0 0 1 6.97 0 1 1 0 0 1-1.414 1.414 2.928 2.928 0 0 0-4.141 0l-3.631 3.63a2.928 2.928 0 0 0 4.141 4.142 1 1 0 0 1 1.414 1.414 4.929 4.929 0 0 1-6.97 0Zm8.89-15.86a1 1 0 0 0 1.414 1.415 2.928 2.928 0 1 1 4.141 4.141l-3.294 3.294a2.928 2.928 0 0 1-4.141 0 1 1 0 0 0-1.414 1.414 4.928 4.928 0 0 0 6.97 0l3.293-3.294a4.928 4.928 0 1 0-6.97-6.97Z" fill="#000"/></svg>