<svg width="32" height="32" fill="none" xmlns="http://www.w3.org/2000/svg"><path
    d="M6.082 16.989a1 1 0 0 0-1.99.196C4.684 23.18 9.715 27.87 15.844 27.87a11.75 11.75 0 0 0 8.407-3.533 3.26 3.26 0 1 0-1.414-1.414 9.75 9.75 0 0 1-6.992 2.947c-5.083 0-9.27-3.89-9.763-8.881Z"
    fill="#000"
  /><path
    fill-rule="evenodd"
    clip-rule="evenodd"
    d="M15.956 10.652a5.348 5.348 0 1 0 0 10.696 5.348 5.348 0 0 0 0-10.696Zm0 2a3.348 3.348 0 1 0 0 6.696 3.348 3.348 0 0 0 0-6.696Z"
    fill="#000"
  /><path
    d="M10.171 8.005a9.874 9.874 0 0 1 5.808-1.875c5.135 0 9.355 3.898 9.852 8.882a1 1 0 0 0 1.99-.198C27.223 8.813 22.148 4.13 15.978 4.13c-2.72 0-5.229.912-7.233 2.444a3.26 3.26 0 1 0 1.426 1.432Z"
    fill="#000"
  /></svg>
