<svg width="32" height="32" fill="none" xmlns="http://www.w3.org/2000/svg"><path d="M25.395 3.812c-.499-1.266-2.291-1.266-2.79 0l-.79 2.003-2.003.79c-1.266.499-1.266 2.291 0 2.79l2.003.79.79 2.002c.499 1.267 2.291 1.267 2.79 0l.79-2.002 2.003-.79c1.266-.499 1.266-2.291 0-2.79l-2.003-.79-.79-2.003Z" fill="#000"/><path fill-rule="evenodd" clip-rule="evenodd" d="M18.85 11.707a3 3 0 0 0-4.243 0l-9.9 9.9a3 3 0 0 0 0 4.242l1.414 1.414a3 3 0 0 0 4.243 0l9.9-9.9a3 3 0 0 0 0-4.242l-1.415-1.414Zm-4.865 3.45 2.829 2.828 2.035-2.035a1 1 0 0 0 0-1.414l-1.414-1.415a1 1 0 0 0-1.414 0l-2.036 2.036Z" fill="#000"/></svg>