<svg width="32" height="32" fill="none" xmlns="http://www.w3.org/2000/svg"><path
    d="M24.452 4.902c-.474-1.203-2.173-1.203-2.647 0l-.749 1.9-1.899.75c-1.2.475-1.2 2.176 0 2.65l1.9.75.748 1.9c.474 1.203 2.173 1.203 2.647 0l.749-1.9 1.898-.75c1.201-.474 1.201-2.175 0-2.65l-1.898-.75-.75-1.9Z"
    fill="#000"
  /><path
    fill-rule="evenodd"
    clip-rule="evenodd"
    d="M18.244 12.397a2.842 2.842 0 0 0-4.023 0l-9.388 9.398a2.85 2.85 0 0 0 0 4.028l1.341 1.343a2.843 2.843 0 0 0 4.024 0l9.387-9.399a2.85 2.85 0 0 0 0-4.028l-1.34-1.342Zm-4.612 3.275 2.682 2.685 1.93-1.932a.95.95 0 0 0 0-1.343l-1.341-1.343a.948.948 0 0 0-1.341 0l-1.93 1.933Z"
    fill="#000"
  /></svg>
