<svg width="32" height="32" fill="none" xmlns="http://www.w3.org/2000/svg"><path
    fill-rule="evenodd"
    clip-rule="evenodd"
    d="M4.624 6.176A3 3 0 0 1 7.509 4h16.989a3 3 0 0 1 2.885 2.179l1.572 5.525A.994.994 0 0 1 29 12v2a5 5 0 0 1-2 4v6a4 4 0 0 1-4 4H9a4 4 0 0 1-4-4v-6a4.994 4.994 0 0 1-2-4v-2.043M5.327 11h21.35L25.46 6.726A1 1 0 0 0 24.498 6H7.508a1 1 0 0 0-.96.725L5.325 11ZM5 13v1a3 3 0 0 0 1.374 2.521 4.676 4.676 0 0 0 2.35.213 3.402 3.402 0 0 0 1.26-.484A3.002 3.002 0 0 0 11 14v-1H5Zm8 0v1a3 3 0 0 0 6 0v-1h-6Zm8 0v1a3 3 0 0 0 .979 2.217c.093.08.189.157.287.231a3 3 0 0 0 3.115.215.999.999 0 0 1 .244-.142A3.001 3.001 0 0 0 27 14v-1h-6Z"
    fill="#000"
  /><path d="m4.624 6.176-1.58 5.527Z" fill="#000" /></svg>
