<svg width="32" height="32" viewBox="0 0 32 32" fill="none" xmlns="http://www.w3.org/2000/svg">
<rect x="4" y="4" width="24" height="24" rx="2" fill="black"/>
<path d="M18.4545 7L15.1818 25" stroke="white" stroke-width="2" stroke-linecap="round" stroke-linejoin="round"/>
<path d="M7 15.1819V7.81824L9.86364 12.552L12.7273 7.81824V15.1819" stroke="white" stroke-width="2" stroke-linecap="round" stroke-linejoin="round"/>
<path d="M21.8229 25.6912C22.0115 25.8885 22.2726 26 22.5455 26C22.8184 26 23.0795 25.8885 23.2681 25.6912L25.7227 23.1254C25.9995 22.836 26.077 22.4094 25.9196 22.0412C25.7623 21.673 25.4005 21.4341 25.0001 21.4341H23.5455V16.8182C23.5455 16.2659 23.0978 15.8182 22.5455 15.8182C21.9932 15.8182 21.5455 16.2659 21.5455 16.8182V21.4341H20.091C19.6905 21.4341 19.3287 21.673 19.1714 22.0412C19.0141 22.4094 19.0916 22.836 19.3684 23.1254L21.8229 25.6912Z" fill="white"/>
</svg>
