<svg width="32" height="32" fill="none" xmlns="http://www.w3.org/2000/svg"><path
    d="M22 5a1 1 0 1 0-2 0v1h-3V5a1 1 0 1 0-2 0v1h-3V5a1 1 0 1 0-2 0v1a4 4 0 0 0-4 4H5a1 1 0 1 0 0 2h1v3H5a1 1 0 1 0 0 2h1v3H5a1 1 0 1 0 0 2h1a4 4 0 0 0 4 4v1a1 1 0 1 0 2 0v-1h3a1 1 0 1 0 0-2h-5a2 2 0 0 1-2-2V10a2 2 0 0 1 2-2h12a2 2 0 0 1 2 2v5a1 1 0 1 0 2 0v-5a4 4 0 0 0-4-4V5Z"
    fill="#000"
  /><path
    d="M13 11a2 2 0 0 0-2 2v6a2 2 0 0 0 2 2h2a1 1 0 1 0 0-2h-2v-6h6v2a1 1 0 1 0 2 0v-2a2 2 0 0 0-2-2h-6Z"
    fill="#000"
  /><path
    fill-rule="evenodd"
    clip-rule="evenodd"
    d="M18 19a1 1 0 0 1 1-1h10a1 1 0 0 1 1 1v10a1 1 0 0 1-1 1H19a1 1 0 0 1-1-1V19Zm8.733 1.265a1 1 0 0 1 .058 1.413L25.294 23.3l2.045 3.155a1 1 0 0 1-1.678 1.088l-1.766-2.725-.395.429V27a1 1 0 1 1-2 0v-6a1 1 0 1 1 2 0v1.297l1.82-1.975a1 1 0 0 1 1.413-.057Z"
    fill="#000"
  /></svg>
