<svg width="32" height="32" fill="none" xmlns="http://www.w3.org/2000/svg"><path
    d="M21 4a1 1 0 0 1 1 1v1a4 4 0 0 1 4 4 1 1 0 1 1-2 0 2 2 0 0 0-2-2H10a2 2 0 0 0-2 2v12a2 2 0 0 0 2 2h5a1 1 0 1 1 0 2h-3v1a1 1 0 1 1-2 0v-1a4 4 0 0 1-4-4H5a1 1 0 1 1 0-2h1v-3H5a1 1 0 1 1 0-2h1v-3H5a1 1 0 1 1 0-2h1a4 4 0 0 1 4-4V5a1 1 0 1 1 2 0v1h3V5a1 1 0 1 1 2 0v1h3V5a1 1 0 0 1 1-1Z"
    fill="#000"
  /><path
    d="M11 13a2 2 0 0 1 2-2h6a2 2 0 0 1 2 2v.333a1 1 0 1 1-2 0V13h-6v6h2a1 1 0 1 1 0 2h-2a2 2 0 0 1-2-2v-6Zm14 1a1 1 0 0 0-1.888-.46l-5 9.643a1 1 0 0 0 .888 1.46h3V29a1 1 0 0 0 1.869.495l5.5-9.642a1 1 0 0 0-.869-1.496H25V14Z"
    fill="#000"
  /></svg>
