<svg width="32" height="32" fill="none" xmlns="http://www.w3.org/2000/svg"><path
    d="M21 4a1 1 0 0 1 1 1v1h1a3 3 0 0 1 3 3v4a1 1 0 1 1-2 0V9a1 1 0 0 0-1-1H9a1 1 0 0 0-1 1v14a1 1 0 0 0 1 1h5a1 1 0 1 1 0 2h-2v1a1 1 0 1 1-2 0v-1H9a3 3 0 0 1-3-3v-1H5a1 1 0 1 1 0-2h1v-3H5a1 1 0 1 1 0-2h1v-3H5a1 1 0 1 1 0-2h1V9a3 3 0 0 1 3-3h1V5a1 1 0 1 1 2 0v1h3V5a1 1 0 1 1 2 0v1h3V5a1 1 0 0 1 1-1Z"
    fill="#000"
  /><path
    d="M11 13a2 2 0 0 1 2-2h6a2 2 0 0 1 2 2v.333a1 1 0 1 1-2 0V13h-6v6h1a1 1 0 1 1 0 2h-1a2 2 0 0 1-2-2v-6Z"
    fill="#000"
  /><path
    fill-rule="evenodd"
    clip-rule="evenodd"
    d="M27.803 16.822C28.865 17.305 30 18.176 30 19.5v7c0 1.324-1.135 2.195-2.197 2.678-1.153.524-2.675.822-4.303.822-1.628 0-3.15-.298-4.303-.822C18.135 28.695 17 27.824 17 26.5v-7c0-1.324 1.135-2.195 2.197-2.678C20.35 16.298 21.872 16 23.5 16c1.628 0 3.15.298 4.303.822Zm0 5.356c.065-.03.131-.06.197-.094V23c0 .057-.097.436-1.025.857-.838.381-2.065.643-3.475.643-1.41 0-2.637-.262-3.475-.643-.928-.421-1.025-.8-1.025-.857v-.916c.066.033.132.064.197.094 1.153.524 2.675.822 4.303.822 1.628 0 3.15-.298 4.303-.822Zm0 3.5c.065-.03.131-.06.197-.094v.916c0 .057-.097.436-1.025.857-.838.381-2.065.643-3.475.643-1.41 0-2.637-.262-3.475-.643-.928-.421-1.025-.8-1.025-.857v-.916c.066.033.132.064.197.094 1.153.524 2.675.822 4.303.822 1.628 0 3.15-.298 4.303-.822Z"
    fill="#000"
  /></svg>
