<svg width="32" height="32" fill="none" xmlns="http://www.w3.org/2000/svg"><path
    d="M11 13h10v6H11v-6Z"
    fill="#000"
  /><path
    fill-rule="evenodd"
    clip-rule="evenodd"
    d="M23 5a1 1 0 1 0-2 0v1h-2V5a1 1 0 1 0-2 0v1h-2V5a1 1 0 1 0-2 0v1h-2V5a1 1 0 1 0-2 0v1H8a4 4 0 0 0-4 4v12a4 4 0 0 0 4 4h1v1a1 1 0 1 0 2 0v-1h2v1a1 1 0 1 0 2 0v-1h2v1a1 1 0 1 0 2 0v-1h2v1a1 1 0 1 0 2 0v-1h1a4 4 0 0 0 4-4V10a4 4 0 0 0-4-4h-1V5Zm-12 6a2 2 0 0 0-2 2v6a2 2 0 0 0 2 2h10a2 2 0 0 0 2-2v-6a2 2 0 0 0-2-2H11Z"
    fill="#000"
  /></svg>
