<svg width="32" height="32" fill="none" xmlns="http://www.w3.org/2000/svg"><path fill-rule="evenodd" clip-rule="evenodd" d="M15.574 6c-1.945 0-3.758.61-5.262 1.687l-.011.008c-.336.247-4.67 3.916-7.15 6.018a2.993 2.993 0 0 0 .002 4.572c2.48 2.098 6.812 5.758 7.148 6.005l.01.008A9.013 9.013 0 0 0 15.575 26C20.841 26 25 21.46 25 16S20.84 6 15.574 6ZM15 20a4 4 0 1 0 0-8 4 4 0 0 0 0 8Z" fill="#000"/><path d="M26.534 13.115a1 1 0 0 1 1.173.178l2.201 2.201a1 1 0 0 1 0 1.415l-2.201 2.201a1 1 0 0 1-1.69-.89 11.062 11.062 0 0 0 0-4.038 1 1 0 0 1 .517-1.067Z" fill="#000"/></svg>