<svg width="32" height="32" fill="none" xmlns="http://www.w3.org/2000/svg"><path
    d="M16 2.5C8.893 2.5 3.07 7.99 2.54 14.962l-.001.01-.02.51A.981.981 0 0 0 3.5 16.5 3.5 3.5 0 0 1 7 20v2.626c0 .992.279 1.963.804 2.804.9 1.44 3.087 1.1 3.507-.545l4.394-17.21a.674.674 0 0 1 1.256-.135l.612 1.224a3.09 3.09 0 0 0 1.787 1.55l3.286 1.095c1.805.602 2.346 2.892 1 4.237l-1.752 1.752a4.5 4.5 0 0 0-1.237 4.032c.084.437.29.815.498 1.13l1.948 2.95c.48.725 1.518.92 2.192.28A13.463 13.463 0 0 0 29.5 16c0-7.456-6.044-13.5-13.5-13.5Z"
    fill="#000"
  /><path
    d="M20.5 13.25a1.25 1.25 0 1 1-2.5 0 1.25 1.25 0 0 1 2.5 0Z"
    fill="#000"
  /></svg>
