<svg width="32" height="32" fill="none" xmlns="http://www.w3.org/2000/svg"><path d="M13.714 7.321a3.48 3.48 0 0 0 .385-.994c.072-.335.11-.763-.01-1.18-.133-.464-.48-.93-1.1-1.092-.532-.138-1.083.001-1.574.216A12.384 12.384 0 0 0 4 15.62C4 22.456 9.534 28 16.364 28c5.072 0 9.427-3.057 11.334-7.425.227-.52.382-1.09.258-1.63a1.479 1.479 0 0 0-1.164-1.134c-.43-.095-.864-.024-1.187.064a4.05 4.05 0 0 0-.956.4 7.945 7.945 0 0 1-4.023 1.087c-4.415 0-7.997-3.585-7.997-8.01 0-1.472.396-2.848 1.085-4.03Z" fill="#000"/></svg>