<svg width="32" height="32" fill="none" xmlns="http://www.w3.org/2000/svg"><path d="M22.73 6.961c.068-1.146 1.077-2.023 2.255-1.958 1.178.066 2.079 1.048 2.012 2.195l-.694 11.836a5.954 5.954 0 0 0-4.123-2.67l.55-9.403Zm3.385 15.287.008-.13v-.041c0-2.62-2.182-4.744-4.873-4.744h-6.076c-1.032 0-1.869.815-1.869 1.82 0 1.005.837 1.82 1.87 1.82h4.005c.295 0 .534.232.534.519 0 .287-.239.52-.534.52h-4.006c-1.39 0-2.555-.94-2.86-2.204-.3.021-.617-.036-.906-.225a2.874 2.874 0 0 1-1.3-2.119L9.27 9.057c-.115-1.145-1.162-1.982-2.338-1.87-1.136.109-1.977 1.062-1.93 2.159.003.061.012.127.026.217.126.784.753 4.832.8 8.283a51.357 51.357 0 0 1 0 1.421c.037 4.353 3.732 7.84 8.211 7.73l7.333-.178c2.557-.062 4.614-2.035 4.745-4.494a.505.505 0 0 1-.002-.077Z" fill="#000"/><path d="M16.51 13.174v3.12h4.272v-3.12c0-1.148-.956-2.08-2.136-2.08-1.18 0-2.137.932-2.137 2.08Zm-1.336 3.119h.267v-2.08c0-1.147-.956-2.079-2.136-2.079-1.18 0-2.136.931-2.136 2.08v3.131l.001.019a1.84 1.84 0 0 0 .832 1.355.4.4 0 0 0 .261.05c.193-1.398 1.423-2.476 2.911-2.476Z" fill="#000"/></svg>