<svg width="32" height="32" fill="none" xmlns="http://www.w3.org/2000/svg"><path fill-rule="evenodd" clip-rule="evenodd" d="M16.544 1C14.01.988 11.585 2.026 9.799 3.872 8.014 5.717 7.012 8.217 7 10.82v.004c0 2.37.268 3.725.631 4.825.122.368.26.719.384 1.039.05.128.099.251.143.369a9.696 9.696 0 0 1 .436 1.432 8.81 8.81 0 0 1 .044 4.027l-1.606 6.235A1 1 0 0 0 8 30h10.64a1 1 0 0 0 1-1v-3.302c0-.583.549-1.128 1.3-1.077.248.017.505.026.732.013a4.53 4.53 0 0 0 2.96-1.35 4.822 4.822 0 0 0 1.365-2.994c.002-.027.003-.055.003-.082V17h1a1 1 0 0 0 .894-1.447L26 11.763v-.855c.01-2.602-.97-5.11-2.737-6.971-1.77-1.863-4.186-2.925-6.72-2.937Zm1.009 9.106a1 1 0 0 1 1.341.447L19.618 12H21a1 1 0 1 1 0 2h-2a1 1 0 0 1-.894-.553l-1-2a1 1 0 0 1 .447-1.341ZM16 7a1 1 0 1 0 0 2h3.382l.724 1.447a1 1 0 1 0 1.788-.894l-1-2A1 1 0 0 0 20 7h-4Zm-3.447 1.106a1 1 0 0 1 1.341.447l2 4a1 1 0 1 1-1.788.894l-2-4a1 1 0 0 1 .447-1.341ZM17 15a1 1 0 0 0-.707.293l-3 3a1 1 0 0 0 1.414 1.414L17.414 17H21a1 1 0 1 0 0-2h-4Z" fill="#000"/></svg>