<svg width="32" height="32" fill="none" xmlns="http://www.w3.org/2000/svg"><path fill-rule="evenodd" clip-rule="evenodd" d="M2 10a4 4 0 0 1 4-4h20a4 4 0 0 1 4 4v12a4 4 0 0 1-4 4H6a4 4 0 0 1-4-4V10Zm12 2.1a.9.9 0 0 0-.9.9v7a.9.9 0 0 0 .9.9h4a.9.9 0 1 0 0-1.8h-3.1v-1.7h2.211a.9.9 0 1 0 0-1.8H14.9v-1.7H18a.9.9 0 1 0 0-1.8h-4Zm-7.257-.066a1 1 0 0 1 1.125.47L10 16.234V13a1 1 0 1 1 2 0v7a1 1 0 0 1-1.868.496L8 16.766V20a1 1 0 1 1-2 0v-7a1 1 0 0 1 .743-.966ZM22 13a1 1 0 1 0-2 0v7a1 1 0 0 0 1.832.555L23 18.803l1.168 1.752A1 1 0 0 0 26 20v-7a1 1 0 1 0-2 0v3.697l-.168-.252a1 1 0 0 0-1.664 0l-.168.252V13Z" fill="#000"/></svg>