<svg width="32" height="32" fill="none" xmlns="http://www.w3.org/2000/svg"><path d="M8 4a4 4 0 0 0-4 4v16a4 4 0 0 0 4 4h8a1 1 0 1 0 0-2H8a2 2 0 0 1-2-2V8a2 2 0 0 1 2-2h16a2 2 0 0 1 2 2v6a1 1 0 1 0 2 0V8a4 4 0 0 0-4-4H8Z" fill="#000"/><path d="m11.682 9.269-.008-.008A.996.996 0 0 0 11 9h-1a1 1 0 1 0 0 2v10a1 1 0 1 0 0 2h2a1 1 0 1 0 0-2v-6.365l3.318 3.096A1 1 0 0 0 17 17v-2.333a1 1 0 0 0-.318-.731l-5-4.667ZM20 11a1 1 0 1 1 0-2h2a1 1 0 1 1 0 2v3a1 1 0 1 1-2 0v-3Z" fill="#000"/><path fill-rule="evenodd" clip-rule="evenodd" d="M19 18a2 2 0 0 1 2-2h4.5a1 1 0 0 1 .707.293l3.5 3.5A1 1 0 0 1 30 20.5V27a2 2 0 0 1-2 2h-7a2 2 0 0 1-2-2v-9Zm4.5 2a1 1 0 1 0 0 2H25a1 1 0 1 0 0-2h-1.5Zm-1 4a1 1 0 0 1 1-1H25a1 1 0 1 1 0 2h-1.5a1 1 0 0 1-1-1Z" fill="#000"/></svg>