<svg width="32" height="32" fill="none" xmlns="http://www.w3.org/2000/svg"><path d="M8 4a4 4 0 0 0-4 4v16a4 4 0 0 0 4 4h6a1 1 0 1 0 0-2H8a2 2 0 0 1-2-2V8a2 2 0 0 1 2-2h16a2 2 0 0 1 2 2v7a1 1 0 1 0 2 0V8a4 4 0 0 0-4-4H8Z" fill="#000"/><path d="m11.69 9.277-.015-.015A.997.997 0 0 0 11 9h-1a1 1 0 1 0 0 2v10a1 1 0 1 0 0 2h2a1 1 0 1 0 0-2v-6.373l2.266 2.106a1 1 0 0 0 .68.267h2.334a1 1 0 0 0 .69-1.723l-6.28-6ZM20 11a1 1 0 1 1 0-2h2a1 1 0 1 1 0 2v3a1 1 0 1 1-2 0v-3Zm-3 8.8c0-.977.783-1.8 1.786-1.8h2.75a1 1 0 0 1 .713.3l1.67 1.7H28a2 2 0 0 1 2 2v4.2c0 .977-.783 1.8-1.786 1.8h-9.428A1.793 1.793 0 0 1 17 26.2v-6.4Z" fill="#000"/></svg>