<svg width="32" height="32" fill="none" xmlns="http://www.w3.org/2000/svg"><path d="M8 4a4 4 0 0 0-4 4v16a4 4 0 0 0 4 4h7a1 1 0 1 0 0-2H8a2 2 0 0 1-2-2V8a2 2 0 0 1 2-2h16a2 2 0 0 1 2 2v6a1 1 0 1 0 2 0V8a4 4 0 0 0-4-4H8Z" fill="#000"/><path d="m11.682 9.269-.008-.008A.996.996 0 0 0 11 9h-1a1 1 0 1 0 0 2v10a1 1 0 1 0 0 2h2a1 1 0 1 0 0-2v-6.365l3.318 3.096A1 1 0 0 0 17 17v-2.333a1 1 0 0 0-.318-.731l-5-4.667ZM20 11a1 1 0 1 1 0-2h2a1 1 0 1 1 0 2v3a1 1 0 1 1-2 0v-3Z" fill="#000"/><path fill-rule="evenodd" clip-rule="evenodd" d="M27.803 29.178C28.865 28.695 30 27.824 30 26.5v-7c0-1.324-1.135-2.195-2.197-2.678C26.65 16.298 25.128 16 23.5 16c-1.628 0-3.15.298-4.303.822C18.135 17.305 17 18.176 17 19.5v7c0 1.324 1.135 2.195 2.197 2.678 1.153.524 2.675.822 4.303.822 1.628 0 3.15-.298 4.303-.822ZM28 22.084a6.156 6.156 0 0 1-.197.094c-1.153.524-2.675.822-4.303.822-1.628 0-3.15-.298-4.303-.822a6.156 6.156 0 0 1-.197-.094V23c0 .057.097.436 1.025.857.838.381 2.065.643 3.475.643 1.41 0 2.637-.262 3.475-.643.928-.421 1.025-.8 1.025-.857v-.916Zm0 3.5a6.156 6.156 0 0 1-.197.094c-1.153.524-2.675.822-4.303.822-1.628 0-3.15-.298-4.303-.822a6.156 6.156 0 0 1-.197-.094v.916c0 .057.097.436 1.025.857.838.381 2.065.643 3.475.643 1.41 0 2.637-.262 3.475-.643.928-.421 1.025-.8 1.025-.857v-.916Z" fill="#000"/></svg>