<svg width="32" height="32" fill="none" xmlns="http://www.w3.org/2000/svg"><path
    d="M10.5 17.818v-5H7.538c-.85 0-1.538.689-1.538 1.539v1.923c0 .85.689 1.538 1.538 1.538h.097v-3a.75.75 0 0 1 1.5 0v3H10.5Z"
    fill="#000"
  /><path
    fill-rule="evenodd"
    clip-rule="evenodd"
    d="M12.5 12.818v7.039c0 .382.31.692.692.692h.116c.382 0 .692-.31.692-.692v-1.039a1 1 0 0 1 1-1h1.5v-5h-4Zm2.558 2a.75.75 0 0 0-1.5 0v1a.75.75 0 1 0 1.5 0v-1Z"
    fill="#000"
  /><path
    d="M18.5 12.818v5h1.827v-3a.75.75 0 0 1 1.5 0v3h1.461v-3a.75.75 0 0 1 1.5 0v2.965A1.539 1.539 0 0 0 26 16.28v-1.923c0-.85-.689-1.539-1.538-1.539H18.5Z"
    fill="#000"
  /><path
    fill-rule="evenodd"
    clip-rule="evenodd"
    d="M2 10a4 4 0 0 1 4-4h20a4 4 0 0 1 4 4v12a4 4 0 0 1-4 4H6a4 4 0 0 1-4-4V10Zm2 4.357a3.539 3.539 0 0 1 3.538-3.539h16.924A3.539 3.539 0 0 1 28 14.357v1.923a3.538 3.538 0 0 1-3.538 3.538H16v.039a2.692 2.692 0 0 1-2.692 2.692h-.116a2.692 2.692 0 0 1-2.692-2.692v-.039H7.538A3.538 3.538 0 0 1 4 16.28v-1.923Z"
    fill="#000"
  /></svg>
