<svg width="32" height="32" fill="none" xmlns="http://www.w3.org/2000/svg"><path
    d="M13.75 17c0-.693.322-1.094.76-1.357.479-.287 1.086-.393 1.49-.393.404 0 1.011.106 1.49.393.438.263.76.664.76 1.357s-.322 1.093-.76 1.357c-.479.287-1.086.393-1.49.393-.404 0-1.011-.106-1.49-.393-.438-.264-.76-.664-.76-1.357Z"
    fill="#000"
  /><path
    fill-rule="evenodd"
    clip-rule="evenodd"
    d="M11 3c-.967 0-1.617.58-1.996 1.25-.357.633-.533 1.43-.622 2.197-.164 1.41-.067 3.056.08 4.308C6.961 11.73 6 13.537 6 15.5a5.9 5.9 0 0 0 .771 2.938C6.264 19.274 6 20.377 6 21.5c0 1.098.252 2.172.734 3-.482.828-.734 1.902-.734 3a1 1 0 0 0 1 1h18a1 1 0 0 0 1-1c0-1.098-.252-2.172-.734-3 .482-.828.734-1.902.734-3 0-1.123-.264-2.225-.771-3.063A5.893 5.893 0 0 0 26 15.5c0-1.963-.961-3.77-2.462-4.745.147-1.252.244-2.898.08-4.308-.089-.768-.265-1.564-.622-2.197C22.617 3.58 21.967 3 21 3c-.721 0-1.274.339-1.658.787-.357.418-.579.938-.73 1.404a11.28 11.28 0 0 0-.318 1.263A5.982 5.982 0 0 0 16 6c-.813 0-1.587.161-2.294.454a11.529 11.529 0 0 0-.317-1.263c-.152-.466-.374-.986-.73-1.404C12.273 3.34 11.72 3 11 3Zm-.279 6.615a3.472 3.472 0 0 1-.335.317c-.096-1.052-.134-2.251-.018-3.254.078-.67.214-1.155.378-1.444.134-.238.212-.235.248-.234h.011c.027 0 .058 0 .134.088.106.124.228.354.348.721.115.356.205.765.29 1.196l.057.3c.036.186.072.376.11.557-.314.574-.76 1.26-1.223 1.753Zm10.916.041a22.824 22.824 0 0 1-1.562-1.884l.09-.466.058-.3c.085-.432.175-.84.29-1.197.12-.367.242-.597.348-.721.076-.089.107-.088.134-.088h.011c.036-.001.114-.004.248.234.164.29.3.774.378 1.444.106.916.083 1.996.005 2.978ZM11 16a1 1 0 1 0 0-2 1 1 0 0 0 0 2Zm11-1a1 1 0 1 1-2 0 1 1 0 0 1 2 0Zm-6-1.25c-.596 0-1.489.144-2.26.607-.812.487-1.49 1.336-1.49 2.643 0 1.307.678 2.157 1.49 2.643.771.463 1.664.607 2.26.607.596 0 1.489-.144 2.26-.607.812-.486 1.49-1.336 1.49-2.643 0-1.307-.678-2.156-1.49-2.643-.771-.463-1.664-.607-2.26-.607Z"
    fill="#000"
  /></svg>
