<svg width="32" height="32" fill="none" xmlns="http://www.w3.org/2000/svg"><path fill-rule="evenodd" clip-rule="evenodd" d="M11.77 2.186a5.552 5.552 0 0 1 5.669 2.492l1.102-.643a5.552 5.552 0 0 1 7.685 7.4l1.016.593.002.002a5.517 5.517 0 0 1 2.75 5.013 1 1 0 1 1-1.998-.086 3.516 3.516 0 0 0-1.754-3.197l-.004-.002-5.101-2.977L18 12.582l4.487 2.506a1 1 0 1 1-.975 1.746L19.6 15.766V17c0 .045-.003.09-.009.133a1 1 0 0 1-.504 1.006l-2.52 1.406a1.005 1.005 0 0 1-.165.091l-4.615 2.576a2 2 0 0 1-1.99-.024L7.53 20.852a3.552 3.552 0 0 0 4.926 4.714h.001l2.519-1.465a1 1 0 1 1 1.005 1.73l-2.521 1.465-.003.002a5.552 5.552 0 0 1-7.652-7.463l-1.053-.622a5.517 5.517 0 0 1-2.015-7.532c.973-1.685 2.656-2.67 4.46-2.754v-1.28a5.552 5.552 0 0 1 4.572-5.461Zm13.099 6.64a3.552 3.552 0 0 1-.372 1.6l-2.352-1.372a2 2 0 0 0-2.004-.007l-5.742 3.298V8.77l5.144-3.004a3.552 3.552 0 0 1 5.326 3.06Zm-12.47 5.266V8.77a2 2 0 0 1 .991-1.728l2.32-1.354a3.552 3.552 0 0 0-6.512 1.96v6.009l3.2 1.84v-1.405Zm3.58-.348-1.58.907v1.997l1.603.922 1.598-.892V14.65l-1.622-.905Zm-3.094 4.34.032.019 1.049.603-3.154 1.76-5.048-2.978-.008-.004A3.517 3.517 0 0 1 4.47 12.68c.61-1.056 1.63-1.668 2.728-1.75v2.728A2 2 0 0 0 8.2 15.39l4.684 2.694Z" fill="#000"/><path fill-rule="evenodd" clip-rule="evenodd" d="M18 21a2 2 0 0 1 2-2h8a2 2 0 0 1 2 2v7a2 2 0 0 1-2 2h-8a2 2 0 0 1-2-2v-7Zm6.65.5c-.488 0-.88.325-.968.736l-.002.007-.082.359h1.053a.5.5 0 0 1 0 1h-1.283l-.776 3.376c-.197.903-1.022 1.522-1.946 1.522H20a.5.5 0 1 1 0-1h.646c.488 0 .88-.325.969-.736l.001-.007.726-3.155h-.668a.5.5 0 0 1 0-1h.898l.133-.58c.196-.903 1.022-1.522 1.946-1.522h.646a.5.5 0 1 1 0 1h-.646Zm-.91 3.405a.5.5 0 0 1 .5-.5h.401c.437 0 .853.224 1.078.605l.413.6.292-.385a1.83 1.83 0 0 1 1.537-.82.5.5 0 0 1 0 1 .83.83 0 0 0-.729.409l-.503.663.597.867a.495.495 0 0 1 .024.037.251.251 0 0 0 .22.119H28a.5.5 0 0 1 0 1h-.43c-.437 0-.852-.224-1.078-.605l-.4-.579-.275.364a1.83 1.83 0 0 1-1.538.82.5.5 0 1 1 0-1 .83.83 0 0 0 .729-.409l.488-.642-.611-.888a.53.53 0 0 1-.024-.037.251.251 0 0 0-.22-.119h-.401a.5.5 0 0 1-.5-.5Z" fill="#000"/></svg>