<svg width="32" height="32" fill="none" xmlns="http://www.w3.org/2000/svg"><path d="M25.236 19.49c-.164.44-.826.325-.974-.12-.385-1.156-1.09-2.076-1.887-2.813-1.51-1.394-3.642-2.376-5.4-3.185l-.049-.023c-1.94-.893-3.476-1.606-4.47-2.473-.458-.4-.696-.75-.809-1.06-.103-.283-.155-.674.007-1.277.312-1.166.918-1.784 1.656-2.146.145-.071.3-.135.466-.19a9.953 9.953 0 0 1 4.69.123c5.33 1.432 8.493 6.913 7.064 12.245-.084.314-.182.62-.294.92ZM7.89 11.189c-.118-.324-.57-.408-.738-.108a10.02 10.02 0 0 0-.94 2.314c-.725 2.705-.615 5.358 1.218 7.87 1.947 2.667 4.7 3.429 7.68 3.535 3.06.11 4.89-1.046 5.334-2.7.18-.675.134-1.132.023-1.466-.117-.352-.36-.726-.807-1.14-.966-.892-2.487-1.628-4.407-2.511l-.258-.12c-1.698-.78-3.72-1.708-5.169-2.974-.8-.697-1.526-1.578-1.936-2.7Z" fill="#000"/><path d="M29 15a1 1 0 0 1 1 1c0 7.732-6.268 14-14 14a1 1 0 1 1 0-2c6.628 0 12-5.373 12-12a1 1 0 0 1 1-1Z" fill="#000"/></svg>