<svg width="32" height="32" fill="none" xmlns="http://www.w3.org/2000/svg"><path d="M22.269 4.35a4.025 4.025 0 0 0-2.826.515.01.01 0 0 0-.004.008.01.01 0 0 1-.005.008l-5.378 3.252a.47.47 0 0 0-.226.401v4.004c0 .364.396.589.708.403l6.566-3.907a.502.502 0 0 1 .52 0l3.019 1.824c.214.13.495.069.612-.153.332-.632.51-1.34.51-2.07a4.536 4.536 0 0 0-.999-2.799 4.165 4.165 0 0 0-2.497-1.485ZM15.78 18.519a.467.467 0 0 0 .473.003l1.944-1.12a.018.018 0 0 1 .004-.002h.004a.008.008 0 0 0 .006-.009V14.85a.47.47 0 0 0-.234-.407l-1.746-1.008a.468.468 0 0 0-.472.002l-1.699 1.006a.47.47 0 0 0-.23.403v2.244a.47.47 0 0 0 .229.403l1.72 1.026Z" fill="#000"/><path d="M9.398 4.566a4.464 4.464 0 0 0-.989 2.8v6.515a.47.47 0 0 0 .229.403l3.434 2.048a.468.468 0 0 0 .707-.403V7.957c0-.193.104-.366.26-.463l2.998-1.815a.438.438 0 0 0 .164-.595 4.187 4.187 0 0 0-1.486-1.509 4.066 4.066 0 0 0-2.83-.506 4.209 4.209 0 0 0-2.487 1.497Z" fill="#000"/><path d="M3.56 12.512a4.451 4.451 0 0 0-.416 3.283 4.286 4.286 0 0 0 1.946 2.627l5.277 3.215c.147.09.33.091.478.006l3.406-1.97a.47.47 0 0 0 .005-.809l-6.627-3.94a.546.546 0 0 1-.26-.464v-3.654c0-.246-.191-.453-.437-.443-1.376.058-2.647.843-3.372 2.149Z" fill="#000"/><path d="M9.751 27.639c.966.182 1.972 0 2.824-.513a.006.006 0 0 0 .001-.01.006.006 0 0 1 .002-.009l5.375-3.25a.469.469 0 0 0 .227-.402V19.44a.468.468 0 0 0-.703-.406l-1.184.686c-.018.01-.039.027-.058.037l-.006.003-5.395 3.11a.51.51 0 0 1-.25.064.482.482 0 0 1-.26-.076l-2.916-1.78a.434.434 0 0 0-.614.152 4.501 4.501 0 0 0-.539 2.124 4.513 4.513 0 0 0 .999 2.799 4.166 4.166 0 0 0 2.497 1.486Z" fill="#000"/><path d="M22.623 27.434a4.516 4.516 0 0 0 .978-2.8v-6.64a.47.47 0 0 0-.234-.407L19.933 15.6a.468.468 0 0 0-.702.406v8.038a.547.547 0 0 1-.26.463l-2.998 1.815a.438.438 0 0 0-.164.595 4.187 4.187 0 0 0 1.486 1.509 4.104 4.104 0 0 0 2.84.506 4.209 4.209 0 0 0 2.488-1.497Z" fill="#000"/><path d="M24.641 21.093c0 .248.193.456.44.445 1.373-.065 2.641-.84 3.366-2.142a.003.003 0 0 0-.002-.005.003.003 0 0 1-.003-.004c.55-1 .704-2.161.414-3.28a4.285 4.285 0 0 0-1.946-2.626l-5.328-3.215a.468.468 0 0 0-.48-.002l-3.388 2.01a.47.47 0 0 0 .005.81l6.652 3.842c.166.097.27.28.27.474v3.694Z" fill="#000"/></svg>