<svg width="32" height="32" fill="none" xmlns="http://www.w3.org/2000/svg"><path
    fill-rule="evenodd"
    clip-rule="evenodd"
    d="M11.77 2.186a5.552 5.552 0 0 1 5.67 2.492l1.101-.643a5.552 5.552 0 0 1 7.685 7.4l1.016.593.002.002a5.516 5.516 0 0 1 2.567 6.203 1 1 0 1 1-1.931-.518 3.515 3.515 0 0 0-1.638-3.955l-.004-.002-5.101-2.977L18 12.582l3.488 1.947a1 1 0 1 1-.976 1.747l-.912-.51V19a1 1 0 0 1-2 0v-.032l-1.033.577a.998.998 0 0 1-.163.091l-4.617 2.576a2 2 0 0 1-1.99-.024L7.53 20.852a3.552 3.552 0 0 0 4.926 4.714h.002l2.518-1.465a1 1 0 1 1 1.005 1.73l-2.52 1.465-.004.002a5.552 5.552 0 0 1-7.651-7.463l-1.054-.622a5.517 5.517 0 0 1-2.014-7.532c.972-1.685 2.655-2.67 4.46-2.754v-1.28a5.552 5.552 0 0 1 4.572-5.461Zm13.099 6.64a3.551 3.551 0 0 1-.373 1.6l-2.351-1.372a2 2 0 0 0-2.004-.007l-5.743 3.298V8.77l5.145-3.004a3.552 3.552 0 0 1 5.326 3.06Zm-12.47 5.266V8.77a2 2 0 0 1 .991-1.727l2.32-1.355a3.553 3.553 0 0 0-6.512 1.96v6.01l3.2 1.84v-1.406Zm3.58-.348-1.58.907v1.997l1.603.922 1.598-.892V14.65l-1.622-.906Zm-3.104 4.334a.539.539 0 0 0 .052.03l1.039.598-3.153 1.76-5.048-2.978-.008-.004A3.517 3.517 0 0 1 4.47 12.68c.61-1.056 1.63-1.668 2.728-1.75v2.728a2 2 0 0 0 1.003 1.733l4.673 2.687Z"
    fill="#000"
  /><path
    d="M24 19.75a.75.75 0 0 1 .53.22l.574.574a1.267 1.267 0 0 0 1.792 0c.68-.68 1.854-.207 1.854.766v4.054c0 2.274-2.17 4.386-4.75 4.386s-4.75-2.112-4.75-4.386V21.31c0-.968 1.17-1.451 1.854-.767a1.267 1.267 0 0 0 1.792 0l.574-.574a.75.75 0 0 1 .53-.22Z"
    fill="#000"
  /></svg>
