<svg width="32" height="32" fill="none" xmlns="http://www.w3.org/2000/svg"><path d="M16.723 1.309a1 1 0 0 0-1.446 0l-3 3.136A1 1 0 0 0 13 6.136h2V12a1 1 0 1 0 2 0V6.136h2a1 1 0 0 0 .723-1.691l-3-3.136ZM13 18a1 1 0 0 1 1-1h7a1 1 0 1 1 0 2h-7a1 1 0 0 1-1-1Zm0 4a1 1 0 0 1 1-1h7a1 1 0 1 1 0 2h-7a1 1 0 0 1-1-1Zm-2-3a1 1 0 1 0 0-2 1 1 0 0 0 0 2Zm1 3a1 1 0 1 1-2 0 1 1 0 0 1 2 0Z" fill="#000"/><path d="M8 12a2 2 0 0 1 2-2h1a1 1 0 1 0 0-2h-1a4 4 0 0 0-4 4v13a4 4 0 0 0 4 4h12a4 4 0 0 0 4-4V12a4 4 0 0 0-4-4h-1a1 1 0 1 0 0 2h1a2 2 0 0 1 2 2v13a2 2 0 0 1-2 2H10a2 2 0 0 1-2-2V12Z" fill="#000"/></svg>