<svg width="32" height="32" fill="none" xmlns="http://www.w3.org/2000/svg"><path fill-rule="evenodd" clip-rule="evenodd" d="M16 2a1 1 0 0 1 .723.309l3 3.136A1 1 0 0 1 19 7.136h-2V13a1 1 0 1 1-2 0V7.136h-2a1 1 0 0 1-.723-1.691l3-3.136A1 1 0 0 1 16 2Zm-4.175 17.08c.473.092.966.274 1.347.566a1 1 0 0 1-1.215 1.588c-.063-.048-.237-.137-.516-.192a2.132 2.132 0 0 0-.799-.009c-.246.049-.397.139-.481.228-.07.074-.161.216-.161.535 0 .157.031.214.038.226.007.013.026.042.1.086.2.119.51.192 1.066.308l.045.01c.457.094 1.124.233 1.665.58.304.194.59.464.793.84.203.373.293.794.293 1.244 0 1.523-1.1 2.454-2.232 2.77-1.108.31-2.486.122-3.45-.774a1 1 0 0 1 1.363-1.464c.367.34.989.47 1.548.313.536-.15.771-.47.771-.845 0-.18-.035-.262-.051-.291a.298.298 0 0 0-.113-.11c-.191-.122-.497-.202-1.04-.315l-.088-.018c-.443-.092-1.08-.223-1.596-.531a2.237 2.237 0 0 1-.806-.804A2.418 2.418 0 0 1 8 21.796c0-.762.243-1.415.704-1.905.445-.473 1.018-.715 1.552-.82a4.128 4.128 0 0 1 1.57.009Zm11.918-.046a1 1 0 0 1 1.125.47L27 23.234V20a1 1 0 1 1 2 0v7a1 1 0 0 1-1.868.496L25 23.766V27a1 1 0 1 1-2 0v-7a1 1 0 0 1 .743-.966Zm-7.515.962c.722-.729 1.61-.996 2.272-.996.662 0 1.55.267 2.272.996.744.749 1.228 1.897 1.228 3.504s-.484 2.755-1.228 3.504c-.722.729-1.61.996-2.272.996-.662 0-1.55-.267-2.272-.996C15.484 26.255 15 25.107 15 23.5s.484-2.755 1.228-3.504Zm1.42 1.408c-.3.301-.648.903-.648 2.096s.349 1.795.647 2.096c.32.321.682.404.853.404.17 0 .534-.083.853-.404.298-.301.647-.903.647-2.096s-.349-1.795-.647-2.096c-.32-.321-.682-.404-.853-.404-.17 0-.534.083-.853.404ZM6 19a1 1 0 0 1 1 1v5a3 3 0 1 1-6 0 1 1 0 1 1 2 0 1 1 0 1 0 2 0v-5a1 1 0 0 1 1-1Zm4-8a2 2 0 0 0-2 2v2a1 1 0 1 1-2 0v-2a4 4 0 0 1 4-4h1a1 1 0 1 1 0 2h-1Zm10-1a1 1 0 0 1 1-1h1a4 4 0 0 1 4 4v2a1 1 0 1 1-2 0v-2a2 2 0 0 0-2-2h-1a1 1 0 0 1-1-1Z" fill="#000"/></svg>