<svg width="32" height="32" fill="none" xmlns="http://www.w3.org/2000/svg"><path fill-rule="evenodd" clip-rule="evenodd" d="M2 16C2 8.268 8.268 2 16 2s14 6.268 14 14c0 .58-.098 1.297-.234 2.02-.641 3.41-3.988 5.227-7.204 4.732l-4.05-.623a1 1 0 0 0-1.014 1.495l1.091 1.855C19.767 27.48 18.318 30 16 30 8.268 30 2 23.732 2 16Zm22.5 1a1.5 1.5 0 1 0 0-3 1.5 1.5 0 0 0 0 3ZM17 7.5a1.5 1.5 0 1 1-3 0 1.5 1.5 0 0 1 3 0Zm4.5 3.5a1.5 1.5 0 1 0 0-3 1.5 1.5 0 0 0 0 3ZM11 10.5a1.5 1.5 0 1 1-3 0 1.5 1.5 0 0 1 3 0ZM7.5 18a1.5 1.5 0 1 0 0-3 1.5 1.5 0 0 0 0 3Z" fill="#000"/></svg>