<svg width="32" height="32" fill="none" xmlns="http://www.w3.org/2000/svg"><path fill-rule="evenodd" clip-rule="evenodd" d="M5 6a4 4 0 0 0-4 4v12a4 4 0 0 0 4 4h22a4 4 0 0 0 4-4V10a4 4 0 0 0-4-4H5Zm12 7a1 1 0 1 0-2 0v.586l-.414-.414a1 1 0 0 0-1.414 1.414l.414.414H13a1 1 0 1 0 0 2h.586l-.414.414a1 1 0 0 0 1.414 1.414l.414-.414V19a1 1 0 1 0 2 0v-.586l.414.414a1 1 0 1 0 1.414-1.414L18.414 17H19a1 1 0 1 0 0-2h-.586l.414-.414a1 1 0 1 0-1.414-1.414l-.414.414V13Zm8-1a1 1 0 0 1 1 1v.586l.414-.414a1 1 0 1 1 1.414 1.414l-.414.414H28a1 1 0 1 1 0 2h-.586l.414.414a1 1 0 1 1-1.414 1.414L26 18.414V19a1 1 0 1 1-2 0v-.586l-.414.414a1 1 0 0 1-1.414-1.414l.414-.414H22a1 1 0 1 1 0-2h.586l-.414-.414a1 1 0 0 1 1.414-1.414l.414.414V13a1 1 0 0 1 1-1ZM8 13a1 1 0 1 0-2 0v.586l-.414-.414a1 1 0 0 0-1.414 1.414l.414.414H4a1 1 0 1 0 0 2h.586l-.414.414a1 1 0 1 0 1.414 1.414L6 18.414V19a1 1 0 1 0 2 0v-.586l.414.414a1 1 0 1 0 1.414-1.414L9.414 17H10a1 1 0 1 0 0-2h-.586l.414-.414a1 1 0 1 0-1.414-1.414L8 13.586V13Z" fill="#000"/></svg>