<svg width="32" height="32" fill="none" xmlns="http://www.w3.org/2000/svg"><path fill-rule="evenodd" clip-rule="evenodd" d="M6 6a4 4 0 0 0-4 4v12a4 4 0 0 0 4 4h20a4 4 0 0 0 4-4V10a4 4 0 0 0-4-4H6Zm1.169 7.16a.917.917 0 1 0-1.588.917l.581 1.007H5a.917.917 0 1 0 0 1.833h1.162l-.58 1.006a.917.917 0 1 0 1.587.917l.581-1.007.581 1.007a.917.917 0 1 0 1.588-.917l-.581-1.006H10.5a.917.917 0 1 0 0-1.834H9.338l.58-1.006a.917.917 0 1 0-1.587-.917l-.581 1.007-.581-1.007Zm6.998-.335a.917.917 0 0 1 1.252.335L16 14.167l.581-1.007a.917.917 0 0 1 1.588.917l-.581 1.007h1.162a.917.917 0 1 1 0 1.833h-1.162l.58 1.006a.917.917 0 0 1-1.587.917L16 17.833l-.581 1.007a.917.917 0 0 1-1.588-.917l.581-1.006H13.25a.917.917 0 1 1 0-1.834h1.162l-.58-1.006a.917.917 0 0 1 .335-1.252Zm9.502.335a.917.917 0 0 0-1.588.917l.581 1.007H21.5a.917.917 0 1 0 0 1.833h1.162l-.58 1.006a.917.917 0 0 0 1.587.917l.581-1.007.581 1.007a.917.917 0 0 0 1.588-.917l-.581-1.006H27a.917.917 0 1 0 0-1.834h-1.162l.58-1.006a.917.917 0 0 0-1.587-.917l-.581 1.007-.581-1.007Z" fill="#000"/></svg>