<svg width="32" height="32" fill="none" xmlns="http://www.w3.org/2000/svg"><path fill-rule="evenodd" clip-rule="evenodd" d="M17 3a1 1 0 1 0-2 0v4.855L11.236 4.75c-1.488-1.379-3.995-.375-3.995 1.72v2.507h-.866C5.078 8.977 4 10.016 4 11.331v8.315C4 20.961 5.078 22 6.375 22h.866v1.547c0 2.08 2.46 3.072 3.947 1.764a1.4 1.4 0 0 1 .04-.034l.007-.006L15 22.667V29a1 1 0 0 0 2 0v-6.333l3.765 2.604.007.006c.01.007.02.017.04.034 1.487 1.308 3.947.316 3.947-1.764V22h.866C26.922 22 28 20.96 28 19.646v-8.315c0-1.315-1.078-2.354-2.375-2.354h-.866V6.47c0-2.095-2.507-3.1-3.995-1.72L17 7.854V3ZM9.938 6.271l3.28 2.706H9.24V6.47c0-.149.079-.263.224-.323a.372.372 0 0 1 .418.075.994.994 0 0 0 .055.05Zm-.627 9.973L15 11.977v8.258l-4.905 3.393c-.1.069-.182.141-.228.182a.373.373 0 0 1-.41.057.333.333 0 0 1-.216-.32v-7.098a.34.34 0 0 1 .07-.205ZM17 11.977v8.258l4.904 3.392c.1.07.183.142.23.183.113.1.263.12.409.057a.333.333 0 0 0 .216-.32v-7.098a.34.34 0 0 0-.07-.206L17 11.978Zm5.759-5.507v2.507h-3.976l3.279-2.706a.963.963 0 0 0 .055-.049.372.372 0 0 1 .418-.075c.145.06.224.174.224.323Z" fill="#000"/><path d="M16 3v26m0-19.023V20.76" stroke="#000" stroke-width="2" stroke-linecap="round" stroke-linejoin="round"/></svg>