<svg width="32" height="32" fill="none" xmlns="http://www.w3.org/2000/svg"><path d="M19.28 2.375a1 1 0 0 0-1.227-.27l-3 1.5a1 1 0 0 0 .251 1.876l1.615.323-.4 2a1 1 0 0 0 1.962.392l.4-2 1.423.285a1 1 0 0 0 .977-1.606l-2-2.5ZM9.163 6.548a1 1 0 0 0-.927.85l-.498 3.316a1 1 0 0 0 1.679.873l1.213-1.155.652.673a1 1 0 0 0 1.436-1.391l-.64-.66 1.032-.982a1 1 0 0 0-.751-1.723l-3.196.199Zm17.483 3.684a1 1 0 0 0-.678-1.06l-3.182-1.06a1 1 0 0 0-1.148 1.503l.895 1.344-1.079.703a1 1 0 0 0 1.092 1.676l1.097-.715.823 1.235a1 1 0 0 0 1.826-.444l.354-3.182Zm-8.866.143a1 1 0 0 0-1.227-.27l-3 1.5a1 1 0 0 0 .251 1.876l1.615.323-.4 2a1 1 0 0 0 1.962.392l.4-2 1.423.285a1 1 0 0 0 .977-1.606l-2-2.5ZM15 28.5a1.5 1.5 0 1 1-3 0 1.5 1.5 0 0 1 3 0Zm6.84.15a1 1 0 0 0 1.059-.677l1.06-3.182a1 1 0 0 0-1.503-1.148l-1.377.918-.748-1.118a1 1 0 1 0-1.662 1.114l.746 1.113-1.202.801a1 1 0 0 0 .445 1.826l3.182.354ZM5.894 26.202a1 1 0 0 1-.726-1.027l.216-3.347a1 1 0 0 1 1.826-.497l.787 1.16.624-.5a1 1 0 1 1 1.25 1.562l-.747.598.95 1.398a1 1 0 0 1-1.1 1.524l-3.08-.87Zm21.731-5.422a1 1 0 0 0 .27-1.227l-1.5-3a1 1 0 0 0-1.875.25l-.295 1.473-.982-.246a1 1 0 1 0-.485 1.94l1.075.269-.313 1.565a1 1 0 0 0 1.605.977l2.5-2Zm-23.25-5.56a1 1 0 0 0-.27 1.227l1.5 3a1 1 0 0 0 1.876-.25l.366-1.833 1.029.128a1 1 0 1 0 .248-1.984l-.884-.11.24-1.202a1 1 0 0 0-1.605-.977l-2.5 2Zm11.905 3.155a1 1 0 0 0-1.227-.27l-3 1.5a1 1 0 0 0 .251 1.876l1.615.323-.4 2a1 1 0 0 0 1.962.392l.4-2 1.423.285a1 1 0 0 0 .977-1.606l-2-2.5Z" fill="#000"/></svg>