<svg width="32" height="32" fill="none" xmlns="http://www.w3.org/2000/svg"><path fill-rule="evenodd" clip-rule="evenodd" d="M15.852 3.266c-.936-.596-2.162-.15-2.539.932L11.32 9.933c-1.333 3.833.583 8.867 4.637 10.412 4.053 1.545 8.612-1.023 9.944-4.855l1.993-5.734c.376-1.082-.288-2.25-1.372-2.424l-.907-.145a23.678 23.678 0 0 1-8.98-3.422l-.783-.499Zm6.469 9.233c.137-.394-.057-.83-.434-.974a.717.717 0 0 0-.93.454.645.645 0 0 1-.835.409.692.692 0 0 1-.39-.876c.383-1.103 1.548-1.672 2.602-1.27 1.053.4 1.596 1.62 1.213 2.724a.645.645 0 0 1-.836.408.693.693 0 0 1-.39-.875Zm-5.667-2.782c.377.143.57.579.434.973a.692.692 0 0 0 .39.876.645.645 0 0 0 .836-.409c.383-1.103-.16-2.323-1.213-2.724-1.054-.402-2.22.167-2.603 1.27a.693.693 0 0 0 .39.876.645.645 0 0 0 .837-.408.717.717 0 0 1 .93-.454Zm3.532 6.41-.018.019a.12.12 0 0 0-.052.018 1.222 1.222 0 0 1-.165.055 2.94 2.94 0 0 1-.557.118c-.479.064-1.123.037-1.88-.246a4.166 4.166 0 0 1-1.584-1.066 3.164 3.164 0 0 1-.356-.473.752.752 0 0 1-.087-.155c-.018-.019-.027-.037-.027-.046v-.018l-.017-.01a.697.697 0 0 1 .313-.91.63.63 0 0 1 .862.319s.017.045.035.073c.043.063.113.163.217.282.2.219.54.51 1.088.72.54.2.983.21 1.27.173a2.49 2.49 0 0 0 .331-.064.392.392 0 0 0 .078-.027h.01a.631.631 0 0 1 .852.328c.157.346.017.756-.313.91Z" fill="#000"/><path fill-rule="evenodd" clip-rule="evenodd" d="M10 15.445c-.135-.47-.602-.743-1.055-.617-.841.233-1.696.42-2.56.558l-.906.145c-1.084.174-1.75 1.34-1.373 2.423l1.993 5.735c1.333 3.832 5.89 6.4 9.945 4.855 2.513-.958 4.314-3.008 4.924-5.474a.94.94 0 0 0-.224-.87.844.844 0 0 0-.83-.242c-1.414.542-3.277.279-5.179-.541-1.86-.802-3.765-2.61-4.734-5.972Zm.137 5.763a.717.717 0 0 0-.93-.454c-.376.143-.57.579-.433.973a.693.693 0 0 1-.39.876.645.645 0 0 1-.836-.409c-.384-1.103.16-2.323 1.213-2.724 1.054-.402 2.219.167 2.602 1.27a.693.693 0 0 1-.39.876.645.645 0 0 1-.836-.408Zm5.933 3.184a.645.645 0 0 0 .791-.483h-.008a.688.688 0 0 0-.461-.838v-.009h-.018a.103.103 0 0 1-.024-.004c-.01-.002-.022-.005-.037-.005a1.612 1.612 0 0 0-.165-.027c-.14-.018-.34-.037-.574-.018-.47.027-1.105.173-1.802.592a4.208 4.208 0 0 0-1.392 1.339 4.51 4.51 0 0 0-.27.52 5.867 5.867 0 0 0-.06.172.126.126 0 0 0-.01.028.137.137 0 0 1-.008.027l-.009.027c-.095.365.113.747.462.838.348.1.696-.109.8-.482 0-.01.009-.037.026-.073a2.04 2.04 0 0 1 .165-.31c.157-.255.453-.601.949-.902a2.59 2.59 0 0 1 1.227-.41 1.855 1.855 0 0 1 .409.018h.009Z" fill="#000"/></svg>