<svg width="32" height="32" fill="none" xmlns="http://www.w3.org/2000/svg"><path fill-rule="evenodd" clip-rule="evenodd" d="M11.425 13.709c.263-1.586.408-2.733.482-3.482.406-.3.956-.645 1.484-.856.316-.126.579-.187.773-.19.184-.002.25.045.281.076.417.42.772 1.1 1.022 1.918.247.806.37 1.677.37 2.411 0 .22-.056.54-.173.949-.114.399-.272.84-.447 1.289-.132.34-.282.701-.426 1.049-.178.428-.346.835-.462 1.151-.718-.29-1.26-.567-1.572-.726l-.125-.064c-.43-.215-1.581-1.266-1.207-3.525Zm1.714-3.666c.404-.309 1.742.108 1.576.506-.166.398-.635.71-1.22.48-.497-.194-.76-.678-.356-.986Z" fill="#000"/><path d="M19.747 19.141c-1.497 0-2.866-.273-4.004-.617.098-.27.236-.6.394-.981.146-.351.31-.745.478-1.174.182-.469.36-.96.492-1.424.13-.454.23-.931.23-1.359 0-.884-.146-1.903-.436-2.85-.286-.937-.736-1.876-1.392-2.536-.398-.4-.904-.525-1.366-.518-.45.006-.905.135-1.309.296a6.906 6.906 0 0 0-.712.337c.18-.84.507-1.786 1.027-2.574.724-1.098 1.773-1.841 3.354-1.664 3.113.348 5.166 1.86 6.155 3.489-.456.12-.92.32-1.34.577-.703.431-1.398 1.093-1.688 1.969-.167.505-.129 1.159-.035 1.772.1.646.284 1.381.51 2.12.454 1.475 1.101 3.045 1.665 4.086.04.072.089.135.146.188-.098.102-.2.196-.31.28-.45.35-1.043.583-1.859.583Z" fill="#000"/><path d="M22.102 9.422a3.443 3.443 0 0 1 1.144-.452c.068.287.102.569.102.838v.182a.399.399 0 0 0-.075-.073c-.276-.21-1.189.074-1.076.346a.622.622 0 0 0 .833.327.668.668 0 0 0 .318-.243v2.7c0 1.066-.102 2.519-.555 3.745a24.426 24.426 0 0 1-1.253-3.229 13.975 13.975 0 0 1-.462-1.907c-.09-.584-.071-.93-.024-1.072.14-.42.518-.837 1.048-1.162Zm-9.231-5.654c-.377.34-.7.732-.975 1.148-.925 1.404-1.326 3.128-1.422 4.29a.752.752 0 0 0-.002.062c0 .294-.098 1.61-.527 4.196-.438 2.643.743 4.274 1.714 4.934-.21.436-.522.983-.974 1.665-1.717 2.591-3.22 1.08-3.756 0-1.073-1.799-3.112-6.8-2.682-12.414.395-5.165 5.691-4.932 8.624-3.881Zm-.66 14.936c.57 1.177.12 3.487-1.21 4.296.76.373 2.404-.338 3.008-.805.634-.492 1.07-1.34 1.01-2.326a18.762 18.762 0 0 1-2.808-1.165Zm3.649 2.603c-.081 1.867-.081 3.876.19 4.693.536 1.62 1.073 2.16 2.146 2.16s2.682-.54 3.219-1.08c.336-.339.884-3.225 1.245-5.597-.137-.821-.522-.993-.628-1.41-.64.364-1.398.568-2.285.568a15.09 15.09 0 0 1-3.724-.483c-.078.24-.132.462-.162 1.149Zm7.464-.667c2.803.281 4.183-1.327 4.529-2.196-1.62.326-2.968-.349-3.762-.854a7.015 7.015 0 0 1-.02.049c-.269.632-.636 1.242-1.14 1.747.008.256.106.717.393 1.254Z" fill="#000"/><path d="M24.365 16.817c.404-1.35.483-2.779.483-3.77V9.808c0-2.36-1.695-4.879-4.65-6.255 2.366-.65 6.156-.59 7.655 3.556 1.206 3.338-1.048 7.048-3.488 9.708Z" fill="#000"/></svg>