<svg width="32" height="32" fill="none" xmlns="http://www.w3.org/2000/svg"><path
    d="M16.24 2.561a.5.5 0 0 0-.48 0l-11 6A.5.5 0 0 0 4.5 9v12a.5.5 0 0 0 .26.439l11 6a.5.5 0 0 0 .462.01l2.5-1.238a.5.5 0 0 0 .278-.448V21.5a.5.5 0 0 0-.757-.429l-2.257 1.355L9 18.7v-7.4l7-3.733 7 3.733v16.2a.5.5 0 0 0 .77.421l3.5-2.236a.5.5 0 0 0 .23-.422V9a.5.5 0 0 0-.26-.439l-11-6Z"
    fill="#000"
  /><path
    d="M16.257 11.571a.5.5 0 0 0-.514 0l-2.5 1.5A.5.5 0 0 0 13 13.5v3a.5.5 0 0 0 .243.429l2.5 1.5a.5.5 0 0 0 .514 0l2.5-1.5A.5.5 0 0 0 19 16.5v-3a.5.5 0 0 0-.243-.429l-2.5-1.5Z"
    fill="#000"
  /></svg>
