<svg width="32" height="32" fill="none" xmlns="http://www.w3.org/2000/svg"><path fill-rule="evenodd" clip-rule="evenodd" d="M20.714 4.103a1.11 1.11 0 0 0-.588-.992 1.005 1.005 0 0 0-1.105.123L13.783 7.55c-.254.21-.402.53-.402.869v2.868a4.051 4.051 0 0 0-.967.358l-5.087 2.657C5.902 15.047 5 16.578 5 18.254v3.293c0 1.607.83 3.087 2.167 3.863l5.238 3.041a4.007 4.007 0 0 0 4.047 0l5.238-3.04c1.337-.777 2.167-2.257 2.167-3.864v-2.509c0-.542-.095-1.07-.272-1.562l3.013-2.482c.254-.21.402-.53.402-.869v-5.61a1.11 1.11 0 0 0-.589-.992 1.005 1.005 0 0 0-1.104.123l-5.238 4.316c-.254.209-.402.53-.402.868v1.049l-1.89-1.208 2.535-2.09a1.12 1.12 0 0 0 .402-.868v-5.61ZM9.19 21.749c-.578 0-1.047-.493-1.047-1.102v-1.103c0-.61.469-1.103 1.047-1.103.58 0 1.048.494 1.048 1.103v1.102c0 .61-.469 1.103-1.048 1.103Zm3.143 1.103c0 .61.47 1.103 1.048 1.103.579 0 1.048-.494 1.048-1.103V21.75c0-.609-.47-1.102-1.048-1.102-.579 0-1.048.493-1.048 1.102v1.103Z" fill="#000"/></svg>