<svg width="32" height="32" fill="none" xmlns="http://www.w3.org/2000/svg"><path
    d="M17.407 3.995c-.483-1.327-2.33-1.327-2.814 0l-.523 1.437a.504.504 0 0 1-.295.3l-1.414.532c-1.306.49-1.306 2.368 0 2.859l1.414.531a.504.504 0 0 1 .295.3l.523 1.437c.483 1.327 2.33 1.327 2.814 0l.523-1.437a.504.504 0 0 1 .295-.3l1.414-.531c1.306-.491 1.306-2.368 0-2.86l-1.414-.531a.504.504 0 0 1-.295-.3l-.523-1.437ZM12 16.838c0-1.122.895-2.032 2-2.032h4c1.105 0 2 .91 2 2.033v9.145c0 .561-.448 1.016-1 1.016h-6c-.552 0-1-.455-1-1.016v-9.146Zm-9 4.065c0-1.122.895-2.032 2-2.032h3c1.105 0 2 .91 2 2.032v5.08C10 26.546 9.552 27 9 27H5c-1.105 0-2-.91-2-2.032v-4.065Zm21 0c-1.105 0-2 .91-2 2.032v3.049c0 .561.448 1.016 1 1.016h4c1.105 0 2-.91 2-2.032v-2.033c0-1.122-.895-2.032-2-2.032h-3Z"
    fill="#000"
  /></svg>
