<svg width="32" height="32" fill="none" xmlns="http://www.w3.org/2000/svg"><path d="M17.407 4.361c-.483-1.306-2.33-1.306-2.814 0l-.523 1.414a.5.5 0 0 1-.295.295l-1.414.523c-1.306.483-1.306 2.33 0 2.814l1.414.523a.5.5 0 0 1 .295.295l.523 1.414c.483 1.306 2.33 1.306 2.814 0l.523-1.414a.5.5 0 0 1 .295-.295l1.414-.523c1.306-.483 1.306-2.33 0-2.814l-1.414-.523a.5.5 0 0 1-.295-.295l-.523-1.414ZM12 17a2 2 0 0 1 2-2h4a2 2 0 0 1 2 2v9a1 1 0 0 1-1 1h-6a1 1 0 0 1-1-1v-9Zm-9 4a2 2 0 0 1 2-2h3a2 2 0 0 1 2 2v5a1 1 0 0 1-1 1H5a2 2 0 0 1-2-2v-4Zm21 0a2 2 0 0 0-2 2v3a1 1 0 0 0 1 1h4a2 2 0 0 0 2-2v-2a2 2 0 0 0-2-2h-3Z" fill="#000"/></svg>