<svg width="32" height="32" viewBox="0 0 32 32" fill="none" xmlns="http://www.w3.org/2000/svg">
<path d="M18 5H9C7.89543 5 7 5.89543 7 7V25C7 26.1046 7.89543 27 9 27H12M18 5L25 12M18 5V12H25M25 12V25C25 26.1046 24.1046 27 23 27H20" stroke="black" stroke-width="2" stroke-linecap="round" stroke-linejoin="round"/>
<path fill-rule="evenodd" clip-rule="evenodd" d="M16.7226 16.3087C16.534 16.1115 16.2729 16 16 16C15.7271 16 15.4661 16.1115 15.2774 16.3087L12.2774 19.4448C12.0006 19.7342 11.9231 20.1608 12.0804 20.529C12.2378 20.8972 12.5996 21.1361 13 21.1361H15V29C15 29.5523 15.4477 30 16 30C16.5523 30 17 29.5523 17 29V21.1361H19C19.4005 21.1361 19.7623 20.8972 19.9196 20.529C20.0769 20.1608 19.9994 19.7342 19.7226 19.4448L16.7226 16.3087Z" fill="black"/>
</svg>
