<svg width="32" height="32" fill="none" xmlns="http://www.w3.org/2000/svg"><path fill-rule="evenodd" clip-rule="evenodd" d="M6.075 6.136A2 2 0 0 1 8.07 4h15.86a2 2 0 0 1 1.995 2.136l-1.237 18.136A4 4 0 0 1 20.698 28h-9.396a4 4 0 0 1-3.99-3.728L6.075 6.136Zm12.284 6.167c-1.058-1.737-3.66-1.737-4.719 0l-.282.463a1 1 0 0 0 1.708 1.041l.282-.463c.28-.459 1.024-.459 1.304 0l.282.463a1 1 0 1 0 1.708-1.04l-.282-.464Zm-4.987 4.284a1 1 0 1 0-1.708-1.041l-.282.463C10.256 17.855 11.72 20 13.742 20h.564a1 1 0 0 0 0-2h-.565a.742.742 0 0 1-.652-.344.559.559 0 0 1 0-.606l.283-.463Zm6.964-1.041a1 1 0 1 0-1.708 1.04l.282.464a.558.558 0 0 1 0 .606.742.742 0 0 1-.651.344h-.565a1 1 0 1 0 0 2h.565c2.02 0 3.485-2.145 2.36-3.991l-.283-.463Z" fill="#000"/></svg>