<svg width="32" height="32" fill="none" xmlns="http://www.w3.org/2000/svg"><path fill-rule="evenodd" clip-rule="evenodd" d="M6.005 6.136A2.006 2.006 0 0 1 8.015 4h15.97c1.167 0 2.09.98 2.01 2.136L24.75 24.272C24.606 26.371 22.85 28 20.73 28h-9.46c-2.12 0-3.876-1.63-4.02-3.728L6.005 6.136Zm12.371 6.167c-1.066-1.737-3.686-1.737-4.753 0l-.284.463a.996.996 0 0 0 .336 1.375 1.011 1.011 0 0 0 1.384-.334l.284-.463c.282-.459 1.032-.459 1.314 0l.284.463c.29.472.909.621 1.384.334a.996.996 0 0 0 .336-1.375l-.285-.463Zm-5.023 4.284a.996.996 0 0 0-.336-1.375 1.011 1.011 0 0 0-1.384.334l-.284.463C10.216 17.855 11.69 20 13.725 20h.569c.556 0 1.007-.448 1.007-1s-.45-1-1.007-1h-.569a.748.748 0 0 1-.656-.344.555.555 0 0 1 0-.606l.284-.463Zm7.014-1.041a1.012 1.012 0 0 0-1.384-.334.996.996 0 0 0-.336 1.375l.284.463a.555.555 0 0 1 0 .606.749.749 0 0 1-.656.344h-.569c-.556 0-1.007.448-1.007 1s.45 1 1.007 1h.569c2.035 0 3.51-2.145 2.376-3.991l-.284-.463Z" fill="#000"/></svg>