<svg width="32" height="32" fill="none" xmlns="http://www.w3.org/2000/svg"><path fill-rule="evenodd" clip-rule="evenodd" d="M13.931 6.842a5 5 0 0 1 4.138 0l9.341 4.246a.996.996 0 0 1 .56 1.152.994.994 0 0 1-.556.67l-9.345 4.248a5 5 0 0 1-4.138 0L4.586 12.91a.996.996 0 0 1-.52-1.27.996.996 0 0 1 .524-.552l9.341-4.246Zm.869 3.984c0 .441-1.075.921-2.4.921s-2.4-.48-2.4-.921c0-.442 1.075-.903 2.4-.903s2.4.46 2.4.903Zm-.216-1.645 1.015-.36a.08.08 0 0 0 .043-.114l-.278-.515a.08.08 0 0 1 .1-.113l1.11.434a.08.08 0 0 0 .053.001l1.064-.35a.08.08 0 0 1 .098.108l-.24.574a.08.08 0 0 0 .046.105l.894.341c.079.03.063.146-.02.154l-1.284.127a.08.08 0 0 0-.066.05l-.289.71a.08.08 0 0 1-.143.01l-.488-.826a.08.08 0 0 0-.062-.039l-1.534-.142c-.085-.008-.1-.126-.019-.155Zm6.15.47-2.675 1.068a.08.08 0 0 0 0 .148l2.4.973a.08.08 0 0 0 .06 0l2.708-1.067a.08.08 0 0 0 0-.149l-2.434-.973a.08.08 0 0 0-.06 0Zm-6.876 2.778 3.997-.61a.08.08 0 0 1 .082.118l-1.052 1.864a.08.08 0 0 1-.101.034l-2.946-1.253c-.074-.032-.06-.14.02-.153Z" fill="#000"/><path d="M4.09 15.586a1 1 0 0 1 1.324-.496l9.345 4.247a3 3 0 0 0 2.482 0l9.345-4.247a1 1 0 0 1 .828 1.82l-9.345 4.248a5 5 0 0 1-4.138 0L4.586 16.91a1 1 0 0 1-.496-1.324Z" fill="#000"/><path d="M5.414 19.09a1 1 0 0 0-.828 1.82l9.345 4.248a5 5 0 0 0 4.138 0l9.345-4.248a1 1 0 0 0-.828-1.82l-9.345 4.247a3 3 0 0 1-2.482 0L5.414 19.09Z" fill="#000"/></svg>