<svg width="32" height="32" fill="none" xmlns="http://www.w3.org/2000/svg"><path fill-rule="evenodd" clip-rule="evenodd" d="M13.931 4.56c1.315-.747 2.823-.747 4.138 0l9.341 5.304c.204.115.378.315.485.582a1.537 1.537 0 0 1 .015 1.075 1.16 1.16 0 0 1-.496.62l-9.345 5.306a4.473 4.473 0 0 1-.501.245c-1.188.49-2.487.408-3.637-.245L4.586 12.14c-.228-.13-.4-.354-.496-.619a1.537 1.537 0 0 1 .015-1.075c.107-.267.28-.467.485-.582l9.34-5.304Zm.869 4.976c0 .552-1.075 1.152-2.4 1.152s-2.4-.6-2.4-1.152c0-.552 1.075-1.128 2.4-1.128s2.4.576 2.4 1.128Zm-.216-2.054 1.015-.45c.046-.021.067-.089.044-.143l-.279-.643c-.035-.082.03-.174.1-.14l1.11.54c.016.01.035.01.053.003l1.064-.437c.065-.027.125.055.098.134l-.24.717c-.017.052.003.112.046.132l.894.425c.079.038.063.183-.02.193l-1.284.159c-.03.003-.055.027-.067.062l-.288.886c-.024.076-.109.084-.143.013L16.2 7.901a.08.08 0 0 0-.062-.048l-1.534-.177c-.085-.01-.1-.158-.019-.194Zm6.15.587-2.675 1.334c-.067.033-.068.151 0 .185l2.4 1.215c.02.01.04.01.06 0l2.708-1.333c.067-.033.067-.152 0-.186L20.793 8.07a.065.065 0 0 0-.06 0Zm-6.876 3.47 3.997-.762c.066-.012.115.075.082.148l-1.052 2.328c-.02.045-.064.063-.101.043l-2.946-1.566c-.074-.04-.06-.176.02-.19Z" fill="#000"/><path d="M4.09 15.483c.228-.628.821-.906 1.324-.62l9.345 5.306a2.462 2.462 0 0 0 2.482 0l9.345-5.306c.503-.286 1.096-.008 1.324.62.229.628.006 1.369-.496 1.654l-9.345 5.306c-1.315.747-2.823.747-4.138 0l-9.345-5.306c-.502-.285-.725-1.026-.496-1.654Z" fill="#000"/><path d="M5.414 19.86c-.503-.286-1.096-.008-1.324.62-.229.628-.006 1.369.496 1.654l9.345 5.306c1.315.747 2.823.747 4.138 0l9.345-5.306c.502-.285.725-1.026.496-1.654-.228-.628-.821-.906-1.324-.62l-9.345 5.306a2.462 2.462 0 0 1-2.482 0L5.414 19.86Z" fill="#000"/></svg>