<svg width="32" height="32" viewBox="0 0 32 32" fill="none" xmlns="http://www.w3.org/2000/svg">
<path d="M27 9.58333C27 12.1146 22.0751 14.1667 16 14.1667C9.92487 14.1667 5 12.1146 5 9.58333C5 7.05203 9.92487 5 16 5C22.0751 5 27 7.05203 27 9.58333Z" fill="black"/>
<path d="M27 9.58333C27 12.1146 22.0751 14.1667 16 14.1667C9.92487 14.1667 5 12.1146 5 9.58333M27 9.58333C27 7.05203 22.0751 5 16 5C9.92487 5 5 7.05203 5 9.58333M27 9.58333V16M5 9.58333V22.4167C5 24.948 9.92487 27 16 27M16 20.5833C9.92487 20.5833 5 18.5313 5 16" stroke="black" stroke-width="2" stroke-linecap="round"/>
<path d="M20.3854 27.4564C18.8224 25.8935 18.4766 23.58 19.357 21.7141L22.1443 24.5014C22.8052 25.1622 23.8685 25.1703 24.5194 24.5194C25.1702 23.8685 25.1622 22.8052 24.5013 22.1443L21.714 19.357C23.58 18.4766 25.8935 18.8224 27.4564 20.3854C29.0194 21.9483 29.3652 24.2618 28.4848 26.1278L29.4922 27.1352L27.1352 29.4922L26.1278 28.4848C24.2618 29.3652 21.9483 29.0194 20.3854 27.4564Z" fill="black" stroke="black" stroke-linecap="round" stroke-linejoin="round"/>
</svg>
