<svg width="32" height="32" fill="none" xmlns="http://www.w3.org/2000/svg"><path
    d="M11 12.027a5.007 5.007 0 0 1 5-5.013c2.761 0 5 2.244 5 5.013a5.007 5.007 0 0 1-5 5.014c-2.761 0-5-2.244-5-5.014Z"
    fill="#000"
  /><path
    fill-rule="evenodd"
    clip-rule="evenodd"
    d="M6 12.027C6 6.49 10.477 2 16 2s10 4.49 10 10.027a10.02 10.02 0 0 1-4 8.023v7.94c0 1.682-1.94 2.617-3.25 1.567L16 27.35l-2.75 2.207c-1.31 1.05-3.25.115-3.25-1.566v-7.94c-2.429-1.83-4-4.743-4-8.023Zm10 10.028a9.944 9.944 0 0 1-4-.834v6.77l2.75-2.207a1.996 1.996 0 0 1 2.5 0L20 27.991v-6.77a9.944 9.944 0 0 1-4 .834Zm0-17.047c-3.866 0-7 3.143-7 7.02 0 3.876 3.134 7.019 7 7.019s7-3.143 7-7.02c0-3.876-3.134-7.019-7-7.019Z"
    fill="#000"
  /></svg>
