<svg width="32" height="32" fill="none" xmlns="http://www.w3.org/2000/svg"><path d="M11 12a5 5 0 1 1 10 0 5 5 0 0 1-10 0Z" fill="#000"/><path fill-rule="evenodd" clip-rule="evenodd" d="M6 12C6 6.477 10.477 2 16 2s10 4.477 10 10a9.985 9.985 0 0 1-4 8v7.92c0 1.676-1.94 2.609-3.25 1.561l-2.75-2.2-2.75 2.2C11.94 30.53 10 29.596 10 27.92v-7.918A9.985 9.985 0 0 1 6 12Zm10 10a9.966 9.966 0 0 1-4-.832v6.751l2.75-2.2a2 2 0 0 1 2.5 0l2.75 2.2v-6.751A9.966 9.966 0 0 1 16 22Zm0-17a7 7 0 1 0 0 14 7 7 0 0 0 0-14Z" fill="#000"/></svg>