<svg width="32" height="32" fill="none" xmlns="http://www.w3.org/2000/svg"><path d="M11 12a5 5 0 1 1 10 0 5 5 0 0 1-10 0Z" fill="#000"/><path fill-rule="evenodd" clip-rule="evenodd" d="M14.38 1.852a3 3 0 0 1 3.24 0l1.167.749a1 1 0 0 0 .483.157l1.384.08a3 3 0 0 1 2.622 1.905l.503 1.291a1 1 0 0 0 .299.41l1.073.879a3 3 0 0 1 1.001 3.082l-.352 1.341a.998.998 0 0 0 0 .508l.352 1.34a3 3 0 0 1-1.002 3.083l-1.072.878a1 1 0 0 0-.299.41l-.503 1.292A2.999 2.999 0 0 1 22 20.754v7.165c0 1.677-1.94 2.61-3.25 1.562l-2.75-2.2-2.75 2.2C11.94 30.53 10 29.596 10 27.92v-7.165a2.999 2.999 0 0 1-1.276-1.497l-.504-1.291a1 1 0 0 0-.298-.41l-1.073-.879a3 3 0 0 1-1.001-3.082l.352-1.341a1 1 0 0 0 0-.508l-.352-1.34a3 3 0 0 1 1.001-3.083l1.073-.878a1 1 0 0 0 .298-.41l.504-1.292a3 3 0 0 1 2.622-1.905l1.384-.08a1 1 0 0 0 .483-.157l1.166-.749Zm-1.65 19.39L12 21.2v6.72l2.75-2.201a2 2 0 0 1 2.5 0l2.75 2.2V21.2l-.73.042a1 1 0 0 0-.483.157l-1.166.749a3 3 0 0 1-3.242 0l-1.166-.749a1 1 0 0 0-.483-.157ZM16 5a7 7 0 1 0 0 14 7 7 0 0 0 0-14Z" fill="#000"/></svg>