<svg width="32" height="32" fill="none" xmlns="http://www.w3.org/2000/svg"><path
    d="M11.122 12.42c0-2.709 2.184-4.904 4.878-4.904s4.878 2.195 4.878 4.904-2.184 4.904-4.878 4.904-4.878-2.196-4.878-4.904Z"
    fill="#000"
  /><path
    fill-rule="evenodd"
    clip-rule="evenodd"
    d="M14.419 2.466a2.913 2.913 0 0 1 3.162 0l1.138.735a.972.972 0 0 0 .47.154l1.351.078a2.928 2.928 0 0 1 2.558 1.869l.492 1.266a.981.981 0 0 0 .29.403l1.047.861a2.952 2.952 0 0 1 .977 3.024l-.343 1.315a.985.985 0 0 0 0 .498l.343 1.315a2.952 2.952 0 0 1-.977 3.024l-1.046.86a.981.981 0 0 0-.291.404l-.492 1.266a2.936 2.936 0 0 1-1.245 1.469v7.028c0 1.645-1.892 2.559-3.17 1.531L16 27.408l-2.683 2.158c-1.278 1.028-3.17.114-3.17-1.531v-7.028a2.937 2.937 0 0 1-1.245-1.469l-.492-1.266a.98.98 0 0 0-.29-.403l-1.047-.861a2.952 2.952 0 0 1-.977-3.024l.343-1.315a.986.986 0 0 0 0-.498l-.343-1.315a2.952 2.952 0 0 1 .977-3.024l1.047-.86a.98.98 0 0 0 .29-.404l.492-1.266a2.928 2.928 0 0 1 2.558-1.869l1.35-.078a.972.972 0 0 0 .47-.154l1.139-.735Zm-1.609 19.02-.712-.042v6.59l2.683-2.158a1.943 1.943 0 0 1 2.438 0l2.683 2.159v-6.59l-.712.04a.972.972 0 0 0-.47.154l-1.139.735a2.913 2.913 0 0 1-3.162 0l-1.138-.735a.972.972 0 0 0-.47-.154ZM16 5.553c-3.771 0-6.829 3.074-6.829 6.866s3.058 6.866 6.829 6.866c3.772 0 6.829-3.074 6.829-6.866S19.772 5.554 16 5.554Z"
    fill="#000"
  /></svg>
