<svg width="32" height="32" fill="none" xmlns="http://www.w3.org/2000/svg"><path
    d="M6.221 9.912a.886.886 0 0 0-1.153.47.867.867 0 0 0 .476 1.14l8.329 3.42.003 4.43a4.428 4.428 0 0 0-1.579.649 4.323 4.323 0 0 0-1.219 6.041c1.353 2.001 4.092 2.54 6.118 1.204a4.323 4.323 0 0 0 1.219-6.041 4.4 4.4 0 0 0-2.775-1.847l-.002-3.712 3.774 1.55a4.303 4.303 0 0 0 .508 3.82c1.353 2 4.092 2.54 6.118 1.204a4.323 4.323 0 0 0 1.219-6.042c-1.353-2-4.092-2.54-6.118-1.204a4.404 4.404 0 0 0-.827.705l-5.2-2.136a1 1 0 0 0-.038-.015L6.221 9.912ZM15.63 4.87a.877.877 0 0 0-.883-.87.877.877 0 0 0-.881.872l.004 5.693c0 .481.395.871.882.87.488 0 .882-.39.882-.871L15.63 4.87Z"
    fill="#000"
  /></svg>
