<svg width="32" height="32" fill="none" xmlns="http://www.w3.org/2000/svg"><path fill-rule="evenodd" clip-rule="evenodd" d="M30 16c0 7.732-6.268 14-14 14S2 23.732 2 16 8.268 2 16 2s14 6.268 14 14Zm-14 1.656a1 1 0 0 1 1 1v6.125a1 1 0 0 1-2 0v-6.125a1 1 0 0 1 1-1Zm-1.625.125a1 1 0 0 0-2 0v3.063c0 .897-.727 1.625-1.625 1.625a1 1 0 1 0 0 2 3.625 3.625 0 0 0 3.625-3.625V17.78ZM16 8.72a4.688 4.688 0 0 0-4.688 4.687v5.906a3.406 3.406 0 0 1-6.812 0v-.656a1 1 0 0 1 2 0v.657a1.406 1.406 0 0 0 2.813 0v-5.907a6.688 6.688 0 0 1 13.374 0v5.906a1.406 1.406 0 0 0 2.813 0v-.656a1 1 0 0 1 2 0v.657a3.406 3.406 0 1 1-6.813 0v-5.907A4.688 4.688 0 0 0 16 8.72Zm1.625 9.062a1 1 0 0 1 2 0v3.063c0 .897.727 1.625 1.625 1.625a1 1 0 1 1 0 2 3.625 3.625 0 0 1-3.625-3.625V17.78Zm-2.563-4.812a1.25 1.25 0 1 1-2.5 0 1.25 1.25 0 0 1 2.5 0Zm3.126 1.25a1.25 1.25 0 1 0 0-2.5 1.25 1.25 0 0 0 0 2.5Z" fill="#000"/></svg>