<svg width="32" height="32" fill="none" xmlns="http://www.w3.org/2000/svg"><path
    fill-rule="evenodd"
    clip-rule="evenodd"
    d="M14.213 4C8.573 4 4 8.572 4 14.213c0 5.64 4.572 10.213 10.213 10.213a10.17 10.17 0 0 0 6.463-2.306l5.58 5.58a1.021 1.021 0 0 0 1.445-1.443l-5.58-5.58a10.17 10.17 0 0 0 2.305-6.464C24.425 8.573 19.852 4 14.213 4Zm0 5.106c.564 0 1.021.458 1.021 1.022v5.106a1.021 1.021 0 1 1-2.043 0v-5.106c0-.564.458-1.022 1.022-1.022Zm0 10.213a1.021 1.021 0 1 0 0-2.042 1.021 1.021 0 0 0 0 2.042Z"
    fill="#000"
  /></svg>
