<svg width="32" height="32" fill="none" xmlns="http://www.w3.org/2000/svg"><path
    fill-rule="evenodd"
    clip-rule="evenodd"
    d="M8.16 4.478a2.574 2.574 0 0 0-.943 3.516l.565.979c.32.555.262 1.288-.12 1.911a9.75 9.75 0 0 0-.26.452c-.348.643-.953 1.06-1.595 1.06H4.675a2.574 2.574 0 0 0-2.574 2.574v2.06a2.574 2.574 0 0 0 2.574 2.573h1.133c.64 0 1.246.417 1.594 1.058a10.154 10.154 0 0 0 .262.455c.381.622.44 1.354.12 1.909l-.567.981a2.574 2.574 0 0 0 .942 3.516l1.783 1.03a2.574 2.574 0 0 0 3.516-.943l.566-.98c.32-.556.985-.87 1.716-.85.173.004.347.004.521 0 .731-.019 1.395.296 1.716.852l.565.978a2.574 2.574 0 0 0 3.516.942l1.783-1.03a2.574 2.574 0 0 0 .942-3.515l-.565-.979c-.32-.555-.262-1.288.12-1.911.091-.149.178-.3.26-.452.349-.643.954-1.06 1.595-1.06h1.132a2.574 2.574 0 0 0 2.574-2.575V14.97a2.574 2.574 0 0 0-2.574-2.573h-1.133c-.64 0-1.245-.417-1.593-1.058a9.958 9.958 0 0 0-.263-.455c-.381-.622-.44-1.354-.12-1.909l.567-.981a2.574 2.574 0 0 0-.942-3.516l-1.783-1.03a2.574 2.574 0 0 0-3.516.943l-.566.98c-.32.555-.985.87-1.716.85a9.77 9.77 0 0 0-.521 0c-.731.019-1.395-.296-1.716-.852l-.565-.978a2.574 2.574 0 0 0-3.516-.942L8.16 4.479Zm3.828 13.838a4.633 4.633 0 1 1 8.024-4.633 4.633 4.633 0 0 1-8.024 4.633Z"
    fill="#000"
  /></svg>
