<svg width="32" height="32" fill="none" xmlns="http://www.w3.org/2000/svg"><path fill-rule="evenodd" clip-rule="evenodd" d="M9.73 3.555a2.574 2.574 0 0 0-1.392 3.362l.802 1.936a.216.216 0 0 1-.058.23.213.213 0 0 1-.229.057l-1.936-.802A2.574 2.574 0 0 0 3.555 9.73l-.788 1.902a2.574 2.574 0 0 0 1.393 3.362l1.936.802a.213.213 0 0 1 .122.202.216.216 0 0 1-.122.204l-1.936.802a2.574 2.574 0 0 0-1.393 3.362l.788 1.902a2.574 2.574 0 0 0 3.362 1.393l1.936-.802a.216.216 0 0 1 .231.058.213.213 0 0 1 .056.229l-.802 1.936a2.574 2.574 0 0 0 1.393 3.362l1.902.788a2.574 2.574 0 0 0 3.363-1.393l.801-1.936a.213.213 0 0 1 .202-.122c.103 0 .177.058.204.122l.802 1.936a2.573 2.573 0 0 0 3.362 1.393l1.902-.788a2.574 2.574 0 0 0 1.393-3.362l-.802-1.936a.216.216 0 0 1 .058-.231.213.213 0 0 1 .229-.056l1.936.802a2.574 2.574 0 0 0 3.363-1.393l.787-1.902a2.574 2.574 0 0 0-1.392-3.362l-1.937-.802a.213.213 0 0 1-.122-.202c0-.103.058-.177.123-.204l1.936-.802a2.574 2.574 0 0 0 1.392-3.362l-.788-1.902a2.574 2.574 0 0 0-3.362-1.393l-1.936.802a.216.216 0 0 1-.23-.058.212.212 0 0 1-.057-.229l.802-1.936a2.574 2.574 0 0 0-1.393-3.362l-1.902-.788a2.574 2.574 0 0 0-3.362 1.393l-.802 1.936a.213.213 0 0 1-.202.122.216.216 0 0 1-.204-.122l-.802-1.936a2.574 2.574 0 0 0-3.362-1.393l-1.902.788Zm1.99 14.218a4.632 4.632 0 1 1 8.56-3.546 4.632 4.632 0 0 1-8.56 3.546Z" fill="#000"/></svg>