<svg width="32" height="32" viewBox="0 0 32 32" fill="none" xmlns="http://www.w3.org/2000/svg">
<path d="M8 9H9.94897C11.5049 9 12.9197 9.90227 13.5758 11.3131L17.5 19.75" stroke="black" stroke-width="2" stroke-linecap="round" stroke-linejoin="round"/>
<path d="M22 9V9C20.2543 9 18.6278 9.88553 17.6804 11.3518L12.3196 19.6482C11.3722 21.1145 9.74569 22 8 22V22" stroke="black" stroke-width="2" stroke-linecap="round" stroke-linejoin="round"/>
<path d="M24.2568 18.3464C24.0669 18.1264 23.7906 18 23.5 18C23.2094 18 22.9331 18.1264 22.7432 18.3464L19.2431 22.3992C18.9875 22.6953 18.9279 23.1132 19.0907 23.469C19.2535 23.8247 19.6088 24.0528 20 24.0528L22.5 24.0528L22.5 27C22.5 27.5523 22.9477 28 23.5 28C24.0523 28 24.5 27.5523 24.5 27L24.5 24.0528L27 24.0528C27.3912 24.0528 27.7465 23.8247 27.9093 23.469C28.0721 23.1132 28.0125 22.6953 27.7568 22.3992L24.2568 18.3464Z" fill="black"/>
</svg>
