<svg width="32" height="32" fill="none" xmlns="http://www.w3.org/2000/svg"><path fill-rule="evenodd" clip-rule="evenodd" d="M16.515 4.143a1 1 0 0 0-1.03 0L13.038 5.61a5 5 0 0 1-4.43.355l-.865-.346A1.999 1.999 0 0 0 5 7.475V17c0 5.518 4.892 11 11 11s11-5.482 11-11V7.475a2 2 0 0 0-2.743-1.855l-.865.346a5 5 0 0 1-4.43-.355l-2.447-1.468Zm3.692 8.15a1 1 0 0 1 0 1.414l-2.543 2.543 2.543 2.543a1 1 0 0 1-1.414 1.414l-2.543-2.543-2.543 2.543a1 1 0 0 1-1.414-1.414l2.543-2.543-2.543-2.543a1 1 0 0 1 1.414-1.414l2.543 2.543 2.543-2.543a1 1 0 0 1 1.414 0Z" fill="#000"/></svg>