<svg width="32" height="32" fill="none" xmlns="http://www.w3.org/2000/svg"><path d="M17.414 13.172a1 1 0 1 1 .005 1.418l-.005-.004-.004-.005a1 1 0 0 1 .004-1.41Z" fill="#000"/><path fill-rule="evenodd" clip-rule="evenodd" d="M15.486 4.143a1 1 0 0 1 1.029 0l2.447 1.468a5 5 0 0 0 4.43.355l.865-.346A2 2 0 0 1 27 7.475V17c0 5.518-4.892 11-11 11S5 22.518 5 17V7.475A1.999 1.999 0 0 1 7.743 5.62l.865.346a5 5 0 0 0 4.43-.355l2.447-1.468ZM20.242 16a3.001 3.001 0 0 1-3.415.586l-2.242 2.242.707.707a1 1 0 0 1-1.414 1.415l-.707-.707a1 1 0 0 1-1.415-1.415l3.657-3.656a3.001 3.001 0 1 1 4.829.828Z" fill="#000"/></svg>