<svg width="32" height="32" fill="none" xmlns="http://www.w3.org/2000/svg"><path
    d="M18.545 2.502a.5.5 0 0 0-.376.873c1.266 1.12 2.837 3.082 3.848 5.478 1.009 2.392 1.445 5.18.509 7.989-.964 2.892-3.263 5.46-6.526 5.46a6.5 6.5 0 1 1 3.331-12.083.5.5 0 0 0 .752-.5 6.542 6.542 0 0 0-.41-1.54c-1.023-2.522-3.384-3.946-5.91-4.287-2.524-.34-5.29.388-7.202 2.259A13.46 13.46 0 0 0 2.5 15.802c0 7.456 6.044 13.5 13.5 13.5s13.5-6.044 13.5-13.5c0-3.138-1.302-6.322-3.3-8.783-1.995-2.458-4.733-4.251-7.655-4.517Z"
    fill="#000"
  /></svg>
