<svg width="32" height="32" fill="none" xmlns="http://www.w3.org/2000/svg"><path
    fill-rule="evenodd"
    clip-rule="evenodd"
    d="M16 30c7.732 0 14-6.268 14-14S23.732 2 16 2 2 8.268 2 16s6.268 14 14 14Zm6.366-23.026a1 1 0 1 0-1.732-1l-.908 1.573-.614-2.292a1 1 0 0 0-1.932.518l1.132 4.223L16 14l-2.312-4.003 1.132-4.224a1 1 0 1 0-1.932-.518l-.614 2.292-.908-1.573a1 1 0 1 0-1.732 1l.908 1.573-2.291-.614a1 1 0 1 0-.518 1.932l4.223 1.131L14.268 15H9.414l-2.707-2.707a1 1 0 0 0-1.414 1.414L6.586 15H5a1 1 0 1 0 0 2h1.586l-1.293 1.293a1 1 0 1 0 1.414 1.414L9.414 17h4.854l-2.312 4.004-4.223 1.131a1 1 0 0 0 .518 1.932l2.291-.614-.908 1.573a1 1 0 1 0 1.732 1l.908-1.573.614 2.292a1 1 0 0 0 1.932-.518l-1.132-4.223L16 18l2.311 4.004-1.131 4.223a1 1 0 0 0 1.932.518l.614-2.292.908 1.573a1 1 0 0 0 1.732-1l-.908-1.573 2.291.614a1 1 0 0 0 .518-1.932l-4.224-1.132L17.732 17h4.854l2.707 2.707a1 1 0 0 0 1.414-1.414L25.414 17H27a1 1 0 1 0 0-2h-1.586l1.293-1.293a1 1 0 0 0-1.414-1.414L22.586 15h-4.854l2.312-4.004 4.223-1.131a1 1 0 1 0-.518-1.932l-2.291.614.908-1.573Z"
    fill="#000"
  /></svg>
