<svg width="32" height="32" fill="none" xmlns="http://www.w3.org/2000/svg"><path d="M24.309 4.939c-.493-1.252-2.26-1.252-2.753 0l-.78 1.98-1.975.78c-1.249.494-1.249 2.266 0 2.76l1.976.78.779 1.98c.492 1.252 2.26 1.252 2.753 0l.779-1.98 1.975-.78c1.25-.494 1.25-2.266 0-2.76l-1.975-.78-.78-1.98ZM13.998 9.071c-.657-1.67-3.014-1.67-3.67 0l-1.437 3.65-3.642 1.44c-1.665.658-1.665 3.02 0 3.679l3.642 1.439 1.436 3.65c.657 1.67 3.014 1.67 3.671 0l1.437-3.65 3.641-1.44c1.666-.658 1.666-3.02 0-3.678l-3.642-1.44-1.436-3.65Zm11.09 11.689-.78-1.98c-.492-1.251-2.26-1.251-2.752 0l-.78 1.98-1.975.781c-1.249.494-1.249 2.266 0 2.76l1.976.78.779 1.98c.492 1.252 2.26 1.252 2.753 0l.779-1.98 1.975-.78c1.25-.494 1.25-2.266 0-2.76l-1.975-.78Z" fill="#000"/></svg>