<svg width="32" height="32" fill="none" xmlns="http://www.w3.org/2000/svg"><path d="M24.395 4.812c-.499-1.266-2.291-1.266-2.79 0l-.79 2.003-2.003.79c-1.266.499-1.266 2.291 0 2.79l2.003.79.79 2.002c.499 1.267 2.291 1.267 2.79 0l.79-2.002 2.003-.79c1.266-.499 1.266-2.291 0-2.79l-2.003-.79-.79-2.003ZM12.86 8.992c-.665-1.688-3.055-1.688-3.72 0l-1.457 3.691-3.691 1.457c-1.688.665-1.688 3.055 0 3.72l3.691 1.457 1.456 3.691c.666 1.688 3.056 1.688 3.722 0l1.455-3.691 3.692-1.457c1.688-.665 1.688-3.055 0-3.72l-3.691-1.457-1.457-3.691Zm11.535 9.821c-.499-1.267-2.291-1.267-2.79 0l-.79 2.002-2.003.79c-1.266.499-1.266 2.291 0 2.79l2.003.79.79 2.003c.499 1.266 2.291 1.266 2.79 0l.79-2.003 2.003-.79c1.266-.499 1.266-2.291 0-2.79l-2.003-.79-.79-2.003Z" fill="#000"/></svg>