<svg width="32" height="32" fill="none" xmlns="http://www.w3.org/2000/svg"><path d="M11.575 13.381h-1.483l.741-1.908.742 1.908Zm9.568 8.823v1.7h1.914c.567 0 .943-.425.943-.85 0-.424-.376-.85-.943-.85h-1.914Zm1.914-2c.3 0 .457-.219.457-.388 0-.168-.158-.387-.457-.387h-1.914v.775h1.914Z" fill="#000"/><path fill-rule="evenodd" clip-rule="evenodd" d="M8 4a4 4 0 0 0-4 4v16a4 4 0 0 0 4 4h16a4 4 0 0 0 4-4V8a4 4 0 0 0-4-4H8Zm11.508 3.274a1 1 0 0 0-1.968-.358l-3.238 17.81a1 1 0 0 0 1.968.357l3.238-17.809Zm-7.743 1.078a1 1 0 0 0-1.864 0l-2.833 7.286a1 1 0 1 0 1.864.725l.382-.982h3.039l.382.982a1 1 0 1 0 1.864-.725l-2.834-7.286Zm7.378 10.077a1 1 0 0 1 1-1h2.914c1.31 0 2.457 1.023 2.457 2.387 0 .462-.131.885-.356 1.242A2.78 2.78 0 0 1 26 23.055c0 1.62-1.364 2.85-2.943 2.85h-2.914a1 1 0 0 1-1-1v-6.476Z" fill="#000"/></svg>