<svg width="32" height="32" fill="none" xmlns="http://www.w3.org/2000/svg"><path fill-rule="evenodd" clip-rule="evenodd" d="M8 4a4 4 0 0 0-4 4v16a4 4 0 0 0 4 4h16a4 4 0 0 0 4-4V8a4 4 0 0 0-4-4H8Zm9.815 2.016a1 1 0 0 1 .805 1.163l-3.272 18a1 1 0 0 1-1.968-.358l3.273-18a1 1 0 0 1 1.162-.805ZM11.91 6c-1.269 0-2.26.491-2.892 1.377-.593.83-.786 1.888-.786 2.896v.818c0 .91-.077 1.498-.261 1.849a.653.653 0 0 1-.27.29c-.119.064-.329.133-.7.133a1 1 0 1 0 0 2c.371 0 .581.07.7.134a.66.66 0 0 1 .27.29c.184.35.261.939.261 1.85v.817c0 1.008.193 2.065.786 2.896.633.886 1.623 1.377 2.892 1.377a1 1 0 1 0 0-2c-.703 0-1.051-.241-1.264-.54-.253-.354-.414-.933-.414-1.733v-.818c0-.897-.052-1.945-.49-2.78a2.847 2.847 0 0 0-.328-.492c.127-.154.236-.32.327-.494.439-.834.491-1.882.491-2.78v-.817c0-.8.16-1.38.414-1.733.213-.299.561-.54 1.264-.54a1 1 0 1 0 0-2Zm8.182 3.273c1.269 0 2.26.491 2.892 1.377.593.83.786 1.887.786 2.896v.818c0 .91.077 1.498.261 1.849a.66.66 0 0 0 .27.29c.119.064.328.134.7.134a1 1 0 1 1 0 2c-.372 0-.581.069-.7.133a.653.653 0 0 0-.27.29c-.184.35-.261.939-.261 1.85v.817c0 1.008-.193 2.065-.786 2.896C22.35 25.509 21.36 26 20.091 26a1 1 0 1 1 0-2c.703 0 1.051-.241 1.264-.54.253-.354.414-.933.414-1.733v-.818c0-.897.052-1.945.49-2.78.092-.173.2-.339.328-.492a2.84 2.84 0 0 1-.327-.494c-.439-.834-.491-1.882-.491-2.78v-.817c0-.8-.16-1.38-.414-1.733-.213-.299-.561-.54-1.264-.54a1 1 0 1 1 0-2Z" fill="#000"/></svg>