<svg width="32" height="32" fill="none" xmlns="http://www.w3.org/2000/svg"><path d="M27.827 10.723a1 1 0 0 0 0-1.446l-3.136-3A1 1 0 0 0 23 7v2h-3.127a5 5 0 0 0-3.84 1.8l-2.602 3.12A3 3 0 0 1 11.127 15H5a1 1 0 1 0 0 2h6.127a5 5 0 0 0 3.84-1.8l2.602-3.12A3 3 0 0 1 19.874 11H23v2a1 1 0 0 0 1.69.723l3.137-3ZM15.618 17.58a1 1 0 0 0-1.537 1.28l1.951 2.34a5 5 0 0 0 3.841 1.8H23v2a1 1 0 0 0 1.69.723l3.137-3a1 1 0 0 0 0-1.446l-3.136-3A1 1 0 0 0 23 19v2h-3.127a3 3 0 0 1-2.304-1.08l-1.951-2.34Z" fill="#000"/></svg>