<svg width="32" height="32" fill="none" xmlns="http://www.w3.org/2000/svg"><path
    d="M27.693 10.723a1.003 1.003 0 0 0 0-1.446l-3.119-3a.99.99 0 0 0-1.078-.197 1 1 0 0 0-.603.92v2h-3.109a4.96 4.96 0 0 0-3.82 1.8l-2.586 3.12A2.976 2.976 0 0 1 11.086 15H4.994A.997.997 0 0 0 4 16c0 .552.445 1 .994 1h6.092a4.96 4.96 0 0 0 3.82-1.8l2.586-3.12A2.977 2.977 0 0 1 19.785 11h3.109v2a1 1 0 0 0 .604.92.99.99 0 0 0 1.078-.197l3.118-3Zm-12.14 6.857a.99.99 0 0 0-1.4-.129 1.004 1.004 0 0 0-.128 1.409l1.94 2.34a4.96 4.96 0 0 0 3.82 1.8h3.108v2a1 1 0 0 0 .604.92.99.99 0 0 0 1.078-.197l3.118-3a1.003 1.003 0 0 0 0-1.446l-3.119-3a.99.99 0 0 0-1.078-.197 1 1 0 0 0-.603.92v2h-3.109a2.977 2.977 0 0 1-2.291-1.08l-1.94-2.34Z"
    fill="#000"
  /></svg>
