<svg width="32" height="32" fill="none" xmlns="http://www.w3.org/2000/svg"><path
    fill-rule="evenodd"
    clip-rule="evenodd"
    d="M8 4a4 4 0 0 0-4 4v16a4 4 0 0 0 4 4h16a4 4 0 0 0 4-4V8a4 4 0 0 0-4-4H8Zm11.438 3.179a1 1 0 1 0-1.967-.358l-3.273 18a1 1 0 0 0 1.968.358l3.272-18ZM6.731 7.037a1 1 0 0 1 1.125.445l2.008 3.32 2.008-3.32A1 1 0 0 1 13.727 8v7.364a1 1 0 1 1-2 0v-3.779l-1.008 1.666a1 1 0 0 1-1.711 0L8 11.585v3.779a1 1 0 1 1-2 0V8a1 1 0 0 1 .731-.963ZM22.546 26a1 1 0 0 1-.723-.309l-2.455-2.566a1 1 0 0 1 .723-1.69h1.454v-4.617a1 1 0 1 1 2 0v4.616H25a1 1 0 0 1 .723 1.691l-2.455 2.566a1 1 0 0 1-.723.309Z"
    fill="#000"
  /></svg>
