<svg width="32" height="32" fill="none" xmlns="http://www.w3.org/2000/svg"><path fill-rule="evenodd" clip-rule="evenodd" d="M16 4c-1.164 0-2.366.696-2.786 2.079l-1.21 3.993a.972.972 0 0 1-.929.693H6.92c-2.78 0-3.98 3.55-1.78 5.263l3.56 2.773c.32.25.453.672.335 1.062l-1.312 4.326c-.83 2.739 2.318 4.935 4.566 3.185l3.118-2.427a.963.963 0 0 1 1.186 0l3.118 2.427c2.248 1.75 5.396-.446 4.566-3.184l-1.312-4.327A.984.984 0 0 1 23.3 18.8l3.561-2.773c2.2-1.712 1-5.263-1.78-5.263h-4.156a.972.972 0 0 1-.929-.693l-1.21-3.993C18.365 4.696 17.163 4 16 4Zm.971 18.952V6.792l1.168 3.853a2.916 2.916 0 0 0 2.786 2.078h4.156c.927 0 1.327 1.184.594 1.755l-3.562 2.773a2.952 2.952 0 0 0-1.005 3.184l1.312 4.327c.276.913-.773 1.645-1.522 1.062l-3.118-2.428a2.901 2.901 0 0 0-.809-.444Z" fill="#000"/></svg>