<svg width="32" height="32" fill="none" xmlns="http://www.w3.org/2000/svg"><path
    d="M18.785 6.079c-.84-2.772-4.73-2.772-5.57 0l-1.211 3.993a.972.972 0 0 1-.929.693H6.92c-2.78 0-3.98 3.55-1.78 5.263l3.56 2.773c.32.25.453.672.335 1.062l-1.312 4.326c-.83 2.739 2.318 4.935 4.566 3.185l3.118-2.427a.964.964 0 0 1 1.186 0l3.118 2.427c2.248 1.75 5.396-.446 4.566-3.184l-1.312-4.327A.984.984 0 0 1 23.3 18.8l3.561-2.773c2.2-1.712 1-5.263-1.78-5.263h-4.156a.972.972 0 0 1-.929-.693l-1.21-3.993Z"
    fill="#000"
  /></svg>
