<svg width="32" height="32" fill="none" xmlns="http://www.w3.org/2000/svg"><path fill-rule="evenodd" clip-rule="evenodd" d="M16.755 5.04c0-1.93-2.464-2.74-3.61-1.187L3.371 17.1c-.974 1.32-.031 3.188 1.61 3.188h9.774v7.61c0 1.942 2.489 2.744 3.623 1.168l10.294-14.303c.952-1.323.006-3.168-1.624-3.168H16.755V5.04Zm.127 22.673a.116.116 0 0 0 .026-.028L26.966 13.71c.015-.02.015-.03.015-.034a.075.075 0 0 0-.01-.037.085.085 0 0 0-.028-.032c-.006-.004-.018-.01-.047-.01H16.755v14.049c0 .021.003.031.004.034a.024.024 0 0 0 .003.007c.005.005.02.02.048.028a.1.1 0 0 0 .06.004.036.036 0 0 0 .007-.003l.005-.003Z" fill="#000"/></svg>