<svg width="32" height="32" fill="none" xmlns="http://www.w3.org/2000/svg"><path d="M16 14a2 2 0 1 0 0 4 2 2 0 0 0 0-4Z" fill="#000"/><path fill-rule="evenodd" clip-rule="evenodd" d="M10 16a6 6 0 1 1 12 0 6 6 0 0 1-12 0Zm2 0a4 4 0 1 1 8 0 4 4 0 0 1-8 0Z" fill="#000"/><path fill-rule="evenodd" clip-rule="evenodd" d="M6 16c0-5.523 4.477-10 10-10s10 4.477 10 10-4.477 10-10 10S6 21.523 6 16Zm10-8a8 8 0 1 0 0 16 8 8 0 0 0 0-16Z" fill="#000"/><path fill-rule="evenodd" clip-rule="evenodd" d="M2 16C2 8.268 8.268 2 16 2s14 6.268 14 14-6.268 14-14 14S2 23.732 2 16ZM16 4C9.373 4 4 9.373 4 16s5.373 12 12 12 12-5.373 12-12S22.627 4 16 4Z" fill="#000"/></svg>