<svg width="32" height="32" fill="none" xmlns="http://www.w3.org/2000/svg"><path d="M17.92 4.139c-.637-.39-1.442.086-1.442.852V27.01c0 .768.81 1.243 1.447.85l2.89-1.784a.997.997 0 0 0 .466-.85v-3.978l2.106 1.454c.636.439 1.487-.033 1.487-.823v-3.45a.998.998 0 0 0-.44-.833l-3.152-2.094v-2.976l4.268 2.658c.638.397 1.45-.078 1.45-.848v-4.089a.997.997 0 0 0-.47-.852L17.92 4.14ZM5.47 9.394a.997.997 0 0 0-.47.852v4.088c0 .77.812 1.245 1.45.848l4.269-2.658v12.701c0 .349.177.671.466.85l2.89 1.784c.638.393 1.447-.082 1.447-.85V4.99c0-.766-.805-1.241-1.443-.852L5.471 9.394Z" fill="#000"/></svg>