<svg width="32" height="32" fill="none" xmlns="http://www.w3.org/2000/svg"><path
    d="M22.5 19a1.5 1.5 0 1 1 0 3 1.5 1.5 0 0 1 0-3Zm-10-7.265L14.961 18H10.04l2.461-6.265Z"
    fill="#000"
  /><path
    fill-rule="evenodd"
    clip-rule="evenodd"
    d="M8 4a4 4 0 0 0-4 4v16a4 4 0 0 0 4 4h16a4 4 0 0 0 4-4V8a4 4 0 0 0-4-4H8Zm13 9.5a1 1 0 1 0 0 2h1.474c.843 0 1.526.683 1.526 1.526v.31a3.5 3.5 0 1 0 .18 6.235A.999.999 0 0 0 26 23v-5.974a3.526 3.526 0 0 0-3.526-3.526H21Zm-7.57-4.866a1 1 0 0 0-1.86 0l-5.5 14a1 1 0 0 0 1.86.732L9.254 20h6.494l1.322 3.366a1 1 0 0 0 1.862-.732l-5.5-14Z"
    fill="#000"
  /></svg>
