<svg width="32" height="32" fill="none" xmlns="http://www.w3.org/2000/svg"><path fill-rule="evenodd" clip-rule="evenodd" d="M18.179 4.016a1 1 0 0 1 .805 1.163l-4 22a1 1 0 0 1-1.968-.358l.386-2.122a4.08 4.08 0 0 1-.23-.214l-5.657-5.657a4 4 0 0 1 0-5.656l5.657-5.657a3.996 3.996 0 0 1 3.555-1.105l.29-1.589a1 1 0 0 1 1.162-.805Zm-3.437 13.312-.435 2.393L12 17.414a2 2 0 0 1 0-2.828L14.586 12a1.992 1.992 0 0 1 1.23-.577l-.484 2.659L13.415 16l1.328 1.328Z" fill="#000"/><path d="M18.408 19.258a1 1 0 0 1 .276-.528L20 17.414a2 2 0 0 0 0-2.828l-.258-.258a1 1 0 0 1-.277-.886l.473-2.599a1 1 0 0 1 1.69-.528l2.857 2.857a4 4 0 0 1 0 5.656l-5.656 5.657a4.212 4.212 0 0 1-.102.098c-.556.52-1.277-.056-1.141-.805l.822-4.52Z" fill="#000"/></svg>