<svg width="32" height="32" fill="none" xmlns="http://www.w3.org/2000/svg"><path fill-rule="evenodd" clip-rule="evenodd" d="M19.984 5.179a1 1 0 1 0-1.968-.358l-.335 1.846a2.339 2.339 0 0 0-.709-.305 3.998 3.998 0 0 0-3.8 1.052l-5.657 5.657a4 4 0 0 0 0 5.657l5.657 5.657c.342.342.73.604 1.143.791l-.299 1.645a1 1 0 1 0 1.968.358l4-22ZM15.182 20.41l.406-2.237L13.414 16 16 13.414l.384.384.404-2.223a2 2 0 0 0-2.202.425L12 14.586a2 2 0 0 0 0 2.828L14.586 20c.177.177.38.314.596.411Z" fill="#000"/><path d="m18.013 22.84.664-4.102L20 17.413a2 2 0 0 0 0-2.828l-.56-.561.523-3.235a1 1 0 0 1 1.694-.547l2.828 2.828a4 4 0 0 1 .008 5.65l-4.771 4.971a1 1 0 0 1-1.71-.852Z" fill="#000"/></svg>