<svg width="32" height="32" fill="none" xmlns="http://www.w3.org/2000/svg"><path d="M16 12.495 19.505 16 16 19.505 12.495 16 16 12.495Z" fill="#000"/><path fill-rule="evenodd" clip-rule="evenodd" d="M13.113 5.196a4.083 4.083 0 0 1 5.774 0l7.917 7.917a4.082 4.082 0 0 1 0 5.774l-7.917 7.917a4.082 4.082 0 0 1-5.774 0l-7.917-7.917a4.083 4.083 0 0 1 0-5.774l7.917-7.917Zm4.33 5.855a2.041 2.041 0 0 0-2.886 0l-3.506 3.506a2.041 2.041 0 0 0 0 2.886l3.506 3.506a2.04 2.04 0 0 0 2.886 0l3.506-3.506a2.041 2.041 0 0 0 0-2.886l-3.506-3.506Z" fill="#000"/></svg>