<svg width="32" height="32" fill="none" xmlns="http://www.w3.org/2000/svg"><path fill-rule="evenodd" clip-rule="evenodd" d="M18.988 3.152a1 1 0 0 0-1.976-.304l-.188 1.222a4.84 4.84 0 0 0-4.222 1.32l-7.188 7.088a4.723 4.723 0 0 0 0 6.741l7.188 7.09c.192.188.396.358.61.508a.996.996 0 0 0 .102.064l-.302 1.967a1 1 0 0 0 1.976.304l4-26ZM14.285 20.57l.377-2.452-2.097-2.097 2.86-2.86.395-2.566c-.45.04-.89.233-1.234.578l-3.435 3.434a2 2 0 0 0 0 2.829l3.134 3.134Z" fill="#000"/><path d="M22.618 8.577a1 1 0 0 0-1.69.568l-2.22 15.218a1 1 0 0 0 1.686.862l6.186-6 .006-.006a4.723 4.723 0 0 0 0-6.74l-3.968-3.902Z" fill="#000"/></svg>