<svg width="32" height="32" viewBox="0 0 32 32" fill="none" xmlns="http://www.w3.org/2000/svg">
<path d="M19 5L15 27" stroke="black" stroke-width="2" stroke-linecap="round" stroke-linejoin="round"/>
<path d="M15 7.41422L7.41416 14.5858C6.63311 15.3669 6.63311 16.6332 7.41416 17.4143L12.414 21.9999L15 7.41422Z" fill="black"/>
<path d="M24.5858 17.4143C25.3669 16.6332 25.3669 15.3669 24.5858 14.5858L21.5 11L19.5 23.0001L24.5858 17.4143Z" fill="black"/>
<path d="M15 7.41422L7.41416 14.5858C6.63311 15.3669 6.63311 16.6332 7.41416 17.4143L12.414 21.9999L15 7.41422Z" stroke="black" stroke-width="2" stroke-linecap="round" stroke-linejoin="round"/>
<path d="M24.5858 17.4143C25.3669 16.6332 25.3669 15.3669 24.5858 14.5858L21.5 11L19.5 23.0001L24.5858 17.4143Z" stroke="black" stroke-width="2" stroke-linecap="round" stroke-linejoin="round"/>
</svg>
