<svg width="32" height="32" fill="none" xmlns="http://www.w3.org/2000/svg"><path fill-rule="evenodd" clip-rule="evenodd" d="M18.482 3.018c.619.107 1.03.67.917 1.26L14.842 28.11c-.112.589-.705.98-1.324.872-.619-.107-1.03-.67-.917-1.26l.44-2.299a4.486 4.486 0 0 1-.263-.23l-6.443-6.129c-1.78-1.692-1.78-4.436 0-6.128l6.443-6.128c1.101-1.048 2.626-1.447 4.05-1.198l.33-1.72c.112-.589.705-.98 1.324-.872Zm-3.915 14.42-.495 2.593-2.628-2.499a2.092 2.092 0 0 1 0-3.064l2.945-2.801a2.32 2.32 0 0 1 1.401-.626l-.55 2.881L13.054 16l1.512 1.439Z" fill="#000"/><path d="M18.742 19.53c.042-.217.152-.417.316-.573l1.498-1.425c.89-.846.89-2.218 0-3.064l-.294-.28a1.05 1.05 0 0 1-.315-.96l.538-2.815c.165-.86 1.277-1.19 1.927-.572l3.254 3.095c1.779 1.692 1.779 4.436 0 6.128l-6.444 6.128a4.575 4.575 0 0 1-.115.106c-.635.563-1.456-.06-1.3-.872l.936-4.896Z" fill="#000"/></svg>