<svg width="32" height="32" fill="none" xmlns="http://www.w3.org/2000/svg"><path d="m16 12.912 3.213 3.213L16 19.338l-3.213-3.213L16 12.912Z" fill="#000"/><path fill-rule="evenodd" clip-rule="evenodd" d="M12.485 5.456a4.97 4.97 0 0 1 7.03 0l7.03 7.03a4.97 4.97 0 0 1 0 7.029l-7.03 7.03a4.97 4.97 0 0 1-7.03 0l-7.03-7.03a4.97 4.97 0 0 1 0-7.03l7.03-7.03Zm5.272 5.698a2.485 2.485 0 0 0-3.514 0l-3.214 3.213a2.487 2.487 0 0 0 0 3.515l3.214 3.213c.97.971 2.544.971 3.514 0l3.214-3.213c.97-.97.97-2.544 0-3.515l-3.214-3.213Z" fill="#000"/></svg>