<svg width="32" height="32" viewBox="0 0 32 32" fill="none" xmlns="http://www.w3.org/2000/svg">
<path d="M6.51531 9.51483C6.027 9.02652 5.20448 9.17616 5.06221 9.85191C4.6574 11.7746 5.20371 13.8601 6.69995 15.3563C8.51173 17.1681 11.1876 17.587 13.392 16.611L20.957 25.1216C22.0383 26.338 23.9205 26.3934 25.0714 25.2425C26.2223 24.0916 26.167 22.2094 24.9505 21.1281L16.4399 13.5631C17.416 11.3586 16.997 8.68282 15.1852 6.87104C13.689 5.37481 11.6035 4.82849 9.68082 5.2333C9.00506 5.37557 8.85543 6.19809 9.34374 6.6864L11.6364 8.97902C12.4174 9.76007 12.4174 11.0264 11.6364 11.8074C10.8553 12.5885 9.58898 12.5885 8.80793 11.8074L6.51531 9.51483Z" fill="black" stroke="black" stroke-linejoin="round"/>
</svg>
