<svg width="32" height="32" fill="none" xmlns="http://www.w3.org/2000/svg"><path d="M11.02 5.98a.5.5 0 0 0-.799.127c-1.132 2.226-.876 4.946.902 6.724 1.648 1.647 4.103 1.988 6.225 1.13l1.388 1.577a.5.5 0 0 0 .729.023l3.096-3.096a.5.5 0 0 0-.023-.73l-1.578-1.387c.86-2.122.518-4.577-1.13-6.225-1.778-1.778-4.497-2.034-6.723-.902a.5.5 0 0 0-.127.8l2.853 2.852c.453.454.461 1.281-.109 1.851-.57.57-1.397.562-1.85.109L11.02 5.98Z" fill="#000"/><path fill-rule="evenodd" clip-rule="evenodd" d="M4 19a1 1 0 0 0-1 1v7a1 1 0 1 0 2 0v-2h1.5a3 3 0 1 0 0-6H4Zm2.5 4H5v-2h1.5a1 1 0 1 1 0 2Z" fill="#000"/><path d="M25 19a1 1 0 1 0 0 2h1v6a1 1 0 1 0 2 0v-6h1a1 1 0 1 0 0-2h-4Zm-3.175.08c.473.092.966.274 1.347.566a1 1 0 0 1-1.215 1.588c-.063-.048-.237-.137-.516-.192a2.132 2.132 0 0 0-.799-.009c-.246.049-.397.139-.481.228-.07.074-.161.216-.161.535 0 .157.031.214.038.226.007.013.026.042.1.086.2.119.51.192 1.066.308l.045.01c.457.094 1.124.233 1.665.58.304.194.59.464.793.84.203.373.293.794.293 1.244 0 1.523-1.1 2.454-2.232 2.77-1.108.31-2.486.122-3.45-.774a1 1 0 0 1 1.363-1.464c.367.34.989.47 1.548.313.536-.15.771-.47.771-.845 0-.18-.035-.262-.051-.291a.298.298 0 0 0-.113-.11c-.191-.122-.497-.202-1.04-.315l-.088-.018c-.443-.092-1.08-.223-1.596-.531a2.237 2.237 0 0 1-.806-.804A2.418 2.418 0 0 1 18 21.796c0-.762.243-1.415.704-1.905.445-.473 1.018-.715 1.552-.82a4.127 4.127 0 0 1 1.57.009Z" fill="#000"/><path fill-rule="evenodd" clip-rule="evenodd" d="M13.5 19c-.662 0-1.55.267-2.272.996C10.484 20.745 10 21.893 10 23.5s.484 2.755 1.228 3.504c.722.729 1.61.996 2.272.996.662 0 1.55-.267 2.272-.996C16.516 26.255 17 25.107 17 23.5s-.484-2.755-1.228-3.504C15.05 19.267 14.162 19 13.5 19ZM12 23.5c0-1.193.349-1.795.647-2.096.32-.321.682-.404.853-.404.17 0 .534.083.853.404.298.301.647.903.647 2.096s-.349 1.795-.647 2.096c-.32.321-.682.404-.853.404-.17 0-.534-.083-.853-.404-.298-.301-.647-.903-.647-2.096Z" fill="#000"/></svg>