<svg width="32" height="32" fill="none" xmlns="http://www.w3.org/2000/svg"><path
    d="M11.5 5a.5.5 0 0 0-.777-.416l-6 4A.5.5 0 0 0 4.5 9v12a.5.5 0 0 0 .26.439l11 6A.5.5 0 0 0 16.5 27v-6.5a.5.5 0 0 0-.243-.429L11.5 17.217V5Zm9.777-.416A.5.5 0 0 0 20.5 5v8.5a.5.5 0 0 0 .5.5h6a.5.5 0 0 0 .5-.5V9a.5.5 0 0 0-.223-.416l-6-4Z"
    fill="#000"
  /><path
    fill-rule="evenodd"
    clip-rule="evenodd"
    d="M21 16a2 2 0 0 0-2 2v9a2 2 0 0 0 2 2h7a2 2 0 0 0 2-2v-6.5a1 1 0 0 0-.293-.707l-3.5-3.5A1 1 0 0 0 25.5 16H21Zm1.5 5a1 1 0 0 1 1-1H25a1 1 0 1 1 0 2h-1.5a1 1 0 0 1-1-1Zm1 2a1 1 0 1 0 0 2H25a1 1 0 1 0 0-2h-1.5Z"
    fill="#000"
  /></svg>
