<svg width="32" height="32" fill="none" xmlns="http://www.w3.org/2000/svg"><path
    fill-rule="evenodd"
    clip-rule="evenodd"
    d="M4 8a4 4 0 0 1 4-4h16a4 4 0 0 1 4 4v16a4 4 0 0 1-4 4H8a4 4 0 0 1-4-4V8Zm11.757 5a2.293 2.293 0 0 0 0 3.243.707.707 0 1 1-1 1A3.707 3.707 0 1 1 20 12l.002.002c3.011 3.013 3.17 7.825.248 10.748-2.923 2.923-7.737 2.763-10.75-.25a.707.707 0 0 1 1-1c2.51 2.51 6.427 2.573 8.75.25 2.323-2.323 2.26-6.24-.25-8.75l-.002-.002a2.293 2.293 0 0 0-3.24.002Zm.486 6a2.293 2.293 0 0 0 0-3.243.707.707 0 1 1 1-1A3.707 3.707 0 1 1 12 20l-.002-.002c-3.011-3.013-3.17-7.825-.248-10.748 2.923-2.923 7.737-2.763 10.75.25a.707.707 0 0 1-1 1c-2.51-2.51-6.427-2.573-8.75-.25-2.323 2.323-2.26 6.24.25 8.75l.002.002a2.293 2.293 0 0 0 3.24-.002Z"
    fill="#000"
  /></svg>
