<svg width="32" height="32" fill="none" xmlns="http://www.w3.org/2000/svg"><path d="M7 9a1 1 0 0 1 1-1h1.949a5 5 0 0 1 4.534 2.891l.964 2.074 1.393-2.156A6.143 6.143 0 0 1 22 8a1 1 0 1 1 0 2 4.143 4.143 0 0 0-3.48 1.895l-2.076 3.213 1.963 4.22a1 1 0 1 1-1.814.844l-1.432-3.079-2.002 3.098A6.143 6.143 0 0 1 8 23a1 1 0 1 1 0-2 4.143 4.143 0 0 0 3.48-1.895l2.685-4.155-1.496-3.215A3 3 0 0 0 9.95 10H8a1 1 0 0 1-1-1Zm16.5 9a1 1 0 0 1 .757.346l3.5 4.053A1 1 0 0 1 27 24.053h-2.5V27a1 1 0 1 1-2 0v-2.947H20a1 1 0 0 1-.757-1.654l3.5-4.053A1 1 0 0 1 23.5 18Z" fill="#000"/></svg>