<svg width="32" height="32" fill="none" xmlns="http://www.w3.org/2000/svg"><path
    fill-rule="evenodd"
    clip-rule="evenodd"
    d="M8 4a4 4 0 0 0-4 4v16a4 4 0 0 0 4 4h16a4 4 0 0 0 4-4V8a4 4 0 0 0-4-4H8Zm4 8a1 1 0 1 0 0 2h.733a2 2 0 0 1 1.792 1.11l.51 1.029-1.355 1.976A2.037 2.037 0 0 1 12 19a1 1 0 1 0 0 2 4.037 4.037 0 0 0 3.33-1.754l.724-1.056.292.589A4 4 0 0 0 19.93 21H20a1 1 0 1 0 0-2h-.071a2 2 0 0 1-1.791-1.11l-.79-1.589.972-1.416A2.037 2.037 0 0 1 20 14a1 1 0 1 0 0-2 4.037 4.037 0 0 0-3.33 1.754l-.34.496-.014-.029A4 4 0 0 0 12.733 12H12ZM9.935 8.513A1 1 0 0 0 8.22 7.487C6.822 9.824 6 12.792 6 16s.822 6.176 2.219 8.513a1 1 0 1 0 1.716-1.026C8.738 21.485 8 18.877 8 16c0-2.876.738-5.485 1.935-7.487Zm13.846-1.026a1 1 0 0 0-1.716 1.026C23.262 10.515 24 13.123 24 16c0 2.876-.738 5.485-1.935 7.487a1 1 0 1 0 1.716 1.026C25.178 22.176 26 19.208 26 16s-.822-6.176-2.219-8.513Z"
    fill="#000"
  /></svg>
