<svg width="32" height="32" fill="none" xmlns="http://www.w3.org/2000/svg"><path
    fill-rule="evenodd"
    clip-rule="evenodd"
    d="M4 8a4 4 0 0 1 4-4h16a4 4 0 0 1 4 4v16a4 4 0 0 1-4 4H8a4 4 0 0 1-4-4V8Zm4 2a1 1 0 0 1 1-1h1.993a5 5 0 0 1 4.53 2.881l.953 2.04 1.407-2.177A6 6 0 0 1 22.923 9H23a1 1 0 1 1 0 2h-.078a4 4 0 0 0-3.36 1.83l-2.086 3.228 1.972 4.213A3 3 0 0 0 22.165 22H23a1 1 0 1 1 0 2h-.835a5 5 0 0 1-4.528-2.881l-1.441-3.08-2.079 3.217A6 6 0 0 1 9.077 24H9a1 1 0 1 1 0-2h.078a4 4 0 0 0 3.36-1.83l2.758-4.268-1.485-3.173A3 3 0 0 0 10.993 11H9a1 1 0 0 1-1-1Z"
    fill="#000"
  /></svg>
