<svg width="32" height="32" viewBox="0 0 32 32" fill="none" xmlns="http://www.w3.org/2000/svg">
<path d="M27 9.58333C27 12.1146 22.0751 14.1667 16 14.1667C9.92487 14.1667 5 12.1146 5 9.58333C5 7.05203 9.92487 5 16 5C22.0751 5 27 7.05203 27 9.58333Z" fill="black"/>
<path d="M27 9.58333C27 12.1146 22.0751 14.1667 16 14.1667C9.92487 14.1667 5 12.1146 5 9.58333M27 9.58333C27 7.05203 22.0751 5 16 5C9.92487 5 5 7.05203 5 9.58333M27 9.58333V16M5 9.58333V22.4167C5 24.948 9.92487 27 16 27M16 20.5833C9.92487 20.5833 5 18.5313 5 16" stroke="black" stroke-width="2" stroke-linecap="round"/>
<path d="M22.7432 27.6536C22.9331 27.8736 23.2094 28 23.5 28C23.7906 28 24.0669 27.8736 24.2568 27.6536L27.7569 23.6008C28.0125 23.3047 28.0721 22.8868 27.9093 22.531C27.7465 22.1753 27.3912 21.9472 27 21.9472L24.5 21.9472V19C24.5 18.4477 24.0523 18 23.5 18C22.9477 18 22.5 18.4477 22.5 19L22.5 21.9472L20 21.9472C19.6088 21.9472 19.2535 22.1753 19.0907 22.531C18.9279 22.8868 18.9875 23.3047 19.2432 23.6008L22.7432 27.6536Z" fill="black"/>
</svg>
