<svg width="32" height="32" fill="none" xmlns="http://www.w3.org/2000/svg"><path fill-rule="evenodd" clip-rule="evenodd" d="M13.405 2.897a4 4 0 0 1 5.19 0l1.6 1.365a2 2 0 0 0 1.139.471l2.097.167A4 4 0 0 1 27.1 8.57l.167 2.096a2 2 0 0 0 .471 1.139l1.365 1.6a4 4 0 0 1 0 5.19l-1.365 1.6a2 2 0 0 0-.471 1.139L27.1 23.43a4 4 0 0 1-3.67 3.669l-2.096.167a2 2 0 0 0-1.139.471l-1.6 1.365a4 4 0 0 1-5.19 0l-1.6-1.365a2 2 0 0 0-1.139-.471L8.57 27.1a4 4 0 0 1-3.67-3.67l-.167-2.096a2 2 0 0 0-.471-1.139l-1.365-1.6a4 4 0 0 1 0-5.19l1.365-1.6a2 2 0 0 0 .471-1.139L4.9 8.57A4 4 0 0 1 8.57 4.9l2.096-.167a2 2 0 0 0 1.139-.471l1.6-1.365Zm8.302 9.81a1 1 0 0 0-1.414-1.414L13.5 18.086l-2.793-2.793a1 1 0 0 0-1.414 1.414l3.5 3.5a1 1 0 0 0 1.414 0l7.5-7.5Z" fill="#000"/></svg>