<svg width="32" height="32" fill="none" xmlns="http://www.w3.org/2000/svg"><path
    fill-rule="evenodd"
    clip-rule="evenodd"
    d="M22.637 4.261A4 4 0 0 0 19.81 3.09h-7.45a4 4 0 0 0-2.83 1.17L4.262 9.53a4 4 0 0 0-1.172 2.828v7.45a4 4 0 0 0 1.172 2.83l5.268 5.268a4 4 0 0 0 2.828 1.171h7.451a4 4 0 0 0 2.828-1.171l5.269-5.269a4 4 0 0 0 1.172-2.828v-7.45a4 4 0 0 0-1.172-2.83l-5.268-5.268ZM16 8a1 1 0 0 1 1 1v7a1 1 0 1 1-2 0V9a1 1 0 0 1 1-1Zm0 15.5a1.5 1.5 0 1 0 0-3 1.5 1.5 0 0 0 0 3Z"
    fill="#000"
  /></svg>
