<svg width="32" height="32" fill="none" xmlns="http://www.w3.org/2000/svg"><path fill-rule="evenodd" clip-rule="evenodd" d="M6 6a4 4 0 0 0-4 4v12a4 4 0 0 0 4 4h20a4 4 0 0 0 4-4V10a4 4 0 0 0-4-4H6Zm1.75 7.001a.75.75 0 0 0-1.5 0v6a.75.75 0 0 0 1.5 0v-6Zm2.249-3a.75.75 0 0 1 .75.75v10.5a.75.75 0 0 1-1.5 0v-10.5a.75.75 0 0 1 .75-.75Zm3.752-.751a.75.75 0 0 0-1.5 0v13.5a.75.75 0 0 0 1.5 0V9.25ZM16 11.499a.75.75 0 0 1 .75.75v7.5a.75.75 0 0 1-1.5 0v-7.5a.75.75 0 0 1 .75-.75Zm3.749 3a.75.75 0 0 0-1.5 0v3a.75.75 0 0 0 1.5 0v-3Zm2.252-3a.75.75 0 0 1 .75.75v7.5a.75.75 0 0 1-1.5 0v-7.5a.75.75 0 0 1 .75-.75Zm3.749-.748a.75.75 0 0 0-1.5 0v10.5a.75.75 0 0 0 1.5 0v-10.5Z" fill="#000"/></svg>