<svg width="32" height="32" fill="none" xmlns="http://www.w3.org/2000/svg"><path fill-rule="evenodd" clip-rule="evenodd" d="M10.819 10.225c0-1.825-2.04-2.793-3.497-1.871l-4.289 2.715A2.204 2.204 0 0 0 2 12.929v6.108a3.16 3.16 0 0 0 1.47 2.659l3.786 2.42a4.733 4.733 0 0 0 .444.245l.037.019.01.005.003.002.234.117c.525.274 1.08.482 1.685.495.627.014 1.202-.183 1.762-.536l3.47-2.25a2.076 2.076 0 0 1 2.198 0l3.47 2.25c.56.353 1.135.55 1.762.536.605-.013 1.16-.221 1.685-.495l.247-.124.037-.019a4.723 4.723 0 0 0 .443-.244l3.786-2.421A3.16 3.16 0 0 0 30 19.037V12.93c0-.762-.398-1.458-1.033-1.86l-4.29-2.715c-1.455-.922-3.496.046-3.496 1.87v4.231l-3.111-1.921a3.937 3.937 0 0 0-4.14 0l-3.111 1.921v-4.23ZM8.755 9.92c.133.07.197.18.197.304v11.997l-.002.193-.002.084v.105c.006.106.02.21.042.311a4.815 4.815 0 0 1-.15-.075l-.015-.008-.252-.126-.03-.015a8.97 8.97 0 0 1-.284-.153l-3.785-2.42a1.286 1.286 0 0 1-.607-1.08V12.93a.33.33 0 0 1 .162-.276l4.289-2.715a.43.43 0 0 1 .437-.017Zm14.663 12.79-.366-.177v-.034l-.002-.084a13.94 13.94 0 0 1-.002-.193V10.225c0-.123.064-.234.198-.304a.43.43 0 0 1 .436.017l4.29 2.715a.33.33 0 0 1 .161.276v6.108c0 .422-.218.83-.607 1.08l-3.785 2.42a3.291 3.291 0 0 1-.284.153l-.03.015-.007.004h-.002Zm0 0-.243.121-.015.008a4.894 4.894 0 0 1-.15.075c.022-.101.035-.205.041-.311l.367.107Z" fill="#000"/></svg>