<svg width="32" height="32" viewBox="0 0 32 32" fill="none" xmlns="http://www.w3.org/2000/svg">
<path d="M6 21V28L8.5 24L11 28V21" stroke="black" stroke-width="2" stroke-linecap="round" stroke-linejoin="round"/>
<path d="M14 21V28L16.5 24L19 28V21" stroke="black" stroke-width="2" stroke-linecap="round" stroke-linejoin="round"/>
<path d="M22 21V28L24.5 24L27 28V21" stroke="black" stroke-width="2" stroke-linecap="round" stroke-linejoin="round"/>
<path fill-rule="evenodd" clip-rule="evenodd" d="M12.6858 6.7648C12.6549 6.84226 12.6242 6.92067 12.5939 7.00001H19.4061C19.3758 6.92067 19.3451 6.84226 19.3142 6.7648C18.7992 5.47729 18.2109 4.50248 17.6089 3.86589C17.0089 3.23142 16.4649 3.00001 16 3.00001C15.5351 3.00001 14.9911 3.23142 14.3911 3.86589C13.7891 4.50248 13.2008 5.47729 12.6858 6.7648ZM5.27577 7.00001H10.469C10.5832 6.66228 10.7033 6.33599 10.8289 6.02202C11.3997 4.59506 12.1043 3.37318 12.938 2.49168C13.0019 2.42404 13.0671 2.35802 13.1333 2.29376C10.0041 2.94491 7.25781 4.64072 5.27577 7.00001ZM3.87295 9.00001C3.16279 10.2277 2.63369 11.5732 2.32218 13H9.2098C9.36183 11.582 9.59325 10.2382 9.89348 9.00001H3.87295ZM2.03516 15C2.01185 15.3303 2 15.6638 2 16C2 16.5523 2.44772 17 3 17H9C9 16.3234 9.01747 15.6558 9.0515 15H2.03516ZM11 17H21C21 16.3203 20.9814 15.6526 20.9457 15H11.0543C11.0186 15.6526 11 16.3203 11 17ZM23 17H29C29.5523 17 30 16.5523 30 16C30 15.6638 29.9881 15.3303 29.9648 15H22.9485C22.9825 15.6558 23 16.3234 23 17ZM29.6778 13C29.3663 11.5732 28.8372 10.2277 28.127 9.00001H22.1065C22.4067 10.2382 22.6382 11.582 22.7902 13H29.6778ZM26.7242 7.00001C24.7422 4.64072 21.9959 2.94491 18.8667 2.29376C18.9329 2.35802 18.9981 2.42404 19.062 2.49168C19.8957 3.37318 20.6003 4.59506 21.1711 6.02202C21.2967 6.33599 21.4168 6.66228 21.531 7.00001H26.7242ZM11.2219 13C11.3864 11.5551 11.6371 10.2092 11.9565 9.00001H20.0435C20.3629 10.2092 20.6136 11.5551 20.7781 13H11.2219Z" fill="black"/>
</svg>
