<svg width="32" height="32" fill="none" xmlns="http://www.w3.org/2000/svg"><path d="M12.677 6.494a.364.364 0 0 0 .34.506h5.966a.364.364 0 0 0 .34-.506c-.51-1.192-1.093-2.093-1.69-2.682C17.041 3.228 16.49 3 16 3s-1.04.228-1.633.812c-.596.589-1.18 1.49-1.69 2.682Zm-6.68-.289c-.298.304-.073.795.352.795h3.637a.508.508 0 0 0 .477-.338c.119-.33.244-.65.375-.955.575-1.341 1.285-2.49 2.124-3.319.022-.021.002-.058-.028-.051-2.685.6-5.079 1.97-6.937 3.868Zm13.041-3.817c-.022-.021-.002-.058.028-.051 2.685.6 5.079 1.97 6.937 3.868.298.304.073.795-.352.795h-3.637a.508.508 0 0 1-.477-.338 17.28 17.28 0 0 0-.375-.955c-.575-1.341-1.285-2.49-2.124-3.319ZM11.531 15a.494.494 0 0 1-.495-.515c.088-1.854.336-3.582.705-5.11A.493.493 0 0 1 12.22 9h7.558c.228 0 .427.154.48.375.37 1.528.617 3.256.705 5.11a.494.494 0 0 1-.495.515H11.53Zm11.328-6a.51.51 0 0 0-.494.617c.319 1.514.527 3.165.603 4.898.012.27.233.485.503.485h5.957c.29 0 .52-.246.489-.534a13.91 13.91 0 0 0-1.733-5.367A.208.208 0 0 0 28 9h-5.14ZM12.221 23a.493.493 0 0 1-.48-.375c-.37-1.528-.617-3.256-.705-5.11A.494.494 0 0 1 11.53 17h8.938c.282 0 .509.234.495.516a27.592 27.592 0 0 1-.704 5.11.492.492 0 0 1-.481.374H12.22Zm-3.08 0a.51.51 0 0 0 .495-.617 30.27 30.27 0 0 1-.604-4.898A.506.506 0 0 0 8.53 17H2.572c-.29 0-.52.246-.489.534a13.91 13.91 0 0 0 1.733 5.367c.037.065.11.099.184.099h5.141Zm-3.144 2.795c-.298-.304-.073-.795.352-.795h3.637a.51.51 0 0 1 .477.338c.119.33.244.65.375.955.575 1.341 1.285 2.49 2.124 3.319.022.021.002.058-.028.051a13.979 13.979 0 0 1-6.937-3.868Zm6.68-.289a.364.364 0 0 1 .34-.506h5.966c.263 0 .444.264.34.506-.51 1.192-1.093 2.093-1.69 2.682-.592.584-1.143.812-1.633.812s-1.04-.228-1.633-.812c-.596-.588-1.18-1.49-1.69-2.682ZM22.014 25a.509.509 0 0 0-.477.338c-.119.33-.244.65-.375.955-.575 1.341-1.285 2.49-2.124 3.319-.022.021-.002.058.028.051a13.97 13.97 0 0 0 6.937-3.868c.298-.304.073-.795-.352-.795h-3.637ZM28 23a.208.208 0 0 0 .184-.1 13.91 13.91 0 0 0 1.733-5.366.486.486 0 0 0-.489-.534h-5.957a.506.506 0 0 0-.503.485 30.28 30.28 0 0 1-.603 4.898.51.51 0 0 0 .494.617H28ZM2.083 14.466a.486.486 0 0 0 .489.534h5.957c.27 0 .492-.215.503-.485a30.21 30.21 0 0 1 .604-4.898A.51.51 0 0 0 9.14 9H4a.208.208 0 0 0-.185.1 13.91 13.91 0 0 0-1.733 5.366Z" fill="#000"/></svg>