<svg width="32" height="32" fill="none" xmlns="http://www.w3.org/2000/svg"><path
    d="M12.938 2.492c.055-.059.002-.157-.077-.139a14.016 14.016 0 0 0-8.531 5.91c-.213.321.025.737.41.737H9.5a.507.507 0 0 0 .489-.381c.242-.935.523-1.805.84-2.597.57-1.427 1.275-2.649 2.109-3.53ZM27.26 9c.385 0 .623-.416.41-.736a14.016 14.016 0 0 0-8.532-5.91c-.078-.019-.132.079-.076.138.834.881 1.538 2.103 2.11 3.53.316.792.597 1.662.839 2.597A.506.506 0 0 0 22.5 9h4.76Zm-15.129-.625c.17-.573.355-1.112.555-1.61.515-1.288 1.103-2.263 1.705-2.9C14.991 3.232 15.535 3 16 3c.465 0 1.009.231 1.609.866.602.636 1.19 1.611 1.705 2.899.2.498.385 1.037.555 1.61a.49.49 0 0 1-.475.625h-6.788a.49.49 0 0 1-.475-.625ZM9.003 16.5a.505.505 0 0 1-.503.5H3a1 1 0 0 1-1-1c0-1.64.282-3.214.8-4.677A.489.489 0 0 1 3.263 11h5.63c.31 0 .544.278.498.584a36.405 36.405 0 0 0-.388 4.916Zm2 0c-.003.276.22.5.497.5h9c.276 0 .5-.224.497-.5a33.992 33.992 0 0 0-.44-5.089.494.494 0 0 0-.49-.411h-8.134a.494.494 0 0 0-.49.411 33.992 33.992 0 0 0-.44 5.089ZM23.5 17a.505.505 0 0 1-.503-.5 36.398 36.398 0 0 0-.389-4.916.507.507 0 0 1 .499-.584h5.63c.207 0 .394.127.463.323.518 1.463.8 3.037.8 4.677a1 1 0 0 1-1 1h-5.5ZM7 21a1 1 0 1 0-2 0v7a1 1 0 0 0 1.848.53L8.5 25.887l1.652 2.643A1 1 0 0 0 12 28v-7a1 1 0 1 0-2 0v3.513l-.652-1.043a1 1 0 0 0-1.696 0L7 24.513V21Zm8 0a1 1 0 1 0-2 0v7a1 1 0 0 0 1.848.53l1.652-2.643 1.652 2.643A1 1 0 0 0 20 28v-7a1 1 0 1 0-2 0v3.513l-.652-1.043a1 1 0 0 0-1.696 0L15 24.513V21Zm7-1a1 1 0 0 1 1 1v3.513l.652-1.043a1 1 0 0 1 1.696 0L26 24.513V21a1 1 0 1 1 2 0v7a1 1 0 0 1-1.848.53L24.5 25.887l-1.652 2.643A1 1 0 0 1 21 28v-7a1 1 0 0 1 1-1Z"
    fill="#000"
  /></svg>
