<svg width="32" height="32" fill="none" xmlns="http://www.w3.org/2000/svg"><path d="M12.657 6.26a.373.373 0 0 0 .343.52h6c.265 0 .447-.27.343-.518-.514-1.222-1.1-2.146-1.7-2.749-.596-.598-1.15-.832-1.643-.832-.493 0-1.047.234-1.643.832-.6.603-1.186 1.527-1.7 2.749Zm-6.718-.295a.48.48 0 0 0 .354.814h3.659c.215 0 .406-.14.479-.347.12-.338.246-.665.378-.978.577-1.374 1.292-2.552 2.136-3.4.021-.022.002-.06-.029-.053-2.7.614-5.108 2.02-6.977 3.964Zm13.116-3.911c-.021-.022-.002-.06.029-.053 2.7.614 5.108 2.02 6.977 3.964a.48.48 0 0 1-.354.814h-3.659a.512.512 0 0 1-.479-.347 18.14 18.14 0 0 0-.377-.978c-.578-1.374-1.293-2.552-2.137-3.4Zm-7.549 12.921a.502.502 0 0 1-.499-.528c.089-1.898.338-3.67.709-5.235a.497.497 0 0 1 .483-.384h7.602c.229 0 .43.157.483.384.371 1.566.62 3.337.709 5.235a.502.502 0 0 1-.499.528h-8.988Zm11.392-6.147a.52.52 0 0 0-.497.632c.322 1.551.53 3.243.607 5.018a.513.513 0 0 0 .506.497h5.992a.494.494 0 0 0 .491-.547 14.44 14.44 0 0 0-1.743-5.498.208.208 0 0 0-.185-.102H22.9ZM12.2 23.172a.497.497 0 0 1-.484-.384c-.371-1.566-.62-3.337-.709-5.235a.502.502 0 0 1 .499-.528h8.988c.284 0 .512.239.499.528-.089 1.898-.338 3.67-.709 5.235a.497.497 0 0 1-.483.384h-7.602Zm-3.098 0a.52.52 0 0 0 .497-.632 31.565 31.565 0 0 1-.607-5.018.513.513 0 0 0-.506-.497H2.494a.494.494 0 0 0-.491.547c.212 1.982.82 3.843 1.743 5.498.037.067.11.102.185.102H9.1Zm-3.163 2.863a.48.48 0 0 1 .354-.814h3.659c.215 0 .406.14.479.347.12.338.246.665.378.979.577 1.373 1.292 2.55 2.136 3.4.021.021.002.059-.029.052a13.992 13.992 0 0 1-6.977-3.964Zm6.718-.295a.373.373 0 0 1 .343-.52h6c.265 0 .447.27.343.518-.514 1.222-1.1 2.146-1.7 2.749-.596.598-1.15.832-1.643.832-.493 0-1.047-.234-1.643-.832-.6-.603-1.186-1.527-1.7-2.749Zm9.391-.519a.512.512 0 0 0-.479.347c-.12.338-.245.665-.377.979-.578 1.373-1.293 2.55-2.137 3.4-.021.021-.002.059.029.052 2.7-.614 5.108-2.02 6.977-3.964a.48.48 0 0 0-.354-.814h-3.659Zm6.022-2.049a.208.208 0 0 0 .184-.102 14.44 14.44 0 0 0 1.743-5.498.494.494 0 0 0-.491-.547h-5.992a.513.513 0 0 0-.506.497 31.564 31.564 0 0 1-.607 5.018.52.52 0 0 0 .497.632h5.171ZM2.003 14.428c-.032.295.2.547.491.547h5.992c.272 0 .494-.22.506-.497.077-1.775.286-3.467.607-5.018a.52.52 0 0 0-.497-.632H3.93a.208.208 0 0 0-.185.102 14.438 14.438 0 0 0-1.743 5.498Z" fill="#000"/></svg>