<svg width="32" height="32" fill="none" xmlns="http://www.w3.org/2000/svg"><path d="M18 27h9" stroke="#000" stroke-width="2" stroke-linecap="round" stroke-linejoin="round"/><path d="M5.587 20.938A2 2 0 0 0 5 22.353V27h4.649a2 2 0 0 0 1.413-.585l13.414-13.394L19 7.544 5.587 20.938Z" fill="#000"/><path d="M19 7.544 5.587 20.938A2 2 0 0 0 5 22.353V27h4.649a2 2 0 0 0 1.413-.585l13.414-13.394M19 7.544l1.902-1.9a3 3 0 0 1 4.242 0l1.234 1.234a3 3 0 0 1-.001 4.243l-1.9 1.9M19 7.544l5.476 5.477" stroke="#000" stroke-width="2" stroke-linecap="round" stroke-linejoin="round"/></svg>