<svg width="32" height="32" fill="none" xmlns="http://www.w3.org/2000/svg"><path
    fill-rule="evenodd"
    clip-rule="evenodd"
    d="M20.024 5.16a3.955 3.955 0 0 1 5.596 0l1.22 1.222a3.964 3.964 0 0 1 0 5.603L11.686 27.131A2.967 2.967 0 0 1 9.59 28h-4.6a.99.99 0 0 1-.99-.99v-4.602c0-.789.313-1.545.87-2.103L20.025 5.16Zm4.236 6.605 1.181-1.181a1.982 1.982 0 0 0 0-2.802l-1.22-1.221a1.978 1.978 0 0 0-2.798 0l-1.182 1.181 4.019 4.023Z"
    fill="#000"
  /><path
    d="M17.852 26.02a.99.99 0 0 0 0 1.98h8.905a.99.99 0 0 0 0-1.98h-8.905Z"
    fill="#000"
  /></svg>
