<svg width="32" height="32" fill="none" xmlns="http://www.w3.org/2000/svg"><path
    fill-rule="evenodd"
    clip-rule="evenodd"
    d="M4 8a4 4 0 0 1 4-4h16a4 4 0 0 1 4 4v16a4 4 0 0 1-4 4H8a4 4 0 0 1-4-4V8Zm12-1a1 1 0 0 1 1 1v4a1 1 0 1 1-2 0V8a1 1 0 0 1 1-1Zm1 13a1 1 0 1 0-2 0v4a1 1 0 1 0 2 0v-4Zm8-4a1 1 0 0 1-1 1h-4a1 1 0 1 1 0-2h4a1 1 0 0 1 1 1Zm-2.636-4.95a1 1 0 1 0-1.414-1.414l-2.828 2.829a1 1 0 0 0 1.414 1.414l2.828-2.829Zm0 11.314a1 1 0 0 1-1.414 0l-2.828-2.829a1 1 0 0 1 1.414-1.414l2.828 2.829a1 1 0 0 1 0 1.414ZM8 17a1 1 0 1 1 0-2h4a1 1 0 1 1 0 2H8Zm1.636-7.364a1 1 0 0 0 0 1.414l2.828 2.829a1 1 0 0 0 1.414-1.415L11.05 9.636a1 1 0 0 0-1.414 0Zm1.414 12.728a1 1 0 0 1-1.414-1.414l2.828-2.829a1 1 0 0 1 1.414 1.415l-2.828 2.828Z"
    fill="#000"
  /></svg>
