<svg width="32" height="32" viewBox="0 0 32 32" fill="none" xmlns="http://www.w3.org/2000/svg">
<path d="M5 14.5802V21.2656C5 22.0359 5.83437 22.5169 6.50104 22.131L12.8521 18.454C13.5495 18.0503 13.5074 17.0298 12.7792 16.6849L6.42809 13.6765C5.76464 13.3622 5 13.8461 5 14.5802Z" stroke="black" stroke-width="2" stroke-linecap="round" stroke-linejoin="round"/>
<path d="M17 18.1466V25.4954C17 26.2102 17.7282 26.6942 18.3872 26.4174L26.3872 23.0574C26.7585 22.9014 27 22.538 27 22.1354V14.5466C27 13.8209 26.2514 13.3369 25.5896 13.6347L17.5896 17.2347C17.2308 17.3961 17 17.7531 17 18.1466Z" stroke="black" stroke-width="2" stroke-linecap="round" stroke-linejoin="round"/>
<path d="M15.5896 14.3153L7.92081 10.8644C7.1521 10.5184 7.13 9.435 7.88397 9.05802L15.5528 5.22361C15.8343 5.08284 16.1657 5.08284 16.4472 5.22361L24.116 9.05802C24.87 9.435 24.8479 10.5184 24.0792 10.8644L16.4104 14.3153C16.1494 14.4328 15.8506 14.4328 15.5896 14.3153Z" stroke="black" stroke-width="2" stroke-linecap="round" stroke-linejoin="round"/>
</svg>
