<svg width="32" height="32" fill="none" xmlns="http://www.w3.org/2000/svg"><path d="m17.655 26.647-7.141-7.042h7.171l1.947 5.77c.41 1.216-1.069 2.167-1.977 1.272Z" stroke="#000" stroke-width="1.784" stroke-linecap="round" stroke-linejoin="round"/><path d="m13.395 22.447-1.301 3.847a.975.975 0 0 1-.35.478.952.952 0 0 1-.56.181H6.026a1.013 1.013 0 0 1-.834-.436 1.05 1.05 0 0 1-.136-.942L11.431 6.69c.309-.915 1.582-.915 1.89 0l2.696 7.984m0 0-1.668 4.932m1.668-4.932 1.668 4.932" stroke="#000" stroke-width="1.784" stroke-linecap="round" stroke-linejoin="round"/><path d="M12.378 6h7.36c.38 0 .716.244.839.608l6.362 18.841a1.187 1.187 0 0 1-.153 1.06 1.158 1.158 0 0 1-.939.491h-7.362" stroke="#000" stroke-width="1.784" stroke-linecap="round" stroke-linejoin="round"/></svg>