<svg width="32" height="32" fill="none" xmlns="http://www.w3.org/2000/svg"><path clip-rule="evenodd" d="M12.18 17.589c.575 0 1.727-.029 3.34-.691 1.872-.778 5.558-2.16 8.237-3.6 1.872-1.008 2.678-2.333 2.678-4.119a4.468 4.468 0 0 0-4.464-4.464H11.603a6.428 6.428 0 0 0-6.422 6.423c0 3.542 2.707 6.45 6.998 6.45Zm2.262 5.534a4.297 4.297 0 0 1 2.65-3.975l3.254-1.353c3.312-1.354 6.94 1.065 6.94 4.637a5.015 5.015 0 0 1-5.01 5.01h-3.543c-2.362 0-4.291-1.929-4.291-4.32Z" stroke="#000" stroke-width="2"/><path d="M8.128 19.67a3.724 3.724 0 0 0-3.715 3.716v.49c0 2.015 1.67 3.686 3.715 3.686a3.724 3.724 0 0 0 3.715-3.716v-.49c-.029-2.015-1.67-3.686-3.715-3.686Z" stroke="#000" stroke-width="2"/></svg>