<svg width="32" height="32" viewBox="0 0 32 32" fill="none" xmlns="http://www.w3.org/2000/svg">
<path d="M13.5258 16.6755C14.7496 17.423 15.3616 17.7967 16.0339 17.7975C16.7063 17.7979 17.319 17.4253 18.5447 16.6802L26.3392 11.9401C26.5124 11.8347 26.6562 11.6831 26.7562 11.5003C26.8561 11.3176 26.9088 11.1102 26.9088 10.8991C26.9088 10.688 26.8561 10.4807 26.7562 10.2979C26.6562 10.1152 26.5124 9.96351 26.3392 9.85818L18.5417 5.11644C17.3179 4.37175 16.7056 3.99961 16.0339 4C15.3623 4 14.7504 4.37294 13.5266 5.11842L6.8275 9.19982C5.67445 9.88829 4.71353 10.8857 4.04157 12.0916C3.36961 13.2974 3.01035 14.6691 3 16.0684V16.3294C3.01028 17.7271 3.3687 19.0974 4.0392 20.3023C4.70971 21.5073 5.66868 22.5045 6.81966 23.1936L11.0098 25.7529C13.4613 27.2506 14.6873 27.9992 16.0339 28C17.3805 28 18.607 27.2522 21.0599 25.7565L25.4878 23.056C26.7138 22.3082 27.3269 21.9345 27.6631 21.3187C28 20.7029 28 19.9551 28 18.4594V15.5614C28 15.3608 27.95 15.1638 27.8551 14.99C27.7602 14.8162 27.6237 14.6719 27.4594 14.5715C27.295 14.4711 27.1085 14.4181 26.9187 14.4179C26.7288 14.4177 26.5422 14.4703 26.3777 14.5703L17.2858 20.0993C16.6746 20.4711 16.369 20.6568 16.0336 20.6568C15.6981 20.6568 15.3925 20.4715 14.7814 20.1001L8.63006 16.3641C8.32036 16.1764 8.16626 16.0826 8.04201 16.0656C7.90472 16.0469 7.76543 16.0767 7.64579 16.1503C7.52615 16.2238 7.43287 16.3371 7.38047 16.4725C7.33308 16.5947 7.3342 16.7835 7.33606 17.16C7.33756 17.4371 7.3383 17.5755 7.36293 17.7032C7.41774 17.9877 7.55929 18.2452 7.7659 18.4365C7.85844 18.5224 7.97187 18.5914 8.19873 18.7302L14.778 22.7474C15.3907 23.1211 15.697 23.3083 16.0339 23.3083C16.3705 23.3083 16.6768 23.1215 17.2899 22.7477L25.3538 17.8306C25.5631 17.7032 25.668 17.6394 25.7463 17.6871C25.8247 17.7352 25.8247 17.8625 25.8247 18.118V19.4307C25.8247 19.8053 25.8247 19.9917 25.7407 20.1459C25.6564 20.2996 25.5034 20.3934 25.1967 20.5803L18.548 24.6349C17.3212 25.3831 16.7078 25.7573 16.0343 25.7569C15.3608 25.7569 14.7478 25.382 13.5217 24.6325L7.30323 20.8322L7.2592 20.8054C6.61895 20.409 6.08731 19.8435 5.71652 19.1643C5.34573 18.4852 5.14855 17.7158 5.14434 16.9317V15.671C5.14431 15.238 5.25194 14.8126 5.45644 14.4373C5.66094 14.062 5.95514 13.7501 6.3096 13.5327C6.62329 13.3404 6.97947 13.2389 7.34216 13.2386C7.70485 13.2382 8.0612 13.339 8.37521 13.5308L13.5258 16.6755Z" stroke="black" stroke-width="1.5" stroke-linejoin="round"/>
</svg>
