<svg width="32" height="32" viewBox="0 0 32 32" fill="none" xmlns="http://www.w3.org/2000/svg">
<path d="M19.9454 9.52981C18.7432 8.63665 17.3218 8.17636 15.7552 8.17636C12.4389 8.17636 9.62115 10.4573 8.61234 13.53C8.35723 14.31 8.2064 15.1373 8.2064 16C8.2064 16.8628 8.35714 17.69 8.61225 18.47C9.62106 21.5427 12.4389 23.8355 15.7552 23.8355C17.4713 23.8355 18.9207 23.3628 20.0571 22.5828C21.4137 21.661 22.3182 20.29 22.6197 18.6709H17.6104C16.5857 18.6709 15.7551 17.8243 15.7551 16.78V15.5273C15.7551 14.483 16.5857 13.6364 17.6104 13.6364H26.2178C27.1153 13.6364 27.897 14.291 27.9616 15.2033C27.9869 15.5617 28 15.9257 28 16.2955C28 20.2545 26.6086 23.5872 24.1967 25.8563C22.0863 27.8418 19.1991 29 15.7552 29C10.7691 29 6.46716 26.0809 4.36837 21.8382V21.8263C3.4987 20.0772 3 18.1037 3 16C3 13.8964 3.49861 11.9228 4.36827 10.1737C6.46707 5.91911 10.7691 3 15.7552 3C18.8341 3 21.4588 4.02959 23.5631 5.75098C23.9727 6.08598 23.9814 6.70587 23.6101 7.08432L21.2726 9.46666C20.9183 9.82772 20.3503 9.83057 19.9454 9.52981Z" stroke="black" stroke-width="2"/>
</svg>
