<svg width="32" height="32" viewBox="0 0 32 32" fill="none" xmlns="http://www.w3.org/2000/svg">
<ellipse cx="15.9561" cy="16.0002" rx="4.3478" ry="4.34782" stroke="black" stroke-width="2"/>
<path d="M23.565 23.6086C21.6028 25.621 18.8686 26.8695 15.8444 26.8695C10.2385 26.8695 5.6292 22.5797 5.08679 17.0869" stroke="black" stroke-width="2" stroke-linecap="round"/>
<path d="M8.34753 8.23751C10.3138 6.3155 13.0073 5.13037 15.9784 5.13037C21.631 5.13037 26.2788 9.42024 26.8257 14.913" stroke="black" stroke-width="2" stroke-linecap="round"/>
<path d="M9.52158 9.47815C9.52158 10.7268 8.50936 11.739 7.26073 11.739C6.0121 11.739 4.99988 10.7268 4.99988 9.47815C4.99988 8.22951 6.0121 7.21729 7.26073 7.21729C8.50936 7.21729 9.52158 8.22951 9.52158 9.47815Z" fill="white" stroke="black" stroke-width="2"/>
<path d="M28.0001 21.4347C28.0001 22.6833 26.9879 23.6956 25.7392 23.6956C24.4906 23.6956 23.4784 22.6833 23.4784 21.4347C23.4784 20.186 24.4906 19.1738 25.7392 19.1738C26.9879 19.1738 28.0001 20.186 28.0001 21.4347Z" fill="white" stroke="black" stroke-width="2"/>
</svg>
