<svg width="32" height="32" viewBox="0 0 32 32" fill="none" xmlns="http://www.w3.org/2000/svg">
<path d="M11 17.5V15.5C11 14.1193 12.1193 13 13.5 13V13C14.8807 13 16 14.1193 16 15.5V17" stroke="#FFC826" stroke-width="2" stroke-linecap="round" stroke-linejoin="round"/>
<path d="M16 17V14.5C16 13.1193 17.1193 12 18.5 12V12C19.8807 12 21 13.1193 21 14.5V17" stroke="#FFC826" stroke-width="2" stroke-linecap="round" stroke-linejoin="round"/>
<path d="M21.2845 16.9789L21.8248 7.49597C21.9034 6.11749 23.0845 5.06369 24.463 5.14225V5.14225C25.8415 5.22081 26.8953 6.40196 26.8167 7.78043L25.9919 22.2553" stroke="#FFC826" stroke-width="2" stroke-linecap="round" stroke-linejoin="round"/>
<path d="M19 21.5H15.25C14.0073 21.5 13 20.4927 13 19.25C13 18.0074 14.0073 17 15.25 17H20.9375C23.7334 17 26 19.2666 26 22.0625C26 24.8091 23.8098 27.0548 21.064 27.1234L14.1999 27.295C9.72707 27.4068 6.03678 23.8299 6.00026 19.3644C5.9999 19.32 6.00036 19.2757 6.00091 19.2313C6.00305 19.0608 6.0076 18.5791 5.99999 18C5.9569 14.7192 5.37532 10.857 5.25723 10.1039C5.24332 10.0152 5.23095 9.92835 5.22719 9.83864C5.17197 8.52062 6.15614 7.37454 7.48446 7.24431C8.86057 7.10939 10.0855 8.11557 10.2204 9.49167L11.0038 17.5778C11.0887 18.454 11.6714 19.2026 12.4999 19.5V19.5" stroke="#FFC826" stroke-width="2" stroke-linecap="round" stroke-linejoin="round"/>
<path d="M11 17.5001V15.5001C11 14.1193 12.1193 13.0001 13.5 13.0001C14.8807 13.0001 16 14.1193 16 15.5001V17.0001V14.5001C16 13.1193 17.1193 12.0001 18.5 12.0001C19.8807 12.0001 21 13.1193 21 14.5001V17.0001M21.2846 16.979L21.8249 7.49603C21.9035 6.11754 23.0847 5.06374 24.4631 5.14231C25.8416 5.22087 26.8954 6.40202 26.8168 7.78049L25.992 22.2553M19.0001 21.5001H15.2501C14.0075 21.5001 13.0001 20.4927 13.0001 19.2501M13.0001 19.2501C13.0001 18.0074 14.0075 17.0001 15.2501 17.0001H20.9376C23.7336 17.0001 26.0001 19.2666 26.0001 22.0626C26.0001 24.8092 23.8099 27.0548 21.0641 27.1235L14.2001 27.2951C9.72719 27.4069 6.0369 23.8299 6.00038 19.3644C6.00002 19.3201 6.00048 19.2757 6.00104 19.2314C6.00317 19.0609 6.00772 18.5791 6.00011 18.0001C5.95702 14.7192 5.37544 10.8571 5.25735 10.104C5.24344 10.0153 5.23107 9.9284 5.22731 9.83869C5.17209 8.52067 6.15626 7.3746 7.48458 7.24436C8.86069 7.10944 10.0856 8.11562 10.2205 9.49173L11.0039 17.5778C11.0706 18.2656 11.4439 18.8747 12.0021 19.2488C12.2987 19.4476 12.6807 19.4097 13.0001 19.2501V19.2501Z" stroke="black" stroke-width="2" stroke-linecap="round" stroke-linejoin="round"/>
</svg>
