<svg width="32" height="32" fill="none" xmlns="http://www.w3.org/2000/svg"><path d="M21 13h-2l-1-2m3-1-1-2h-4m-3 1 2 4m-1 6 3-3h4" stroke="#000" stroke-width="2" stroke-linecap="round" stroke-linejoin="round"/><path d="M18.64 29v-3.302c0-1.245 1.126-2.16 2.368-2.075.232.016.441.022.606.012a3.531 3.531 0 0 0 2.306-1.054A3.821 3.821 0 0 0 25 20.208V16h2l-2-4v-1.094c.01-2.351-.875-4.61-2.462-6.28C20.951 2.955 18.793 2.01 16.539 2c-2.254-.01-4.42.913-6.022 2.568C8.916 6.223 8.01 8.473 8 10.824c0 4.57 1.027 4.984 1.565 7.426a9.81 9.81 0 0 1 .045 4.5L8 29" stroke="#000" stroke-width="2" stroke-linecap="round" stroke-linejoin="round"/></svg>