<svg width="32" height="32" viewBox="0 0 32 32" fill="none" xmlns="http://www.w3.org/2000/svg">
<path d="M14.9824 25.5487C15.354 26.544 16.0654 27.3777 16.9924 27.9041C17.9193 28.4306 19.0028 28.6163 20.0534 28.4288C21.104 28.2413 22.055 27.6926 22.7401 26.8784C23.4252 26.0643 23.8008 25.0366 23.8014 23.9749V17.8817C23.8014 17.5185 23.6044 17.1838 23.2869 17.0074L16.0004 12.9611" stroke="black" stroke-width="2" stroke-linecap="round" stroke-linejoin="round"/>
<path d="M7.17798 19.8975C6.49666 20.7152 6.12603 21.7451 6.13091 22.8071C6.13579 23.8691 6.51587 24.8956 7.20468 25.7071C7.89349 26.5186 8.8472 27.0634 9.899 27.2462C10.9508 27.4291 12.0338 27.2383 12.9585 26.7073L18.1033 23.7196C18.4115 23.5406 18.6011 23.2112 18.6011 22.8548V14.4482" stroke="black" stroke-width="2" stroke-linecap="round" stroke-linejoin="round"/>
<path d="M8.19975 10.3489C6.39123 10.0437 4.57622 10.8597 3.605 12.5331C3.00622 13.5648 2.84393 14.7908 3.15382 15.9415C3.46371 17.0921 4.2204 18.0733 5.2575 18.6692L10.3078 21.6314C10.6129 21.8104 10.9898 21.8149 11.299 21.6432L18.601 17.5907" stroke="black" stroke-width="2" stroke-linecap="round" stroke-linejoin="round"/>
<path d="M17.0182 6.45127C16.6466 5.45601 15.9351 4.6223 15.0082 4.09585C14.0813 3.56939 12.9978 3.38368 11.9472 3.57117C10.8966 3.75866 9.94561 4.30742 9.26052 5.12155C8.57542 5.93568 8.19977 6.96338 8.19922 8.02505V13.9974C8.19922 14.3562 8.39137 14.6874 8.70277 14.8655L16.0001 19.0389" stroke="black" stroke-width="2" stroke-linecap="round" stroke-linejoin="round"/>
<path d="M24.8226 12.1025C25.5039 11.2848 25.8745 10.2549 25.8696 9.1929C25.8648 8.13091 25.4847 7.10442 24.7959 6.29295C24.1071 5.48148 23.1534 4.93668 22.1016 4.75384C21.0498 4.57099 19.9668 4.76173 19.0421 5.29269L13.8972 8.28048C13.5891 8.45944 13.3994 8.78887 13.3994 9.14524V17.5519" stroke="black" stroke-width="2" stroke-linecap="round" stroke-linejoin="round"/>
<path d="M23.8006 21.5632C25.6092 21.8684 27.4242 21.0524 28.3954 19.3791C28.9942 18.3474 29.1565 17.1214 28.8466 15.9707C28.5367 14.82 27.78 13.8389 26.7429 13.243L21.6398 10.2811C21.3316 10.1021 20.9513 10.1008 20.6418 10.2776L17.2706 12.2033L13.3994 14.4146" stroke="black" stroke-width="2" stroke-linecap="round" stroke-linejoin="round"/>
</svg>
