<svg width="32" height="32" viewBox="0 0 32 32" fill="none" xmlns="http://www.w3.org/2000/svg">
<circle cx="16" cy="16" r="3" stroke="black" stroke-width="2"/>
<circle cx="26" cy="6" r="2" stroke="black" stroke-width="2"/>
<path d="M18.5 13.5L24.5 7.5" stroke="black" stroke-width="2" stroke-linecap="round" stroke-linejoin="round"/>
<path d="M22.3172 14.0828L21.6101 13.3757C21.3493 13.6365 21.2532 14.0198 21.3602 14.3728L22.3172 14.0828ZM17.9172 9.68278L17.6272 10.6398C17.9802 10.7468 18.3635 10.6507 18.6243 10.3899L17.9172 9.68278ZM25.6621 10.7379L26.5399 10.2588C26.3889 9.98224 26.1164 9.79297 25.8045 9.7481C25.4926 9.70322 25.1778 9.80798 24.955 10.0308L25.6621 10.7379ZM21.2621 6.3379L21.9692 7.04501C22.192 6.82219 22.2968 6.50738 22.2519 6.19548C22.207 5.88358 22.0178 5.61108 21.7412 5.46012L21.2621 6.3379ZM26 16C26 21.5228 21.5228 26 16 26V28C22.6274 28 28 22.6274 28 16H26ZM16 26C10.4772 26 6 21.5228 6 16H4C4 22.6274 9.37258 28 16 28V26ZM6 16C6 10.4772 10.4772 6 16 6V4C9.37258 4 4 9.37258 4 16H6ZM21.6 16C21.6 19.0928 19.0928 21.6 16 21.6V23.6C20.1974 23.6 23.6 20.1974 23.6 16H21.6ZM16 21.6C12.9072 21.6 10.4 19.0928 10.4 16H8.4C8.4 20.1974 11.8026 23.6 16 23.6V21.6ZM10.4 16C10.4 12.9072 12.9072 10.4 16 10.4V8.4C11.8026 8.4 8.4 11.8026 8.4 16H10.4ZM21.3602 14.3728C21.5159 14.8866 21.6 15.4326 21.6 16H23.6C23.6 15.2339 23.4863 14.4925 23.2742 13.7927L21.3602 14.3728ZM16 10.4C16.5674 10.4 17.1134 10.4841 17.6272 10.6398L18.2073 8.72577C17.5075 8.51368 16.7661 8.4 16 8.4V10.4ZM23.0243 14.7899L26.3692 11.445L24.955 10.0308L21.6101 13.3757L23.0243 14.7899ZM24.7843 11.217C25.5592 12.6368 26 14.2654 26 16H28C28 13.9223 27.4711 11.9652 26.5399 10.2588L24.7843 11.217ZM16 6C17.7346 6 19.3632 6.44079 20.783 7.21568L21.7412 5.46012C20.0348 4.52887 18.0777 4 16 4V6ZM18.6243 10.3899L21.9692 7.04501L20.555 5.63079L17.2101 8.97567L18.6243 10.3899Z" fill="black"/>
</svg>
