<svg width="32" height="32" viewBox="0 0 32 32" fill="none" xmlns="http://www.w3.org/2000/svg">
<path d="M26.2314 14.8553L28.5223 8.56113C28.7381 7.96814 28.3572 7.32669 27.7334 7.23135L26.6914 7.07208C22.9066 6.4936 19.2738 5.17137 16.0026 3.18169L15.102 2.63388C14.5628 2.30595 13.859 2.55171 13.6432 3.1447L11.352 9.43969C9.99807 13.1595 11.975 18.0917 16.0839 19.5872C20.1927 21.0827 24.8775 18.5752 26.2314 14.8553Z" stroke="black" stroke-width="2"/>
<path d="M7.93895 15.4374C6.93732 15.7028 5.92026 15.9149 4.89198 16.072L3.84994 16.2313C3.22614 16.3267 2.84495 16.9673 3.06078 17.5603L5.35197 23.8553C6.70588 27.5752 11.3907 30.0827 15.4995 28.5872C18.0299 27.6662 19.7517 25.4418 20.385 22.9998" stroke="black" stroke-width="2" stroke-linecap="round"/>
<path d="M20.785 11.0873C21.0841 10.2655 21.9928 9.84183 22.8146 10.1409C23.6363 10.44 24.06 11.3487 23.7609 12.1704" stroke="black" stroke-width="1.5" stroke-linecap="round"/>
<path d="M14.7704 9.10195C15.0695 8.28019 15.9781 7.85648 16.7999 8.15558C17.6217 8.45468 18.0454 9.36332 17.7463 10.1851" stroke="black" stroke-width="1.5" stroke-linecap="round"/>
<path d="M7.78187 21.3006C7.48277 20.4788 7.90648 19.5702 8.72825 19.2711C9.55001 18.972 10.4587 19.3957 10.7578 20.2174" stroke="black" stroke-width="1.5" stroke-linecap="round"/>
<path d="M20.2903 15.2194C20.2903 15.2194 19.2755 15.6925 17.7876 15.151C16.2997 14.6094 15.8265 13.5947 15.8265 13.5947" stroke="black" stroke-width="1.5" stroke-linecap="round" stroke-linejoin="round"/>
<path d="M11.8914 25.278C11.8914 25.278 12.1811 24.1964 13.5524 23.4047C14.9237 22.613 16.0052 22.9028 16.0052 22.9028" stroke="black" stroke-width="1.5" stroke-linecap="round" stroke-linejoin="round"/>
</svg>
