<svg width="32" height="32" viewBox="0 0 32 32" fill="none" xmlns="http://www.w3.org/2000/svg">
<path d="M27.25 14.3928L21.625 11.1785L27.25 7.96423L27.25 14.3928Z" stroke="black" stroke-width="1.40625" stroke-linejoin="round"/>
<path d="M4.75 14.3928L10.375 11.1785L4.75 7.96423L4.75 14.3928Z" stroke="black" stroke-width="1.40625" stroke-linejoin="round"/>
<path d="M27.25 20.8214L21.625 17.6071L27.25 14.3928L27.25 20.8214Z" stroke="black" stroke-width="1.40625" stroke-linejoin="round"/>
<path d="M4.75 20.8214L10.375 17.6071L4.75 14.3928L4.75 20.8214Z" stroke="black" stroke-width="1.40625" stroke-linejoin="round"/>
<path d="M21.625 24.0357L16 20.8215L21.625 17.6072L21.625 24.0357Z" stroke="black" stroke-width="1.40625" stroke-linejoin="round"/>
<path d="M10.375 24.0357L16 20.8215L10.375 17.6072L10.375 24.0357Z" stroke="black" stroke-width="1.40625" stroke-linejoin="round"/>
<path d="M21.625 17.6072L27.25 14.3929L21.625 11.1786L21.625 17.6072Z" stroke="black" stroke-width="1.40625" stroke-linejoin="round"/>
<path d="M10.375 17.6072L4.75 14.3929L10.375 11.1786L10.375 17.6072Z" stroke="black" stroke-width="1.40625" stroke-linejoin="round"/>
<path d="M21.625 11.1786L27.25 7.96429L21.625 4.75L21.625 11.1786Z" stroke="black" stroke-width="1.40625" stroke-linejoin="round"/>
<path d="M10.375 11.1786L4.75 7.96429L10.375 4.75L10.375 11.1786Z" stroke="black" stroke-width="1.40625" stroke-linejoin="round"/>
<path d="M21.625 24.0357L27.25 20.8215L21.625 17.6072L21.625 24.0357Z" stroke="black" stroke-width="1.40625" stroke-linejoin="round"/>
<path d="M10.375 24.0357L4.75 20.8215L10.375 17.6072L10.375 24.0357Z" stroke="black" stroke-width="1.40625" stroke-linejoin="round"/>
<path d="M16 27.25L21.625 24.0357L16 20.8214L16 27.25Z" stroke="black" stroke-width="1.40625" stroke-linejoin="round"/>
<path d="M16 27.25L10.375 24.0357L16 20.8214L16 27.25Z" stroke="black" stroke-width="1.40625" stroke-linejoin="round"/>
</svg>
