<svg width="32" height="32" fill="none" xmlns="http://www.w3.org/2000/svg"><rect x="4" y="4" width="24" height="24" rx="3" fill="#000"/><path d="M6.5 21.313c1.626 1.868 5.347 3.166 9.5 3.166 2.715 0 5.244-.554 7.125-1.46L25 22" stroke="#fff" stroke-width="2" stroke-linecap="round" stroke-linejoin="round"/><path d="m23 20.5 2.5 1.208L25 25m-.436-14.56C23.677 9.76 21 9.633 21 11.796c0 2.396 4 .77 4 3.294 0 1.898-2.67 2.501-4 1.264M14 10v7l2-4 2 4v-7" stroke="#fff" stroke-width="2" stroke-linecap="round" stroke-linejoin="round"/><path d="M7.5 10H9a2 2 0 0 1 2 2v5" stroke="#fff" stroke-width="2" stroke-linecap="round"/><circle cx="9" cy="15" r="2" stroke="#fff" stroke-width="2"/></svg>