<svg width="32" height="32" fill="none" xmlns="http://www.w3.org/2000/svg"><path d="m12.094 26.294 1.3-3.847-2.88-2.842h3.835l1.668-4.932-2.695-7.984c-.309-.915-1.582-.915-1.891 0L5.056 25.575a1.055 1.055 0 0 0 .136.942 1.029 1.029 0 0 0 .834.436h5.158a.96.96 0 0 0 .56-.181.975.975 0 0 0 .35-.478Z" fill="#000" stroke="#000" stroke-width="1.784" stroke-linecap="round" stroke-linejoin="round"/><path d="m13.321 6.689 2.695 7.984 1.668 4.932 1.948 5.77" stroke="#000" stroke-width="1.784" stroke-linecap="round" stroke-linejoin="round"/><path d="m17.655 26.647-7.141-7.042h7.171l1.947 5.77c.41 1.216-1.069 2.167-1.977 1.272Z" fill="#fff" stroke="#000" stroke-width="1.784" stroke-linecap="round" stroke-linejoin="round"/><path d="M19.738 6h-7.36s.815.251.943.689C14 9 16.016 14.673 16.016 14.673l1.669 4.932 1.947 5.77C20.153 26.92 18.485 27 18.485 27h7.362a1.14 1.14 0 0 0 .94-.49 1.18 1.18 0 0 0 .152-1.061L20.577 6.608A.888.888 0 0 0 19.738 6Z" stroke="#000" stroke-width="1.784" stroke-linecap="round" stroke-linejoin="round"/></svg>