<svg width="32" height="32" fill="none" xmlns="http://www.w3.org/2000/svg"><path d="M15.991 28.555c1.064 0 1.926-.624 1.926-1.394V15.074h-3.852v12.087c0 .77.862 1.394 1.926 1.394Z" fill="#000"/><path d="M23.01 16.825a6.304 6.304 0 0 0-7.247-1.193l7.787 7.787a.61.61 0 0 0 1.01-.238 6.3 6.3 0 0 0-1.55-6.356Zm-14.494 0a6.304 6.304 0 0 1 7.247-1.193l-7.787 7.787a.61.61 0 0 1-1.01-.238 6.3 6.3 0 0 1 1.55-6.356Z" fill="#fff" stroke="#000" stroke-width="2"/><path d="M22.433 10.781c-3.099 0-5.729 2.031-6.67 4.85h12.314a.681.681 0 0 0 .613-.983c-1.17-2.296-3.532-3.867-6.258-3.867Z" fill="#fff" stroke="#000" stroke-width="2"/><path d="M17.05 7.486c-2.192 2.192-2.615 5.486-1.287 8.146l8.708-8.708a.681.681 0 0 0-.262-1.13c-2.453-.795-5.233-.235-7.16 1.692Z" fill="#fff" stroke="#000" stroke-width="2"/><path d="M14.476 7.486c2.192 2.192 2.615 5.486 1.287 8.146L7.055 6.924a.681.681 0 0 1 .262-1.13C9.769 5 12.549 5.56 14.476 7.486Z" fill="#fff" stroke="#000" stroke-width="2"/><path d="M9.093 10.781c3.099 0 5.729 2.031 6.67 4.85H3.449a.681.681 0 0 1-.613-.983c1.17-2.296 3.532-3.867 6.257-3.867Z" fill="#fff" stroke="#000" stroke-width="2"/></svg>