<svg width="32" height="32" viewBox="0 0 32 32" fill="none" xmlns="http://www.w3.org/2000/svg">
<ellipse cx="15.9561" cy="16.0002" rx="4.3478" ry="4.34782" stroke="black" stroke-width="2"/>
<path d="M23.565 23.6087C21.6028 25.6211 18.8686 26.8696 15.8444 26.8696C10.2385 26.8696 5.6292 22.5797 5.08679 17.087" stroke="black" stroke-width="2" stroke-linecap="round"/>
<path d="M8.34753 8.23757C10.3138 6.31556 13.0073 5.13043 15.9784 5.13043C21.631 5.13043 26.2788 9.4203 26.8257 14.913" stroke="black" stroke-width="2" stroke-linecap="round"/>
<path d="M9.52158 9.47821C9.52158 10.7269 8.50936 11.7391 7.26073 11.7391C6.0121 11.7391 4.99988 10.7269 4.99988 9.47821C4.99988 8.22957 6.0121 7.21735 7.26073 7.21735C8.50936 7.21735 9.52158 8.22957 9.52158 9.47821Z" fill="black" stroke="black" stroke-width="2"/>
<path d="M28.0001 21.4348C28.0001 22.6834 26.9879 23.6956 25.7392 23.6956C24.4906 23.6956 23.4784 22.6834 23.4784 21.4348C23.4784 20.1861 24.4906 19.1739 25.7392 19.1739C26.9879 19.1739 28.0001 20.1861 28.0001 21.4348Z" fill="black" stroke="black" stroke-width="2"/>
</svg>
