<svg width="32" height="32" viewBox="0 0 32 32" fill="none" xmlns="http://www.w3.org/2000/svg">
<path d="M11 17.5V15.5C11 14.1193 12.1193 13 13.5 13V13C14.8807 13 16 14.1193 16 15.5V17" stroke="black" stroke-width="2" stroke-linecap="round" stroke-linejoin="round"/>
<path d="M16 17V14.5C16 13.1193 17.1193 12 18.5 12V12C19.8807 12 21 13.1193 21 14.5V17" stroke="black" stroke-width="2" stroke-linecap="round" stroke-linejoin="round"/>
<path d="M21.2845 16.9789L21.8249 7.49602C21.9034 6.11754 23.0846 5.06373 24.4631 5.1423V5.1423C25.8415 5.22086 26.8953 6.40201 26.8168 7.78048L25.9919 22.2553" stroke="black" stroke-width="2" stroke-linecap="round" stroke-linejoin="round"/>
<path d="M19 21.5H15.25C14.0074 21.5 13 20.4926 13 19.25C13 18.0074 14.0074 17 15.25 17H20.9375C23.7334 17 26 19.2665 26 22.0625C26 24.8091 23.8098 27.0547 21.064 27.1234L14.1999 27.295C9.72708 27.4068 6.03679 23.8298 6.00028 19.3644C5.99991 19.32 6.00037 19.2757 6.00093 19.2313C6.00307 19.0608 6.00761 18.5791 6.00001 18C5.95692 14.7192 5.37534 10.857 5.25725 10.1039C5.24334 10.0152 5.23096 9.92833 5.2272 9.83862C5.17198 8.5206 6.15615 7.37453 7.48448 7.24429C8.86059 7.10937 10.0855 8.11555 10.2204 9.49166L11.0038 17.5778C11.0887 18.4539 11.6714 19.2026 12.4999 19.5V19.5" stroke="black" stroke-width="2" stroke-linecap="round" stroke-linejoin="round"/>
<path d="M11 17.5V15.5C11 14.1193 12.1193 13 13.5 13C14.8807 13 16 14.1193 16 15.5V17V14.5C16 13.1193 17.1193 12 18.5 12C19.8807 12 21 13.1193 21 14.5V17M21.2846 16.9789L21.8249 7.49597C21.9035 6.11748 23.0847 5.06368 24.4631 5.14224C25.8416 5.22081 26.8954 6.40196 26.8168 7.78042L25.992 22.2553M19.0001 21.5H15.2501C14.0075 21.5 13.0001 20.4926 13.0001 19.25M13.0001 19.25C13.0001 18.0074 14.0075 17 15.2501 17H20.9376C23.7336 17 26.0001 19.2666 26.0001 22.0625C26.0001 24.8091 23.8099 27.0548 21.0641 27.1234L14.2001 27.295C9.72719 27.4068 6.0369 23.8298 6.00038 19.3644C6.00002 19.32 6.00048 19.2757 6.00104 19.2313C6.00317 19.0608 6.00772 18.5791 6.00011 18C5.95702 14.7192 5.37544 10.857 5.25735 10.1039C5.24344 10.0152 5.23107 9.92834 5.22731 9.83863C5.17209 8.52061 6.15626 7.37454 7.48458 7.2443C8.86069 7.10938 10.0856 8.11556 10.2205 9.49167L11.0039 17.5778C11.0706 18.2655 11.4439 18.8747 12.0021 19.2487C12.2987 19.4475 12.6807 19.4097 13.0001 19.25V19.25Z" stroke="black" stroke-width="2" stroke-linecap="round" stroke-linejoin="round"/>
</svg>
