<svg width="32" height="32" fill="none" xmlns="http://www.w3.org/2000/svg"><path d="M7 27.5c0-1.273.388-2.388.97-3-.582-.612-.97-1.727-.97-3 0-1.293.4-2.422.996-3.028A4.818 4.818 0 0 1 7 15.5c0-2.485 1.79-4.5 4-4.5l.1.001a5.002 5.002 0 0 1 9.8 0L21 11c2.21 0 4 2.015 4 4.5 0 1.139-.376 2.18-.996 2.972.595.606.996 1.735.996 3.028 0 1.273-.389 2.388-.97 3 .581.612.97 1.727.97 3H7Z" fill="#000" stroke="#000" stroke-width="2" stroke-linecap="round" stroke-linejoin="round"/><path d="M11 4c-2 0-1.833 4.5-1.5 7 1.2.8 2.833-1.667 3.5-3-.333-1.333-.5-4-2-4Zm10 0c2 0 1.833 4.5 1.5 7-.127 1.286-2.386-1.464-3.5-3 .333-1.333.5-4 2-4Z" fill="#fff" stroke="#000" stroke-width="2" stroke-linecap="round"/><circle cx="11" cy="15" r="1" fill="#fff"/><circle cx="21" cy="15" r="1" fill="#fff"/><path d="M13 17c0-2 2-2.5 3-2.5s3 .5 3 2.5-2 2.5-3 2.5-3-.5-3-2.5Z" stroke="#fff" stroke-width="1.5" stroke-linecap="round"/></svg>