<svg width="32" height="32" viewBox="0 0 32 32" fill="none" xmlns="http://www.w3.org/2000/svg">
<path d="M22.2691 4.35052C21.3032 4.16782 20.2957 4.34986 19.4435 4.86453C19.4406 4.86626 19.4389 4.86936 19.4389 4.8727C19.4389 4.87604 19.4371 4.87914 19.4343 4.88087L14.0566 8.13274C13.9162 8.21765 13.8304 8.36999 13.8304 8.5343V12.5379C13.8304 12.9016 14.2256 13.1269 14.5377 12.9412L21.1037 9.03398C21.2598 8.93709 21.4575 8.93709 21.624 9.03398L24.6428 10.8585C24.8574 10.9882 25.1384 10.9266 25.2553 10.7045C25.5875 10.0735 25.7653 9.3656 25.7653 8.63562C25.7549 7.61279 25.4012 6.62227 24.7664 5.83631C24.1317 5.05035 23.2368 4.52278 22.2691 4.35052Z" fill="black"/>
<path d="M15.78 18.5189C15.9254 18.6056 16.1063 18.607 16.253 18.5224L18.1969 17.4018C18.1981 17.4011 18.1994 17.4005 18.2008 17.4002V17.4002C18.2021 17.3998 18.2035 17.3997 18.2049 17.3994C18.2084 17.3984 18.211 17.3952 18.211 17.3914V14.8497C18.211 14.682 18.1217 14.5272 17.9768 14.4434L16.2315 13.4345C16.0852 13.3499 15.9047 13.3508 15.7593 13.4369L14.0604 14.4426C13.9178 14.527 13.8304 14.6805 13.8304 14.8464V17.0899C13.8304 17.2552 13.9173 17.4084 14.0591 17.493L15.78 18.5189Z" fill="black"/>
<path d="M9.39766 4.56585C8.76293 5.35181 8.40914 6.34234 8.40914 7.36516V13.8814C8.40914 14.0468 8.49606 14.1999 8.63791 14.2845L12.0717 16.3317C12.3838 16.5178 12.7794 16.2925 12.7794 15.9286V7.95733C12.7794 7.76353 12.8835 7.59126 13.0395 7.49436L16.0373 5.67937C16.2434 5.55459 16.3236 5.29205 16.2012 5.08429C15.8345 4.46174 15.3329 3.93563 14.7148 3.57532C13.8616 3.06929 12.8627 2.88626 11.8845 3.06929C10.9168 3.25233 10.0324 3.77989 9.39766 4.56585Z" fill="black"/>
<path d="M3.56023 12.5116C3.00874 13.5129 2.85266 14.6757 3.14401 15.7954C3.43537 16.9151 4.12212 17.8411 5.08982 18.4225L10.3676 21.6372C10.5138 21.7263 10.6968 21.7284 10.845 21.6427L14.2509 19.6736C14.5609 19.4943 14.5637 19.047 14.2558 18.864L7.62874 14.9233C7.47266 14.8264 7.3686 14.6541 7.3686 14.4603V10.8065C7.3686 10.5601 7.17787 10.3526 6.93213 10.3629C5.55582 10.4206 4.28532 11.2059 3.56023 12.5116Z" fill="black"/>
<path d="M9.75144 27.6387C10.7167 27.8212 11.7234 27.6396 12.5753 27.1257C12.5786 27.1238 12.5792 27.1192 12.5765 27.1165C12.5738 27.1137 12.5744 27.1092 12.5777 27.1072L17.9535 23.8564C18.094 23.7715 18.1798 23.6192 18.1798 23.4549V19.4401C18.1798 19.0788 17.7893 18.8532 17.4772 19.034L16.2935 19.7196C16.2747 19.7305 16.2543 19.7466 16.2351 19.7569C16.232 19.7586 16.2325 19.7584 16.2294 19.7602L10.8336 22.8691C10.7608 22.9121 10.6671 22.9337 10.5839 22.9337C10.5006 22.9337 10.407 22.9121 10.3237 22.8583L7.40846 21.0789C7.19422 20.9481 6.91277 21.0087 6.79412 21.2301C6.44874 21.8746 6.25523 22.603 6.25523 23.3535C6.26563 24.3764 6.61942 25.3777 7.25415 26.1529C7.88888 26.9388 8.78374 27.4664 9.75144 27.6387Z" fill="black"/>
<path d="M22.6229 27.4341C23.2472 26.6481 23.601 25.6576 23.601 24.6348V17.9933C23.601 17.8258 23.5118 17.671 23.3671 17.5872L19.9333 15.5992C19.6211 15.4185 19.2308 15.6442 19.2308 16.0053V24.0426C19.2308 24.2364 19.1267 24.4087 18.9706 24.5056L15.9729 26.3206C15.7668 26.4454 15.6866 26.7079 15.809 26.9157C16.1757 27.5382 16.6773 28.0643 17.2953 28.4246C18.159 28.9306 19.1579 29.1137 20.136 28.9306C21.1037 28.7476 21.9882 28.22 22.6229 27.4341Z" fill="black"/>
<path d="M24.6416 21.0935C24.6416 21.3411 24.8342 21.5491 25.0811 21.5375C26.4546 21.4726 27.7224 20.6979 28.4474 19.396C28.4485 19.394 28.4471 19.3914 28.4447 19.3914C28.4424 19.3914 28.4409 19.3889 28.442 19.3869C28.9915 18.3866 29.1467 17.2257 28.8557 16.1076C28.5644 14.9879 27.8776 14.062 26.9099 13.4806L21.5826 10.266C21.4351 10.1769 21.2506 10.1763 21.1024 10.2642L17.7142 12.2748C17.4059 12.4577 17.4086 12.9055 17.719 13.0847L24.371 16.9259C24.5375 17.0228 24.6416 17.2058 24.6416 17.3996V21.0935Z" fill="black"/>
</svg>
